<svg width="50" height="50" viewBox="0 0 50 50" fill="none" xmlns="http://www.w3.org/2000/svg">
<path d="M21.3299 27.3808C21.1705 27.7615 21.0188 28.1271 20.8672 28.4902C19.7327 31.2148 18.5982 33.9419 17.4663 36.6665C17.4192 36.7792 17.3643 36.8218 17.2336 36.8218C16.2141 36.8143 15.1946 36.8193 14.1751 36.8193C14.1255 36.8193 14.0732 36.8193 14 36.8193C14.1019 36.5789 14.1961 36.3585 14.2902 36.1406C15.4639 33.4336 16.6376 30.729 17.8114 28.0219C19.1445 24.9517 20.4777 21.879 21.8109 18.8088C22.5089 17.2011 23.2068 15.5909 23.9048 13.9832C24.208 13.2795 24.7701 12.9389 25.5595 13.009C26.0928 13.0566 26.5006 13.327 26.7176 13.7978C27.1201 14.6743 27.4966 15.5658 27.8808 16.4498C28.8167 18.606 29.7525 20.7596 30.6884 22.9158C31.9118 25.733 33.1352 28.5503 34.3586 31.3676C34.8422 32.4845 35.331 33.5988 35.8094 34.7157C35.9819 35.1189 36.0813 35.5321 35.914 35.9678C35.6656 36.6089 35.0304 37.0146 34.2828 36.9996C33.8541 36.9921 33.5064 36.8043 33.1848 36.5563C31.4517 35.2191 29.7238 33.8768 27.9932 32.537C25.8079 30.8417 23.6225 29.1513 21.4397 27.4585C21.4083 27.4359 21.377 27.4159 21.3299 27.3808ZM25.3896 17.6844C25.3582 17.7495 25.3373 17.7846 25.3216 17.8222C24.3544 20.1361 23.3898 22.45 22.4226 24.7614C22.3834 24.854 22.4095 24.8991 22.4854 24.9567C25.3635 27.1279 28.239 29.2991 31.1145 31.4702C31.1458 31.4928 31.1798 31.5128 31.2112 31.5328C31.219 31.5253 31.2243 31.5203 31.2321 31.5128C29.2872 26.9125 27.3423 22.3097 25.3896 17.6844Z" fill="#922BC4"/>
</svg>
