<svg width="50" height="50" viewBox="0 0 50 50" fill="none" xmlns="http://www.w3.org/2000/svg">
<path d="M30.4632 24.9858C30.7101 24.9153 30.9289 24.8588 31.19 24.7882C31.1194 25.2892 31.0488 25.7691 30.9783 26.2418C30.7878 27.4766 30.5972 28.7115 30.4138 29.9463C30.3573 30.3415 30.1739 30.6308 29.8352 30.8424C28.2899 31.788 26.7446 32.7335 25.1993 33.679C24.79 33.926 24.3878 33.926 23.9856 33.679C22.4332 32.7264 20.8809 31.7739 19.3285 30.8213C19.0251 30.6378 18.8417 30.3697 18.7852 30.0169C18.5241 28.2952 18.2631 26.5735 18.002 24.8518C17.9949 24.8306 18.009 24.8024 18.009 24.7459C18.2489 24.8094 18.4818 24.8729 18.7288 24.9435C18.4818 25.7267 18.6864 26.3759 19.3003 26.8698C20.0342 27.4625 20.8738 27.5754 21.7629 27.3002C22.3627 27.1168 22.8213 26.7499 23.1106 26.1642C23.2306 26.1995 23.3506 26.2206 23.4635 26.263C24.2749 26.5382 25.0864 26.5241 25.8978 26.2559C26.039 26.2065 26.1095 26.2418 26.1871 26.3688C27.0268 27.7166 29.2213 27.8153 30.195 26.5593C30.5549 26.0936 30.6466 25.5715 30.4632 24.9858ZM24.5713 31.5975C24.5783 31.5833 24.5783 31.5622 24.5854 31.5481C24.6348 31.5481 24.6912 31.541 24.7406 31.541C25.7638 31.414 26.5964 30.8213 27.4925 30.3979C27.7254 30.285 27.7042 29.904 27.4643 29.784C27.3373 29.7205 27.1327 29.7276 26.9986 29.784C26.4482 30.0239 25.919 30.285 25.3827 30.5461C24.8465 30.8072 24.3243 30.8072 23.788 30.5461C23.2588 30.285 22.7296 30.038 22.1933 29.7911C21.8899 29.6499 21.6782 29.7064 21.5653 29.9463C21.4666 30.165 21.5653 30.3697 21.8476 30.5037C22.4121 30.7719 22.9695 31.0541 23.5411 31.294C23.8727 31.4281 24.2255 31.4916 24.5713 31.5975Z" fill="#922BC4"/>
<path d="M35.0588 21.2178C34.4732 21.8811 33.9651 22.5444 33.3654 23.123C33.0761 23.3982 32.6386 23.5534 32.2434 23.6663C29.9713 24.3155 27.6922 24.9364 25.4131 25.5715C24.9121 25.7126 24.4111 25.7056 23.903 25.5644C21.5816 24.9153 19.2601 24.2873 16.9456 23.624C16.5999 23.5252 16.2189 23.377 15.9719 23.1301C15.3792 22.5444 14.857 21.8952 14.3066 21.2672" fill="#922BC4"/>
<path d="M14.3477 21.1825C14.7993 21.119 15.2508 21.0555 15.6954 20.992C16.7256 20.8509 17.7558 20.7168 18.7789 20.5757C19.0118 20.5404 19.2164 20.5616 19.4422 20.6674C20.4724 21.1614 21.5097 21.6341 22.5469 22.121C23.8947 22.749 25.2494 22.7631 26.6042 22.1563C27.5709 21.7259 28.5376 21.3025 29.4831 20.8368C29.963 20.6039 30.4216 20.5334 30.9508 20.618C32.228 20.8156 33.5122 20.9708 34.7964 21.1473" fill="#922BC4"/>
<path d="M24.6358 21.8035C24.0219 21.8106 23.4645 21.6765 22.9282 21.4295C21.898 20.9497 20.8749 20.4699 19.8447 19.9971C19.7106 19.9336 19.64 19.8772 19.6683 19.7078C19.9505 18.0708 20.2116 16.4338 20.4868 14.7897C20.5644 14.324 20.8466 14.0205 21.3053 13.8865C22.3143 13.6042 23.3163 13.3079 24.3253 13.0397C24.53 12.9833 24.7699 12.9903 24.9745 13.0397C25.9765 13.3008 26.9714 13.5901 27.9734 13.8724C28.4603 14.0135 28.7425 14.331 28.8272 14.8391C29.0953 16.462 29.3634 18.0849 29.6457 19.7008C29.6739 19.856 29.6175 19.9195 29.4905 19.976C28.4109 20.4628 27.3313 20.9568 26.2517 21.4436C25.7295 21.6835 25.1862 21.8106 24.6358 21.8035ZM22.907 15.4459C22.907 15.8058 22.9 16.1656 22.907 16.5255C22.9141 16.836 23.0482 16.9841 23.3516 16.9912C23.775 16.9982 24.1983 16.9982 24.6217 16.9912C24.9039 16.9841 25.0521 16.8501 25.0592 16.5678C25.0662 15.841 25.0662 15.1072 25.0592 14.3804C25.0592 14.0982 24.911 13.9641 24.6288 13.957C24.2054 13.95 23.782 13.95 23.3586 13.957C23.0552 13.9641 22.9141 14.1052 22.907 14.4157C22.907 14.7614 22.907 15.1001 22.907 15.4459ZM24.2689 19.3056C24.2689 19.6655 24.2618 20.0253 24.2689 20.3852C24.2759 20.6957 24.41 20.8297 24.7275 20.8297C25.1297 20.8368 25.539 20.8368 25.9412 20.8297C26.2658 20.8297 26.4069 20.6957 26.4069 20.364C26.414 19.6584 26.414 18.9599 26.4069 18.2542C26.4069 17.9367 26.2728 17.7956 25.9624 17.7956C25.5461 17.7885 25.1368 17.7885 24.7205 17.7956C24.403 17.8026 24.2759 17.9297 24.2689 18.2472C24.2618 18.6071 24.2689 18.9599 24.2689 19.3056ZM26.3999 15.4741C26.3999 15.1142 26.4069 14.7544 26.3999 14.3945C26.3928 14.1123 26.2587 13.957 26.0188 13.957C25.7789 13.95 25.6166 14.1052 25.6166 14.3804C25.6096 15.1072 25.6096 15.834 25.6166 16.5678C25.6166 16.836 25.7789 16.9982 26.0188 16.9912C26.2587 16.9912 26.3999 16.836 26.4069 16.5608C26.4069 16.1938 26.3999 15.834 26.3999 15.4741ZM23.6973 19.3409C23.6973 18.974 23.7044 18.6 23.6973 18.2331C23.6903 17.9649 23.535 17.8026 23.3022 17.8026C23.0693 17.8026 22.907 17.9649 22.907 18.2331C22.9 18.9528 22.9 19.6725 22.907 20.3923C22.907 20.6745 23.0764 20.8439 23.3163 20.8368C23.5492 20.8297 23.6903 20.6675 23.6973 20.3923C23.7044 20.0395 23.6973 19.6866 23.6973 19.3409Z" fill="#922BC4"/>
<path d="M21.6584 36.5297C20.5647 35.8594 19.464 35.1961 18.3703 34.5258C17.4812 33.9754 16.8038 33.2274 16.3381 32.2889C15.2514 30.0804 14.1648 27.8718 13.0781 25.6632" fill="#922BC4"/>
<path d="M13 25.4586C14.4818 25.6138 15.9001 25.7549 17.3537 25.9102C17.4454 26.4888 17.5301 27.0603 17.6218 27.6319C17.7488 28.4715 17.8688 29.3183 18.0028 30.165C18.1016 30.7648 18.4333 31.2093 18.9484 31.5269C20.3172 32.3595 21.6791 33.1992 23.0409 34.0389C23.1256 34.0883 23.2032 34.1447 23.3161 34.2153C22.8151 35.0197 22.3212 35.81 21.8202 36.6144" fill="#922BC4"/>
<path d="M27.3877 36.6214C26.8867 35.817 26.3928 35.0197 25.8848 34.2012C26.2446 33.9824 26.5833 33.7707 26.9291 33.5591C28.0087 32.8958 29.0812 32.2254 30.1679 31.5763C30.7817 31.2094 31.1204 30.7013 31.2192 29.9957C31.3956 28.7185 31.6003 27.4414 31.7978 26.1642C31.8119 26.0866 31.8331 26.009 31.8543 25.9172C33.3079 25.7691 34.7261 25.6209 36.2009 25.4656" fill="#922BC4"/>
<path d="M36.06 25.7549C35.0157 27.8859 33.9643 30.0098 32.92 32.1408C32.4049 33.1992 31.6499 34.0318 30.6409 34.6387C29.653 35.2314 28.6722 35.8382 27.6914 36.438" fill="#922BC4"/>
<path d="M22.314 25.9455C21.9965 26.4676 21.2979 26.7428 20.6276 26.6228C20.2536 26.5593 19.9149 26.4253 19.6609 26.136C19.421 25.8608 19.3434 25.5574 19.5127 25.1763C19.9784 25.3033 20.4371 25.4233 20.8957 25.5574C21.3544 25.6773 21.8201 25.8114 22.314 25.9455Z" fill="#922BC4"/>
<path d="M26.8926 25.9737C27.8381 25.7126 28.7554 25.4586 29.6798 25.2046C29.835 25.5433 29.7644 25.8326 29.5598 26.0866C28.9883 26.8205 27.5347 26.8205 26.9561 26.0937C26.9349 26.0654 26.9208 26.0302 26.8926 25.9737Z" fill="#922BC4"/>
<path d="M24.2402 16.1868C24.0567 16.1868 23.8944 16.1868 23.7109 16.1868C23.7109 15.714 23.7109 15.2554 23.7109 14.7685C23.8803 14.7685 24.0496 14.7685 24.2402 14.7685C24.2402 15.2271 24.2402 15.6929 24.2402 16.1868Z" fill="#922BC4"/>
<path d="M25.0801 18.6C25.2635 18.6 25.4188 18.6 25.5881 18.6C25.5881 19.0798 25.5881 19.5455 25.5881 20.0253C25.4188 20.0253 25.2565 20.0253 25.0801 20.0253C25.0801 19.5596 25.0801 19.0939 25.0801 18.6Z" fill="#922BC4"/>
</svg>
