<svg width="589" height="381" viewBox="0 0 589 381" fill="none" xmlns="http://www.w3.org/2000/svg">
<path opacity="0.27" d="M203.346 315.15C203.346 320.038 199.383 324 194.495 324C203.346 324 188.595 324 183.236 324C177.876 324 176.997 324 171.859 324C166.721 324 141.036 324 135.721 324C141.213 324 130.405 324 135.721 324C141.213 324 130.228 324 135.721 324L135.72 79C135.72 71.268 141.988 65 149.72 65L189.346 65C197.078 65 203.346 71.268 203.346 79L203.346 315.15Z" fill="#8659FF"/>
<path opacity="0.27" d="M507.872 315.15C507.872 320.038 503.91 324 499.022 324C507.872 324 493.121 324 487.762 324C482.403 324 481.523 324 476.385 324C471.247 324 445.562 324 440.247 324C445.739 324 434.932 324 440.247 324C445.739 324 434.755 324 440.247 324L440.247 79C440.247 71.268 446.515 65 454.247 65L493.872 65C501.604 65 507.872 71.268 507.872 79L507.872 315.15Z" fill="#8659FF"/>
<path opacity="0.27" d="M127.213 315.15C127.213 320.038 123.25 324 118.362 324C127.213 324 112.462 324 107.103 324C101.743 324 100.864 324 95.7258 324C90.5878 324 64.903 324 59.5878 324C65.0801 324 54.2727 324 59.5878 324C65.0801 324 54.0955 324 59.5878 324L59.5877 68C59.5877 60.268 65.8557 54 73.5877 54L113.213 54C120.945 54 127.213 60.268 127.213 68L127.213 315.15Z" fill="#8659FF"/>
<path opacity="0.27" d="M126.448 71.2471C126.448 76.0812 122.529 80 117.695 80C126.448 80 111.86 80 106.56 80C101.259 80 100.389 80 95.3082 80C90.2268 80 64.825 80 59.5685 80C65.0002 80 54.3119 80 59.5685 80C65.0002 80 54.1367 80 59.5685 80L59.5684 68.0001C59.5683 60.2681 65.8364 54 73.5684 54L113.448 54C120.628 54 126.448 59.8202 126.448 66.9999L126.448 71.2471Z" fill="#FF0000"/>
<path opacity="0.27" d="M584.001 315.15C584.001 320.038 580.039 324 575.151 324C584.001 324 569.25 324 563.891 324C558.531 324 557.652 324 552.514 324C547.376 324 521.691 324 516.376 324C521.868 324 511.061 324 516.376 324C521.868 324 510.884 324 516.376 324L516.376 68C516.376 60.268 522.644 54 530.376 54L570.001 54C577.733 54 584.001 60.268 584.001 68L584.001 315.15Z" fill="#8659FF"/>
<path opacity="0.27" d="M583.437 71.2471C583.437 76.0812 579.519 80 574.685 80C583.437 80 568.849 80 563.549 80C558.249 80 557.379 80 552.297 80C547.216 80 521.814 80 516.558 80C521.989 80 511.301 80 516.558 80C521.989 80 511.126 80 516.558 80L516.558 68.0001C516.558 60.2681 522.826 54 530.558 54L570.437 54C577.617 54 583.437 59.8202 583.437 66.9999L583.437 71.2471Z" fill="#FF0000"/>
<path opacity="0.27" d="M279.473 315.15C279.473 320.038 275.51 324 270.622 324C279.473 324 264.722 324 259.363 324C254.003 324 253.124 324 247.986 324C242.848 324 217.163 324 211.848 324C217.34 324 206.532 324 211.848 324C217.34 324 206.355 324 211.848 324L211.847 75C211.847 67.268 218.115 61 225.847 61L265.473 61C273.204 61 279.473 67.268 279.473 75L279.473 315.15Z" fill="#8659FF"/>
<path opacity="0.27" d="M279.449 78.2471C279.449 83.0812 275.53 87 270.696 87C279.449 87 264.861 87 259.561 87C254.26 87 253.39 87 248.309 87C243.228 87 217.826 87 212.569 87C218.001 87 207.313 87 212.569 87C218.001 87 207.138 87 212.569 87L212.569 75.0001C212.569 67.2681 218.837 61 226.569 61L266.449 61C273.629 61 279.449 66.8202 279.449 73.9999L279.449 78.2471Z" fill="#FF0000"/>
<path opacity="0.27" d="M355.605 315.15C355.605 320.038 351.643 324 346.755 324C355.605 324 340.855 324 335.495 324C330.136 324 329.256 324 324.118 324C318.98 324 293.296 324 287.98 324C293.473 324 282.665 324 287.98 324C293.473 324 282.488 324 287.98 324L287.98 75C287.98 67.268 294.248 61 301.98 61L341.605 61C349.337 61 355.605 67.268 355.605 75L355.605 315.15Z" fill="#8659FF"/>
<path opacity="0.27" d="M355.949 77.9897C355.949 82.9659 351.915 87 346.939 87C355.949 87 340.932 87 335.476 87C330.02 87 329.124 87 323.893 87C318.662 87 292.514 87 287.102 87C292.694 87 281.691 87 287.102 87C292.694 87 281.511 87 287.102 87L287.102 75.0001C287.102 67.2681 293.37 61 301.102 61L342.949 61C350.129 61 355.949 66.8202 355.949 73.9999L355.949 77.9897Z" fill="#FF0000"/>
<path opacity="0.27" d="M431.736 315.15C431.736 320.038 427.774 324 422.886 324C431.736 324 416.986 324 411.626 324C406.267 324 405.387 324 400.249 324C395.111 324 369.426 324 364.111 324C369.604 324 358.796 324 364.111 324C369.604 324 358.619 324 364.111 324L364.111 75C364.111 67.268 370.379 61 378.111 61L417.736 61C425.468 61 431.736 67.268 431.736 75L431.736 315.15Z" fill="#8659FF"/>
<path opacity="0.27" d="M432.449 77.9897C432.449 82.9659 428.415 87 423.439 87C432.449 87 417.432 87 411.976 87C406.52 87 405.624 87 400.393 87C395.162 87 369.014 87 363.602 87C369.194 87 358.191 87 363.602 87C369.194 87 358.011 87 363.602 87L363.602 75.0001C363.602 67.2681 369.87 61 377.602 61L419.449 61C426.629 61 432.449 66.8202 432.449 73.9999L432.449 77.9897Z" fill="#FF0000"/>
<path opacity="0.4" d="M4.96 18.224C4.192 18.224 3.504 18.0747 2.896 17.776C2.29867 17.4667 1.824 17.0293 1.472 16.464C1.13067 15.8987 0.96 15.2267 0.96 14.448V10.544C0.96 9.70133 1.12533 8.98667 1.456 8.4C1.78667 7.81333 2.25067 7.36533 2.848 7.056C3.456 6.736 4.176 6.576 5.008 6.576C5.82933 6.576 6.528 6.72533 7.104 7.024C7.69067 7.312 8.13333 7.712 8.432 8.224C8.74133 8.72533 8.896 9.30667 8.896 9.968H7.584C7.584 9.30667 7.37067 8.77333 6.944 8.368C6.51733 7.952 5.872 7.744 5.008 7.744C4.13333 7.744 3.456 7.984 2.976 8.464C2.496 8.93333 2.256 9.584 2.256 10.416V11.968H2.48C2.672 11.648 2.992 11.3547 3.44 11.088C3.888 10.8107 4.512 10.672 5.312 10.672C5.984 10.672 6.59733 10.8213 7.152 11.12C7.70667 11.4187 8.14933 11.84 8.48 12.384C8.81067 12.928 8.976 13.5733 8.976 14.32V14.512C8.976 15.2693 8.8 15.9253 8.448 16.48C8.10667 17.0347 7.632 17.4667 7.024 17.776C6.416 18.0747 5.728 18.224 4.96 18.224ZM4.96 17.056C5.77067 17.056 6.42667 16.8267 6.928 16.368C7.42933 15.9093 7.68 15.2853 7.68 14.496V14.368C7.68 13.8347 7.56267 13.376 7.328 12.992C7.104 12.608 6.78933 12.3093 6.384 12.096C5.97867 11.872 5.504 11.76 4.96 11.76C4.42667 11.76 3.95733 11.872 3.552 12.096C3.14667 12.3093 2.82667 12.608 2.592 12.992C2.368 13.376 2.256 13.8347 2.256 14.368V14.496C2.256 15.2853 2.50667 15.9093 3.008 16.368C3.50933 16.8267 4.16 17.056 4.96 17.056ZM14.9169 18.224C13.6475 18.224 12.6342 17.8507 11.8769 17.104C11.1302 16.3467 10.7569 15.216 10.7569 13.712V11.088C10.7569 9.59467 11.1302 8.46933 11.8769 7.712C12.6342 6.95467 13.6475 6.576 14.9169 6.576C16.1969 6.576 17.2102 6.95467 17.9569 7.712C18.7142 8.46933 19.0929 9.59467 19.0929 11.088V13.712C19.0929 15.216 18.7142 16.3467 17.9569 17.104C17.2102 17.8507 16.1969 18.224 14.9169 18.224ZM14.9169 17.056C15.8769 17.056 16.5969 16.768 17.0769 16.192C17.5569 15.616 17.7969 14.8107 17.7969 13.776V11.008C17.7969 9.97333 17.5515 9.17333 17.0609 8.608C16.5702 8.032 15.8555 7.744 14.9169 7.744C13.9782 7.744 13.2635 8.032 12.7729 8.608C12.2929 9.184 12.0529 9.984 12.0529 11.008V13.776C12.0529 14.8213 12.2929 15.632 12.7729 16.208C13.2529 16.7733 13.9675 17.056 14.9169 17.056ZM25.1669 18.224C23.8975 18.224 22.8842 17.8507 22.1269 17.104C21.3802 16.3467 21.0069 15.216 21.0069 13.712V11.088C21.0069 9.59467 21.3802 8.46933 22.1269 7.712C22.8842 6.95467 23.8975 6.576 25.1669 6.576C26.4469 6.576 27.4602 6.95467 28.2069 7.712C28.9642 8.46933 29.3429 9.59467 29.3429 11.088V13.712C29.3429 15.216 28.9642 16.3467 28.2069 17.104C27.4602 17.8507 26.4469 18.224 25.1669 18.224ZM25.1669 17.056C26.1269 17.056 26.8469 16.768 27.3269 16.192C27.8069 15.616 28.0469 14.8107 28.0469 13.776V11.008C28.0469 9.97333 27.8015 9.17333 27.3109 8.608C26.8202 8.032 26.1055 7.744 25.1669 7.744C24.2282 7.744 23.5135 8.032 23.0229 8.608C22.5429 9.184 22.3029 9.984 22.3029 11.008V13.776C22.3029 14.8213 22.5429 15.632 23.0229 16.208C23.5029 16.7733 24.2175 17.056 25.1669 17.056Z" fill="black"/>
<path opacity="0.4" d="M6.352 96V93.712H0.512V92.176L5.216 84.8H7.648V92.544H9.568V93.712H7.648V96H6.352ZM1.808 92.544H6.352V85.584H6.128L1.808 92.352V92.544ZM14.832 96.224C14.0107 96.224 13.3013 96.0693 12.704 95.76C12.1067 95.44 11.6427 95.0027 11.312 94.448C10.9813 93.8827 10.816 93.232 10.816 92.496V92.304H12.112V92.448C12.112 93.2907 12.3573 93.936 12.848 94.384C13.3387 94.832 13.9893 95.056 14.8 95.056C15.6533 95.056 16.32 94.816 16.8 94.336C17.28 93.856 17.52 93.2 17.52 92.368V92.224C17.52 91.424 17.2853 90.7893 16.816 90.32C16.3573 89.84 15.76 89.6 15.024 89.6C14.5973 89.6 14.2453 89.6693 13.968 89.808C13.6907 89.936 13.472 90.1013 13.312 90.304C13.152 90.496 13.0187 90.6827 12.912 90.864H11.152V84.8H18.512V85.968H12.448V89.84H12.672C12.7893 89.6267 12.9493 89.4187 13.152 89.216C13.3653 89.0133 13.648 88.8427 14 88.704C14.352 88.5653 14.7893 88.496 15.312 88.496C15.9627 88.496 16.5493 88.6453 17.072 88.944C17.6053 89.2427 18.0267 89.6693 18.336 90.224C18.656 90.7787 18.816 91.44 18.816 92.208V92.384C18.816 93.1413 18.656 93.808 18.336 94.384C18.016 94.96 17.5573 95.4133 16.96 95.744C16.3627 96.064 15.6533 96.224 14.832 96.224ZM24.6981 96.224C23.4288 96.224 22.4155 95.8507 21.6581 95.104C20.9115 94.3467 20.5381 93.216 20.5381 91.712V89.088C20.5381 87.5947 20.9115 86.4693 21.6581 85.712C22.4155 84.9547 23.4288 84.576 24.6981 84.576C25.9781 84.576 26.9915 84.9547 27.7381 85.712C28.4955 86.4693 28.8741 87.5947 28.8741 89.088V91.712C28.8741 93.216 28.4955 94.3467 27.7381 95.104C26.9915 95.8507 25.9781 96.224 24.6981 96.224ZM24.6981 95.056C25.6581 95.056 26.3781 94.768 26.8581 94.192C27.3381 93.616 27.5781 92.8107 27.5781 91.776V89.008C27.5781 87.9733 27.3328 87.1733 26.8421 86.608C26.3515 86.032 25.6368 85.744 24.6981 85.744C23.7595 85.744 23.0448 86.032 22.5541 86.608C22.0741 87.184 21.8341 87.984 21.8341 89.008V91.776C21.8341 92.8213 22.0741 93.632 22.5541 94.208C23.0341 94.7733 23.7488 95.056 24.6981 95.056Z" fill="black"/>
<path opacity="0.4" d="M4.848 174.224C4.05867 174.224 3.34933 174.075 2.72 173.776C2.10133 173.477 1.61067 173.045 1.248 172.48C0.896 171.915 0.72 171.232 0.72 170.432V170.128H2.016V170.416C2.016 171.237 2.27733 171.883 2.8 172.352C3.32267 172.821 4.00533 173.056 4.848 173.056C5.70133 173.056 6.36267 172.837 6.832 172.4C7.312 171.952 7.552 171.392 7.552 170.72V170.592C7.552 170.101 7.43467 169.707 7.2 169.408C6.96533 169.099 6.64533 168.875 6.24 168.736C5.84533 168.587 5.408 168.512 4.928 168.512H3.104V166.896L7.376 164.16V163.968H0.992V162.8H8.752V164.608L4.576 167.296V167.488H5.376C6.00533 167.488 6.58133 167.605 7.104 167.84C7.63733 168.064 8.05867 168.405 8.368 168.864C8.688 169.312 8.848 169.877 8.848 170.56V170.736C8.848 171.44 8.68267 172.053 8.352 172.576C8.02133 173.099 7.55733 173.504 6.96 173.792C6.36267 174.08 5.65867 174.224 4.848 174.224ZM14.7763 174.224C13.5069 174.224 12.4936 173.851 11.7363 173.104C10.9896 172.347 10.6163 171.216 10.6163 169.712V167.088C10.6163 165.595 10.9896 164.469 11.7363 163.712C12.4936 162.955 13.5069 162.576 14.7763 162.576C16.0563 162.576 17.0696 162.955 17.8163 163.712C18.5736 164.469 18.9523 165.595 18.9523 167.088V169.712C18.9523 171.216 18.5736 172.347 17.8163 173.104C17.0696 173.851 16.0563 174.224 14.7763 174.224ZM14.7763 173.056C15.7363 173.056 16.4563 172.768 16.9363 172.192C17.4163 171.616 17.6562 170.811 17.6562 169.776V167.008C17.6562 165.973 17.4109 165.173 16.9203 164.608C16.4296 164.032 15.7149 163.744 14.7763 163.744C13.8376 163.744 13.1229 164.032 12.6323 164.608C12.1523 165.184 11.9123 165.984 11.9123 167.008V169.776C11.9123 170.821 12.1523 171.632 12.6323 172.208C13.1123 172.773 13.8269 173.056 14.7763 173.056ZM25.0263 174.224C23.7569 174.224 22.7436 173.851 21.9863 173.104C21.2396 172.347 20.8663 171.216 20.8663 169.712V167.088C20.8663 165.595 21.2396 164.469 21.9863 163.712C22.7436 162.955 23.7569 162.576 25.0263 162.576C26.3063 162.576 27.3196 162.955 28.0663 163.712C28.8236 164.469 29.2023 165.595 29.2023 167.088V169.712C29.2023 171.216 28.8236 172.347 28.0663 173.104C27.3196 173.851 26.3063 174.224 25.0263 174.224ZM25.0263 173.056C25.9863 173.056 26.7063 172.768 27.1863 172.192C27.6663 171.616 27.9062 170.811 27.9062 169.776V167.008C27.9062 165.973 27.6609 165.173 27.1703 164.608C26.6796 164.032 25.9649 163.744 25.0263 163.744C24.0876 163.744 23.3729 164.032 22.8823 164.608C22.4023 165.184 22.1623 165.984 22.1623 167.008V169.776C22.1623 170.821 22.4023 171.632 22.8823 172.208C23.3623 172.773 24.0769 173.056 25.0263 173.056Z" fill="black"/>
<path opacity="0.4" d="M4.112 252V241.664H3.872L1.696 245.648H0.288L2.96 240.8H5.408V252H4.112ZM11.5195 252.224C10.6982 252.224 9.98883 252.069 9.3915 251.76C8.79417 251.44 8.33017 251.003 7.9995 250.448C7.66883 249.883 7.5035 249.232 7.5035 248.496V248.304H8.7995V248.448C8.7995 249.291 9.04483 249.936 9.5355 250.384C10.0262 250.832 10.6768 251.056 11.4875 251.056C12.3408 251.056 13.0075 250.816 13.4875 250.336C13.9675 249.856 14.2075 249.2 14.2075 248.368V248.224C14.2075 247.424 13.9728 246.789 13.5035 246.32C13.0448 245.84 12.4475 245.6 11.7115 245.6C11.2848 245.6 10.9328 245.669 10.6555 245.808C10.3782 245.936 10.1595 246.101 9.9995 246.304C9.8395 246.496 9.70617 246.683 9.5995 246.864H7.8395V240.8H15.1995V241.968H9.1355V245.84H9.3595C9.47683 245.627 9.63683 245.419 9.8395 245.216C10.0528 245.013 10.3355 244.843 10.6875 244.704C11.0395 244.565 11.4768 244.496 11.9995 244.496C12.6502 244.496 13.2368 244.645 13.7595 244.944C14.2928 245.243 14.7142 245.669 15.0235 246.224C15.3435 246.779 15.5035 247.44 15.5035 248.208V248.384C15.5035 249.141 15.3435 249.808 15.0235 250.384C14.7035 250.96 14.2448 251.413 13.6475 251.744C13.0502 252.064 12.3408 252.224 11.5195 252.224ZM21.3856 252.224C20.1163 252.224 19.103 251.851 18.3456 251.104C17.599 250.347 17.2256 249.216 17.2256 247.712V245.088C17.2256 243.595 17.599 242.469 18.3456 241.712C19.103 240.955 20.1163 240.576 21.3856 240.576C22.6656 240.576 23.679 240.955 24.4256 241.712C25.183 242.469 25.5616 243.595 25.5616 245.088V247.712C25.5616 249.216 25.183 250.347 24.4256 251.104C23.679 251.851 22.6656 252.224 21.3856 252.224ZM21.3856 251.056C22.3456 251.056 23.0656 250.768 23.5456 250.192C24.0256 249.616 24.2656 248.811 24.2656 247.776V245.008C24.2656 243.973 24.0203 243.173 23.5296 242.608C23.039 242.032 22.3243 241.744 21.3856 241.744C20.447 241.744 19.7323 242.032 19.2416 242.608C18.7616 243.184 18.5216 243.984 18.5216 245.008V247.776C18.5216 248.821 18.7616 249.632 19.2416 250.208C19.7216 250.773 20.4363 251.056 21.3856 251.056Z" fill="black"/>
<path opacity="0.4" d="M5.12 330.224C3.85067 330.224 2.83733 329.851 2.08 329.104C1.33333 328.347 0.96 327.216 0.96 325.712V323.088C0.96 321.595 1.33333 320.469 2.08 319.712C2.83733 318.955 3.85067 318.576 5.12 318.576C6.4 318.576 7.41333 318.955 8.16 319.712C8.91733 320.469 9.296 321.595 9.296 323.088V325.712C9.296 327.216 8.91733 328.347 8.16 329.104C7.41333 329.851 6.4 330.224 5.12 330.224ZM5.12 329.056C6.08 329.056 6.8 328.768 7.28 328.192C7.76 327.616 8 326.811 8 325.776V323.008C8 321.973 7.75467 321.173 7.264 320.608C6.77333 320.032 6.05867 319.744 5.12 319.744C4.18133 319.744 3.46667 320.032 2.976 320.608C2.496 321.184 2.256 321.984 2.256 323.008V325.776C2.256 326.821 2.496 327.632 2.976 328.208C3.456 328.773 4.17067 329.056 5.12 329.056Z" fill="black"/>
<path opacity="0.4" d="M62.4403 375.224C61.171 375.224 60.1576 374.851 59.4003 374.104C58.6536 373.347 58.2803 372.216 58.2803 370.712V368.088C58.2803 366.595 58.6536 365.469 59.4003 364.712C60.1576 363.955 61.171 363.576 62.4403 363.576C63.7203 363.576 64.7336 363.955 65.4803 364.712C66.2376 365.469 66.6163 366.595 66.6163 368.088V370.712C66.6163 372.216 66.2376 373.347 65.4803 374.104C64.7336 374.851 63.7203 375.224 62.4403 375.224ZM62.4403 374.056C63.4003 374.056 64.1203 373.768 64.6003 373.192C65.0803 372.616 65.3203 371.811 65.3203 370.776V368.008C65.3203 366.973 65.075 366.173 64.5843 365.608C64.0936 365.032 63.379 364.744 62.4403 364.744C61.5016 364.744 60.787 365.032 60.2963 365.608C59.8163 366.184 59.5763 366.984 59.5763 368.008V370.776C59.5763 371.821 59.8163 372.632 60.2963 373.208C60.7763 373.773 61.491 374.056 62.4403 374.056ZM71.6823 375V364.664H71.4423L69.2663 368.648H67.8583L70.5303 363.8H72.9783V375H71.6823ZM79.6472 375V363.8H86.4152V365.016H80.9912V368.776H85.9832V369.992H80.9912V375H79.6472ZM91.8261 375.224C91.0367 375.224 90.3434 375.059 89.7461 374.728C89.1487 374.387 88.6847 373.912 88.3541 373.304C88.0234 372.696 87.8581 371.992 87.8581 371.192V371C87.8581 370.189 88.0234 369.48 88.3541 368.872C88.6847 368.264 89.1434 367.795 89.7301 367.464C90.3167 367.123 90.9887 366.952 91.7461 366.952C92.4821 366.952 93.1327 367.112 93.6981 367.432C94.2634 367.741 94.7061 368.189 95.0261 368.776C95.3461 369.363 95.5061 370.051 95.5061 370.84V371.416H89.1221C89.1541 372.259 89.4261 372.92 89.9381 373.4C90.4501 373.869 91.0901 374.104 91.8581 374.104C92.5301 374.104 93.0474 373.949 93.4101 373.64C93.7727 373.331 94.0501 372.963 94.2421 372.536L95.3301 373.064C95.1701 373.395 94.9461 373.725 94.6581 374.056C94.3807 374.387 94.0127 374.664 93.5541 374.888C93.1061 375.112 92.5301 375.224 91.8261 375.224ZM89.1381 370.376H94.2261C94.1834 369.651 93.9327 369.085 93.4741 368.68C93.0261 368.275 92.4501 368.072 91.7461 368.072C91.0314 368.072 90.4447 368.275 89.9861 368.68C89.5274 369.085 89.2447 369.651 89.1381 370.376ZM102.047 375.224C101.236 375.224 100.601 375.069 100.143 374.76C99.6948 374.451 99.3695 374.099 99.1668 373.704H98.9428V375H97.7108V363.8H98.9748V368.408H99.1988C99.3268 368.163 99.5081 367.933 99.7428 367.72C99.9775 367.496 100.281 367.315 100.655 367.176C101.039 367.027 101.503 366.952 102.047 366.952C102.729 366.952 103.348 367.117 103.903 367.448C104.468 367.768 104.916 368.232 105.247 368.84C105.577 369.437 105.743 370.152 105.743 370.984V371.192C105.743 372.024 105.572 372.744 105.231 373.352C104.9 373.96 104.452 374.424 103.887 374.744C103.332 375.064 102.719 375.224 102.047 375.224ZM101.711 374.104C102.521 374.104 103.177 373.848 103.679 373.336C104.191 372.813 104.447 372.088 104.447 371.16V371.016C104.447 370.088 104.191 369.368 103.679 368.856C103.177 368.333 102.521 368.072 101.711 368.072C100.911 368.072 100.249 368.333 99.7268 368.856C99.2148 369.368 98.9588 370.088 98.9588 371.016V371.16C98.9588 372.088 99.2148 372.813 99.7268 373.336C100.249 373.848 100.911 374.104 101.711 374.104Z" fill="black"/>
<path opacity="0.4" d="M128.464 375.224C127.194 375.224 126.181 374.851 125.424 374.104C124.677 373.347 124.304 372.216 124.304 370.712V368.088C124.304 366.595 124.677 365.469 125.424 364.712C126.181 363.955 127.194 363.576 128.464 363.576C129.744 363.576 130.757 363.955 131.504 364.712C132.261 365.469 132.64 366.595 132.64 368.088V370.712C132.64 372.216 132.261 373.347 131.504 374.104C130.757 374.851 129.744 375.224 128.464 375.224ZM128.464 374.056C129.424 374.056 130.144 373.768 130.624 373.192C131.104 372.616 131.344 371.811 131.344 370.776V368.008C131.344 366.973 131.098 366.173 130.608 365.608C130.117 365.032 129.402 364.744 128.464 364.744C127.525 364.744 126.81 365.032 126.32 365.608C125.84 366.184 125.6 366.984 125.6 368.008V370.776C125.6 371.821 125.84 372.632 126.32 373.208C126.8 373.773 127.514 374.056 128.464 374.056ZM134.442 375V373.832C134.442 373.032 134.58 372.392 134.858 371.912C135.146 371.432 135.54 371.048 136.042 370.76C136.554 370.461 137.162 370.205 137.866 369.992L138.746 369.72C139.226 369.571 139.647 369.389 140.01 369.176C140.372 368.952 140.655 368.675 140.858 368.344C141.06 368.003 141.162 367.587 141.162 367.096V367.032C141.162 366.328 140.916 365.773 140.426 365.368C139.935 364.952 139.306 364.744 138.538 364.744C137.727 364.744 137.066 364.963 136.554 365.4C136.042 365.827 135.786 366.477 135.786 367.352V367.576H134.506V367.368C134.506 366.557 134.682 365.869 135.034 365.304C135.386 364.739 135.866 364.312 136.474 364.024C137.082 363.725 137.77 363.576 138.538 363.576C139.306 363.576 139.983 363.72 140.57 364.008C141.167 364.296 141.631 364.696 141.962 365.208C142.292 365.72 142.458 366.317 142.458 367V367.144C142.458 367.869 142.314 368.472 142.026 368.952C141.738 369.421 141.338 369.805 140.826 370.104C140.324 370.403 139.732 370.659 139.05 370.872L138.186 371.144C137.642 371.315 137.188 371.496 136.826 371.688C136.474 371.869 136.207 372.104 136.026 372.392C135.844 372.68 135.754 373.069 135.754 373.56V373.832H142.362V375H134.442ZM148.624 375V363.8H155.392V365.016H149.968V368.776H154.96V369.992H149.968V375H148.624ZM160.803 375.224C160.013 375.224 159.32 375.059 158.723 374.728C158.125 374.387 157.661 373.912 157.331 373.304C157 372.696 156.835 371.992 156.835 371.192V371C156.835 370.189 157 369.48 157.331 368.872C157.661 368.264 158.12 367.795 158.707 367.464C159.293 367.123 159.965 366.952 160.723 366.952C161.459 366.952 162.109 367.112 162.675 367.432C163.24 367.741 163.683 368.189 164.003 368.776C164.323 369.363 164.483 370.051 164.483 370.84V371.416H158.099C158.131 372.259 158.403 372.92 158.915 373.4C159.427 373.869 160.067 374.104 160.835 374.104C161.507 374.104 162.024 373.949 162.387 373.64C162.749 373.331 163.027 372.963 163.219 372.536L164.307 373.064C164.147 373.395 163.923 373.725 163.635 374.056C163.357 374.387 162.989 374.664 162.531 374.888C162.083 375.112 161.507 375.224 160.803 375.224ZM158.115 370.376H163.203C163.16 369.651 162.909 369.085 162.451 368.68C162.003 368.275 161.427 368.072 160.723 368.072C160.008 368.072 159.421 368.275 158.963 368.68C158.504 369.085 158.221 369.651 158.115 370.376ZM171.023 375.224C170.213 375.224 169.578 375.069 169.119 374.76C168.671 374.451 168.346 374.099 168.143 373.704H167.919V375H166.687V363.8H167.951V368.408H168.175C168.303 368.163 168.485 367.933 168.719 367.72C168.954 367.496 169.258 367.315 169.631 367.176C170.015 367.027 170.479 366.952 171.023 366.952C171.706 366.952 172.325 367.117 172.879 367.448C173.445 367.768 173.893 368.232 174.223 368.84C174.554 369.437 174.719 370.152 174.719 370.984V371.192C174.719 372.024 174.549 372.744 174.207 373.352C173.877 373.96 173.429 374.424 172.863 374.744C172.309 375.064 171.695 375.224 171.023 375.224ZM170.687 374.104C171.498 374.104 172.154 373.848 172.655 373.336C173.167 372.813 173.423 372.088 173.423 371.16V371.016C173.423 370.088 173.167 369.368 172.655 368.856C172.154 368.333 171.498 368.072 170.687 368.072C169.887 368.072 169.226 368.333 168.703 368.856C168.191 369.368 167.935 370.088 167.935 371.016V371.16C167.935 372.088 168.191 372.813 168.703 373.336C169.226 373.848 169.887 374.104 170.687 374.104Z" fill="black"/>
<path opacity="0.4" d="M197.464 375.224C196.194 375.224 195.181 374.851 194.424 374.104C193.677 373.347 193.304 372.216 193.304 370.712V368.088C193.304 366.595 193.677 365.469 194.424 364.712C195.181 363.955 196.194 363.576 197.464 363.576C198.744 363.576 199.757 363.955 200.504 364.712C201.261 365.469 201.64 366.595 201.64 368.088V370.712C201.64 372.216 201.261 373.347 200.504 374.104C199.757 374.851 198.744 375.224 197.464 375.224ZM197.464 374.056C198.424 374.056 199.144 373.768 199.624 373.192C200.104 372.616 200.344 371.811 200.344 370.776V368.008C200.344 366.973 200.098 366.173 199.608 365.608C199.117 365.032 198.402 364.744 197.464 364.744C196.525 364.744 195.81 365.032 195.32 365.608C194.84 366.184 194.6 366.984 194.6 368.008V370.776C194.6 371.821 194.84 372.632 195.32 373.208C195.8 373.773 196.514 374.056 197.464 374.056ZM203.442 375V373.832C203.442 373.032 203.58 372.392 203.858 371.912C204.146 371.432 204.54 371.048 205.042 370.76C205.554 370.461 206.162 370.205 206.866 369.992L207.746 369.72C208.226 369.571 208.647 369.389 209.01 369.176C209.372 368.952 209.655 368.675 209.858 368.344C210.06 368.003 210.162 367.587 210.162 367.096V367.032C210.162 366.328 209.916 365.773 209.426 365.368C208.935 364.952 208.306 364.744 207.538 364.744C206.727 364.744 206.066 364.963 205.554 365.4C205.042 365.827 204.786 366.477 204.786 367.352V367.576H203.506V367.368C203.506 366.557 203.682 365.869 204.034 365.304C204.386 364.739 204.866 364.312 205.474 364.024C206.082 363.725 206.77 363.576 207.538 363.576C208.306 363.576 208.983 363.72 209.57 364.008C210.167 364.296 210.631 364.696 210.962 365.208C211.292 365.72 211.458 366.317 211.458 367V367.144C211.458 367.869 211.314 368.472 211.026 368.952C210.738 369.421 210.338 369.805 209.826 370.104C209.324 370.403 208.732 370.659 208.05 370.872L207.186 371.144C206.642 371.315 206.188 371.496 205.826 371.688C205.474 371.869 205.207 372.104 205.026 372.392C204.844 372.68 204.754 373.069 204.754 373.56V373.832H211.362V375H203.442ZM217.624 375V363.8H224.392V365.016H218.968V368.776H223.96V369.992H218.968V375H217.624ZM229.803 375.224C229.013 375.224 228.32 375.059 227.723 374.728C227.125 374.387 226.661 373.912 226.331 373.304C226 372.696 225.835 371.992 225.835 371.192V371C225.835 370.189 226 369.48 226.331 368.872C226.661 368.264 227.12 367.795 227.707 367.464C228.293 367.123 228.965 366.952 229.723 366.952C230.459 366.952 231.109 367.112 231.675 367.432C232.24 367.741 232.683 368.189 233.003 368.776C233.323 369.363 233.483 370.051 233.483 370.84V371.416H227.099C227.131 372.259 227.403 372.92 227.915 373.4C228.427 373.869 229.067 374.104 229.835 374.104C230.507 374.104 231.024 373.949 231.387 373.64C231.749 373.331 232.027 372.963 232.219 372.536L233.307 373.064C233.147 373.395 232.923 373.725 232.635 374.056C232.357 374.387 231.989 374.664 231.531 374.888C231.083 375.112 230.507 375.224 229.803 375.224ZM227.115 370.376H232.203C232.16 369.651 231.909 369.085 231.451 368.68C231.003 368.275 230.427 368.072 229.723 368.072C229.008 368.072 228.421 368.275 227.963 368.68C227.504 369.085 227.221 369.651 227.115 370.376ZM240.023 375.224C239.213 375.224 238.578 375.069 238.119 374.76C237.671 374.451 237.346 374.099 237.143 373.704H236.919V375H235.687V363.8H236.951V368.408H237.175C237.303 368.163 237.485 367.933 237.719 367.72C237.954 367.496 238.258 367.315 238.631 367.176C239.015 367.027 239.479 366.952 240.023 366.952C240.706 366.952 241.325 367.117 241.879 367.448C242.445 367.768 242.893 368.232 243.223 368.84C243.554 369.437 243.719 370.152 243.719 370.984V371.192C243.719 372.024 243.549 372.744 243.207 373.352C242.877 373.96 242.429 374.424 241.863 374.744C241.309 375.064 240.695 375.224 240.023 375.224ZM239.687 374.104C240.498 374.104 241.154 373.848 241.655 373.336C242.167 372.813 242.423 372.088 242.423 371.16V371.016C242.423 370.088 242.167 369.368 241.655 368.856C241.154 368.333 240.498 368.072 239.687 368.072C238.887 368.072 238.226 368.333 237.703 368.856C237.191 369.368 236.935 370.088 236.935 371.016V371.16C236.935 372.088 237.191 372.813 237.703 373.336C238.226 373.848 238.887 374.104 239.687 374.104Z" fill="black"/>
<path opacity="0.4" d="M266.284 375.224C265.015 375.224 264.001 374.851 263.244 374.104C262.497 373.347 262.124 372.216 262.124 370.712V368.088C262.124 366.595 262.497 365.469 263.244 364.712C264.001 363.955 265.015 363.576 266.284 363.576C267.564 363.576 268.577 363.955 269.324 364.712C270.081 365.469 270.46 366.595 270.46 368.088V370.712C270.46 372.216 270.081 373.347 269.324 374.104C268.577 374.851 267.564 375.224 266.284 375.224ZM266.284 374.056C267.244 374.056 267.964 373.768 268.444 373.192C268.924 372.616 269.164 371.811 269.164 370.776V368.008C269.164 366.973 268.919 366.173 268.428 365.608C267.937 365.032 267.223 364.744 266.284 364.744C265.345 364.744 264.631 365.032 264.14 365.608C263.66 366.184 263.42 366.984 263.42 368.008V370.776C263.42 371.821 263.66 372.632 264.14 373.208C264.62 373.773 265.335 374.056 266.284 374.056ZM277.766 375V372.712H271.926V371.176L276.63 363.8H279.062V371.544H280.982V372.712H279.062V375H277.766ZM273.222 371.544H277.766V364.584H277.542L273.222 371.352V371.544ZM286.803 375V363.8H293.571V365.016H288.147V368.776H293.139V369.992H288.147V375H286.803ZM298.982 375.224C298.193 375.224 297.5 375.059 296.902 374.728C296.305 374.387 295.841 373.912 295.51 373.304C295.18 372.696 295.014 371.992 295.014 371.192V371C295.014 370.189 295.18 369.48 295.51 368.872C295.841 368.264 296.3 367.795 296.886 367.464C297.473 367.123 298.145 366.952 298.902 366.952C299.638 366.952 300.289 367.112 300.854 367.432C301.42 367.741 301.862 368.189 302.182 368.776C302.502 369.363 302.662 370.051 302.662 370.84V371.416H296.278C296.31 372.259 296.582 372.92 297.094 373.4C297.606 373.869 298.246 374.104 299.014 374.104C299.686 374.104 300.204 373.949 300.566 373.64C300.929 373.331 301.206 372.963 301.398 372.536L302.486 373.064C302.326 373.395 302.102 373.725 301.814 374.056C301.537 374.387 301.169 374.664 300.71 374.888C300.262 375.112 299.686 375.224 298.982 375.224ZM296.294 370.376H301.382C301.34 369.651 301.089 369.085 300.63 368.68C300.182 368.275 299.606 368.072 298.902 368.072C298.188 368.072 297.601 368.275 297.142 368.68C296.684 369.085 296.401 369.651 296.294 370.376ZM309.203 375.224C308.392 375.224 307.758 375.069 307.299 374.76C306.851 374.451 306.526 374.099 306.323 373.704H306.099V375H304.867V363.8H306.131V368.408H306.355C306.483 368.163 306.664 367.933 306.899 367.72C307.134 367.496 307.438 367.315 307.811 367.176C308.195 367.027 308.659 366.952 309.203 366.952C309.886 366.952 310.504 367.117 311.059 367.448C311.624 367.768 312.072 368.232 312.403 368.84C312.734 369.437 312.899 370.152 312.899 370.984V371.192C312.899 372.024 312.728 372.744 312.387 373.352C312.056 373.96 311.608 374.424 311.043 374.744C310.488 375.064 309.875 375.224 309.203 375.224ZM308.867 374.104C309.678 374.104 310.334 373.848 310.835 373.336C311.347 372.813 311.603 372.088 311.603 371.16V371.016C311.603 370.088 311.347 369.368 310.835 368.856C310.334 368.333 309.678 368.072 308.867 368.072C308.067 368.072 307.406 368.333 306.883 368.856C306.371 369.368 306.115 370.088 306.115 371.016V371.16C306.115 372.088 306.371 372.813 306.883 373.336C307.406 373.848 308.067 374.104 308.867 374.104Z" fill="black"/>
<path opacity="0.4" d="M335.495 375.224C334.226 375.224 333.212 374.851 332.455 374.104C331.708 373.347 331.335 372.216 331.335 370.712V368.088C331.335 366.595 331.708 365.469 332.455 364.712C333.212 363.955 334.226 363.576 335.495 363.576C336.775 363.576 337.788 363.955 338.535 364.712C339.292 365.469 339.671 366.595 339.671 368.088V370.712C339.671 372.216 339.292 373.347 338.535 374.104C337.788 374.851 336.775 375.224 335.495 375.224ZM335.495 374.056C336.455 374.056 337.175 373.768 337.655 373.192C338.135 372.616 338.375 371.811 338.375 370.776V368.008C338.375 366.973 338.13 366.173 337.639 365.608C337.148 365.032 336.434 364.744 335.495 364.744C334.556 364.744 333.842 365.032 333.351 365.608C332.871 366.184 332.631 366.984 332.631 368.008V370.776C332.631 371.821 332.871 372.632 333.351 373.208C333.831 373.773 334.546 374.056 335.495 374.056ZM345.457 375.224C344.636 375.224 343.926 375.069 343.329 374.76C342.732 374.44 342.268 374.003 341.937 373.448C341.606 372.883 341.441 372.232 341.441 371.496V371.304H342.737V371.448C342.737 372.291 342.982 372.936 343.473 373.384C343.964 373.832 344.614 374.056 345.425 374.056C346.278 374.056 346.945 373.816 347.425 373.336C347.905 372.856 348.145 372.2 348.145 371.368V371.224C348.145 370.424 347.91 369.789 347.441 369.32C346.982 368.84 346.385 368.6 345.649 368.6C345.222 368.6 344.87 368.669 344.593 368.808C344.316 368.936 344.097 369.101 343.937 369.304C343.777 369.496 343.644 369.683 343.537 369.864H341.777V363.8H349.137V364.968H343.073V368.84H343.297C343.414 368.627 343.574 368.419 343.777 368.216C343.99 368.013 344.273 367.843 344.625 367.704C344.977 367.565 345.414 367.496 345.937 367.496C346.588 367.496 347.174 367.645 347.697 367.944C348.23 368.243 348.652 368.669 348.961 369.224C349.281 369.779 349.441 370.44 349.441 371.208V371.384C349.441 372.141 349.281 372.808 348.961 373.384C348.641 373.96 348.182 374.413 347.585 374.744C346.988 375.064 346.278 375.224 345.457 375.224ZM355.593 375V363.8H362.361V365.016H356.937V368.776H361.929V369.992H356.937V375H355.593ZM367.771 375.224C366.982 375.224 366.289 375.059 365.691 374.728C365.094 374.387 364.63 373.912 364.299 373.304C363.969 372.696 363.803 371.992 363.803 371.192V371C363.803 370.189 363.969 369.48 364.299 368.872C364.63 368.264 365.089 367.795 365.675 367.464C366.262 367.123 366.934 366.952 367.691 366.952C368.427 366.952 369.078 367.112 369.643 367.432C370.209 367.741 370.651 368.189 370.971 368.776C371.291 369.363 371.451 370.051 371.451 370.84V371.416H365.067C365.099 372.259 365.371 372.92 365.883 373.4C366.395 373.869 367.035 374.104 367.803 374.104C368.475 374.104 368.993 373.949 369.355 373.64C369.718 373.331 369.995 372.963 370.187 372.536L371.275 373.064C371.115 373.395 370.891 373.725 370.603 374.056C370.326 374.387 369.958 374.664 369.499 374.888C369.051 375.112 368.475 375.224 367.771 375.224ZM365.083 370.376H370.171C370.129 369.651 369.878 369.085 369.419 368.68C368.971 368.275 368.395 368.072 367.691 368.072C366.977 368.072 366.39 368.275 365.931 368.68C365.473 369.085 365.19 369.651 365.083 370.376ZM377.992 375.224C377.181 375.224 376.547 375.069 376.088 374.76C375.64 374.451 375.315 374.099 375.112 373.704H374.888V375H373.656V363.8H374.92V368.408H375.144C375.272 368.163 375.453 367.933 375.688 367.72C375.923 367.496 376.227 367.315 376.6 367.176C376.984 367.027 377.448 366.952 377.992 366.952C378.675 366.952 379.293 367.117 379.848 367.448C380.413 367.768 380.861 368.232 381.192 368.84C381.523 369.437 381.688 370.152 381.688 370.984V371.192C381.688 372.024 381.517 372.744 381.176 373.352C380.845 373.96 380.397 374.424 379.832 374.744C379.277 375.064 378.664 375.224 377.992 375.224ZM377.656 374.104C378.467 374.104 379.123 373.848 379.624 373.336C380.136 372.813 380.392 372.088 380.392 371.16V371.016C380.392 370.088 380.136 369.368 379.624 368.856C379.123 368.333 378.467 368.072 377.656 368.072C376.856 368.072 376.195 368.333 375.672 368.856C375.16 369.368 374.904 370.088 374.904 371.016V371.16C374.904 372.088 375.16 372.813 375.672 373.336C376.195 373.848 376.856 374.104 377.656 374.104Z" fill="black"/>
<path opacity="0.4" d="M404.386 375.224C403.116 375.224 402.103 374.851 401.346 374.104C400.599 373.347 400.226 372.216 400.226 370.712V368.088C400.226 366.595 400.599 365.469 401.346 364.712C402.103 363.955 403.116 363.576 404.386 363.576C405.666 363.576 406.679 363.955 407.426 364.712C408.183 365.469 408.562 366.595 408.562 368.088V370.712C408.562 372.216 408.183 373.347 407.426 374.104C406.679 374.851 405.666 375.224 404.386 375.224ZM404.386 374.056C405.346 374.056 406.066 373.768 406.546 373.192C407.026 372.616 407.266 371.811 407.266 370.776V368.008C407.266 366.973 407.02 366.173 406.53 365.608C406.039 365.032 405.324 364.744 404.386 364.744C403.447 364.744 402.732 365.032 402.242 365.608C401.762 366.184 401.522 366.984 401.522 368.008V370.776C401.522 371.821 401.762 372.632 402.242 373.208C402.722 373.773 403.436 374.056 404.386 374.056ZM414.476 375.224C413.708 375.224 413.02 375.075 412.412 374.776C411.814 374.467 411.34 374.029 410.988 373.464C410.646 372.899 410.476 372.227 410.476 371.448V367.544C410.476 366.701 410.641 365.987 410.972 365.4C411.302 364.813 411.766 364.365 412.364 364.056C412.972 363.736 413.692 363.576 414.524 363.576C415.345 363.576 416.044 363.725 416.62 364.024C417.206 364.312 417.649 364.712 417.948 365.224C418.257 365.725 418.412 366.307 418.412 366.968H417.1C417.1 366.307 416.886 365.773 416.46 365.368C416.033 364.952 415.388 364.744 414.524 364.744C413.649 364.744 412.972 364.984 412.492 365.464C412.012 365.933 411.772 366.584 411.772 367.416V368.968H411.996C412.188 368.648 412.508 368.355 412.956 368.088C413.404 367.811 414.028 367.672 414.828 367.672C415.5 367.672 416.113 367.821 416.668 368.12C417.222 368.419 417.665 368.84 417.996 369.384C418.326 369.928 418.492 370.573 418.492 371.32V371.512C418.492 372.269 418.316 372.925 417.964 373.48C417.622 374.035 417.148 374.467 416.54 374.776C415.932 375.075 415.244 375.224 414.476 375.224ZM414.476 374.056C415.286 374.056 415.942 373.827 416.444 373.368C416.945 372.909 417.196 372.285 417.196 371.496V371.368C417.196 370.835 417.078 370.376 416.844 369.992C416.62 369.608 416.305 369.309 415.9 369.096C415.494 368.872 415.02 368.76 414.476 368.76C413.942 368.76 413.473 368.872 413.068 369.096C412.662 369.309 412.342 369.608 412.108 369.992C411.884 370.376 411.772 370.835 411.772 371.368V371.496C411.772 372.285 412.022 372.909 412.524 373.368C413.025 373.827 413.676 374.056 414.476 374.056ZM424.702 375V363.8H431.47V365.016H426.046V368.776H431.038V369.992H426.046V375H424.702ZM436.881 375.224C436.091 375.224 435.398 375.059 434.801 374.728C434.203 374.387 433.739 373.912 433.409 373.304C433.078 372.696 432.913 371.992 432.913 371.192V371C432.913 370.189 433.078 369.48 433.409 368.872C433.739 368.264 434.198 367.795 434.785 367.464C435.371 367.123 436.043 366.952 436.801 366.952C437.537 366.952 438.187 367.112 438.753 367.432C439.318 367.741 439.761 368.189 440.081 368.776C440.401 369.363 440.561 370.051 440.561 370.84V371.416H434.177C434.209 372.259 434.481 372.92 434.993 373.4C435.505 373.869 436.145 374.104 436.913 374.104C437.585 374.104 438.102 373.949 438.465 373.64C438.827 373.331 439.105 372.963 439.297 372.536L440.385 373.064C440.225 373.395 440.001 373.725 439.713 374.056C439.435 374.387 439.067 374.664 438.609 374.888C438.161 375.112 437.585 375.224 436.881 375.224ZM434.193 370.376H439.281C439.238 369.651 438.987 369.085 438.529 368.68C438.081 368.275 437.505 368.072 436.801 368.072C436.086 368.072 435.499 368.275 435.041 368.68C434.582 369.085 434.299 369.651 434.193 370.376ZM447.102 375.224C446.291 375.224 445.656 375.069 445.198 374.76C444.75 374.451 444.424 374.099 444.222 373.704H443.998V375H442.766V363.8H444.03V368.408H444.254C444.382 368.163 444.563 367.933 444.798 367.72C445.032 367.496 445.336 367.315 445.71 367.176C446.094 367.027 446.558 366.952 447.102 366.952C447.784 366.952 448.403 367.117 448.958 367.448C449.523 367.768 449.971 368.232 450.302 368.84C450.632 369.437 450.798 370.152 450.798 370.984V371.192C450.798 372.024 450.627 372.744 450.286 373.352C449.955 373.96 449.507 374.424 448.942 374.744C448.387 375.064 447.774 375.224 447.102 375.224ZM446.766 374.104C447.576 374.104 448.232 373.848 448.734 373.336C449.246 372.813 449.502 372.088 449.502 371.16V371.016C449.502 370.088 449.246 369.368 448.734 368.856C448.232 368.333 447.576 368.072 446.766 368.072C445.966 368.072 445.304 368.333 444.782 368.856C444.27 369.368 444.014 370.088 444.014 371.016V371.16C444.014 372.088 444.27 372.813 444.782 373.336C445.304 373.848 445.966 374.104 446.766 374.104Z" fill="black"/>
<path opacity="0.4" d="M473.409 375.224C472.14 375.224 471.126 374.851 470.369 374.104C469.622 373.347 469.249 372.216 469.249 370.712V368.088C469.249 366.595 469.622 365.469 470.369 364.712C471.126 363.955 472.14 363.576 473.409 363.576C474.689 363.576 475.702 363.955 476.449 364.712C477.206 365.469 477.585 366.595 477.585 368.088V370.712C477.585 372.216 477.206 373.347 476.449 374.104C475.702 374.851 474.689 375.224 473.409 375.224ZM473.409 374.056C474.369 374.056 475.089 373.768 475.569 373.192C476.049 372.616 476.289 371.811 476.289 370.776V368.008C476.289 366.973 476.044 366.173 475.553 365.608C475.062 365.032 474.348 364.744 473.409 364.744C472.47 364.744 471.756 365.032 471.265 365.608C470.785 366.184 470.545 366.984 470.545 368.008V370.776C470.545 371.821 470.785 372.632 471.265 373.208C471.745 373.773 472.46 374.056 473.409 374.056ZM480.69 375V374.6C480.69 374.227 480.722 373.912 480.786 373.656C480.85 373.4 480.972 373.096 481.154 372.744L485.426 365.144V364.968H478.77V363.8H486.786V365.336L482.322 373.336C482.194 373.56 482.103 373.763 482.05 373.944C482.007 374.125 481.986 374.355 481.986 374.632V375H480.69ZM492.678 375V363.8H499.446V365.016H494.022V368.776H499.014V369.992H494.022V375H492.678ZM504.857 375.224C504.068 375.224 503.375 375.059 502.777 374.728C502.18 374.387 501.716 373.912 501.385 373.304C501.055 372.696 500.889 371.992 500.889 371.192V371C500.889 370.189 501.055 369.48 501.385 368.872C501.716 368.264 502.175 367.795 502.761 367.464C503.348 367.123 504.02 366.952 504.777 366.952C505.513 366.952 506.164 367.112 506.729 367.432C507.295 367.741 507.737 368.189 508.057 368.776C508.377 369.363 508.537 370.051 508.537 370.84V371.416H502.153C502.185 372.259 502.457 372.92 502.969 373.4C503.481 373.869 504.121 374.104 504.889 374.104C505.561 374.104 506.079 373.949 506.441 373.64C506.804 373.331 507.081 372.963 507.273 372.536L508.361 373.064C508.201 373.395 507.977 373.725 507.689 374.056C507.412 374.387 507.044 374.664 506.585 374.888C506.137 375.112 505.561 375.224 504.857 375.224ZM502.169 370.376H507.257C507.215 369.651 506.964 369.085 506.505 368.68C506.057 368.275 505.481 368.072 504.777 368.072C504.063 368.072 503.476 368.275 503.017 368.68C502.559 369.085 502.276 369.651 502.169 370.376ZM515.078 375.224C514.267 375.224 513.633 375.069 513.174 374.76C512.726 374.451 512.401 374.099 512.198 373.704H511.974V375H510.742V363.8H512.006V368.408H512.23C512.358 368.163 512.539 367.933 512.774 367.72C513.009 367.496 513.313 367.315 513.686 367.176C514.07 367.027 514.534 366.952 515.078 366.952C515.761 366.952 516.379 367.117 516.934 367.448C517.499 367.768 517.947 368.232 518.278 368.84C518.609 369.437 518.774 370.152 518.774 370.984V371.192C518.774 372.024 518.603 372.744 518.262 373.352C517.931 373.96 517.483 374.424 516.918 374.744C516.363 375.064 515.75 375.224 515.078 375.224ZM514.742 374.104C515.553 374.104 516.209 373.848 516.71 373.336C517.222 372.813 517.478 372.088 517.478 371.16V371.016C517.478 370.088 517.222 369.368 516.71 368.856C516.209 368.333 515.553 368.072 514.742 368.072C513.942 368.072 513.281 368.333 512.758 368.856C512.246 369.368 511.99 370.088 511.99 371.016V371.16C511.99 372.088 512.246 372.813 512.758 373.336C513.281 373.848 513.942 374.104 514.742 374.104Z" fill="black"/>
<path opacity="0.4" d="M541.3 375.224C540.03 375.224 539.017 374.851 538.26 374.104C537.513 373.347 537.14 372.216 537.14 370.712V368.088C537.14 366.595 537.513 365.469 538.26 364.712C539.017 363.955 540.03 363.576 541.3 363.576C542.58 363.576 543.593 363.955 544.34 364.712C545.097 365.469 545.476 366.595 545.476 368.088V370.712C545.476 372.216 545.097 373.347 544.34 374.104C543.593 374.851 542.58 375.224 541.3 375.224ZM541.3 374.056C542.26 374.056 542.98 373.768 543.46 373.192C543.94 372.616 544.18 371.811 544.18 370.776V368.008C544.18 366.973 543.934 366.173 543.444 365.608C542.953 365.032 542.238 364.744 541.3 364.744C540.361 364.744 539.646 365.032 539.156 365.608C538.676 366.184 538.436 366.984 538.436 368.008V370.776C538.436 371.821 538.676 372.632 539.156 373.208C539.636 373.773 540.35 374.056 541.3 374.056ZM551.406 375.224C550.542 375.224 549.79 375.096 549.15 374.84C548.52 374.573 548.03 374.205 547.678 373.736C547.336 373.256 547.166 372.696 547.166 372.056V371.88C547.166 371.325 547.283 370.867 547.518 370.504C547.752 370.141 548.035 369.864 548.366 369.672C548.707 369.469 549.022 369.341 549.31 369.288V369.08C549.022 368.995 548.723 368.856 548.414 368.664C548.115 368.472 547.864 368.211 547.662 367.88C547.47 367.549 547.374 367.144 547.374 366.664V366.488C547.374 365.88 547.544 365.363 547.886 364.936C548.238 364.499 548.718 364.163 549.326 363.928C549.934 363.693 550.627 363.576 551.406 363.576C552.195 363.576 552.888 363.693 553.486 363.928C554.094 364.163 554.568 364.499 554.91 364.936C555.262 365.363 555.438 365.88 555.438 366.488V366.664C555.438 367.144 555.342 367.549 555.15 367.88C554.958 368.211 554.712 368.472 554.414 368.664C554.115 368.856 553.816 368.995 553.518 369.08V369.288C553.816 369.341 554.131 369.469 554.462 369.672C554.792 369.864 555.07 370.141 555.294 370.504C555.528 370.867 555.646 371.325 555.646 371.88V372.056C555.646 372.696 555.475 373.256 555.134 373.736C554.792 374.205 554.302 374.573 553.662 374.84C553.032 375.096 552.28 375.224 551.406 375.224ZM551.406 374.056C552.312 374.056 553.027 373.88 553.55 373.528C554.083 373.176 554.35 372.664 554.35 371.992V371.864C554.35 371.192 554.088 370.68 553.566 370.328C553.043 369.976 552.323 369.8 551.406 369.8C550.499 369.8 549.784 369.976 549.262 370.328C548.739 370.68 548.478 371.192 548.478 371.864V371.992C548.478 372.664 548.739 373.176 549.262 373.528C549.795 373.88 550.51 374.056 551.406 374.056ZM551.406 368.632C552.259 368.632 552.926 368.472 553.406 368.152C553.896 367.821 554.142 367.357 554.142 366.76V366.632C554.142 366.024 553.896 365.56 553.406 365.24C552.915 364.909 552.248 364.744 551.406 364.744C550.563 364.744 549.896 364.909 549.406 365.24C548.915 365.56 548.67 366.024 548.67 366.632V366.76C548.67 367.357 548.915 367.821 549.406 368.152C549.896 368.472 550.563 368.632 551.406 368.632ZM561.788 375V363.8H568.556V365.016H563.132V368.776H568.124V369.992H563.132V375H561.788ZM573.967 375.224C573.177 375.224 572.484 375.059 571.887 374.728C571.289 374.387 570.825 373.912 570.495 373.304C570.164 372.696 569.999 371.992 569.999 371.192V371C569.999 370.189 570.164 369.48 570.495 368.872C570.825 368.264 571.284 367.795 571.871 367.464C572.457 367.123 573.129 366.952 573.887 366.952C574.623 366.952 575.273 367.112 575.839 367.432C576.404 367.741 576.847 368.189 577.167 368.776C577.487 369.363 577.647 370.051 577.647 370.84V371.416H571.263C571.295 372.259 571.567 372.92 572.079 373.4C572.591 373.869 573.231 374.104 573.999 374.104C574.671 374.104 575.188 373.949 575.551 373.64C575.913 373.331 576.191 372.963 576.383 372.536L577.471 373.064C577.311 373.395 577.087 373.725 576.799 374.056C576.521 374.387 576.153 374.664 575.695 374.888C575.247 375.112 574.671 375.224 573.967 375.224ZM571.279 370.376H576.367C576.324 369.651 576.073 369.085 575.615 368.68C575.167 368.275 574.591 368.072 573.887 368.072C573.172 368.072 572.585 368.275 572.127 368.68C571.668 369.085 571.385 369.651 571.279 370.376ZM584.187 375.224C583.377 375.224 582.742 375.069 582.283 374.76C581.835 374.451 581.51 374.099 581.307 373.704H581.083V375H579.851V363.8H581.115V368.408H581.339C581.467 368.163 581.649 367.933 581.883 367.72C582.118 367.496 582.422 367.315 582.795 367.176C583.179 367.027 583.643 366.952 584.187 366.952C584.87 366.952 585.489 367.117 586.043 367.448C586.609 367.768 587.057 368.232 587.387 368.84C587.718 369.437 587.883 370.152 587.883 370.984V371.192C587.883 372.024 587.713 372.744 587.371 373.352C587.041 373.96 586.593 374.424 586.027 374.744C585.473 375.064 584.859 375.224 584.187 375.224ZM583.851 374.104C584.662 374.104 585.318 373.848 585.819 373.336C586.331 372.813 586.587 372.088 586.587 371.16V371.016C586.587 370.088 586.331 369.368 585.819 368.856C585.318 368.333 584.662 368.072 583.851 368.072C583.051 368.072 582.39 368.333 581.867 368.856C581.355 369.368 581.099 370.088 581.099 371.016V371.16C581.099 372.088 581.355 372.813 581.867 373.336C582.39 373.848 583.051 374.104 583.851 374.104Z" fill="black"/>
<line opacity="0.2" x1="59" y1="11.5" x2="584" y2="11.5" stroke="#999999"/>
<line opacity="0.2" x1="59" y1="167.5" x2="584" y2="167.5" stroke="#999999"/>
<line opacity="0.2" x1="59" y1="89.5" x2="584" y2="89.5" stroke="#999999"/>
<line opacity="0.2" x1="59" y1="323.5" x2="584" y2="323.5" stroke="#999999"/>
<line opacity="0.2" x1="59" y1="245.5" x2="584" y2="245.5" stroke="#999999"/>
</svg>
