<svg width="596" height="381" viewBox="0 0 596 381" fill="none" xmlns="http://www.w3.org/2000/svg">
<path opacity="0.27" d="M79 322.721C79 323.427 78.4275 324 77.7212 324C79 324 76.8687 324 76.0944 324C75.32 324 75.1929 324 74.4505 324C73.7082 324 69.9971 324 69.2291 324C70.0227 324 68.4611 324 69.2291 324C70.0227 324 68.4355 324 69.2291 324L69.2291 161.015C69.2291 158.317 71.4164 156.13 74.1145 156.13C76.8127 156.13 79 158.317 79 161.015L79 322.721Z" fill="#8659FF"/>
<path opacity="0.27" d="M123 322.721C123 323.427 122.427 324 121.721 324C123 324 120.869 324 120.094 324C119.32 324 119.193 324 118.451 324C117.708 324 113.997 324 113.229 324C114.023 324 112.461 324 113.229 324C114.023 324 112.436 324 113.229 324L113.229 161.015C113.229 158.317 115.416 156.13 118.115 156.13C120.813 156.13 123 158.317 123 161.015L123 322.721Z" fill="#8659FF"/>
<path opacity="0.27" d="M68 322.721C68 323.427 67.4275 324 66.7212 324C68 324 65.8687 324 65.0944 324C64.32 324 64.1929 324 63.4505 324C62.7082 324 58.9971 324 58.2291 324C59.0227 324 57.4611 324 58.2291 324C59.0227 324 57.4355 324 58.2291 324L58.2291 153.885C58.2291 151.187 60.4164 149 63.1145 149C65.8127 149 68 151.187 68 153.885L68 322.721Z" fill="#8659FF"/>
<path opacity="0.27" d="M68 154.851C68 155.557 67.4275 156.13 66.7212 156.13C68 156.13 65.8687 156.13 65.0944 156.13C64.32 156.13 64.1929 156.13 63.4505 156.13C62.7082 156.13 58.9971 156.13 58.2291 156.13C59.0227 156.13 57.4611 156.13 58.2291 156.13C59.0227 156.13 57.4355 156.13 58.2291 156.13L58.2291 153.885C58.2291 151.187 60.4164 149 63.1145 149L64.4352 149C66.404 149 68 150.596 68 152.565L68 154.851Z" fill="#FF0000"/>
<path opacity="0.27" d="M134 322.721C134 323.427 133.427 324 132.721 324C134 324 131.869 324 131.094 324C130.32 324 130.193 324 129.451 324C128.708 324 124.997 324 124.229 324C125.023 324 123.461 324 124.229 324C125.023 324 123.436 324 124.229 324L124.229 153.885C124.229 151.187 126.416 149 129.115 149C131.813 149 134 151.187 134 153.885L134 322.721Z" fill="#8659FF"/>
<path opacity="0.27" d="M134 154.851C134 155.557 133.427 156.13 132.721 156.13C134 156.13 131.869 156.13 131.094 156.13C130.32 156.13 130.193 156.13 129.451 156.13C128.708 156.13 124.997 156.13 124.229 156.13C125.023 156.13 123.461 156.13 124.229 156.13C125.023 156.13 123.436 156.13 124.229 156.13L124.229 153.885C124.229 151.187 126.416 149 129.115 149L130.435 149C132.404 149 134 150.596 134 152.565L134 154.851Z" fill="#FF0000"/>
<path opacity="0.27" d="M90 322.721C90 323.427 89.4275 324 88.7212 324C90 324 87.8687 324 87.0944 324C86.32 324 86.1929 324 85.4505 324C84.7082 324 80.9971 324 80.2291 324C81.0227 324 79.4611 324 80.2291 324C81.0227 324 79.4355 324 80.2291 324L80.2291 158.422C80.2291 155.724 82.4164 153.537 85.1145 153.537C87.8127 153.537 90 155.724 90 158.422L90 322.721Z" fill="#8659FF"/>
<path opacity="0.27" d="M90 159.388C90 160.094 89.4275 160.667 88.7212 160.667C90 160.667 87.8687 160.667 87.0944 160.667C86.32 160.667 86.1929 160.667 85.4505 160.667C84.7082 160.667 80.9971 160.667 80.2291 160.667C81.0227 160.667 79.4611 160.667 80.2291 160.667C81.0227 160.667 79.4355 160.667 80.2291 160.667L80.2291 158.423C80.2291 155.724 82.4164 153.537 85.1145 153.537L86.4352 153.537C88.404 153.537 90 155.133 90 157.102L90 159.388Z" fill="#FF0000"/>
<path opacity="0.27" d="M101 322.721C101 323.427 100.427 324 99.7212 324C101 324 98.8687 324 98.0944 324C97.32 324 97.1929 324 96.4505 324C95.7082 324 91.9971 324 91.2291 324C92.0227 324 90.4611 324 91.2291 324C92.0227 324 90.4355 324 91.2291 324L91.2291 158.422C91.2291 155.724 93.4164 153.537 96.1145 153.537C98.8127 153.537 101 155.724 101 158.422L101 322.721Z" fill="#8659FF"/>
<path opacity="0.27" d="M101 159.388C101 160.094 100.427 160.667 99.7212 160.667C101 160.667 98.8687 160.667 98.0944 160.667C97.32 160.667 97.1929 160.667 96.4505 160.667C95.7082 160.667 91.9971 160.667 91.2291 160.667C92.0227 160.667 90.4611 160.667 91.2291 160.667C92.0227 160.667 90.4355 160.667 91.2291 160.667L91.2291 158.423C91.2291 155.724 93.4164 153.537 96.1145 153.537L97.4352 153.537C99.404 153.537 101 155.133 101 157.102L101 159.388Z" fill="#FF0000"/>
<path opacity="0.27" d="M112 322.721C112 323.427 111.427 324 110.721 324C112 324 109.869 324 109.094 324C108.32 324 108.193 324 107.451 324C106.708 324 102.997 324 102.229 324C103.023 324 101.461 324 102.229 324C103.023 324 101.436 324 102.229 324L102.229 158.422C102.229 155.724 104.416 153.537 107.115 153.537C109.813 153.537 112 155.724 112 158.422L112 322.721Z" fill="#8659FF"/>
<path opacity="0.27" d="M112 159.388C112 160.094 111.427 160.667 110.721 160.667C112 160.667 109.869 160.667 109.094 160.667C108.32 160.667 108.193 160.667 107.451 160.667C106.708 160.667 102.997 160.667 102.229 160.667C103.023 160.667 101.461 160.667 102.229 160.667C103.023 160.667 101.436 160.667 102.229 160.667L102.229 158.423C102.229 155.724 104.416 153.537 107.115 153.537L108.435 153.537C110.404 153.537 112 155.133 112 157.102L112 159.388Z" fill="#FF0000"/>
<path opacity="0.27" d="M233 322.721C233 323.427 232.427 324 231.721 324C233 324 230.869 324 230.094 324C229.32 324 229.193 324 228.451 324C227.708 324 223.997 324 223.229 324C224.023 324 222.461 324 223.229 324C224.023 324 222.436 324 223.229 324L223.229 126.482C223.229 123.784 225.416 121.596 228.115 121.596C230.813 121.596 233 123.784 233 126.482L233 322.721Z" fill="#8659FF"/>
<path opacity="0.27" d="M277 322.721C277 323.427 276.427 324 275.721 324C277 324 274.869 324 274.094 324C273.32 324 273.193 324 272.451 324C271.708 324 267.997 324 267.229 324C268.023 324 266.461 324 267.229 324C268.023 324 266.436 324 267.229 324L267.229 126.482C267.229 123.784 269.416 121.596 272.115 121.596C274.813 121.596 277 123.784 277 126.482L277 322.721Z" fill="#8659FF"/>
<path opacity="0.27" d="M222 322.721C222 323.427 221.427 324 220.721 324C222 324 219.869 324 219.094 324C218.32 324 218.193 324 217.451 324C216.708 324 212.997 324 212.229 324C213.023 324 211.461 324 212.229 324C213.023 324 211.436 324 212.229 324L212.229 117.885C212.229 115.187 214.416 113 217.115 113C219.813 113 222 115.187 222 117.885L222 322.721Z" fill="#8659FF"/>
<path opacity="0.27" d="M222 120.317C222 121.024 221.427 121.596 220.721 121.596C222 121.596 219.869 121.596 219.094 121.596C218.32 121.596 218.193 121.596 217.451 121.596C216.708 121.596 212.997 121.596 212.229 121.596C213.023 121.596 211.461 121.596 212.229 121.596C213.023 121.596 211.436 121.596 212.229 121.596L212.229 117.885C212.229 115.187 214.416 113 217.115 113L217.702 113C220.076 113 222 114.924 222 117.298L222 120.317Z" fill="#FFD600"/>
<path opacity="0.27" d="M288 322.721C288 323.427 287.427 324 286.721 324C288 324 285.869 324 285.094 324C284.32 324 284.193 324 283.451 324C282.708 324 278.997 324 278.229 324C279.023 324 277.461 324 278.229 324C279.023 324 277.436 324 278.229 324L278.229 117.885C278.229 115.187 280.416 113 283.115 113C285.813 113 288 115.187 288 117.885L288 322.721Z" fill="#8659FF"/>
<path opacity="0.27" d="M288 120.317C288 121.024 287.427 121.596 286.721 121.596C288 121.596 285.869 121.596 285.094 121.596C284.32 121.596 284.193 121.596 283.451 121.596C282.708 121.596 278.997 121.596 278.229 121.596C279.023 121.596 277.461 121.596 278.229 121.596C279.023 121.596 277.436 121.596 278.229 121.596L278.229 117.885C278.229 115.187 280.416 113 283.115 113L283.702 113C286.076 113 288 114.924 288 117.298L288 120.317Z" fill="#FF0000"/>
<path opacity="0.27" d="M244 322.721C244 323.427 243.427 324 242.721 324C244 324 241.869 324 241.094 324C240.32 324 240.193 324 239.451 324C238.708 324 234.997 324 234.229 324C235.023 324 233.461 324 234.229 324C235.023 324 233.436 324 234.229 324L234.229 123.356C234.229 120.658 236.416 118.47 239.115 118.47C241.813 118.47 244 120.658 244 123.356L244 322.721Z" fill="#8659FF"/>
<path opacity="0.27" d="M244 125.788C244 126.494 243.427 127.067 242.721 127.067C244 127.067 241.869 127.067 241.094 127.067C240.32 127.067 240.193 127.067 239.451 127.067C238.708 127.067 234.997 127.067 234.229 127.067C235.023 127.067 233.461 127.067 234.229 127.067C235.023 127.067 233.436 127.067 234.229 127.067L234.229 123.356C234.229 120.658 236.416 118.47 239.115 118.47L239.702 118.47C242.076 118.47 244 120.395 244 122.768L244 125.788Z" fill="#FF0000"/>
<path opacity="0.27" d="M255 322.721C255 323.427 254.427 324 253.721 324C255 324 252.869 324 252.094 324C251.32 324 251.193 324 250.451 324C249.708 324 245.997 324 245.229 324C246.023 324 244.461 324 245.229 324C246.023 324 244.436 324 245.229 324L245.229 123.356C245.229 120.658 247.416 118.47 250.115 118.47C252.813 118.47 255 120.658 255 123.356L255 322.721Z" fill="#8659FF"/>
<path opacity="0.27" d="M255 125.788C255 126.494 254.427 127.067 253.721 127.067C255 127.067 252.869 127.067 252.094 127.067C251.32 127.067 251.193 127.067 250.451 127.067C249.708 127.067 245.997 127.067 245.229 127.067C246.023 127.067 244.461 127.067 245.229 127.067C246.023 127.067 244.436 127.067 245.229 127.067L245.229 123.356C245.229 120.658 247.416 118.47 250.115 118.47L250.702 118.47C253.076 118.47 255 120.395 255 122.768L255 125.788Z" fill="#FF0000"/>
<path opacity="0.27" d="M266 322.721C266 323.427 265.427 324 264.721 324C266 324 263.869 324 263.094 324C262.32 324 262.193 324 261.451 324C260.708 324 256.997 324 256.229 324C257.023 324 255.461 324 256.229 324C257.023 324 255.436 324 256.229 324L256.229 123.356C256.229 120.658 258.416 118.47 261.115 118.47C263.813 118.47 266 120.658 266 123.356L266 322.721Z" fill="#8659FF"/>
<path opacity="0.27" d="M266 125.788C266 126.494 265.427 127.067 264.721 127.067C266 127.067 263.869 127.067 263.094 127.067C262.32 127.067 262.193 127.067 261.451 127.067C260.708 127.067 256.997 127.067 256.229 127.067C257.023 127.067 255.461 127.067 256.229 127.067C257.023 127.067 255.436 127.067 256.229 127.067L256.229 123.356C256.229 120.658 258.416 118.47 261.115 118.47L261.702 118.47C264.076 118.47 266 120.395 266 122.768L266 125.788Z" fill="#FF0000"/>
<path opacity="0.27" d="M387 322.721C387 323.427 386.427 324 385.721 324C387 324 384.869 324 384.094 324C383.32 324 383.193 324 382.451 324C381.708 324 377.997 324 377.229 324C378.023 324 376.461 324 377.229 324C378.023 324 376.436 324 377.229 324L377.229 69.8854C377.229 67.1873 379.416 65 382.115 65C384.813 65 387 67.1873 387 69.8854L387 322.721Z" fill="#8659FF"/>
<path opacity="0.27" d="M431 322.721C431 323.427 430.427 324 429.721 324C431 324 428.869 324 428.094 324C427.32 324 427.193 324 426.451 324C425.708 324 421.997 324 421.229 324C422.023 324 420.461 324 421.229 324C422.023 324 420.436 324 421.229 324L421.229 69.8854C421.229 67.1873 423.416 65 426.115 65C428.813 65 431 67.1873 431 69.8854L431 322.721Z" fill="#8659FF"/>
<path opacity="0.27" d="M376 322.721C376 323.427 375.427 324 374.721 324C376 324 373.869 324 373.094 324C372.32 324 372.193 324 371.451 324C370.708 324 366.997 324 366.229 324C367.023 324 365.461 324 366.229 324C367.023 324 365.436 324 366.229 324L366.229 58.8854C366.229 56.1873 368.416 54 371.115 54C373.813 54 376 56.1873 376 58.8854L376 322.721Z" fill="#8659FF"/>
<path opacity="0.27" d="M376 63.7212C376 64.4275 375.427 65 374.721 65C376 65 373.869 65 373.094 65C372.32 65 372.193 65 371.451 65C370.708 65 366.997 65 366.229 65C367.023 65 365.461 65 366.229 65C367.023 65 365.436 65 366.229 65L366.229 58.8855C366.229 56.1873 368.416 54 371.115 54C373.813 54 376 56.1873 376 58.8854L376 63.7212Z" fill="#FF0000"/>
<path opacity="0.27" d="M442 322.721C442 323.427 441.427 324 440.721 324C442 324 439.869 324 439.094 324C438.32 324 438.193 324 437.451 324C436.708 324 432.997 324 432.229 324C433.023 324 431.461 324 432.229 324C433.023 324 431.436 324 432.229 324L432.229 58.8854C432.229 56.1873 434.416 54 437.115 54C439.813 54 442 56.1873 442 58.8854L442 322.721Z" fill="#8659FF"/>
<path opacity="0.27" d="M442 63.7212C442 64.4275 441.427 65 440.721 65C442 65 439.869 65 439.094 65C438.32 65 438.193 65 437.451 65C436.708 65 432.997 65 432.229 65C433.023 65 431.461 65 432.229 65C433.023 65 431.436 65 432.229 65L432.229 58.8855C432.229 56.1873 434.416 54 437.115 54C439.813 54 442 56.1873 442 58.8854L442 63.7212Z" fill="#FF0000"/>
<path opacity="0.27" d="M398 322.721C398 323.427 397.427 324 396.721 324C398 324 395.869 324 395.094 324C394.32 324 394.193 324 393.451 324C392.708 324 388.997 324 388.229 324C389.023 324 387.461 324 388.229 324C389.023 324 387.436 324 388.229 324L388.229 65.8854C388.229 63.1873 390.416 61 393.115 61C395.813 61 398 63.1873 398 65.8854L398 322.721Z" fill="#8659FF"/>
<path opacity="0.27" d="M398 70.7212C398 71.4275 397.427 72 396.721 72C398 72 395.869 72 395.094 72C394.32 72 394.193 72 393.451 72C392.708 72 388.997 72 388.229 72C389.023 72 387.461 72 388.229 72C389.023 72 387.436 72 388.229 72L388.229 65.8855C388.229 63.1873 390.416 61 393.115 61C395.813 61 398 63.1873 398 65.8854L398 70.7212Z" fill="#FF0000"/>
<path opacity="0.27" d="M409 322.721C409 323.427 408.427 324 407.721 324C409 324 406.869 324 406.094 324C405.32 324 405.193 324 404.451 324C403.708 324 399.997 324 399.229 324C400.023 324 398.461 324 399.229 324C400.023 324 398.436 324 399.229 324L399.229 65.8854C399.229 63.1873 401.416 61 404.115 61C406.813 61 409 63.1873 409 65.8854L409 322.721Z" fill="#8659FF"/>
<path opacity="0.27" d="M409 70.7212C409 71.4275 408.427 72 407.721 72C409 72 406.869 72 406.094 72C405.32 72 405.193 72 404.451 72C403.708 72 399.997 72 399.229 72C400.023 72 398.461 72 399.229 72C400.023 72 398.436 72 399.229 72L399.229 65.8855C399.229 63.1873 401.416 61 404.115 61C406.813 61 409 63.1873 409 65.8854L409 70.7212Z" fill="#FF0000"/>
<path opacity="0.27" d="M420 322.721C420 323.427 419.427 324 418.721 324C420 324 417.869 324 417.094 324C416.32 324 416.193 324 415.451 324C414.708 324 410.997 324 410.229 324C411.023 324 409.461 324 410.229 324C411.023 324 409.436 324 410.229 324L410.229 65.8854C410.229 63.1873 412.416 61 415.115 61C417.813 61 420 63.1873 420 65.8854L420 322.721Z" fill="#8659FF"/>
<path opacity="0.27" d="M420 70.7212C420 71.4275 419.427 72 418.721 72C420 72 417.869 72 417.094 72C416.32 72 416.193 72 415.451 72C414.708 72 410.997 72 410.229 72C411.023 72 409.461 72 410.229 72C411.023 72 409.436 72 410.229 72L410.229 65.8855C410.229 63.1873 412.416 61 415.115 61C417.813 61 420 63.1873 420 65.8854L420 70.7212Z" fill="#FF0000"/>
<path opacity="0.27" d="M156 322.721C156 323.427 155.427 324 154.721 324C156 324 153.869 324 153.094 324C152.32 324 152.193 324 151.451 324C150.708 324 146.997 324 146.229 324C147.023 324 145.461 324 146.229 324C147.023 324 145.436 324 146.229 324L146.229 69.8854C146.229 67.1873 148.416 65 151.115 65C153.813 65 156 67.1873 156 69.8854L156 322.721Z" fill="#8659FF"/>
<path opacity="0.27" d="M200 322.721C200 323.427 199.427 324 198.721 324C200 324 197.869 324 197.094 324C196.32 324 196.193 324 195.451 324C194.708 324 190.997 324 190.229 324C191.023 324 189.461 324 190.229 324C191.023 324 189.436 324 190.229 324L190.229 69.8854C190.229 67.1873 192.416 65 195.115 65C197.813 65 200 67.1873 200 69.8854L200 322.721Z" fill="#8659FF"/>
<path opacity="0.27" d="M145 322.721C145 323.427 144.427 324 143.721 324C145 324 142.869 324 142.094 324C141.32 324 141.193 324 140.451 324C139.708 324 135.997 324 135.229 324C136.023 324 134.461 324 135.229 324C136.023 324 134.436 324 135.229 324L135.229 58.8854C135.229 56.1873 137.416 54 140.115 54C142.813 54 145 56.1873 145 58.8854L145 322.721Z" fill="#8659FF"/>
<path opacity="0.27" d="M145 63.7212C145 64.4275 144.427 65 143.721 65C145 65 142.869 65 142.094 65C141.32 65 141.193 65 140.451 65C139.708 65 135.997 65 135.229 65C136.023 65 134.461 65 135.229 65C136.023 65 134.436 65 135.229 65L135.229 58.8855C135.229 56.1873 137.416 54 140.115 54C142.813 54 145 56.1873 145 58.8854L145 63.7212Z" fill="#FF0000"/>
<path opacity="0.27" d="M211 322.721C211 323.427 210.427 324 209.721 324C211 324 208.869 324 208.094 324C207.32 324 207.193 324 206.451 324C205.708 324 201.997 324 201.229 324C202.023 324 200.461 324 201.229 324C202.023 324 200.436 324 201.229 324L201.229 58.8854C201.229 56.1873 203.416 54 206.115 54C208.813 54 211 56.1873 211 58.8854L211 322.721Z" fill="#8659FF"/>
<path opacity="0.27" d="M211 63.7212C211 64.4275 210.427 65 209.721 65C211 65 208.869 65 208.094 65C207.32 65 207.193 65 206.451 65C205.708 65 201.997 65 201.229 65C202.023 65 200.461 65 201.229 65C202.023 65 200.436 65 201.229 65L201.229 58.8855C201.229 56.1873 203.416 54 206.115 54C208.813 54 211 56.1873 211 58.8854L211 63.7212Z" fill="#FF0000"/>
<path opacity="0.27" d="M167 322.721C167 323.427 166.427 324 165.721 324C167 324 164.869 324 164.094 324C163.32 324 163.193 324 162.451 324C161.708 324 157.997 324 157.229 324C158.023 324 156.461 324 157.229 324C158.023 324 156.436 324 157.229 324L157.229 65.8854C157.229 63.1873 159.416 61 162.115 61C164.813 61 167 63.1873 167 65.8854L167 322.721Z" fill="#8659FF"/>
<path opacity="0.27" d="M167 70.7212C167 71.4275 166.427 72 165.721 72C167 72 164.869 72 164.094 72C163.32 72 163.193 72 162.451 72C161.708 72 157.997 72 157.229 72C158.023 72 156.461 72 157.229 72C158.023 72 156.436 72 157.229 72L157.229 65.8855C157.229 63.1873 159.416 61 162.115 61C164.813 61 167 63.1873 167 65.8854L167 70.7212Z" fill="#FFD600"/>
<path opacity="0.27" d="M178 322.721C178 323.427 177.427 324 176.721 324C178 324 175.869 324 175.094 324C174.32 324 174.193 324 173.451 324C172.708 324 168.997 324 168.229 324C169.023 324 167.461 324 168.229 324C169.023 324 167.436 324 168.229 324L168.229 65.8854C168.229 63.1873 170.416 61 173.115 61C175.813 61 178 63.1873 178 65.8854L178 322.721Z" fill="#8659FF"/>
<path opacity="0.27" d="M178 70.7212C178 71.4275 177.427 72 176.721 72C178 72 175.869 72 175.094 72C174.32 72 174.193 72 173.451 72C172.708 72 168.997 72 168.229 72C169.023 72 167.461 72 168.229 72C169.023 72 167.436 72 168.229 72L168.229 65.8855C168.229 63.1873 170.416 61 173.115 61C175.813 61 178 63.1873 178 65.8854L178 70.7212Z" fill="#FF0000"/>
<path opacity="0.27" d="M189 322.721C189 323.427 188.427 324 187.721 324C189 324 186.869 324 186.094 324C185.32 324 185.193 324 184.451 324C183.708 324 179.997 324 179.229 324C180.023 324 178.461 324 179.229 324C180.023 324 178.436 324 179.229 324L179.229 65.8854C179.229 63.1873 181.416 61 184.115 61C186.813 61 189 63.1873 189 65.8854L189 322.721Z" fill="#8659FF"/>
<path opacity="0.27" d="M189 70.7212C189 71.4275 188.427 72 187.721 72C189 72 186.869 72 186.094 72C185.32 72 185.193 72 184.451 72C183.708 72 179.997 72 179.229 72C180.023 72 178.461 72 179.229 72C180.023 72 178.436 72 179.229 72L179.229 65.8855C179.229 63.1873 181.416 61 184.115 61C186.813 61 189 63.1873 189 65.8854L189 70.7212Z" fill="#FF0000"/>
<path opacity="0.27" d="M310 322.721C310 323.427 309.427 324 308.721 324C310 324 307.869 324 307.094 324C306.32 324 306.193 324 305.451 324C304.708 324 300.997 324 300.229 324C301.023 324 299.461 324 300.229 324C301.023 324 299.436 324 300.229 324L300.229 167.73C300.229 165.032 302.416 162.844 305.115 162.844C307.813 162.844 310 165.032 310 167.73L310 322.721Z" fill="#8659FF"/>
<path opacity="0.27" d="M354 322.721C354 323.427 353.427 324 352.721 324C354 324 351.869 324 351.094 324C350.32 324 350.193 324 349.451 324C348.708 324 344.997 324 344.229 324C345.023 324 343.461 324 344.229 324C345.023 324 343.436 324 344.229 324L344.229 167.73C344.229 165.032 346.416 162.844 349.115 162.844C351.813 162.844 354 165.032 354 167.73L354 322.721Z" fill="#8659FF"/>
<path opacity="0.27" d="M299 322.721C299 323.427 298.427 324 297.721 324C299 324 296.869 324 296.094 324C295.32 324 295.193 324 294.451 324C293.708 324 289.997 324 289.229 324C290.023 324 288.461 324 289.229 324C290.023 324 288.436 324 289.229 324L289.229 160.885C289.229 158.187 291.416 156 294.115 156C296.813 156 299 158.187 299 160.885L299 322.721Z" fill="#8659FF"/>
<path opacity="0.27" d="M299 161.566C299 162.272 298.427 162.844 297.721 162.844C299 162.844 296.869 162.844 296.094 162.844C295.32 162.844 295.193 162.844 294.451 162.844C293.708 162.844 289.997 162.844 289.229 162.844C290.023 162.844 288.461 162.844 289.229 162.844C290.023 162.844 288.436 162.844 289.229 162.844L289.229 160.886C289.229 158.187 291.416 156 294.115 156L295.578 156C297.468 156 299 157.532 299 159.422L299 161.566Z" fill="#FF0000"/>
<path opacity="0.27" d="M365 322.721C365 323.427 364.427 324 363.721 324C365 324 362.869 324 362.094 324C361.32 324 361.193 324 360.451 324C359.708 324 355.997 324 355.229 324C356.023 324 354.461 324 355.229 324C356.023 324 354.436 324 355.229 324L355.229 160.885C355.229 158.187 357.416 156 360.115 156C362.813 156 365 158.187 365 160.885L365 322.721Z" fill="#8659FF"/>
<path opacity="0.27" d="M365 161.566C365 162.272 364.427 162.844 363.721 162.844C365 162.844 362.869 162.844 362.094 162.844C361.32 162.844 361.193 162.844 360.451 162.844C359.708 162.844 355.997 162.844 355.229 162.844C356.023 162.844 354.461 162.844 355.229 162.844C356.023 162.844 354.436 162.844 355.229 162.844L355.229 160.886C355.229 158.187 357.416 156 360.115 156L361.578 156C363.468 156 365 157.532 365 159.422L365 161.566Z" fill="#FF0000"/>
<path opacity="0.27" d="M321 322.721C321 323.427 320.427 324 319.721 324C321 324 318.869 324 318.094 324C317.32 324 317.193 324 316.451 324C315.708 324 311.997 324 311.229 324C312.023 324 310.461 324 311.229 324C312.023 324 310.436 324 311.229 324L311.229 165.241C311.229 162.543 313.416 160.356 316.115 160.356C318.813 160.356 321 162.543 321 165.241L321 322.721Z" fill="#8659FF"/>
<path opacity="0.27" d="M321 165.921C321 166.627 320.427 167.2 319.721 167.2C321 167.2 318.869 167.2 318.094 167.2C317.32 167.2 317.193 167.2 316.451 167.2C315.708 167.2 311.997 167.2 311.229 167.2C312.023 167.2 310.461 167.2 311.229 167.2C312.023 167.2 310.436 167.2 311.229 167.2L311.229 165.241C311.229 162.543 313.416 160.356 316.115 160.356L317.578 160.356C319.468 160.356 321 161.888 321 163.778L321 165.921Z" fill="#FF0000"/>
<path opacity="0.27" d="M332 322.721C332 323.427 331.427 324 330.721 324C332 324 329.869 324 329.094 324C328.32 324 328.193 324 327.451 324C326.708 324 322.997 324 322.229 324C323.023 324 321.461 324 322.229 324C323.023 324 321.436 324 322.229 324L322.229 165.241C322.229 162.543 324.416 160.356 327.115 160.356C329.813 160.356 332 162.543 332 165.241L332 322.721Z" fill="#8659FF"/>
<path opacity="0.27" d="M332 165.921C332 166.627 331.427 167.2 330.721 167.2C332 167.2 329.869 167.2 329.094 167.2C328.32 167.2 328.193 167.2 327.451 167.2C326.708 167.2 322.997 167.2 322.229 167.2C323.023 167.2 321.461 167.2 322.229 167.2C323.023 167.2 321.436 167.2 322.229 167.2L322.229 165.241C322.229 162.543 324.416 160.356 327.115 160.356L328.578 160.356C330.468 160.356 332 161.888 332 163.778L332 165.921Z" fill="#FFD600"/>
<path opacity="0.27" d="M343 322.721C343 323.427 342.427 324 341.721 324C343 324 340.869 324 340.094 324C339.32 324 339.193 324 338.451 324C337.708 324 333.997 324 333.229 324C334.023 324 332.461 324 333.229 324C334.023 324 332.436 324 333.229 324L333.229 165.241C333.229 162.543 335.416 160.356 338.115 160.356C340.813 160.356 343 162.543 343 165.241L343 322.721Z" fill="#8659FF"/>
<path opacity="0.27" d="M343 165.921C343 166.627 342.427 167.2 341.721 167.2C343 167.2 340.869 167.2 340.094 167.2C339.32 167.2 339.193 167.2 338.451 167.2C337.708 167.2 333.997 167.2 333.229 167.2C334.023 167.2 332.461 167.2 333.229 167.2C334.023 167.2 332.436 167.2 333.229 167.2L333.229 165.241C333.229 162.543 335.416 160.356 338.115 160.356L339.578 160.356C341.468 160.356 343 161.888 343 163.778L343 165.921Z" fill="#FF0000"/>
<path opacity="0.27" d="M464 322.721C464 323.427 463.427 324 462.721 324C464 324 461.869 324 461.094 324C460.32 324 460.193 324 459.451 324C458.708 324 454.997 324 454.229 324C455.023 324 453.461 324 454.229 324C455.023 324 453.436 324 454.229 324L454.229 108.256C454.229 105.558 456.416 103.37 459.115 103.37C461.813 103.37 464 105.558 464 108.256L464 322.721Z" fill="#8659FF"/>
<path opacity="0.27" d="M508 322.721C508 323.427 507.427 324 506.721 324C508 324 505.869 324 505.094 324C504.32 324 504.193 324 503.451 324C502.708 324 498.997 324 498.229 324C499.023 324 497.461 324 498.229 324C499.023 324 497.436 324 498.229 324L498.229 108.256C498.229 105.558 500.416 103.37 503.115 103.37C505.813 103.37 508 105.558 508 108.256L508 322.721Z" fill="#8659FF"/>
<path opacity="0.27" d="M453 322.721C453 323.427 452.427 324 451.721 324C453 324 450.869 324 450.094 324C449.32 324 449.193 324 448.451 324C447.708 324 443.997 324 443.229 324C444.023 324 442.461 324 443.229 324C444.023 324 442.436 324 443.229 324L443.229 98.8854C443.229 96.1873 445.416 94 448.115 94C450.813 94 453 96.1873 453 98.8854L453 322.721Z" fill="#8659FF"/>
<path opacity="0.27" d="M453 102.092C453 102.798 452.427 103.37 451.721 103.37C453 103.37 450.869 103.37 450.094 103.37C449.32 103.37 449.193 103.37 448.451 103.37C447.708 103.37 443.997 103.37 443.229 103.37C444.023 103.37 442.461 103.37 443.229 103.37C444.023 103.37 442.436 103.37 443.229 103.37L443.229 98.8855C443.229 96.1873 445.416 94 448.115 94L448.315 94C450.902 94 453 96.0976 453 98.6852L453 102.092Z" fill="#FF0000"/>
<path opacity="0.27" d="M519 322.721C519 323.427 518.427 324 517.721 324C519 324 516.869 324 516.094 324C515.32 324 515.193 324 514.451 324C513.708 324 509.997 324 509.229 324C510.023 324 508.461 324 509.229 324C510.023 324 508.436 324 509.229 324L509.229 98.8854C509.229 96.1873 511.416 94 514.115 94C516.813 94 519 96.1873 519 98.8854L519 322.721Z" fill="#8659FF"/>
<path opacity="0.27" d="M519 102.092C519 102.798 518.427 103.37 517.721 103.37C519 103.37 516.869 103.37 516.094 103.37C515.32 103.37 515.193 103.37 514.451 103.37C513.708 103.37 509.997 103.37 509.229 103.37C510.023 103.37 508.461 103.37 509.229 103.37C510.023 103.37 508.436 103.37 509.229 103.37L509.229 98.8855C509.229 96.1873 511.416 94 514.115 94L514.315 94C516.902 94 519 96.0976 519 98.6852L519 102.092Z" fill="#FF0000"/>
<path opacity="0.27" d="M475 322.721C475 323.427 474.427 324 473.721 324C475 324 472.869 324 472.094 324C471.32 324 471.193 324 470.451 324C469.708 324 465.997 324 465.229 324C466.023 324 464.461 324 465.229 324C466.023 324 464.436 324 465.229 324L465.229 104.848C465.229 102.15 467.416 99.963 470.115 99.963C472.813 99.963 475 102.15 475 104.848L475 322.721Z" fill="#8659FF"/>
<path opacity="0.27" d="M475 108.054C475 108.761 474.427 109.333 473.721 109.333C475 109.333 472.869 109.333 472.094 109.333C471.32 109.333 471.193 109.333 470.451 109.333C469.708 109.333 465.997 109.333 465.229 109.333C466.023 109.333 464.461 109.333 465.229 109.333C466.023 109.333 464.436 109.333 465.229 109.333L465.229 104.848C465.229 102.15 467.416 99.9629 470.115 99.9629L470.315 99.9629C472.902 99.9629 475 102.061 475 104.648L475 108.054Z" fill="#FF0000"/>
<path opacity="0.27" d="M486 322.721C486 323.427 485.427 324 484.721 324C486 324 483.869 324 483.094 324C482.32 324 482.193 324 481.451 324C480.708 324 476.997 324 476.229 324C477.023 324 475.461 324 476.229 324C477.023 324 475.436 324 476.229 324L476.229 104.848C476.229 102.15 478.416 99.963 481.115 99.963C483.813 99.963 486 102.15 486 104.848L486 322.721Z" fill="#8659FF"/>
<path opacity="0.27" d="M486 108.054C486 108.761 485.427 109.333 484.721 109.333C486 109.333 483.869 109.333 483.094 109.333C482.32 109.333 482.193 109.333 481.451 109.333C480.708 109.333 476.997 109.333 476.229 109.333C477.023 109.333 475.461 109.333 476.229 109.333C477.023 109.333 475.436 109.333 476.229 109.333L476.229 104.848C476.229 102.15 478.416 99.9629 481.115 99.9629L481.315 99.9629C483.902 99.9629 486 102.061 486 104.648L486 108.054Z" fill="#FFD600"/>
<path opacity="0.27" d="M497 322.721C497 323.427 496.427 324 495.721 324C497 324 494.869 324 494.094 324C493.32 324 493.193 324 492.451 324C491.708 324 487.997 324 487.229 324C488.023 324 486.461 324 487.229 324C488.023 324 486.436 324 487.229 324L487.229 104.848C487.229 102.15 489.416 99.963 492.115 99.963C494.813 99.963 497 102.15 497 104.848L497 322.721Z" fill="#8659FF"/>
<path opacity="0.27" d="M497 108.054C497 108.761 496.427 109.333 495.721 109.333C497 109.333 494.869 109.333 494.094 109.333C493.32 109.333 493.193 109.333 492.451 109.333C491.708 109.333 487.997 109.333 487.229 109.333C488.023 109.333 486.461 109.333 487.229 109.333C488.023 109.333 486.436 109.333 487.229 109.333L487.229 104.848C487.229 102.15 489.416 99.9629 492.115 99.9629L492.315 99.9629C494.902 99.9629 497 102.061 497 104.648L497 108.054Z" fill="#FF0000"/>
<path opacity="0.27" d="M541 322.721C541 323.427 540.427 324 539.721 324C541 324 538.869 324 538.094 324C537.32 324 537.193 324 536.451 324C535.708 324 531.997 324 531.229 324C532.023 324 530.461 324 531.229 324C532.023 324 530.436 324 531.229 324L531.229 156.219C531.229 153.521 533.416 151.333 536.115 151.333C538.813 151.333 541 153.521 541 156.219L541 322.721Z" fill="#8659FF"/>
<path opacity="0.27" d="M585 322.721C585 323.427 584.427 324 583.721 324C585 324 582.869 324 582.094 324C581.32 324 581.193 324 580.451 324C579.708 324 575.997 324 575.229 324C576.023 324 574.461 324 575.229 324C576.023 324 574.436 324 575.229 324L575.229 156.219C575.229 153.521 577.416 151.333 580.115 151.333C582.813 151.333 585 153.521 585 156.219L585 322.721Z" fill="#8659FF"/>
<path opacity="0.27" d="M530 322.721C530 323.427 529.427 324 528.721 324C530 324 527.869 324 527.094 324C526.32 324 526.193 324 525.451 324C524.708 324 520.997 324 520.229 324C521.023 324 519.461 324 520.229 324C521.023 324 519.436 324 520.229 324L520.229 148.885C520.229 146.187 522.416 144 525.115 144C527.813 144 530 146.187 530 148.885L530 322.721Z" fill="#8659FF"/>
<path opacity="0.27" d="M530 150.054C530 150.761 529.427 151.333 528.721 151.333C530 151.333 527.869 151.333 527.094 151.333C526.32 151.333 526.193 151.333 525.451 151.333C524.708 151.333 520.997 151.333 520.229 151.333C521.023 151.333 519.461 151.333 520.229 151.333C521.023 151.333 519.436 151.333 520.229 151.333L520.229 148.885C520.229 146.187 522.416 144 525.115 144L526.333 144C528.358 144 530 145.642 530 147.667L530 150.054Z" fill="#FF0000"/>
<path opacity="0.27" d="M552 322.721C552 323.427 551.427 324 550.721 324C552 324 549.869 324 549.094 324C548.32 324 548.193 324 547.451 324C546.708 324 542.997 324 542.229 324C543.023 324 541.461 324 542.229 324C543.023 324 541.436 324 542.229 324L542.229 153.552C542.229 150.854 544.416 148.667 547.115 148.667C549.813 148.667 552 150.854 552 153.552L552 322.721Z" fill="#8659FF"/>
<path opacity="0.27" d="M552 154.721C552 155.427 551.427 156 550.721 156C552 156 549.869 156 549.094 156C548.32 156 548.193 156 547.451 156C546.708 156 542.997 156 542.229 156C543.023 156 541.461 156 542.229 156C543.023 156 541.436 156 542.229 156L542.229 153.552C542.229 150.854 544.416 148.667 547.115 148.667L548.333 148.667C550.358 148.667 552 150.308 552 152.333L552 154.721Z" fill="#FF0000"/>
<path opacity="0.27" d="M563 322.721C563 323.427 562.427 324 561.721 324C563 324 560.869 324 560.094 324C559.32 324 559.193 324 558.451 324C557.708 324 553.997 324 553.229 324C554.023 324 552.461 324 553.229 324C554.023 324 552.436 324 553.229 324L553.229 153.552C553.229 150.854 555.416 148.667 558.115 148.667C560.813 148.667 563 150.854 563 153.552L563 322.721Z" fill="#8659FF"/>
<path opacity="0.27" d="M563 154.721C563 155.427 562.427 156 561.721 156C563 156 560.869 156 560.094 156C559.32 156 559.193 156 558.451 156C557.708 156 553.997 156 553.229 156C554.023 156 552.461 156 553.229 156C554.023 156 552.436 156 553.229 156L553.229 153.552C553.229 150.854 555.416 148.667 558.115 148.667L559.333 148.667C561.358 148.667 563 150.308 563 152.333L563 154.721Z" fill="#FF0000"/>
<path opacity="0.27" d="M574 322.721C574 323.427 573.427 324 572.721 324C574 324 571.869 324 571.094 324C570.32 324 570.193 324 569.451 324C568.708 324 564.997 324 564.229 324C565.023 324 563.461 324 564.229 324C565.023 324 563.436 324 564.229 324L564.229 153.552C564.229 150.854 566.416 148.667 569.115 148.667C571.813 148.667 574 150.854 574 153.552L574 322.721Z" fill="#8659FF"/>
<path opacity="0.27" d="M574 154.721C574 155.427 573.427 156 572.721 156C574 156 571.869 156 571.094 156C570.32 156 570.193 156 569.451 156C568.708 156 564.997 156 564.229 156C565.023 156 563.461 156 564.229 156C565.023 156 563.436 156 564.229 156L564.229 153.552C564.229 150.854 566.416 148.667 569.115 148.667L570.333 148.667C572.358 148.667 574 150.308 574 152.333L574 154.721Z" fill="#FF0000"/>
<path opacity="0.4" d="M4.96 18.224C4.192 18.224 3.504 18.0747 2.896 17.776C2.29867 17.4667 1.824 17.0293 1.472 16.464C1.13067 15.8987 0.96 15.2267 0.96 14.448V10.544C0.96 9.70133 1.12533 8.98667 1.456 8.4C1.78667 7.81333 2.25067 7.36533 2.848 7.056C3.456 6.736 4.176 6.576 5.008 6.576C5.82933 6.576 6.528 6.72533 7.104 7.024C7.69067 7.312 8.13333 7.712 8.432 8.224C8.74133 8.72533 8.896 9.30667 8.896 9.968H7.584C7.584 9.30667 7.37067 8.77333 6.944 8.368C6.51733 7.952 5.872 7.744 5.008 7.744C4.13333 7.744 3.456 7.984 2.976 8.464C2.496 8.93333 2.256 9.584 2.256 10.416V11.968H2.48C2.672 11.648 2.992 11.3547 3.44 11.088C3.888 10.8107 4.512 10.672 5.312 10.672C5.984 10.672 6.59733 10.8213 7.152 11.12C7.70667 11.4187 8.14933 11.84 8.48 12.384C8.81067 12.928 8.976 13.5733 8.976 14.32V14.512C8.976 15.2693 8.8 15.9253 8.448 16.48C8.10667 17.0347 7.632 17.4667 7.024 17.776C6.416 18.0747 5.728 18.224 4.96 18.224ZM4.96 17.056C5.77067 17.056 6.42667 16.8267 6.928 16.368C7.42933 15.9093 7.68 15.2853 7.68 14.496V14.368C7.68 13.8347 7.56267 13.376 7.328 12.992C7.104 12.608 6.78933 12.3093 6.384 12.096C5.97867 11.872 5.504 11.76 4.96 11.76C4.42667 11.76 3.95733 11.872 3.552 12.096C3.14667 12.3093 2.82667 12.608 2.592 12.992C2.368 13.376 2.256 13.8347 2.256 14.368V14.496C2.256 15.2853 2.50667 15.9093 3.008 16.368C3.50933 16.8267 4.16 17.056 4.96 17.056ZM14.9169 18.224C13.6475 18.224 12.6342 17.8507 11.8769 17.104C11.1302 16.3467 10.7569 15.216 10.7569 13.712V11.088C10.7569 9.59467 11.1302 8.46933 11.8769 7.712C12.6342 6.95467 13.6475 6.576 14.9169 6.576C16.1969 6.576 17.2102 6.95467 17.9569 7.712C18.7142 8.46933 19.0929 9.59467 19.0929 11.088V13.712C19.0929 15.216 18.7142 16.3467 17.9569 17.104C17.2102 17.8507 16.1969 18.224 14.9169 18.224ZM14.9169 17.056C15.8769 17.056 16.5969 16.768 17.0769 16.192C17.5569 15.616 17.7969 14.8107 17.7969 13.776V11.008C17.7969 9.97333 17.5515 9.17333 17.0609 8.608C16.5702 8.032 15.8555 7.744 14.9169 7.744C13.9782 7.744 13.2635 8.032 12.7729 8.608C12.2929 9.184 12.0529 9.984 12.0529 11.008V13.776C12.0529 14.8213 12.2929 15.632 12.7729 16.208C13.2529 16.7733 13.9675 17.056 14.9169 17.056ZM25.1669 18.224C23.8975 18.224 22.8842 17.8507 22.1269 17.104C21.3802 16.3467 21.0069 15.216 21.0069 13.712V11.088C21.0069 9.59467 21.3802 8.46933 22.1269 7.712C22.8842 6.95467 23.8975 6.576 25.1669 6.576C26.4469 6.576 27.4602 6.95467 28.2069 7.712C28.9642 8.46933 29.3429 9.59467 29.3429 11.088V13.712C29.3429 15.216 28.9642 16.3467 28.2069 17.104C27.4602 17.8507 26.4469 18.224 25.1669 18.224ZM25.1669 17.056C26.1269 17.056 26.8469 16.768 27.3269 16.192C27.8069 15.616 28.0469 14.8107 28.0469 13.776V11.008C28.0469 9.97333 27.8015 9.17333 27.3109 8.608C26.8202 8.032 26.1055 7.744 25.1669 7.744C24.2282 7.744 23.5135 8.032 23.0229 8.608C22.5429 9.184 22.3029 9.984 22.3029 11.008V13.776C22.3029 14.8213 22.5429 15.632 23.0229 16.208C23.5029 16.7733 24.2175 17.056 25.1669 17.056Z" fill="black"/>
<path opacity="0.4" d="M6.352 96V93.712H0.512V92.176L5.216 84.8H7.648V92.544H9.568V93.712H7.648V96H6.352ZM1.808 92.544H6.352V85.584H6.128L1.808 92.352V92.544ZM14.832 96.224C14.0107 96.224 13.3013 96.0693 12.704 95.76C12.1067 95.44 11.6427 95.0027 11.312 94.448C10.9813 93.8827 10.816 93.232 10.816 92.496V92.304H12.112V92.448C12.112 93.2907 12.3573 93.936 12.848 94.384C13.3387 94.832 13.9893 95.056 14.8 95.056C15.6533 95.056 16.32 94.816 16.8 94.336C17.28 93.856 17.52 93.2 17.52 92.368V92.224C17.52 91.424 17.2853 90.7893 16.816 90.32C16.3573 89.84 15.76 89.6 15.024 89.6C14.5973 89.6 14.2453 89.6693 13.968 89.808C13.6907 89.936 13.472 90.1013 13.312 90.304C13.152 90.496 13.0187 90.6827 12.912 90.864H11.152V84.8H18.512V85.968H12.448V89.84H12.672C12.7893 89.6267 12.9493 89.4187 13.152 89.216C13.3653 89.0133 13.648 88.8427 14 88.704C14.352 88.5653 14.7893 88.496 15.312 88.496C15.9627 88.496 16.5493 88.6453 17.072 88.944C17.6053 89.2427 18.0267 89.6693 18.336 90.224C18.656 90.7787 18.816 91.44 18.816 92.208V92.384C18.816 93.1413 18.656 93.808 18.336 94.384C18.016 94.96 17.5573 95.4133 16.96 95.744C16.3627 96.064 15.6533 96.224 14.832 96.224ZM24.6981 96.224C23.4288 96.224 22.4155 95.8507 21.6581 95.104C20.9115 94.3467 20.5381 93.216 20.5381 91.712V89.088C20.5381 87.5947 20.9115 86.4693 21.6581 85.712C22.4155 84.9547 23.4288 84.576 24.6981 84.576C25.9781 84.576 26.9915 84.9547 27.7381 85.712C28.4955 86.4693 28.8741 87.5947 28.8741 89.088V91.712C28.8741 93.216 28.4955 94.3467 27.7381 95.104C26.9915 95.8507 25.9781 96.224 24.6981 96.224ZM24.6981 95.056C25.6581 95.056 26.3781 94.768 26.8581 94.192C27.3381 93.616 27.5781 92.8107 27.5781 91.776V89.008C27.5781 87.9733 27.3328 87.1733 26.8421 86.608C26.3515 86.032 25.6368 85.744 24.6981 85.744C23.7595 85.744 23.0448 86.032 22.5541 86.608C22.0741 87.184 21.8341 87.984 21.8341 89.008V91.776C21.8341 92.8213 22.0741 93.632 22.5541 94.208C23.0341 94.7733 23.7488 95.056 24.6981 95.056Z" fill="black"/>
<path opacity="0.4" d="M4.848 174.224C4.05867 174.224 3.34933 174.075 2.72 173.776C2.10133 173.477 1.61067 173.045 1.248 172.48C0.896 171.915 0.72 171.232 0.72 170.432V170.128H2.016V170.416C2.016 171.237 2.27733 171.883 2.8 172.352C3.32267 172.821 4.00533 173.056 4.848 173.056C5.70133 173.056 6.36267 172.837 6.832 172.4C7.312 171.952 7.552 171.392 7.552 170.72V170.592C7.552 170.101 7.43467 169.707 7.2 169.408C6.96533 169.099 6.64533 168.875 6.24 168.736C5.84533 168.587 5.408 168.512 4.928 168.512H3.104V166.896L7.376 164.16V163.968H0.992V162.8H8.752V164.608L4.576 167.296V167.488H5.376C6.00533 167.488 6.58133 167.605 7.104 167.84C7.63733 168.064 8.05867 168.405 8.368 168.864C8.688 169.312 8.848 169.877 8.848 170.56V170.736C8.848 171.44 8.68267 172.053 8.352 172.576C8.02133 173.099 7.55733 173.504 6.96 173.792C6.36267 174.08 5.65867 174.224 4.848 174.224ZM14.7763 174.224C13.5069 174.224 12.4936 173.851 11.7363 173.104C10.9896 172.347 10.6163 171.216 10.6163 169.712V167.088C10.6163 165.595 10.9896 164.469 11.7363 163.712C12.4936 162.955 13.5069 162.576 14.7763 162.576C16.0563 162.576 17.0696 162.955 17.8163 163.712C18.5736 164.469 18.9523 165.595 18.9523 167.088V169.712C18.9523 171.216 18.5736 172.347 17.8163 173.104C17.0696 173.851 16.0563 174.224 14.7763 174.224ZM14.7763 173.056C15.7363 173.056 16.4563 172.768 16.9363 172.192C17.4163 171.616 17.6562 170.811 17.6562 169.776V167.008C17.6562 165.973 17.4109 165.173 16.9203 164.608C16.4296 164.032 15.7149 163.744 14.7763 163.744C13.8376 163.744 13.1229 164.032 12.6323 164.608C12.1523 165.184 11.9123 165.984 11.9123 167.008V169.776C11.9123 170.821 12.1523 171.632 12.6323 172.208C13.1123 172.773 13.8269 173.056 14.7763 173.056ZM25.0263 174.224C23.7569 174.224 22.7436 173.851 21.9863 173.104C21.2396 172.347 20.8663 171.216 20.8663 169.712V167.088C20.8663 165.595 21.2396 164.469 21.9863 163.712C22.7436 162.955 23.7569 162.576 25.0263 162.576C26.3063 162.576 27.3196 162.955 28.0663 163.712C28.8236 164.469 29.2023 165.595 29.2023 167.088V169.712C29.2023 171.216 28.8236 172.347 28.0663 173.104C27.3196 173.851 26.3063 174.224 25.0263 174.224ZM25.0263 173.056C25.9863 173.056 26.7063 172.768 27.1863 172.192C27.6663 171.616 27.9062 170.811 27.9062 169.776V167.008C27.9062 165.973 27.6609 165.173 27.1703 164.608C26.6796 164.032 25.9649 163.744 25.0263 163.744C24.0876 163.744 23.3729 164.032 22.8823 164.608C22.4023 165.184 22.1623 165.984 22.1623 167.008V169.776C22.1623 170.821 22.4023 171.632 22.8823 172.208C23.3623 172.773 24.0769 173.056 25.0263 173.056Z" fill="black"/>
<path opacity="0.4" d="M4.112 252V241.664H3.872L1.696 245.648H0.288L2.96 240.8H5.408V252H4.112ZM11.5195 252.224C10.6982 252.224 9.98883 252.069 9.3915 251.76C8.79417 251.44 8.33017 251.003 7.9995 250.448C7.66883 249.883 7.5035 249.232 7.5035 248.496V248.304H8.7995V248.448C8.7995 249.291 9.04483 249.936 9.5355 250.384C10.0262 250.832 10.6768 251.056 11.4875 251.056C12.3408 251.056 13.0075 250.816 13.4875 250.336C13.9675 249.856 14.2075 249.2 14.2075 248.368V248.224C14.2075 247.424 13.9728 246.789 13.5035 246.32C13.0448 245.84 12.4475 245.6 11.7115 245.6C11.2848 245.6 10.9328 245.669 10.6555 245.808C10.3782 245.936 10.1595 246.101 9.9995 246.304C9.8395 246.496 9.70617 246.683 9.5995 246.864H7.8395V240.8H15.1995V241.968H9.1355V245.84H9.3595C9.47683 245.627 9.63683 245.419 9.8395 245.216C10.0528 245.013 10.3355 244.843 10.6875 244.704C11.0395 244.565 11.4768 244.496 11.9995 244.496C12.6502 244.496 13.2368 244.645 13.7595 244.944C14.2928 245.243 14.7142 245.669 15.0235 246.224C15.3435 246.779 15.5035 247.44 15.5035 248.208V248.384C15.5035 249.141 15.3435 249.808 15.0235 250.384C14.7035 250.96 14.2448 251.413 13.6475 251.744C13.0502 252.064 12.3408 252.224 11.5195 252.224ZM21.3856 252.224C20.1163 252.224 19.103 251.851 18.3456 251.104C17.599 250.347 17.2256 249.216 17.2256 247.712V245.088C17.2256 243.595 17.599 242.469 18.3456 241.712C19.103 240.955 20.1163 240.576 21.3856 240.576C22.6656 240.576 23.679 240.955 24.4256 241.712C25.183 242.469 25.5616 243.595 25.5616 245.088V247.712C25.5616 249.216 25.183 250.347 24.4256 251.104C23.679 251.851 22.6656 252.224 21.3856 252.224ZM21.3856 251.056C22.3456 251.056 23.0656 250.768 23.5456 250.192C24.0256 249.616 24.2656 248.811 24.2656 247.776V245.008C24.2656 243.973 24.0203 243.173 23.5296 242.608C23.039 242.032 22.3243 241.744 21.3856 241.744C20.447 241.744 19.7323 242.032 19.2416 242.608C18.7616 243.184 18.5216 243.984 18.5216 245.008V247.776C18.5216 248.821 18.7616 249.632 19.2416 250.208C19.7216 250.773 20.4363 251.056 21.3856 251.056Z" fill="black"/>
<path opacity="0.4" d="M5.12 330.224C3.85067 330.224 2.83733 329.851 2.08 329.104C1.33333 328.347 0.96 327.216 0.96 325.712V323.088C0.96 321.595 1.33333 320.469 2.08 319.712C2.83733 318.955 3.85067 318.576 5.12 318.576C6.4 318.576 7.41333 318.955 8.16 319.712C8.91733 320.469 9.296 321.595 9.296 323.088V325.712C9.296 327.216 8.91733 328.347 8.16 329.104C7.41333 329.851 6.4 330.224 5.12 330.224ZM5.12 329.056C6.08 329.056 6.8 328.768 7.28 328.192C7.76 327.616 8 326.811 8 325.776V323.008C8 321.973 7.75467 321.173 7.264 320.608C6.77333 320.032 6.05867 319.744 5.12 319.744C4.18133 319.744 3.46667 320.032 2.976 320.608C2.496 321.184 2.256 321.984 2.256 323.008V325.776C2.256 326.821 2.496 327.632 2.976 328.208C3.456 328.773 4.17067 329.056 5.12 329.056Z" fill="black"/>
<path opacity="0.4" d="M62.4403 375.224C61.171 375.224 60.1576 374.851 59.4003 374.104C58.6536 373.347 58.2803 372.216 58.2803 370.712V368.088C58.2803 366.595 58.6536 365.469 59.4003 364.712C60.1576 363.955 61.171 363.576 62.4403 363.576C63.7203 363.576 64.7336 363.955 65.4803 364.712C66.2376 365.469 66.6163 366.595 66.6163 368.088V370.712C66.6163 372.216 66.2376 373.347 65.4803 374.104C64.7336 374.851 63.7203 375.224 62.4403 375.224ZM62.4403 374.056C63.4003 374.056 64.1203 373.768 64.6003 373.192C65.0803 372.616 65.3203 371.811 65.3203 370.776V368.008C65.3203 366.973 65.075 366.173 64.5843 365.608C64.0936 365.032 63.379 364.744 62.4403 364.744C61.5016 364.744 60.787 365.032 60.2963 365.608C59.8163 366.184 59.5763 366.984 59.5763 368.008V370.776C59.5763 371.821 59.8163 372.632 60.2963 373.208C60.7763 373.773 61.491 374.056 62.4403 374.056ZM71.6823 375V364.664H71.4423L69.2663 368.648H67.8583L70.5303 363.8H72.9783V375H71.6823ZM79.6472 375V363.8H86.4152V365.016H80.9912V368.776H85.9832V369.992H80.9912V375H79.6472ZM91.8261 375.224C91.0367 375.224 90.3434 375.059 89.7461 374.728C89.1487 374.387 88.6847 373.912 88.3541 373.304C88.0234 372.696 87.8581 371.992 87.8581 371.192V371C87.8581 370.189 88.0234 369.48 88.3541 368.872C88.6847 368.264 89.1434 367.795 89.7301 367.464C90.3167 367.123 90.9887 366.952 91.7461 366.952C92.4821 366.952 93.1327 367.112 93.6981 367.432C94.2634 367.741 94.7061 368.189 95.0261 368.776C95.3461 369.363 95.5061 370.051 95.5061 370.84V371.416H89.1221C89.1541 372.259 89.4261 372.92 89.9381 373.4C90.4501 373.869 91.0901 374.104 91.8581 374.104C92.5301 374.104 93.0474 373.949 93.4101 373.64C93.7727 373.331 94.0501 372.963 94.2421 372.536L95.3301 373.064C95.1701 373.395 94.9461 373.725 94.6581 374.056C94.3807 374.387 94.0127 374.664 93.5541 374.888C93.1061 375.112 92.5301 375.224 91.8261 375.224ZM89.1381 370.376H94.2261C94.1834 369.651 93.9327 369.085 93.4741 368.68C93.0261 368.275 92.4501 368.072 91.7461 368.072C91.0314 368.072 90.4447 368.275 89.9861 368.68C89.5274 369.085 89.2447 369.651 89.1381 370.376ZM102.047 375.224C101.236 375.224 100.601 375.069 100.143 374.76C99.6948 374.451 99.3695 374.099 99.1668 373.704H98.9428V375H97.7108V363.8H98.9748V368.408H99.1988C99.3268 368.163 99.5081 367.933 99.7428 367.72C99.9775 367.496 100.281 367.315 100.655 367.176C101.039 367.027 101.503 366.952 102.047 366.952C102.729 366.952 103.348 367.117 103.903 367.448C104.468 367.768 104.916 368.232 105.247 368.84C105.577 369.437 105.743 370.152 105.743 370.984V371.192C105.743 372.024 105.572 372.744 105.231 373.352C104.9 373.96 104.452 374.424 103.887 374.744C103.332 375.064 102.719 375.224 102.047 375.224ZM101.711 374.104C102.521 374.104 103.177 373.848 103.679 373.336C104.191 372.813 104.447 372.088 104.447 371.16V371.016C104.447 370.088 104.191 369.368 103.679 368.856C103.177 368.333 102.521 368.072 101.711 368.072C100.911 368.072 100.249 368.333 99.7268 368.856C99.2148 369.368 98.9588 370.088 98.9588 371.016V371.16C98.9588 372.088 99.2148 372.813 99.7268 373.336C100.249 373.848 100.911 374.104 101.711 374.104Z" fill="black"/>
<path opacity="0.4" d="M129.464 375.224C128.194 375.224 127.181 374.851 126.424 374.104C125.677 373.347 125.304 372.216 125.304 370.712V368.088C125.304 366.595 125.677 365.469 126.424 364.712C127.181 363.955 128.194 363.576 129.464 363.576C130.744 363.576 131.757 363.955 132.504 364.712C133.261 365.469 133.64 366.595 133.64 368.088V370.712C133.64 372.216 133.261 373.347 132.504 374.104C131.757 374.851 130.744 375.224 129.464 375.224ZM129.464 374.056C130.424 374.056 131.144 373.768 131.624 373.192C132.104 372.616 132.344 371.811 132.344 370.776V368.008C132.344 366.973 132.098 366.173 131.608 365.608C131.117 365.032 130.402 364.744 129.464 364.744C128.525 364.744 127.81 365.032 127.32 365.608C126.84 366.184 126.6 366.984 126.6 368.008V370.776C126.6 371.821 126.84 372.632 127.32 373.208C127.8 373.773 128.514 374.056 129.464 374.056ZM135.442 375V373.832C135.442 373.032 135.58 372.392 135.858 371.912C136.146 371.432 136.54 371.048 137.042 370.76C137.554 370.461 138.162 370.205 138.866 369.992L139.746 369.72C140.226 369.571 140.647 369.389 141.01 369.176C141.372 368.952 141.655 368.675 141.858 368.344C142.06 368.003 142.162 367.587 142.162 367.096V367.032C142.162 366.328 141.916 365.773 141.426 365.368C140.935 364.952 140.306 364.744 139.538 364.744C138.727 364.744 138.066 364.963 137.554 365.4C137.042 365.827 136.786 366.477 136.786 367.352V367.576H135.506V367.368C135.506 366.557 135.682 365.869 136.034 365.304C136.386 364.739 136.866 364.312 137.474 364.024C138.082 363.725 138.77 363.576 139.538 363.576C140.306 363.576 140.983 363.72 141.57 364.008C142.167 364.296 142.631 364.696 142.962 365.208C143.292 365.72 143.458 366.317 143.458 367V367.144C143.458 367.869 143.314 368.472 143.026 368.952C142.738 369.421 142.338 369.805 141.826 370.104C141.324 370.403 140.732 370.659 140.05 370.872L139.186 371.144C138.642 371.315 138.188 371.496 137.826 371.688C137.474 371.869 137.207 372.104 137.026 372.392C136.844 372.68 136.754 373.069 136.754 373.56V373.832H143.362V375H135.442ZM149.624 375V363.8H156.392V365.016H150.968V368.776H155.96V369.992H150.968V375H149.624ZM161.803 375.224C161.013 375.224 160.32 375.059 159.723 374.728C159.125 374.387 158.661 373.912 158.331 373.304C158 372.696 157.835 371.992 157.835 371.192V371C157.835 370.189 158 369.48 158.331 368.872C158.661 368.264 159.12 367.795 159.707 367.464C160.293 367.123 160.965 366.952 161.723 366.952C162.459 366.952 163.109 367.112 163.675 367.432C164.24 367.741 164.683 368.189 165.003 368.776C165.323 369.363 165.483 370.051 165.483 370.84V371.416H159.099C159.131 372.259 159.403 372.92 159.915 373.4C160.427 373.869 161.067 374.104 161.835 374.104C162.507 374.104 163.024 373.949 163.387 373.64C163.749 373.331 164.027 372.963 164.219 372.536L165.307 373.064C165.147 373.395 164.923 373.725 164.635 374.056C164.357 374.387 163.989 374.664 163.531 374.888C163.083 375.112 162.507 375.224 161.803 375.224ZM159.115 370.376H164.203C164.16 369.651 163.909 369.085 163.451 368.68C163.003 368.275 162.427 368.072 161.723 368.072C161.008 368.072 160.421 368.275 159.963 368.68C159.504 369.085 159.221 369.651 159.115 370.376ZM172.023 375.224C171.213 375.224 170.578 375.069 170.119 374.76C169.671 374.451 169.346 374.099 169.143 373.704H168.919V375H167.687V363.8H168.951V368.408H169.175C169.303 368.163 169.485 367.933 169.719 367.72C169.954 367.496 170.258 367.315 170.631 367.176C171.015 367.027 171.479 366.952 172.023 366.952C172.706 366.952 173.325 367.117 173.879 367.448C174.445 367.768 174.893 368.232 175.223 368.84C175.554 369.437 175.719 370.152 175.719 370.984V371.192C175.719 372.024 175.549 372.744 175.207 373.352C174.877 373.96 174.429 374.424 173.863 374.744C173.309 375.064 172.695 375.224 172.023 375.224ZM171.687 374.104C172.498 374.104 173.154 373.848 173.655 373.336C174.167 372.813 174.423 372.088 174.423 371.16V371.016C174.423 370.088 174.167 369.368 173.655 368.856C173.154 368.333 172.498 368.072 171.687 368.072C170.887 368.072 170.226 368.333 169.703 368.856C169.191 369.368 168.935 370.088 168.935 371.016V371.16C168.935 372.088 169.191 372.813 169.703 373.336C170.226 373.848 170.887 374.104 171.687 374.104Z" fill="black"/>
<path opacity="0.4" d="M199.464 375.224C198.194 375.224 197.181 374.851 196.424 374.104C195.677 373.347 195.304 372.216 195.304 370.712V368.088C195.304 366.595 195.677 365.469 196.424 364.712C197.181 363.955 198.194 363.576 199.464 363.576C200.744 363.576 201.757 363.955 202.504 364.712C203.261 365.469 203.64 366.595 203.64 368.088V370.712C203.64 372.216 203.261 373.347 202.504 374.104C201.757 374.851 200.744 375.224 199.464 375.224ZM199.464 374.056C200.424 374.056 201.144 373.768 201.624 373.192C202.104 372.616 202.344 371.811 202.344 370.776V368.008C202.344 366.973 202.098 366.173 201.608 365.608C201.117 365.032 200.402 364.744 199.464 364.744C198.525 364.744 197.81 365.032 197.32 365.608C196.84 366.184 196.6 366.984 196.6 368.008V370.776C196.6 371.821 196.84 372.632 197.32 373.208C197.8 373.773 198.514 374.056 199.464 374.056ZM205.442 375V373.832C205.442 373.032 205.58 372.392 205.858 371.912C206.146 371.432 206.54 371.048 207.042 370.76C207.554 370.461 208.162 370.205 208.866 369.992L209.746 369.72C210.226 369.571 210.647 369.389 211.01 369.176C211.372 368.952 211.655 368.675 211.858 368.344C212.06 368.003 212.162 367.587 212.162 367.096V367.032C212.162 366.328 211.916 365.773 211.426 365.368C210.935 364.952 210.306 364.744 209.538 364.744C208.727 364.744 208.066 364.963 207.554 365.4C207.042 365.827 206.786 366.477 206.786 367.352V367.576H205.506V367.368C205.506 366.557 205.682 365.869 206.034 365.304C206.386 364.739 206.866 364.312 207.474 364.024C208.082 363.725 208.77 363.576 209.538 363.576C210.306 363.576 210.983 363.72 211.57 364.008C212.167 364.296 212.631 364.696 212.962 365.208C213.292 365.72 213.458 366.317 213.458 367V367.144C213.458 367.869 213.314 368.472 213.026 368.952C212.738 369.421 212.338 369.805 211.826 370.104C211.324 370.403 210.732 370.659 210.05 370.872L209.186 371.144C208.642 371.315 208.188 371.496 207.826 371.688C207.474 371.869 207.207 372.104 207.026 372.392C206.844 372.68 206.754 373.069 206.754 373.56V373.832H213.362V375H205.442ZM219.624 375V363.8H226.392V365.016H220.968V368.776H225.96V369.992H220.968V375H219.624ZM231.803 375.224C231.013 375.224 230.32 375.059 229.723 374.728C229.125 374.387 228.661 373.912 228.331 373.304C228 372.696 227.835 371.992 227.835 371.192V371C227.835 370.189 228 369.48 228.331 368.872C228.661 368.264 229.12 367.795 229.707 367.464C230.293 367.123 230.965 366.952 231.723 366.952C232.459 366.952 233.109 367.112 233.675 367.432C234.24 367.741 234.683 368.189 235.003 368.776C235.323 369.363 235.483 370.051 235.483 370.84V371.416H229.099C229.131 372.259 229.403 372.92 229.915 373.4C230.427 373.869 231.067 374.104 231.835 374.104C232.507 374.104 233.024 373.949 233.387 373.64C233.749 373.331 234.027 372.963 234.219 372.536L235.307 373.064C235.147 373.395 234.923 373.725 234.635 374.056C234.357 374.387 233.989 374.664 233.531 374.888C233.083 375.112 232.507 375.224 231.803 375.224ZM229.115 370.376H234.203C234.16 369.651 233.909 369.085 233.451 368.68C233.003 368.275 232.427 368.072 231.723 368.072C231.008 368.072 230.421 368.275 229.963 368.68C229.504 369.085 229.221 369.651 229.115 370.376ZM242.023 375.224C241.213 375.224 240.578 375.069 240.119 374.76C239.671 374.451 239.346 374.099 239.143 373.704H238.919V375H237.687V363.8H238.951V368.408H239.175C239.303 368.163 239.485 367.933 239.719 367.72C239.954 367.496 240.258 367.315 240.631 367.176C241.015 367.027 241.479 366.952 242.023 366.952C242.706 366.952 243.325 367.117 243.879 367.448C244.445 367.768 244.893 368.232 245.223 368.84C245.554 369.437 245.719 370.152 245.719 370.984V371.192C245.719 372.024 245.549 372.744 245.207 373.352C244.877 373.96 244.429 374.424 243.863 374.744C243.309 375.064 242.695 375.224 242.023 375.224ZM241.687 374.104C242.498 374.104 243.154 373.848 243.655 373.336C244.167 372.813 244.423 372.088 244.423 371.16V371.016C244.423 370.088 244.167 369.368 243.655 368.856C243.154 368.333 242.498 368.072 241.687 368.072C240.887 368.072 240.226 368.333 239.703 368.856C239.191 369.368 238.935 370.088 238.935 371.016V371.16C238.935 372.088 239.191 372.813 239.703 373.336C240.226 373.848 240.887 374.104 241.687 374.104Z" fill="black"/>
<path opacity="0.4" d="M269.284 375.224C268.015 375.224 267.001 374.851 266.244 374.104C265.497 373.347 265.124 372.216 265.124 370.712V368.088C265.124 366.595 265.497 365.469 266.244 364.712C267.001 363.955 268.015 363.576 269.284 363.576C270.564 363.576 271.577 363.955 272.324 364.712C273.081 365.469 273.46 366.595 273.46 368.088V370.712C273.46 372.216 273.081 373.347 272.324 374.104C271.577 374.851 270.564 375.224 269.284 375.224ZM269.284 374.056C270.244 374.056 270.964 373.768 271.444 373.192C271.924 372.616 272.164 371.811 272.164 370.776V368.008C272.164 366.973 271.919 366.173 271.428 365.608C270.937 365.032 270.223 364.744 269.284 364.744C268.345 364.744 267.631 365.032 267.14 365.608C266.66 366.184 266.42 366.984 266.42 368.008V370.776C266.42 371.821 266.66 372.632 267.14 373.208C267.62 373.773 268.335 374.056 269.284 374.056ZM280.766 375V372.712H274.926V371.176L279.63 363.8H282.062V371.544H283.982V372.712H282.062V375H280.766ZM276.222 371.544H280.766V364.584H280.542L276.222 371.352V371.544ZM289.803 375V363.8H296.571V365.016H291.147V368.776H296.139V369.992H291.147V375H289.803ZM301.982 375.224C301.193 375.224 300.5 375.059 299.902 374.728C299.305 374.387 298.841 373.912 298.51 373.304C298.18 372.696 298.014 371.992 298.014 371.192V371C298.014 370.189 298.18 369.48 298.51 368.872C298.841 368.264 299.3 367.795 299.886 367.464C300.473 367.123 301.145 366.952 301.902 366.952C302.638 366.952 303.289 367.112 303.854 367.432C304.42 367.741 304.862 368.189 305.182 368.776C305.502 369.363 305.662 370.051 305.662 370.84V371.416H299.278C299.31 372.259 299.582 372.92 300.094 373.4C300.606 373.869 301.246 374.104 302.014 374.104C302.686 374.104 303.204 373.949 303.566 373.64C303.929 373.331 304.206 372.963 304.398 372.536L305.486 373.064C305.326 373.395 305.102 373.725 304.814 374.056C304.537 374.387 304.169 374.664 303.71 374.888C303.262 375.112 302.686 375.224 301.982 375.224ZM299.294 370.376H304.382C304.34 369.651 304.089 369.085 303.63 368.68C303.182 368.275 302.606 368.072 301.902 368.072C301.188 368.072 300.601 368.275 300.142 368.68C299.684 369.085 299.401 369.651 299.294 370.376ZM312.203 375.224C311.392 375.224 310.758 375.069 310.299 374.76C309.851 374.451 309.526 374.099 309.323 373.704H309.099V375H307.867V363.8H309.131V368.408H309.355C309.483 368.163 309.664 367.933 309.899 367.72C310.134 367.496 310.438 367.315 310.811 367.176C311.195 367.027 311.659 366.952 312.203 366.952C312.886 366.952 313.504 367.117 314.059 367.448C314.624 367.768 315.072 368.232 315.403 368.84C315.734 369.437 315.899 370.152 315.899 370.984V371.192C315.899 372.024 315.728 372.744 315.387 373.352C315.056 373.96 314.608 374.424 314.043 374.744C313.488 375.064 312.875 375.224 312.203 375.224ZM311.867 374.104C312.678 374.104 313.334 373.848 313.835 373.336C314.347 372.813 314.603 372.088 314.603 371.16V371.016C314.603 370.088 314.347 369.368 313.835 368.856C313.334 368.333 312.678 368.072 311.867 368.072C311.067 368.072 310.406 368.333 309.883 368.856C309.371 369.368 309.115 370.088 309.115 371.016V371.16C309.115 372.088 309.371 372.813 309.883 373.336C310.406 373.848 311.067 374.104 311.867 374.104Z" fill="black"/>
<path opacity="0.4" d="M339.495 375.224C338.226 375.224 337.212 374.851 336.455 374.104C335.708 373.347 335.335 372.216 335.335 370.712V368.088C335.335 366.595 335.708 365.469 336.455 364.712C337.212 363.955 338.226 363.576 339.495 363.576C340.775 363.576 341.788 363.955 342.535 364.712C343.292 365.469 343.671 366.595 343.671 368.088V370.712C343.671 372.216 343.292 373.347 342.535 374.104C341.788 374.851 340.775 375.224 339.495 375.224ZM339.495 374.056C340.455 374.056 341.175 373.768 341.655 373.192C342.135 372.616 342.375 371.811 342.375 370.776V368.008C342.375 366.973 342.13 366.173 341.639 365.608C341.148 365.032 340.434 364.744 339.495 364.744C338.556 364.744 337.842 365.032 337.351 365.608C336.871 366.184 336.631 366.984 336.631 368.008V370.776C336.631 371.821 336.871 372.632 337.351 373.208C337.831 373.773 338.546 374.056 339.495 374.056ZM349.457 375.224C348.636 375.224 347.926 375.069 347.329 374.76C346.732 374.44 346.268 374.003 345.937 373.448C345.606 372.883 345.441 372.232 345.441 371.496V371.304H346.737V371.448C346.737 372.291 346.982 372.936 347.473 373.384C347.964 373.832 348.614 374.056 349.425 374.056C350.278 374.056 350.945 373.816 351.425 373.336C351.905 372.856 352.145 372.2 352.145 371.368V371.224C352.145 370.424 351.91 369.789 351.441 369.32C350.982 368.84 350.385 368.6 349.649 368.6C349.222 368.6 348.87 368.669 348.593 368.808C348.316 368.936 348.097 369.101 347.937 369.304C347.777 369.496 347.644 369.683 347.537 369.864H345.777V363.8H353.137V364.968H347.073V368.84H347.297C347.414 368.627 347.574 368.419 347.777 368.216C347.99 368.013 348.273 367.843 348.625 367.704C348.977 367.565 349.414 367.496 349.937 367.496C350.588 367.496 351.174 367.645 351.697 367.944C352.23 368.243 352.652 368.669 352.961 369.224C353.281 369.779 353.441 370.44 353.441 371.208V371.384C353.441 372.141 353.281 372.808 352.961 373.384C352.641 373.96 352.182 374.413 351.585 374.744C350.988 375.064 350.278 375.224 349.457 375.224ZM359.593 375V363.8H366.361V365.016H360.937V368.776H365.929V369.992H360.937V375H359.593ZM371.771 375.224C370.982 375.224 370.289 375.059 369.691 374.728C369.094 374.387 368.63 373.912 368.299 373.304C367.969 372.696 367.803 371.992 367.803 371.192V371C367.803 370.189 367.969 369.48 368.299 368.872C368.63 368.264 369.089 367.795 369.675 367.464C370.262 367.123 370.934 366.952 371.691 366.952C372.427 366.952 373.078 367.112 373.643 367.432C374.209 367.741 374.651 368.189 374.971 368.776C375.291 369.363 375.451 370.051 375.451 370.84V371.416H369.067C369.099 372.259 369.371 372.92 369.883 373.4C370.395 373.869 371.035 374.104 371.803 374.104C372.475 374.104 372.993 373.949 373.355 373.64C373.718 373.331 373.995 372.963 374.187 372.536L375.275 373.064C375.115 373.395 374.891 373.725 374.603 374.056C374.326 374.387 373.958 374.664 373.499 374.888C373.051 375.112 372.475 375.224 371.771 375.224ZM369.083 370.376H374.171C374.129 369.651 373.878 369.085 373.419 368.68C372.971 368.275 372.395 368.072 371.691 368.072C370.977 368.072 370.39 368.275 369.931 368.68C369.473 369.085 369.19 369.651 369.083 370.376ZM381.992 375.224C381.181 375.224 380.547 375.069 380.088 374.76C379.64 374.451 379.315 374.099 379.112 373.704H378.888V375H377.656V363.8H378.92V368.408H379.144C379.272 368.163 379.453 367.933 379.688 367.72C379.923 367.496 380.227 367.315 380.6 367.176C380.984 367.027 381.448 366.952 381.992 366.952C382.675 366.952 383.293 367.117 383.848 367.448C384.413 367.768 384.861 368.232 385.192 368.84C385.523 369.437 385.688 370.152 385.688 370.984V371.192C385.688 372.024 385.517 372.744 385.176 373.352C384.845 373.96 384.397 374.424 383.832 374.744C383.277 375.064 382.664 375.224 381.992 375.224ZM381.656 374.104C382.467 374.104 383.123 373.848 383.624 373.336C384.136 372.813 384.392 372.088 384.392 371.16V371.016C384.392 370.088 384.136 369.368 383.624 368.856C383.123 368.333 382.467 368.072 381.656 368.072C380.856 368.072 380.195 368.333 379.672 368.856C379.16 369.368 378.904 370.088 378.904 371.016V371.16C378.904 372.088 379.16 372.813 379.672 373.336C380.195 373.848 380.856 374.104 381.656 374.104Z" fill="black"/>
<path opacity="0.4" d="M409.386 375.224C408.116 375.224 407.103 374.851 406.346 374.104C405.599 373.347 405.226 372.216 405.226 370.712V368.088C405.226 366.595 405.599 365.469 406.346 364.712C407.103 363.955 408.116 363.576 409.386 363.576C410.666 363.576 411.679 363.955 412.426 364.712C413.183 365.469 413.562 366.595 413.562 368.088V370.712C413.562 372.216 413.183 373.347 412.426 374.104C411.679 374.851 410.666 375.224 409.386 375.224ZM409.386 374.056C410.346 374.056 411.066 373.768 411.546 373.192C412.026 372.616 412.266 371.811 412.266 370.776V368.008C412.266 366.973 412.02 366.173 411.53 365.608C411.039 365.032 410.324 364.744 409.386 364.744C408.447 364.744 407.732 365.032 407.242 365.608C406.762 366.184 406.522 366.984 406.522 368.008V370.776C406.522 371.821 406.762 372.632 407.242 373.208C407.722 373.773 408.436 374.056 409.386 374.056ZM419.476 375.224C418.708 375.224 418.02 375.075 417.412 374.776C416.814 374.467 416.34 374.029 415.988 373.464C415.646 372.899 415.476 372.227 415.476 371.448V367.544C415.476 366.701 415.641 365.987 415.972 365.4C416.302 364.813 416.766 364.365 417.364 364.056C417.972 363.736 418.692 363.576 419.524 363.576C420.345 363.576 421.044 363.725 421.62 364.024C422.206 364.312 422.649 364.712 422.948 365.224C423.257 365.725 423.412 366.307 423.412 366.968H422.1C422.1 366.307 421.886 365.773 421.46 365.368C421.033 364.952 420.388 364.744 419.524 364.744C418.649 364.744 417.972 364.984 417.492 365.464C417.012 365.933 416.772 366.584 416.772 367.416V368.968H416.996C417.188 368.648 417.508 368.355 417.956 368.088C418.404 367.811 419.028 367.672 419.828 367.672C420.5 367.672 421.113 367.821 421.668 368.12C422.222 368.419 422.665 368.84 422.996 369.384C423.326 369.928 423.492 370.573 423.492 371.32V371.512C423.492 372.269 423.316 372.925 422.964 373.48C422.622 374.035 422.148 374.467 421.54 374.776C420.932 375.075 420.244 375.224 419.476 375.224ZM419.476 374.056C420.286 374.056 420.942 373.827 421.444 373.368C421.945 372.909 422.196 372.285 422.196 371.496V371.368C422.196 370.835 422.078 370.376 421.844 369.992C421.62 369.608 421.305 369.309 420.9 369.096C420.494 368.872 420.02 368.76 419.476 368.76C418.942 368.76 418.473 368.872 418.068 369.096C417.662 369.309 417.342 369.608 417.108 369.992C416.884 370.376 416.772 370.835 416.772 371.368V371.496C416.772 372.285 417.022 372.909 417.524 373.368C418.025 373.827 418.676 374.056 419.476 374.056ZM429.702 375V363.8H436.47V365.016H431.046V368.776H436.038V369.992H431.046V375H429.702ZM441.881 375.224C441.091 375.224 440.398 375.059 439.801 374.728C439.203 374.387 438.739 373.912 438.409 373.304C438.078 372.696 437.913 371.992 437.913 371.192V371C437.913 370.189 438.078 369.48 438.409 368.872C438.739 368.264 439.198 367.795 439.785 367.464C440.371 367.123 441.043 366.952 441.801 366.952C442.537 366.952 443.187 367.112 443.753 367.432C444.318 367.741 444.761 368.189 445.081 368.776C445.401 369.363 445.561 370.051 445.561 370.84V371.416H439.177C439.209 372.259 439.481 372.92 439.993 373.4C440.505 373.869 441.145 374.104 441.913 374.104C442.585 374.104 443.102 373.949 443.465 373.64C443.827 373.331 444.105 372.963 444.297 372.536L445.385 373.064C445.225 373.395 445.001 373.725 444.713 374.056C444.435 374.387 444.067 374.664 443.609 374.888C443.161 375.112 442.585 375.224 441.881 375.224ZM439.193 370.376H444.281C444.238 369.651 443.987 369.085 443.529 368.68C443.081 368.275 442.505 368.072 441.801 368.072C441.086 368.072 440.499 368.275 440.041 368.68C439.582 369.085 439.299 369.651 439.193 370.376ZM452.102 375.224C451.291 375.224 450.656 375.069 450.198 374.76C449.75 374.451 449.424 374.099 449.222 373.704H448.998V375H447.766V363.8H449.03V368.408H449.254C449.382 368.163 449.563 367.933 449.798 367.72C450.032 367.496 450.336 367.315 450.71 367.176C451.094 367.027 451.558 366.952 452.102 366.952C452.784 366.952 453.403 367.117 453.958 367.448C454.523 367.768 454.971 368.232 455.302 368.84C455.632 369.437 455.798 370.152 455.798 370.984V371.192C455.798 372.024 455.627 372.744 455.286 373.352C454.955 373.96 454.507 374.424 453.942 374.744C453.387 375.064 452.774 375.224 452.102 375.224ZM451.766 374.104C452.576 374.104 453.232 373.848 453.734 373.336C454.246 372.813 454.502 372.088 454.502 371.16V371.016C454.502 370.088 454.246 369.368 453.734 368.856C453.232 368.333 452.576 368.072 451.766 368.072C450.966 368.072 450.304 368.333 449.782 368.856C449.27 369.368 449.014 370.088 449.014 371.016V371.16C449.014 372.088 449.27 372.813 449.782 373.336C450.304 373.848 450.966 374.104 451.766 374.104Z" fill="black"/>
<path opacity="0.4" d="M479.409 375.224C478.14 375.224 477.126 374.851 476.369 374.104C475.622 373.347 475.249 372.216 475.249 370.712V368.088C475.249 366.595 475.622 365.469 476.369 364.712C477.126 363.955 478.14 363.576 479.409 363.576C480.689 363.576 481.702 363.955 482.449 364.712C483.206 365.469 483.585 366.595 483.585 368.088V370.712C483.585 372.216 483.206 373.347 482.449 374.104C481.702 374.851 480.689 375.224 479.409 375.224ZM479.409 374.056C480.369 374.056 481.089 373.768 481.569 373.192C482.049 372.616 482.289 371.811 482.289 370.776V368.008C482.289 366.973 482.044 366.173 481.553 365.608C481.062 365.032 480.348 364.744 479.409 364.744C478.47 364.744 477.756 365.032 477.265 365.608C476.785 366.184 476.545 366.984 476.545 368.008V370.776C476.545 371.821 476.785 372.632 477.265 373.208C477.745 373.773 478.46 374.056 479.409 374.056ZM486.69 375V374.6C486.69 374.227 486.722 373.912 486.786 373.656C486.85 373.4 486.972 373.096 487.154 372.744L491.426 365.144V364.968H484.77V363.8H492.786V365.336L488.322 373.336C488.194 373.56 488.103 373.763 488.05 373.944C488.007 374.125 487.986 374.355 487.986 374.632V375H486.69ZM498.678 375V363.8H505.446V365.016H500.022V368.776H505.014V369.992H500.022V375H498.678ZM510.857 375.224C510.068 375.224 509.375 375.059 508.777 374.728C508.18 374.387 507.716 373.912 507.385 373.304C507.055 372.696 506.889 371.992 506.889 371.192V371C506.889 370.189 507.055 369.48 507.385 368.872C507.716 368.264 508.175 367.795 508.761 367.464C509.348 367.123 510.02 366.952 510.777 366.952C511.513 366.952 512.164 367.112 512.729 367.432C513.295 367.741 513.737 368.189 514.057 368.776C514.377 369.363 514.537 370.051 514.537 370.84V371.416H508.153C508.185 372.259 508.457 372.92 508.969 373.4C509.481 373.869 510.121 374.104 510.889 374.104C511.561 374.104 512.079 373.949 512.441 373.64C512.804 373.331 513.081 372.963 513.273 372.536L514.361 373.064C514.201 373.395 513.977 373.725 513.689 374.056C513.412 374.387 513.044 374.664 512.585 374.888C512.137 375.112 511.561 375.224 510.857 375.224ZM508.169 370.376H513.257C513.215 369.651 512.964 369.085 512.505 368.68C512.057 368.275 511.481 368.072 510.777 368.072C510.063 368.072 509.476 368.275 509.017 368.68C508.559 369.085 508.276 369.651 508.169 370.376ZM521.078 375.224C520.267 375.224 519.633 375.069 519.174 374.76C518.726 374.451 518.401 374.099 518.198 373.704H517.974V375H516.742V363.8H518.006V368.408H518.23C518.358 368.163 518.539 367.933 518.774 367.72C519.009 367.496 519.313 367.315 519.686 367.176C520.07 367.027 520.534 366.952 521.078 366.952C521.761 366.952 522.379 367.117 522.934 367.448C523.499 367.768 523.947 368.232 524.278 368.84C524.609 369.437 524.774 370.152 524.774 370.984V371.192C524.774 372.024 524.603 372.744 524.262 373.352C523.931 373.96 523.483 374.424 522.918 374.744C522.363 375.064 521.75 375.224 521.078 375.224ZM520.742 374.104C521.553 374.104 522.209 373.848 522.71 373.336C523.222 372.813 523.478 372.088 523.478 371.16V371.016C523.478 370.088 523.222 369.368 522.71 368.856C522.209 368.333 521.553 368.072 520.742 368.072C519.942 368.072 519.281 368.333 518.758 368.856C518.246 369.368 517.99 370.088 517.99 371.016V371.16C517.99 372.088 518.246 372.813 518.758 373.336C519.281 373.848 519.942 374.104 520.742 374.104Z" fill="black"/>
<path opacity="0.4" d="M548.3 375.224C547.03 375.224 546.017 374.851 545.26 374.104C544.513 373.347 544.14 372.216 544.14 370.712V368.088C544.14 366.595 544.513 365.469 545.26 364.712C546.017 363.955 547.03 363.576 548.3 363.576C549.58 363.576 550.593 363.955 551.34 364.712C552.097 365.469 552.476 366.595 552.476 368.088V370.712C552.476 372.216 552.097 373.347 551.34 374.104C550.593 374.851 549.58 375.224 548.3 375.224ZM548.3 374.056C549.26 374.056 549.98 373.768 550.46 373.192C550.94 372.616 551.18 371.811 551.18 370.776V368.008C551.18 366.973 550.934 366.173 550.444 365.608C549.953 365.032 549.238 364.744 548.3 364.744C547.361 364.744 546.646 365.032 546.156 365.608C545.676 366.184 545.436 366.984 545.436 368.008V370.776C545.436 371.821 545.676 372.632 546.156 373.208C546.636 373.773 547.35 374.056 548.3 374.056ZM558.406 375.224C557.542 375.224 556.79 375.096 556.15 374.84C555.52 374.573 555.03 374.205 554.678 373.736C554.336 373.256 554.166 372.696 554.166 372.056V371.88C554.166 371.325 554.283 370.867 554.518 370.504C554.752 370.141 555.035 369.864 555.366 369.672C555.707 369.469 556.022 369.341 556.31 369.288V369.08C556.022 368.995 555.723 368.856 555.414 368.664C555.115 368.472 554.864 368.211 554.662 367.88C554.47 367.549 554.374 367.144 554.374 366.664V366.488C554.374 365.88 554.544 365.363 554.886 364.936C555.238 364.499 555.718 364.163 556.326 363.928C556.934 363.693 557.627 363.576 558.406 363.576C559.195 363.576 559.888 363.693 560.486 363.928C561.094 364.163 561.568 364.499 561.91 364.936C562.262 365.363 562.438 365.88 562.438 366.488V366.664C562.438 367.144 562.342 367.549 562.15 367.88C561.958 368.211 561.712 368.472 561.414 368.664C561.115 368.856 560.816 368.995 560.518 369.08V369.288C560.816 369.341 561.131 369.469 561.462 369.672C561.792 369.864 562.07 370.141 562.294 370.504C562.528 370.867 562.646 371.325 562.646 371.88V372.056C562.646 372.696 562.475 373.256 562.134 373.736C561.792 374.205 561.302 374.573 560.662 374.84C560.032 375.096 559.28 375.224 558.406 375.224ZM558.406 374.056C559.312 374.056 560.027 373.88 560.55 373.528C561.083 373.176 561.35 372.664 561.35 371.992V371.864C561.35 371.192 561.088 370.68 560.566 370.328C560.043 369.976 559.323 369.8 558.406 369.8C557.499 369.8 556.784 369.976 556.262 370.328C555.739 370.68 555.478 371.192 555.478 371.864V371.992C555.478 372.664 555.739 373.176 556.262 373.528C556.795 373.88 557.51 374.056 558.406 374.056ZM558.406 368.632C559.259 368.632 559.926 368.472 560.406 368.152C560.896 367.821 561.142 367.357 561.142 366.76V366.632C561.142 366.024 560.896 365.56 560.406 365.24C559.915 364.909 559.248 364.744 558.406 364.744C557.563 364.744 556.896 364.909 556.406 365.24C555.915 365.56 555.67 366.024 555.67 366.632V366.76C555.67 367.357 555.915 367.821 556.406 368.152C556.896 368.472 557.563 368.632 558.406 368.632ZM568.788 375V363.8H575.556V365.016H570.132V368.776H575.124V369.992H570.132V375H568.788ZM580.967 375.224C580.177 375.224 579.484 375.059 578.887 374.728C578.289 374.387 577.825 373.912 577.495 373.304C577.164 372.696 576.999 371.992 576.999 371.192V371C576.999 370.189 577.164 369.48 577.495 368.872C577.825 368.264 578.284 367.795 578.871 367.464C579.457 367.123 580.129 366.952 580.887 366.952C581.623 366.952 582.273 367.112 582.839 367.432C583.404 367.741 583.847 368.189 584.167 368.776C584.487 369.363 584.647 370.051 584.647 370.84V371.416H578.263C578.295 372.259 578.567 372.92 579.079 373.4C579.591 373.869 580.231 374.104 580.999 374.104C581.671 374.104 582.188 373.949 582.551 373.64C582.913 373.331 583.191 372.963 583.383 372.536L584.471 373.064C584.311 373.395 584.087 373.725 583.799 374.056C583.521 374.387 583.153 374.664 582.695 374.888C582.247 375.112 581.671 375.224 580.967 375.224ZM578.279 370.376H583.367C583.324 369.651 583.073 369.085 582.615 368.68C582.167 368.275 581.591 368.072 580.887 368.072C580.172 368.072 579.585 368.275 579.127 368.68C578.668 369.085 578.385 369.651 578.279 370.376ZM591.187 375.224C590.377 375.224 589.742 375.069 589.283 374.76C588.835 374.451 588.51 374.099 588.307 373.704H588.083V375H586.851V363.8H588.115V368.408H588.339C588.467 368.163 588.649 367.933 588.883 367.72C589.118 367.496 589.422 367.315 589.795 367.176C590.179 367.027 590.643 366.952 591.187 366.952C591.87 366.952 592.489 367.117 593.043 367.448C593.609 367.768 594.057 368.232 594.387 368.84C594.718 369.437 594.883 370.152 594.883 370.984V371.192C594.883 372.024 594.713 372.744 594.371 373.352C594.041 373.96 593.593 374.424 593.027 374.744C592.473 375.064 591.859 375.224 591.187 375.224ZM590.851 374.104C591.662 374.104 592.318 373.848 592.819 373.336C593.331 372.813 593.587 372.088 593.587 371.16V371.016C593.587 370.088 593.331 369.368 592.819 368.856C592.318 368.333 591.662 368.072 590.851 368.072C590.051 368.072 589.39 368.333 588.867 368.856C588.355 369.368 588.099 370.088 588.099 371.016V371.16C588.099 372.088 588.355 372.813 588.867 373.336C589.39 373.848 590.051 374.104 590.851 374.104Z" fill="black"/>
<line opacity="0.2" x1="59" y1="11.5" x2="584" y2="11.5" stroke="#999999"/>
<line opacity="0.2" x1="59" y1="167.5" x2="584" y2="167.5" stroke="#999999"/>
<line opacity="0.2" x1="59" y1="89.5" x2="584" y2="89.5" stroke="#999999"/>
<line opacity="0.2" x1="59" y1="323.5" x2="584" y2="323.5" stroke="#999999"/>
<line opacity="0.2" x1="59" y1="245.5" x2="584" y2="245.5" stroke="#999999"/>
</svg>
