<svg width="552" height="73" viewBox="0 0 552 73" fill="none" xmlns="http://www.w3.org/2000/svg">
<path d="M4.4 67L7.856 55.8H10.224L13.68 67H12.288L11.424 64.168H6.656L5.792 67H4.4ZM6.992 62.952H11.072L9.152 56.616H8.928L6.992 62.952ZM15.4061 70.2V59.176H16.6381V60.472H16.8621C17.0648 60.0773 17.3901 59.7253 17.8381 59.416C18.2968 59.1067 18.9315 58.952 19.7421 58.952C20.4141 58.952 21.0275 59.1173 21.5821 59.448C22.1475 59.768 22.5955 60.2267 22.9261 60.824C23.2675 61.4213 23.4381 62.1413 23.4381 62.984V63.192C23.4381 64.024 23.2728 64.744 22.9421 65.352C22.6115 65.96 22.1635 66.424 21.5981 66.744C21.0435 67.064 20.4248 67.224 19.7421 67.224C19.1981 67.224 18.7341 67.1493 18.3501 67C17.9768 66.8613 17.6728 66.68 17.4381 66.456C17.2035 66.232 17.0221 66.0027 16.8941 65.768H16.6701V70.2H15.4061ZM19.4061 66.104C20.2168 66.104 20.8728 65.848 21.3741 65.336C21.8861 64.8133 22.1421 64.088 22.1421 63.16V63.016C22.1421 62.088 21.8861 61.368 21.3741 60.856C20.8728 60.3333 20.2168 60.072 19.4061 60.072C18.6061 60.072 17.9448 60.3333 17.4221 60.856C16.9101 61.368 16.6541 62.088 16.6541 63.016V63.16C16.6541 64.088 16.9101 64.8133 17.4221 65.336C17.9448 65.848 18.6061 66.104 19.4061 66.104ZM25.703 70.2V59.176H26.935V60.472H27.159C27.3617 60.0773 27.687 59.7253 28.135 59.416C28.5937 59.1067 29.2283 58.952 30.039 58.952C30.711 58.952 31.3243 59.1173 31.879 59.448C32.4443 59.768 32.8923 60.2267 33.223 60.824C33.5643 61.4213 33.735 62.1413 33.735 62.984V63.192C33.735 64.024 33.5697 64.744 33.239 65.352C32.9083 65.96 32.4603 66.424 31.895 66.744C31.3403 67.064 30.7217 67.224 30.039 67.224C29.495 67.224 29.031 67.1493 28.647 67C28.2737 66.8613 27.9697 66.68 27.735 66.456C27.5003 66.232 27.319 66.0027 27.191 65.768H26.967V70.2H25.703ZM29.703 66.104C30.5137 66.104 31.1697 65.848 31.671 65.336C32.183 64.8133 32.439 64.088 32.439 63.16V63.016C32.439 62.088 32.183 61.368 31.671 60.856C31.1697 60.3333 30.5137 60.072 29.703 60.072C28.903 60.072 28.2417 60.3333 27.719 60.856C27.207 61.368 26.951 62.088 26.951 63.016V63.16C26.951 64.088 27.207 64.8133 27.719 65.336C28.2417 65.848 28.903 66.104 29.703 66.104ZM35.9999 67V59.176H37.2319V60.136H37.4559C37.5945 59.7947 37.8079 59.544 38.0959 59.384C38.3839 59.224 38.7625 59.144 39.2319 59.144H40.1599V60.296H39.1519C38.5865 60.296 38.1279 60.456 37.7759 60.776C37.4345 61.0853 37.2639 61.5707 37.2639 62.232V67H35.9999ZM45.3659 67.224C44.5765 67.224 43.8779 67.0587 43.2699 66.728C42.6725 66.3973 42.2032 65.9333 41.8619 65.336C41.5312 64.728 41.3659 64.0133 41.3659 63.192V62.984C41.3659 62.1733 41.5312 61.464 41.8619 60.856C42.2032 60.248 42.6725 59.7787 43.2699 59.448C43.8779 59.1173 44.5765 58.952 45.3659 58.952C46.1552 58.952 46.8485 59.1173 47.4459 59.448C48.0539 59.7787 48.5232 60.248 48.8539 60.856C49.1952 61.464 49.3659 62.1733 49.3659 62.984V63.192C49.3659 64.0133 49.1952 64.728 48.8539 65.336C48.5232 65.9333 48.0539 66.3973 47.4459 66.728C46.8485 67.0587 46.1552 67.224 45.3659 67.224ZM45.3659 66.088C46.1979 66.088 46.8592 65.8267 47.3499 65.304C47.8512 64.7707 48.1019 64.056 48.1019 63.16V63.016C48.1019 62.12 47.8512 61.4107 47.3499 60.888C46.8592 60.3547 46.1979 60.088 45.3659 60.088C44.5445 60.088 43.8832 60.3547 43.3819 60.888C42.8805 61.4107 42.6299 62.12 42.6299 63.016V63.16C42.6299 64.056 42.8805 64.7707 43.3819 65.304C43.8832 65.8267 44.5445 66.088 45.3659 66.088ZM53.2964 67L50.4964 59.176H51.8404L54.1924 66.056H54.4164L56.7684 59.176H58.1124L55.3124 67H53.2964ZM63.1933 67.224C62.4039 67.224 61.7106 67.0587 61.1133 66.728C60.5159 66.3867 60.0519 65.912 59.7213 65.304C59.3906 64.696 59.2253 63.992 59.2253 63.192V63C59.2253 62.1893 59.3906 61.48 59.7213 60.872C60.0519 60.264 60.5106 59.7947 61.0973 59.464C61.6839 59.1227 62.3559 58.952 63.1133 58.952C63.8493 58.952 64.4999 59.112 65.0653 59.432C65.6306 59.7413 66.0733 60.1893 66.3933 60.776C66.7133 61.3627 66.8733 62.0507 66.8733 62.84V63.416H60.4893C60.5213 64.2587 60.7933 64.92 61.3053 65.4C61.8173 65.8693 62.4573 66.104 63.2253 66.104C63.8973 66.104 64.4146 65.9493 64.7773 65.64C65.1399 65.3307 65.4173 64.9627 65.6093 64.536L66.6973 65.064C66.5373 65.3947 66.3133 65.7253 66.0253 66.056C65.7479 66.3867 65.3799 66.664 64.9213 66.888C64.4733 67.112 63.8973 67.224 63.1933 67.224ZM60.5053 62.376H65.5933C65.5506 61.6507 65.2999 61.0853 64.8413 60.68C64.3933 60.2747 63.8173 60.072 63.1133 60.072C62.3986 60.072 61.8119 60.2747 61.3533 60.68C60.8946 61.0853 60.6119 61.6507 60.5053 62.376Z" fill="white"/>
<path d="M243.768 67V65.8H245.336V57H243.768V55.8H248.136C249.608 55.8 250.744 56.1733 251.544 56.92C252.354 57.6667 252.76 58.8133 252.76 60.36V62.44C252.76 63.9973 252.354 65.1493 251.544 65.896C250.744 66.632 249.608 67 248.136 67H243.768ZM246.68 65.784H248.136C249.224 65.784 250.045 65.5173 250.6 64.984C251.154 64.4507 251.432 63.624 251.432 62.504V60.312C251.432 59.1707 251.154 58.3387 250.6 57.816C250.045 57.2933 249.224 57.032 248.136 57.032H246.68V65.784ZM258.537 67.224C257.748 67.224 257.054 67.0587 256.457 66.728C255.86 66.3867 255.396 65.912 255.065 65.304C254.734 64.696 254.569 63.992 254.569 63.192V63C254.569 62.1893 254.734 61.48 255.065 60.872C255.396 60.264 255.854 59.7947 256.441 59.464C257.028 59.1227 257.7 58.952 258.457 58.952C259.193 58.952 259.844 59.112 260.409 59.432C260.974 59.7413 261.417 60.1893 261.737 60.776C262.057 61.3627 262.217 62.0507 262.217 62.84V63.416H255.833C255.865 64.2587 256.137 64.92 256.649 65.4C257.161 65.8693 257.801 66.104 258.569 66.104C259.241 66.104 259.758 65.9493 260.121 65.64C260.484 65.3307 260.761 64.9627 260.953 64.536L262.041 65.064C261.881 65.3947 261.657 65.7253 261.369 66.056C261.092 66.3867 260.724 66.664 260.265 66.888C259.817 67.112 259.241 67.224 258.537 67.224ZM255.849 62.376H260.937C260.894 61.6507 260.644 61.0853 260.185 60.68C259.737 60.2747 259.161 60.072 258.457 60.072C257.742 60.072 257.156 60.2747 256.697 60.68C256.238 61.0853 255.956 61.6507 255.849 62.376ZM264.422 67V55.8H265.686V67H264.422ZM271.928 67.224C271.138 67.224 270.445 67.0587 269.848 66.728C269.25 66.3867 268.786 65.912 268.456 65.304C268.125 64.696 267.96 63.992 267.96 63.192V63C267.96 62.1893 268.125 61.48 268.456 60.872C268.786 60.264 269.245 59.7947 269.832 59.464C270.418 59.1227 271.09 58.952 271.848 58.952C272.584 58.952 273.234 59.112 273.8 59.432C274.365 59.7413 274.808 60.1893 275.128 60.776C275.448 61.3627 275.608 62.0507 275.608 62.84V63.416H269.224C269.256 64.2587 269.528 64.92 270.04 65.4C270.552 65.8693 271.192 66.104 271.96 66.104C272.632 66.104 273.149 65.9493 273.512 65.64C273.874 65.3307 274.152 64.9627 274.344 64.536L275.432 65.064C275.272 65.3947 275.048 65.7253 274.76 66.056C274.482 66.3867 274.114 66.664 273.656 66.888C273.208 67.112 272.632 67.224 271.928 67.224ZM269.24 62.376H274.328C274.285 61.6507 274.034 61.0853 273.576 60.68C273.128 60.2747 272.552 60.072 271.848 60.072C271.133 60.072 270.546 60.2747 270.088 60.68C269.629 61.0853 269.346 61.6507 269.24 62.376ZM277.428 63.128V62.904C277.428 62.0827 277.594 61.3787 277.924 60.792C278.255 60.2053 278.703 59.752 279.268 59.432C279.834 59.112 280.452 58.952 281.124 58.952C281.946 58.952 282.575 59.112 283.012 59.432C283.46 59.7413 283.791 60.088 284.004 60.472H284.228V59.176H285.428V68.824C285.428 69.2507 285.311 69.5867 285.076 69.832C284.842 70.0773 284.5 70.2 284.052 70.2H278.74V69.08H283.716C284.036 69.08 284.196 68.92 284.196 68.6V65.624H283.972C283.844 65.8587 283.663 66.088 283.428 66.312C283.194 66.536 282.89 66.7227 282.516 66.872C282.143 67.0107 281.679 67.08 281.124 67.08C280.452 67.08 279.834 66.92 279.268 66.6C278.703 66.28 278.255 65.8267 277.924 65.24C277.594 64.6427 277.428 63.9387 277.428 63.128ZM281.46 65.96C282.271 65.96 282.927 65.704 283.428 65.192C283.94 64.68 284.196 63.976 284.196 63.08V62.952C284.196 62.0453 283.94 61.3413 283.428 60.84C282.927 60.328 282.271 60.072 281.46 60.072C280.66 60.072 279.999 60.328 279.476 60.84C278.964 61.3413 278.708 62.0453 278.708 62.952V63.08C278.708 63.976 278.964 64.68 279.476 65.192C279.999 65.704 280.66 65.96 281.46 65.96ZM290.478 67.224C289.934 67.224 289.438 67.128 288.99 66.936C288.542 66.744 288.19 66.4667 287.934 66.104C287.678 65.7413 287.55 65.2987 287.55 64.776C287.55 64.2427 287.678 63.8053 287.934 63.464C288.19 63.112 288.542 62.8507 288.99 62.68C289.438 62.4987 289.939 62.408 290.494 62.408H293.134V61.832C293.134 61.2773 292.969 60.84 292.638 60.52C292.318 60.2 291.838 60.04 291.198 60.04C290.569 60.04 290.078 60.1947 289.726 60.504C289.374 60.8027 289.134 61.208 289.006 61.72L287.822 61.336C287.95 60.8987 288.153 60.504 288.43 60.152C288.707 59.7893 289.075 59.5013 289.534 59.288C290.003 59.064 290.563 58.952 291.214 58.952C292.217 58.952 292.995 59.2133 293.55 59.736C294.105 60.248 294.382 60.9733 294.382 61.912V65.448C294.382 65.768 294.531 65.928 294.83 65.928H295.55V67H294.446C294.094 67 293.811 66.904 293.598 66.712C293.385 66.5093 293.278 66.2427 293.278 65.912V65.832H293.086C292.969 66.0347 292.809 66.248 292.606 66.472C292.414 66.6853 292.147 66.8613 291.806 67C291.465 67.1493 291.022 67.224 290.478 67.224ZM290.622 66.136C291.369 66.136 291.971 65.9173 292.43 65.48C292.899 65.032 293.134 64.408 293.134 63.608V63.432H290.542C290.041 63.432 289.625 63.544 289.294 63.768C288.974 63.9813 288.814 64.3067 288.814 64.744C288.814 65.1813 288.979 65.5227 289.31 65.768C289.651 66.0133 290.089 66.136 290.622 66.136ZM299.646 67C299.198 67 298.851 66.8773 298.606 66.632C298.371 66.3867 298.254 66.0507 298.254 65.624V60.28H295.902V59.176H298.254V56.392H299.518V59.176H302.078V60.28H299.518V65.432C299.518 65.752 299.672 65.912 299.982 65.912H301.726V67H299.646ZM307.428 67.224C306.638 67.224 305.945 67.0587 305.348 66.728C304.75 66.3867 304.286 65.912 303.956 65.304C303.625 64.696 303.46 63.992 303.46 63.192V63C303.46 62.1893 303.625 61.48 303.956 60.872C304.286 60.264 304.745 59.7947 305.332 59.464C305.918 59.1227 306.59 58.952 307.348 58.952C308.084 58.952 308.734 59.112 309.3 59.432C309.865 59.7413 310.308 60.1893 310.628 60.776C310.948 61.3627 311.108 62.0507 311.108 62.84V63.416H304.724C304.756 64.2587 305.028 64.92 305.54 65.4C306.052 65.8693 306.692 66.104 307.46 66.104C308.132 66.104 308.649 65.9493 309.012 65.64C309.374 65.3307 309.652 64.9627 309.844 64.536L310.932 65.064C310.772 65.3947 310.548 65.7253 310.26 66.056C309.982 66.3867 309.614 66.664 309.156 66.888C308.708 67.112 308.132 67.224 307.428 67.224ZM304.74 62.376H309.828C309.785 61.6507 309.534 61.0853 309.076 60.68C308.628 60.2747 308.052 60.072 307.348 60.072C306.633 60.072 306.046 60.2747 305.588 60.68C305.129 61.0853 304.846 61.6507 304.74 62.376Z" fill="white"/>
<path d="M473.203 67.224C471.87 67.224 470.808 66.84 470.019 66.072C469.23 65.2933 468.835 64.1627 468.835 62.68V60.12C468.835 58.6373 469.23 57.512 470.019 56.744C470.808 55.9653 471.87 55.576 473.203 55.576C474.526 55.576 475.539 55.944 476.243 56.68C476.958 57.416 477.315 58.424 477.315 59.704V59.784H475.987V59.656C475.987 58.8133 475.758 58.1253 475.299 57.592C474.851 57.048 474.152 56.776 473.203 56.776C472.254 56.776 471.512 57.0693 470.979 57.656C470.446 58.232 470.179 59.0427 470.179 60.088V62.712C470.179 63.7573 470.446 64.5733 470.979 65.16C471.512 65.736 472.254 66.024 473.203 66.024C474.152 66.024 474.851 65.7573 475.299 65.224C475.758 64.68 475.987 63.9867 475.987 63.144V62.888H477.315V63.096C477.315 64.376 476.958 65.384 476.243 66.12C475.539 66.856 474.526 67.224 473.203 67.224ZM483.085 67.224C482.295 67.224 481.597 67.0587 480.989 66.728C480.391 66.3973 479.922 65.9333 479.581 65.336C479.25 64.728 479.085 64.0133 479.085 63.192V62.984C479.085 62.1733 479.25 61.464 479.581 60.856C479.922 60.248 480.391 59.7787 480.989 59.448C481.597 59.1173 482.295 58.952 483.085 58.952C483.874 58.952 484.567 59.1173 485.165 59.448C485.773 59.7787 486.242 60.248 486.573 60.856C486.914 61.464 487.085 62.1733 487.085 62.984V63.192C487.085 64.0133 486.914 64.728 486.573 65.336C486.242 65.9333 485.773 66.3973 485.165 66.728C484.567 67.0587 483.874 67.224 483.085 67.224ZM483.085 66.088C483.917 66.088 484.578 65.8267 485.069 65.304C485.57 64.7707 485.821 64.056 485.821 63.16V63.016C485.821 62.12 485.57 61.4107 485.069 60.888C484.578 60.3547 483.917 60.088 483.085 60.088C482.263 60.088 481.602 60.3547 481.101 60.888C480.599 61.4107 480.349 62.12 480.349 63.016V63.16C480.349 64.056 480.599 64.7707 481.101 65.304C481.602 65.8267 482.263 66.088 483.085 66.088ZM489.359 67V59.176H490.591V60.152H490.815C490.965 59.8747 491.21 59.6187 491.551 59.384C491.893 59.1493 492.373 59.032 492.991 59.032C493.599 59.032 494.09 59.1653 494.463 59.432C494.847 59.6987 495.125 60.024 495.295 60.408H495.519C495.701 60.024 495.973 59.6987 496.335 59.432C496.709 59.1653 497.226 59.032 497.887 59.032C498.41 59.032 498.869 59.1387 499.263 59.352C499.658 59.5653 499.967 59.8747 500.191 60.28C500.426 60.6747 500.543 61.1493 500.543 61.704V67H499.279V61.816C499.279 61.2933 499.125 60.8827 498.815 60.584C498.517 60.2747 498.095 60.12 497.551 60.12C496.975 60.12 496.501 60.3067 496.127 60.68C495.765 61.0533 495.583 61.592 495.583 62.296V67H494.319V61.816C494.319 61.2933 494.165 60.8827 493.855 60.584C493.557 60.2747 493.135 60.12 492.591 60.12C492.015 60.12 491.541 60.3067 491.167 60.68C490.805 61.0533 490.623 61.592 490.623 62.296V67H489.359ZM503.125 70.2V59.176H504.357V60.472H504.581C504.784 60.0773 505.109 59.7253 505.557 59.416C506.016 59.1067 506.65 58.952 507.461 58.952C508.133 58.952 508.746 59.1173 509.301 59.448C509.866 59.768 510.314 60.2267 510.645 60.824C510.986 61.4213 511.157 62.1413 511.157 62.984V63.192C511.157 64.024 510.992 64.744 510.661 65.352C510.33 65.96 509.882 66.424 509.317 66.744C508.762 67.064 508.144 67.224 507.461 67.224C506.917 67.224 506.453 67.1493 506.069 67C505.696 66.8613 505.392 66.68 505.157 66.456C504.922 66.232 504.741 66.0027 504.613 65.768H504.389V70.2H503.125ZM507.125 66.104C507.936 66.104 508.592 65.848 509.093 65.336C509.605 64.8133 509.861 64.088 509.861 63.16V63.016C509.861 62.088 509.605 61.368 509.093 60.856C508.592 60.3333 507.936 60.072 507.125 60.072C506.325 60.072 505.664 60.3333 505.141 60.856C504.629 61.368 504.373 62.088 504.373 63.016V63.16C504.373 64.088 504.629 64.8133 505.141 65.336C505.664 65.848 506.325 66.104 507.125 66.104ZM513.422 67V55.8H514.686V67H513.422ZM520.928 67.224C520.138 67.224 519.445 67.0587 518.848 66.728C518.25 66.3867 517.786 65.912 517.456 65.304C517.125 64.696 516.96 63.992 516.96 63.192V63C516.96 62.1893 517.125 61.48 517.456 60.872C517.786 60.264 518.245 59.7947 518.832 59.464C519.418 59.1227 520.09 58.952 520.848 58.952C521.584 58.952 522.234 59.112 522.8 59.432C523.365 59.7413 523.808 60.1893 524.128 60.776C524.448 61.3627 524.608 62.0507 524.608 62.84V63.416H518.224C518.256 64.2587 518.528 64.92 519.04 65.4C519.552 65.8693 520.192 66.104 520.96 66.104C521.632 66.104 522.149 65.9493 522.512 65.64C522.874 65.3307 523.152 64.9627 523.344 64.536L524.432 65.064C524.272 65.3947 524.048 65.7253 523.76 66.056C523.482 66.3867 523.114 66.664 522.656 66.888C522.208 67.112 521.632 67.224 520.928 67.224ZM518.24 62.376H523.328C523.285 61.6507 523.034 61.0853 522.576 60.68C522.128 60.2747 521.552 60.072 520.848 60.072C520.133 60.072 519.546 60.2747 519.088 60.68C518.629 61.0853 518.346 61.6507 518.24 62.376ZM529.364 67C528.916 67 528.57 66.8773 528.324 66.632C528.09 66.3867 527.972 66.0507 527.972 65.624V60.28H525.62V59.176H527.972V56.392H529.236V59.176H531.796V60.28H529.236V65.432C529.236 65.752 529.391 65.912 529.7 65.912H531.444V67H529.364ZM537.146 67.224C536.357 67.224 535.664 67.0587 535.066 66.728C534.469 66.3867 534.005 65.912 533.674 65.304C533.344 64.696 533.178 63.992 533.178 63.192V63C533.178 62.1893 533.344 61.48 533.674 60.872C534.005 60.264 534.464 59.7947 535.05 59.464C535.637 59.1227 536.309 58.952 537.066 58.952C537.802 58.952 538.453 59.112 539.018 59.432C539.584 59.7413 540.026 60.1893 540.346 60.776C540.666 61.3627 540.826 62.0507 540.826 62.84V63.416H534.442C534.474 64.2587 534.746 64.92 535.258 65.4C535.77 65.8693 536.41 66.104 537.178 66.104C537.85 66.104 538.368 65.9493 538.73 65.64C539.093 65.3307 539.37 64.9627 539.562 64.536L540.65 65.064C540.49 65.3947 540.266 65.7253 539.978 66.056C539.701 66.3867 539.333 66.664 538.874 66.888C538.426 67.112 537.85 67.224 537.146 67.224ZM534.458 62.376H539.546C539.504 61.6507 539.253 61.0853 538.794 60.68C538.346 60.2747 537.77 60.072 537.066 60.072C536.352 60.072 535.765 60.2747 535.306 60.68C534.848 61.0853 534.565 61.6507 534.458 62.376ZM546.343 67.224C545.671 67.224 545.052 67.064 544.487 66.744C543.922 66.424 543.474 65.96 543.143 65.352C542.812 64.744 542.647 64.024 542.647 63.192V62.984C542.647 62.152 542.812 61.4373 543.143 60.84C543.474 60.232 543.916 59.768 544.471 59.448C545.036 59.1173 545.66 58.952 546.343 58.952C546.887 58.952 547.346 59.0267 547.719 59.176C548.103 59.3147 548.412 59.496 548.647 59.72C548.882 59.9333 549.063 60.1627 549.191 60.408H549.415V55.8H550.679V67H549.447V65.704H549.223C549.01 66.0987 548.679 66.4507 548.231 66.76C547.783 67.0693 547.154 67.224 546.343 67.224ZM546.679 66.104C547.49 66.104 548.146 65.848 548.647 65.336C549.159 64.8133 549.415 64.088 549.415 63.16V63.016C549.415 62.088 549.159 61.368 548.647 60.856C548.146 60.3333 547.49 60.072 546.679 60.072C545.879 60.072 545.218 60.3333 544.695 60.856C544.183 61.368 543.927 62.088 543.927 63.016V63.16C543.927 64.088 544.183 64.8133 544.695 65.336C545.218 65.848 545.879 66.104 546.679 66.104Z" fill="white"/>
<path d="M0 20C0 15.5817 3.58172 12 8 12H537C541.418 12 545 15.5817 545 20C545 24.4183 541.418 28 537 28H8C3.58172 28 0 24.4183 0 20Z" fill="#41236B"/>
<rect width="40" height="40" rx="20" fill="url(#paint0_linear_1295_9457)"/>
<line x1="10.4142" y1="20" x2="17" y2="26.5858" stroke="white" stroke-width="2" stroke-linecap="round"/>
<line x1="32" y1="12.4142" x2="17.4142" y2="27" stroke="white" stroke-width="2" stroke-linecap="round"/>
<rect x="257" width="40" height="40" rx="20" fill="url(#paint1_linear_1295_9457)"/>
<line x1="267.414" y1="20" x2="274" y2="26.5858" stroke="white" stroke-width="2" stroke-linecap="round"/>
<line x1="289" y1="12.4142" x2="274.414" y2="27" stroke="white" stroke-width="2" stroke-linecap="round"/>
<rect x="512" width="40" height="40" rx="20" fill="url(#paint2_linear_1295_9457)"/>
<line x1="522.414" y1="20" x2="529" y2="26.5858" stroke="white" stroke-width="2" stroke-linecap="round"/>
<line x1="544" y1="12.4142" x2="529.414" y2="27" stroke="white" stroke-width="2" stroke-linecap="round"/>
<defs>
<linearGradient id="paint0_linear_1295_9457" x1="-2.18474" y1="19.7533" x2="45.7201" y2="19.7533" gradientUnits="userSpaceOnUse">
<stop stop-color="#952AC2"/>
<stop offset="1" stop-color="#7737DB"/>
</linearGradient>
<linearGradient id="paint1_linear_1295_9457" x1="254.815" y1="19.7533" x2="302.72" y2="19.7533" gradientUnits="userSpaceOnUse">
<stop stop-color="#952AC2"/>
<stop offset="1" stop-color="#7737DB"/>
</linearGradient>
<linearGradient id="paint2_linear_1295_9457" x1="509.815" y1="19.7533" x2="557.72" y2="19.7533" gradientUnits="userSpaceOnUse">
<stop stop-color="#952AC2"/>
<stop offset="1" stop-color="#7737DB"/>
</linearGradient>
</defs>
</svg>
