<svg width="21" height="18" viewBox="0 0 21 18" fill="none" xmlns="http://www.w3.org/2000/svg">
<path d="M18.1881 3.78589H3.15491C2.80629 3.78589 2.52393 3.50353 2.52393 3.15491C2.52393 2.80629 2.80629 2.52393 3.15491 2.52393H18.2985C18.6471 2.52393 18.9295 2.24156 18.9295 1.89295C18.9295 0.847488 18.082 0 17.0365 0H2.52393C1.12985 0 0 1.12985 0 2.52393V15.1436C0 16.5376 1.12985 17.6675 2.52393 17.6675H18.1881C19.2931 17.6675 20.1914 16.8184 20.1914 15.7746V5.67884C20.1914 4.63496 19.2931 3.78589 18.1881 3.78589ZM16.4055 11.9887C15.7087 11.9887 15.1436 11.4235 15.1436 10.7267C15.1436 10.0299 15.7087 9.46473 16.4055 9.46473C17.1024 9.46473 17.6675 10.0299 17.6675 10.7267C17.6675 11.4235 17.1024 11.9887 16.4055 11.9887Z" fill="white"/>
</svg>
