<svg width="42" height="42" viewBox="0 0 42 42" fill="none" xmlns="http://www.w3.org/2000/svg">
<path opacity="0.6" fill-rule="evenodd" clip-rule="evenodd" d="M9.34364 37.8569C11.7262 39.4677 13.83 40.1767 16.5929 40.8249C17.3812 41.0098 18.7958 41.2014 19.6461 41.1914C19.6461 40.2995 19.7079 33.4456 19.6095 33.199C18.4988 33.1095 17.4994 32.9023 16.5395 32.5725C16.0705 32.4115 15.6477 32.236 15.2348 32.0455C14.7992 31.8446 14.4321 31.5977 14.0265 31.4015C13.8466 31.5359 13.5762 31.9843 13.436 32.1761C13.2105 32.4852 13.0395 32.7204 12.8448 32.9879C12.4825 33.486 12.0481 34.0722 11.6659 34.6138C11.3976 34.9942 9.38473 37.6842 9.34364 37.8569ZM0.714795 26.0032C0.960419 25.9851 6.50961 24.1648 7.31642 23.8894C7.60494 23.7908 8.00057 23.6902 8.28018 23.5751C8.31221 23.4553 8.11447 22.4032 8.07882 22.155C7.95011 21.2575 7.9341 19.9799 8.07051 19.0913L8.30858 17.6628L8.11552 17.5649C8.02715 17.5354 7.96673 17.52 7.87549 17.4895L1.7056 15.4833C1.49109 15.4111 0.925826 15.2021 0.723859 15.195C0.551499 15.5478 0.278534 17.2251 0.203457 17.6946C-0.224345 20.377 0.0587418 23.4888 0.714493 26.0034L0.714795 26.0032ZM32.9415 17.6312C32.9868 18.297 33.2726 18.974 33.2726 20.3873C33.2726 21.2253 33.2326 21.4583 33.1676 22.2725C33.1445 22.5636 32.9289 23.3867 32.961 23.5678C33.5589 23.7956 34.1939 23.9668 34.8346 24.1822L40.5271 26.0146C41.1082 23.6224 41.2539 22.6175 41.2539 20.1471C41.2539 18.543 40.9206 16.599 40.5344 15.1917C40.0644 15.245 33.9873 17.3502 32.9415 17.6312ZM9.34032 3.35858L12.8141 8.17497C12.9978 8.41939 13.8788 9.68361 14.0267 9.78558L15.2493 9.14433C15.6592 8.94931 16.1219 8.7697 16.5563 8.61547C17.7989 8.17422 19.4154 8.04914 19.6323 7.96636L19.6464 0.0218167C18.0525 -0.0577918 15.4019 0.584213 13.8902 1.09782C12.9505 1.41716 9.81963 2.78788 9.34032 3.35858ZM1.36979 13.2955L3.23327 13.9136C3.93509 14.1338 8.68427 15.7319 8.93805 15.7331C9.10769 15.4355 9.32703 14.8558 9.60905 14.3701C9.85679 13.9434 10.1258 13.5439 10.4156 13.1287C10.7246 12.6858 11.4431 11.8501 11.8541 11.4852C11.9444 11.4051 12.3203 11.0723 12.3851 10.9715C12.3271 10.8057 11.4024 9.58376 11.2346 9.35505C10.8548 8.83798 10.4579 8.28721 10.0772 7.74974L7.73606 4.53624C7.45313 4.61872 5.95809 6.09911 5.75325 6.3041C4.60519 7.45306 3.36499 9.1975 2.5473 10.6661C2.34806 11.0238 1.36027 12.9612 1.36979 13.2955ZM21.626 41.1958C22.1919 41.2361 24.0226 40.9644 24.6181 40.8353C25.5849 40.6258 26.4285 40.4121 27.3051 40.1163C28.344 39.7658 31.0639 38.5676 31.901 37.8569C31.8702 37.6907 30.9389 36.4767 30.7593 36.2276L27.2489 31.4062L25.9794 32.0642C25.5687 32.2533 25.0699 32.4554 24.6116 32.6094C23.7755 32.8902 23.112 33.02 22.2454 33.1381C21.531 33.2355 21.6074 33.1145 21.6112 33.4866C21.6179 34.1274 21.5704 40.829 21.6262 41.1961L21.626 41.1958ZM28.8623 30.2039C28.9115 30.379 29.7793 31.5151 29.9964 31.8227C30.3824 32.3693 30.7561 32.8595 31.1783 33.4444C31.4718 33.8511 33.3904 36.5457 33.5394 36.6566C33.8883 36.4827 35.2317 35.1766 35.5222 34.8713C36.7128 33.6194 37.9045 32.0205 38.721 30.4994C38.8923 30.1805 39.9038 28.2129 39.8922 27.8962L32.3401 25.4386C32.0937 25.7603 31.4195 27.8566 29.3961 29.7069C29.2274 29.8611 29.0796 30.0323 28.8623 30.2039ZM1.35982 27.92C1.41873 28.354 2.2692 30.0338 2.53748 30.5118C3.19218 31.6775 3.96047 32.8455 4.8342 33.8662C5.42636 34.5579 6.04721 35.194 6.67502 35.7927C6.96082 36.0652 7.34315 36.4064 7.69573 36.6551C7.83606 36.5792 8.1758 36.0603 8.29604 35.8939C9.16282 34.6923 10.3471 33.0033 11.2106 31.8785C11.4204 31.605 11.5955 31.3459 11.802 31.068C11.9154 30.9151 11.9798 30.8216 12.0916 30.6723C12.1639 30.5758 12.3192 30.3735 12.3849 30.2442C12.3148 30.0853 12.012 29.8667 11.8816 29.7448C11.0473 28.966 10.1917 27.8433 9.61963 26.8399C9.34425 26.357 9.08261 25.7096 8.93789 25.4567C8.74741 25.4561 5.60113 26.5188 5.15415 26.6603C4.69296 26.8063 1.50363 27.804 1.35982 27.92ZM21.6136 7.97935C22.1701 8.07301 22.7073 8.10005 23.2276 8.21878C25.6488 8.77166 27.0852 9.74675 27.2488 9.78135L31.3256 4.19198C31.4517 4.01463 31.8483 3.52399 31.907 3.35873C31.8138 3.25133 31.5526 3.10646 31.4035 3.0128C31.2211 2.89815 31.0473 2.79573 30.8753 2.69739C30.5084 2.48712 30.1204 2.2859 29.7493 2.09708C28.1909 1.30386 26.4282 0.732403 24.6811 0.369557C23.993 0.226654 22.297 -0.0497857 21.621 0.00776816L21.6136 7.97935ZM28.8573 10.9714C28.9917 11.132 29.5831 11.6287 29.8904 11.9758C30.6221 12.8027 31.0952 13.4077 31.6347 14.3615L32.3372 15.741L39.8966 13.3018C39.872 12.9257 38.9334 11.0794 38.7275 10.7063C38.294 9.92032 37.7793 9.11547 37.2491 8.38374C36.5752 7.45366 35.4266 6.15077 34.5749 5.4065C34.2808 5.14955 33.8651 4.73051 33.5391 4.53141C33.401 4.64183 31.3424 7.5304 31.1898 7.74007C30.8519 8.20413 30.423 8.76713 30.0256 9.33859L28.8573 10.9714Z" fill="#FEFEFE"/>
</svg>
