<svg width="36" height="36" viewBox="0 0 36 36" fill="none" xmlns="http://www.w3.org/2000/svg">
<mask id="mask0_344_25716" style="mask-type:luminance" maskUnits="userSpaceOnUse" x="0" y="0" width="36" height="36">
<path d="M36 0H0V36H36V0Z" fill="white"/>
</mask>
<g mask="url(#mask0_344_25716)">
<path d="M0 18.0508C0.0501284 9.24054 6.18124 1.88176 14.8812 0.287688C17.3554 -0.164276 19.8976 -0.0813338 22.337 0.530944C23.2014 0.743302 23.6896 1.44448 23.5126 2.20664C23.326 3.01088 22.5864 3.43838 21.709 3.2221C15.2726 1.63528 8.73236 4.37772 5.37284 9.53198C-0.32589 18.2751 3.77104 30.2843 14.8374 32.8331C23.33 34.7891 31.6928 28.9755 33.037 20.3875C33.3538 18.3601 33.2654 16.29 32.7766 14.2971C32.5638 13.4134 32.982 12.6787 33.7854 12.4892C34.5478 12.3092 35.259 12.8035 35.466 13.6574C37.8814 23.6183 31.7062 33.4457 21.6726 35.6071C11.8955 37.7133 2.10332 31.1297 0.368186 21.2643C0.181731 20.2043 0.119732 19.1225 0 18.0508Z" fill="#7B35D7"/>
<path d="M18.0483 19.0782C18.1557 18.9053 18.275 18.7403 18.4056 18.5843C23.4246 13.5578 28.4452 8.53274 33.4672 3.50922C33.7714 3.20452 34.0928 2.95666 34.5448 2.94512C34.8058 2.9255 35.0666 2.9839 35.2944 3.11294C35.5222 3.24198 35.7064 3.4358 35.8238 3.66982C36.1052 4.1893 36.0428 4.69956 35.6982 5.1712C35.5894 5.30556 35.4706 5.43146 35.3428 5.54784C30.0764 10.816 24.81 16.0839 19.5437 21.3516C19.3603 21.535 19.1864 21.7278 18.9992 21.907C18.4147 22.4668 17.5973 22.4748 17.0273 21.906C15.0896 19.9724 13.1564 18.0342 11.2279 16.0914C10.6221 15.4814 10.6036 14.6503 11.1621 14.084C11.7267 13.5107 12.5726 13.5347 13.199 14.1581C14.68 15.6317 16.1572 17.1089 17.6307 18.5899C17.7426 18.7019 17.8374 18.8298 18.0483 19.0782Z" fill="#7B35D7"/>
</g>
</svg>
