<svg width="30" height="41" viewBox="0 0 30 41" fill="none" xmlns="http://www.w3.org/2000/svg">
<path opacity="0.6" d="M24.9183 0C22.3357 4.22445 19.8988 8.27907 17.3578 12.4398C17.7119 12.4823 17.9826 12.5247 18.2326 12.5247C20.9819 12.5247 23.7103 12.546 26.4596 12.5247C27.8967 12.5035 29.0839 12.9705 29.7087 14.3504C30.3336 15.7515 29.8962 16.9403 28.9381 18.0441C22.6064 25.4104 16.2748 32.7979 9.94309 40.1641C9.67233 40.4825 9.33908 40.8646 8.98501 40.9283C8.42266 41.0345 7.71451 41.0557 7.2563 40.7585C7.00636 40.6099 6.98554 39.7183 7.13133 39.2725C8.77673 34.4749 10.5054 29.6985 12.1925 24.9221C12.3175 24.6037 12.4008 24.264 12.5466 23.8395C12.13 23.8183 11.8176 23.7758 11.4844 23.7758C9.08915 23.7758 6.69395 23.8182 4.29874 23.7546C0.987114 23.6697 -1.01236 20.5066 0.5289 17.5771C3.56977 11.803 6.77726 6.135 9.92226 0.445796C10.0472 0.233512 10.4013 0.0212284 10.6512 0.0212284C15.3375 0 20.0029 0 24.9183 0Z" fill="white"/>
</svg>
