<svg width="80" height="45" viewBox="0 0 80 45" fill="none" xmlns="http://www.w3.org/2000/svg">
<path d="M0.000976562 36.3597C0.800956 23.5601 9.80073 7.56047 27.6003 1.96061C45.5998 -3.83924 63.1994 3.96056 71.7992 15.7603C69.9992 16.3602 67.9993 17.1602 66.1993 17.9602C63.7994 18.9602 61.3994 19.7602 58.9995 20.7601C58.3995 20.9601 57.9995 20.9601 57.5995 20.3601C52.3997 14.3603 45.7998 10.5604 38 9.36042C28.0003 7.76046 18.8005 10.3604 11.0007 16.9602C5.20085 21.9601 1.60094 28.3599 0.000976562 35.7598" fill="#7B35D7"/>
<path d="M74.7995 17.9602C74.5995 18.1602 74.1995 18.3602 73.9995 18.5602C64.1998 25.36 54.2 32.1598 44.4003 39.1597C44.0003 39.3597 43.6003 39.7597 43.4003 40.3596C42.0003 43.3596 38.6004 44.7595 35.6005 43.7596C32.4006 42.7596 30.8006 39.3597 31.6006 36.1597C32.4006 32.9598 35.6005 30.9599 38.8004 31.5599C39.2004 31.5599 39.8004 31.5599 40.4004 31.3599C51.6001 26.96 62.7998 22.7601 73.9995 18.3602C74.1995 17.9602 74.3995 17.9602 74.7995 17.9602Z" fill="#7B35D7"/>
<path d="M63.1995 29.7599C67.3994 26.96 71.3993 24.1601 75.5991 21.1602C76.5991 23.5601 77.3991 25.76 78.1991 27.96C79.399 31.7599 79.999 35.7598 79.999 39.5597C79.999 40.3597 79.799 40.7597 78.9991 40.7597C74.7992 40.7597 70.7993 40.7597 66.5994 40.7597C66.1994 40.7597 65.5994 40.7597 65.5994 40.1597C65.3994 36.5598 64.5994 33.1599 63.1995 29.7599Z" fill="#7B35D7"/>
</svg>
