<svg width="51" height="51" viewBox="0 0 51 51" fill="none" xmlns="http://www.w3.org/2000/svg">
<path d="M34.1246 17.6494C32.4892 16.869 30.7591 16.3143 28.98 16C28.758 16.4082 28.4999 16.9589 28.3204 17.3951C26.4306 17.1013 24.5081 17.1013 22.6184 17.3951C22.4202 16.9184 22.1975 16.4527 21.9513 16C20.1707 16.3148 18.4392 16.8708 16.8029 17.6532C13.5473 22.6714 12.6645 27.565 13.1059 32.3887C15.0064 33.8522 17.1416 34.9679 19.4164 35.6862C19.9275 34.9688 20.3796 34.2096 20.768 33.4162C20.0292 33.129 19.3169 32.7754 18.6396 32.3594C18.8179 32.2246 18.9925 32.0834 19.1608 31.9385C23.2643 33.8956 27.7219 33.8956 31.7767 31.9385C31.9476 32.0834 32.1221 32.2246 32.2979 32.3594C31.6234 32.774 30.9089 33.1301 30.1658 33.4175C30.5535 34.2112 31.0056 34.9705 31.5174 35.6875C33.794 34.9697 35.9307 33.8529 37.8316 32.3874C38.3491 26.7969 36.9476 21.9478 34.1246 17.6494ZM21.3266 29.4217C20.0947 29.4217 19.0847 28.2492 19.0847 26.8211C19.0847 25.3929 20.0735 24.2179 21.3266 24.2179C22.5797 24.2179 23.5897 25.3904 23.5685 26.8211C23.5698 28.2492 22.5797 29.4217 21.3266 29.4217ZM29.6109 29.4217C28.379 29.4217 27.369 28.2492 27.369 26.8211C27.369 25.3929 28.3578 24.2179 29.6109 24.2179C30.864 24.2179 31.874 25.3904 31.8528 26.8211C31.8528 28.2492 30.864 29.4217 29.6109 29.4217Z" fill="white"/>
</svg>
