<svg width="1351" height="433" viewBox="0 0 1351 433" fill="none" xmlns="http://www.w3.org/2000/svg">
<path opacity="0.27" d="M138.776 207.055C192.401 207.055 262.675 207.055 345 207.055C427.325 207.055 445.611 207.055 537 207.055C628.389 207.055 643.388 207.055 731 207.055C818.612 207.055 866.366 207.055 957 207.055C1047.63 207.055 1053.35 129 1147 129C1240.65 129 1253.57 207.055 1347.22 207.055V365.391H138.776V207.055Z" fill="#8659FF"/>
<path opacity="0.4" d="M4.112 35V24.664H3.872L1.696 28.648H0.288L2.96 23.8H5.408V35H4.112ZM11.5355 35.224C10.7462 35.224 10.0368 35.0747 9.4075 34.776C8.78883 34.4773 8.29817 34.0453 7.9355 33.48C7.5835 32.9147 7.4075 32.232 7.4075 31.432V31.128H8.7035V31.416C8.7035 32.2373 8.96483 32.8827 9.4875 33.352C10.0102 33.8213 10.6928 34.056 11.5355 34.056C12.3888 34.056 13.0502 33.8373 13.5195 33.4C13.9995 32.952 14.2395 32.392 14.2395 31.72V31.592C14.2395 31.1013 14.1222 30.7067 13.8875 30.408C13.6528 30.0987 13.3328 29.8747 12.9275 29.736C12.5328 29.5867 12.0955 29.512 11.6155 29.512H9.7915V27.896L14.0635 25.16V24.968H7.6795V23.8H15.4395V25.608L11.2635 28.296V28.488H12.0635C12.6928 28.488 13.2688 28.6053 13.7915 28.84C14.3248 29.064 14.7462 29.4053 15.0555 29.864C15.3755 30.312 15.5355 30.8773 15.5355 31.56V31.736C15.5355 32.44 15.3702 33.0533 15.0395 33.576C14.7088 34.0987 14.2448 34.504 13.6475 34.792C13.0502 35.08 12.3462 35.224 11.5355 35.224ZM17.1918 35V33.832C17.1918 33.032 17.3304 32.392 17.6078 31.912C17.8958 31.432 18.2904 31.048 18.7918 30.76C19.3038 30.4613 19.9118 30.2053 20.6158 29.992L21.4958 29.72C21.9758 29.5707 22.3971 29.3893 22.7598 29.176C23.1224 28.952 23.4051 28.6747 23.6078 28.344C23.8104 28.0027 23.9118 27.5867 23.9118 27.096V27.032C23.9118 26.328 23.6664 25.7733 23.1758 25.368C22.6851 24.952 22.0558 24.744 21.2878 24.744C20.4771 24.744 19.8158 24.9627 19.3038 25.4C18.7918 25.8267 18.5358 26.4773 18.5358 27.352V27.576H17.2558V27.368C17.2558 26.5573 17.4318 25.8693 17.7838 25.304C18.1358 24.7387 18.6158 24.312 19.2238 24.024C19.8318 23.7253 20.5198 23.576 21.2878 23.576C22.0558 23.576 22.7331 23.72 23.3198 24.008C23.9171 24.296 24.3811 24.696 24.7118 25.208C25.0424 25.72 25.2078 26.3173 25.2078 27V27.144C25.2078 27.8693 25.0638 28.472 24.7758 28.952C24.4878 29.4213 24.0878 29.8053 23.5758 30.104C23.0744 30.4027 22.4824 30.6587 21.7998 30.872L20.9358 31.144C20.3918 31.3147 19.9384 31.496 19.5758 31.688C19.2238 31.8693 18.9571 32.104 18.7758 32.392C18.5944 32.68 18.5038 33.0693 18.5038 33.56V33.832H25.1118V35H17.1918Z" fill="white"/>
<path opacity="0.4" d="M4.112 133V122.664H3.872L1.696 126.648H0.288L2.96 121.8H5.408V133H4.112ZM11.5355 133.224C10.7462 133.224 10.0368 133.075 9.4075 132.776C8.78883 132.477 8.29817 132.045 7.9355 131.48C7.5835 130.915 7.4075 130.232 7.4075 129.432V129.128H8.7035V129.416C8.7035 130.237 8.96483 130.883 9.4875 131.352C10.0102 131.821 10.6928 132.056 11.5355 132.056C12.3888 132.056 13.0502 131.837 13.5195 131.4C13.9995 130.952 14.2395 130.392 14.2395 129.72V129.592C14.2395 129.101 14.1222 128.707 13.8875 128.408C13.6528 128.099 13.3328 127.875 12.9275 127.736C12.5328 127.587 12.0955 127.512 11.6155 127.512H9.7915V125.896L14.0635 123.16V122.968H7.6795V121.8H15.4395V123.608L11.2635 126.296V126.488H12.0635C12.6928 126.488 13.2688 126.605 13.7915 126.84C14.3248 127.064 14.7462 127.405 15.0555 127.864C15.3755 128.312 15.5355 128.877 15.5355 129.56V129.736C15.5355 130.44 15.3702 131.053 15.0395 131.576C14.7088 132.099 14.2448 132.504 13.6475 132.792C13.0502 133.08 12.3462 133.224 11.5355 133.224ZM20.237 133V122.664H19.997L17.821 126.648H16.413L19.085 121.8H21.533V133H20.237Z" fill="white"/>
<path opacity="0.4" d="M4.112 231V220.664H3.872L1.696 224.648H0.288L2.96 219.8H5.408V231H4.112ZM11.5355 231.224C10.7462 231.224 10.0368 231.075 9.4075 230.776C8.78883 230.477 8.29817 230.045 7.9355 229.48C7.5835 228.915 7.4075 228.232 7.4075 227.432V227.128H8.7035V227.416C8.7035 228.237 8.96483 228.883 9.4875 229.352C10.0102 229.821 10.6928 230.056 11.5355 230.056C12.3888 230.056 13.0502 229.837 13.5195 229.4C13.9995 228.952 14.2395 228.392 14.2395 227.72V227.592C14.2395 227.101 14.1222 226.707 13.8875 226.408C13.6528 226.099 13.3328 225.875 12.9275 225.736C12.5328 225.587 12.0955 225.512 11.6155 225.512H9.7915V223.896L14.0635 221.16V220.968H7.6795V219.8H15.4395V221.608L11.2635 224.296V224.488H12.0635C12.6928 224.488 13.2688 224.605 13.7915 224.84C14.3248 225.064 14.7462 225.405 15.0555 225.864C15.3755 226.312 15.5355 226.877 15.5355 227.56V227.736C15.5355 228.44 15.3702 229.053 15.0395 229.576C14.7088 230.099 14.2448 230.504 13.6475 230.792C13.0502 231.08 12.3462 231.224 11.5355 231.224ZM21.4638 231.224C20.1944 231.224 19.1811 230.851 18.4238 230.104C17.6771 229.347 17.3038 228.216 17.3038 226.712V224.088C17.3038 222.595 17.6771 221.469 18.4238 220.712C19.1811 219.955 20.1944 219.576 21.4638 219.576C22.7438 219.576 23.7571 219.955 24.5038 220.712C25.2611 221.469 25.6398 222.595 25.6398 224.088V226.712C25.6398 228.216 25.2611 229.347 24.5038 230.104C23.7571 230.851 22.7438 231.224 21.4638 231.224ZM21.4638 230.056C22.4238 230.056 23.1438 229.768 23.6238 229.192C24.1038 228.616 24.3438 227.811 24.3438 226.776V224.008C24.3438 222.973 24.0984 222.173 23.6078 221.608C23.1171 221.032 22.4024 220.744 21.4638 220.744C20.5251 220.744 19.8104 221.032 19.3198 221.608C18.8398 222.184 18.5998 222.984 18.5998 224.008V226.776C18.5998 227.821 18.8398 228.632 19.3198 229.208C19.7998 229.773 20.5144 230.056 21.4638 230.056Z" fill="white"/>
<path opacity="0.4" d="M4.112 329V318.664H3.872L1.696 322.648H0.288L2.96 317.8H5.408V329H4.112ZM7.5355 329V327.832C7.5355 327.032 7.67417 326.392 7.9515 325.912C8.2395 325.432 8.63417 325.048 9.1355 324.76C9.6475 324.461 10.2555 324.205 10.9595 323.992L11.8395 323.72C12.3195 323.571 12.7408 323.389 13.1035 323.176C13.4662 322.952 13.7488 322.675 13.9515 322.344C14.1542 322.003 14.2555 321.587 14.2555 321.096V321.032C14.2555 320.328 14.0102 319.773 13.5195 319.368C13.0288 318.952 12.3995 318.744 11.6315 318.744C10.8208 318.744 10.1595 318.963 9.6475 319.4C9.1355 319.827 8.8795 320.477 8.8795 321.352V321.576H7.5995V321.368C7.5995 320.557 7.7755 319.869 8.1275 319.304C8.4795 318.739 8.9595 318.312 9.5675 318.024C10.1755 317.725 10.8635 317.576 11.6315 317.576C12.3995 317.576 13.0768 317.72 13.6635 318.008C14.2608 318.296 14.7248 318.696 15.0555 319.208C15.3862 319.72 15.5515 320.317 15.5515 321V321.144C15.5515 321.869 15.4075 322.472 15.1195 322.952C14.8315 323.421 14.4315 323.805 13.9195 324.104C13.4182 324.403 12.8262 324.659 12.1435 324.872L11.2795 325.144C10.7355 325.315 10.2822 325.496 9.9195 325.688C9.5675 325.869 9.30083 326.104 9.1195 326.392C8.93817 326.68 8.8475 327.069 8.8475 327.56V327.832H15.4555V329H7.5355ZM21.0653 329.224C20.2439 329.224 19.5399 329.08 18.9533 328.792C18.3773 328.493 17.9399 328.088 17.6413 327.576C17.3426 327.064 17.1933 326.483 17.1933 325.832H18.4893C18.4893 326.493 18.7079 327.032 19.1453 327.448C19.5826 327.853 20.2226 328.056 21.0653 328.056C21.9506 328.056 22.6279 327.821 23.0973 327.352C23.5773 326.872 23.8173 326.216 23.8173 325.384V323.832H23.6093C23.4066 324.152 23.0813 324.451 22.6333 324.728C22.1959 324.995 21.5773 325.128 20.7773 325.128C20.1053 325.128 19.4866 324.979 18.9213 324.68C18.3666 324.381 17.9239 323.96 17.5933 323.416C17.2626 322.872 17.0973 322.227 17.0973 321.48V321.288C17.0973 320.52 17.2733 319.864 17.6253 319.32C17.9773 318.765 18.4519 318.339 19.0493 318.04C19.6573 317.731 20.3453 317.576 21.1133 317.576C21.8919 317.576 22.5799 317.731 23.1773 318.04C23.7853 318.339 24.2599 318.771 24.6013 319.336C24.9426 319.891 25.1133 320.563 25.1133 321.352V325.256C25.1133 326.088 24.9479 326.803 24.6173 327.4C24.2973 327.987 23.8333 328.44 23.2253 328.76C22.6173 329.069 21.8973 329.224 21.0653 329.224ZM21.1133 324.04C21.6466 324.04 22.1159 323.933 22.5213 323.72C22.9266 323.496 23.2413 323.192 23.4653 322.808C23.6999 322.413 23.8173 321.955 23.8173 321.432V321.304C23.8173 320.504 23.5666 319.88 23.0653 319.432C22.5746 318.973 21.9239 318.744 21.1133 318.744C20.3026 318.744 19.6466 318.973 19.1453 319.432C18.6439 319.88 18.3932 320.504 18.3932 321.304V321.432C18.3932 321.955 18.5053 322.413 18.7293 322.808C18.9639 323.192 19.2839 323.496 19.6893 323.72C20.1053 323.933 20.5799 324.04 21.1133 324.04Z" fill="white"/>
<path opacity="0.4" d="M4.112 427V416.664H3.872L1.696 420.648H0.288L2.96 415.8H5.408V427H4.112ZM7.5355 427V425.832C7.5355 425.032 7.67417 424.392 7.9515 423.912C8.2395 423.432 8.63417 423.048 9.1355 422.76C9.6475 422.461 10.2555 422.205 10.9595 421.992L11.8395 421.72C12.3195 421.571 12.7408 421.389 13.1035 421.176C13.4662 420.952 13.7488 420.675 13.9515 420.344C14.1542 420.003 14.2555 419.587 14.2555 419.096V419.032C14.2555 418.328 14.0102 417.773 13.5195 417.368C13.0288 416.952 12.3995 416.744 11.6315 416.744C10.8208 416.744 10.1595 416.963 9.6475 417.4C9.1355 417.827 8.8795 418.477 8.8795 419.352V419.576H7.5995V419.368C7.5995 418.557 7.7755 417.869 8.1275 417.304C8.4795 416.739 8.9595 416.312 9.5675 416.024C10.1755 415.725 10.8635 415.576 11.6315 415.576C12.3995 415.576 13.0768 415.72 13.6635 416.008C14.2608 416.296 14.7248 416.696 15.0555 417.208C15.3862 417.72 15.5515 418.317 15.5515 419V419.144C15.5515 419.869 15.4075 420.472 15.1195 420.952C14.8315 421.421 14.4315 421.805 13.9195 422.104C13.4182 422.403 12.8262 422.659 12.1435 422.872L11.2795 423.144C10.7355 423.315 10.2822 423.496 9.9195 423.688C9.5675 423.869 9.30083 424.104 9.1195 424.392C8.93817 424.68 8.8475 425.069 8.8475 425.56V425.832H15.4555V427H7.5355ZM21.3041 427.224C20.4401 427.224 19.6881 427.096 19.0481 426.84C18.4188 426.573 17.9281 426.205 17.5761 425.736C17.2348 425.256 17.0641 424.696 17.0641 424.056V423.88C17.0641 423.325 17.1815 422.867 17.4161 422.504C17.6508 422.141 17.9335 421.864 18.2641 421.672C18.6055 421.469 18.9201 421.341 19.2081 421.288V421.08C18.9201 420.995 18.6215 420.856 18.3121 420.664C18.0135 420.472 17.7628 420.211 17.5601 419.88C17.3681 419.549 17.2721 419.144 17.2721 418.664V418.488C17.2721 417.88 17.4428 417.363 17.7841 416.936C18.1361 416.499 18.6161 416.163 19.2241 415.928C19.8321 415.693 20.5255 415.576 21.3041 415.576C22.0935 415.576 22.7868 415.693 23.3841 415.928C23.9921 416.163 24.4668 416.499 24.8081 416.936C25.1601 417.363 25.3361 417.88 25.3361 418.488V418.664C25.3361 419.144 25.2401 419.549 25.0481 419.88C24.8561 420.211 24.6108 420.472 24.3121 420.664C24.0135 420.856 23.7148 420.995 23.4161 421.08V421.288C23.7148 421.341 24.0295 421.469 24.3601 421.672C24.6908 421.864 24.9681 422.141 25.1921 422.504C25.4268 422.867 25.5441 423.325 25.5441 423.88V424.056C25.5441 424.696 25.3735 425.256 25.0321 425.736C24.6908 426.205 24.2001 426.573 23.5601 426.84C22.9308 427.096 22.1788 427.224 21.3041 427.224ZM21.3041 426.056C22.2108 426.056 22.9255 425.88 23.4481 425.528C23.9815 425.176 24.2481 424.664 24.2481 423.992V423.864C24.2481 423.192 23.9868 422.68 23.4641 422.328C22.9415 421.976 22.2215 421.8 21.3041 421.8C20.3975 421.8 19.6828 421.976 19.1601 422.328C18.6375 422.68 18.3761 423.192 18.3761 423.864V423.992C18.3761 424.664 18.6375 425.176 19.1601 425.528C19.6935 425.88 20.4081 426.056 21.3041 426.056ZM21.3041 420.632C22.1575 420.632 22.8241 420.472 23.3041 420.152C23.7948 419.821 24.0401 419.357 24.0401 418.76V418.632C24.0401 418.024 23.7948 417.56 23.3041 417.24C22.8135 416.909 22.1468 416.744 21.3041 416.744C20.4615 416.744 19.7948 416.909 19.3041 417.24C18.8135 417.56 18.5681 418.024 18.5681 418.632V418.76C18.5681 419.357 18.8135 419.821 19.3041 420.152C19.7948 420.472 20.4615 420.632 21.3041 420.632Z" fill="white"/>
<path opacity="0.4" d="M142.051 425V423.832C142.051 423.032 142.19 422.392 142.467 421.912C142.755 421.432 143.15 421.048 143.651 420.76C144.163 420.461 144.771 420.205 145.475 419.992L146.355 419.72C146.835 419.571 147.256 419.389 147.619 419.176C147.982 418.952 148.264 418.675 148.467 418.344C148.67 418.003 148.771 417.587 148.771 417.096V417.032C148.771 416.328 148.526 415.773 148.035 415.368C147.544 414.952 146.915 414.744 146.147 414.744C145.336 414.744 144.675 414.963 144.163 415.4C143.651 415.827 143.395 416.477 143.395 417.352V417.576H142.115V417.368C142.115 416.557 142.291 415.869 142.643 415.304C142.995 414.739 143.475 414.312 144.083 414.024C144.691 413.725 145.379 413.576 146.147 413.576C146.915 413.576 147.592 413.72 148.179 414.008C148.776 414.296 149.24 414.696 149.571 415.208C149.902 415.72 150.067 416.317 150.067 417V417.144C150.067 417.869 149.923 418.472 149.635 418.952C149.347 419.421 148.947 419.805 148.435 420.104C147.934 420.403 147.342 420.659 146.659 420.872L145.795 421.144C145.251 421.315 144.798 421.496 144.435 421.688C144.083 421.869 143.816 422.104 143.635 422.392C143.454 422.68 143.363 423.069 143.363 423.56V423.832H149.971V425H142.051ZM155.964 425.224C154.694 425.224 153.681 424.851 152.924 424.104C152.177 423.347 151.804 422.216 151.804 420.712V418.088C151.804 416.595 152.177 415.469 152.924 414.712C153.681 413.955 154.694 413.576 155.964 413.576C157.244 413.576 158.257 413.955 159.004 414.712C159.761 415.469 160.14 416.595 160.14 418.088V420.712C160.14 422.216 159.761 423.347 159.004 424.104C158.257 424.851 157.244 425.224 155.964 425.224ZM155.964 424.056C156.924 424.056 157.644 423.768 158.124 423.192C158.604 422.616 158.844 421.811 158.844 420.776V418.008C158.844 416.973 158.598 416.173 158.108 415.608C157.617 415.032 156.902 414.744 155.964 414.744C155.025 414.744 154.31 415.032 153.82 415.608C153.34 416.184 153.1 416.984 153.1 418.008V420.776C153.1 421.821 153.34 422.632 153.82 423.208C154.3 423.773 155.014 424.056 155.964 424.056ZM163.11 425.224C162.8 425.224 162.539 425.123 162.326 424.92C162.123 424.717 162.022 424.456 162.022 424.136C162.022 423.816 162.123 423.555 162.326 423.352C162.539 423.149 162.8 423.048 163.11 423.048C163.43 423.048 163.691 423.149 163.894 423.352C164.096 423.555 164.198 423.816 164.198 424.136C164.198 424.456 164.096 424.717 163.894 424.92C163.691 425.123 163.43 425.224 163.11 425.224ZM163.11 419.128C162.8 419.128 162.539 419.027 162.326 418.824C162.123 418.621 162.022 418.36 162.022 418.04C162.022 417.72 162.123 417.459 162.326 417.256C162.539 417.053 162.8 416.952 163.11 416.952C163.43 416.952 163.691 417.053 163.894 417.256C164.096 417.459 164.198 417.72 164.198 418.04C164.198 418.36 164.096 418.621 163.894 418.824C163.691 419.027 163.43 419.128 163.11 419.128ZM169.989 425.224C169.199 425.224 168.49 425.075 167.861 424.776C167.242 424.477 166.751 424.045 166.389 423.48C166.037 422.915 165.861 422.232 165.861 421.432V421.128H167.157V421.416C167.157 422.237 167.418 422.883 167.941 423.352C168.463 423.821 169.146 424.056 169.989 424.056C170.842 424.056 171.503 423.837 171.973 423.4C172.453 422.952 172.693 422.392 172.693 421.72V421.592C172.693 421.101 172.575 420.707 172.341 420.408C172.106 420.099 171.786 419.875 171.381 419.736C170.986 419.587 170.549 419.512 170.069 419.512H168.245V417.896L172.517 415.16V414.968H166.133V413.8H173.893V415.608L169.717 418.296V418.488H170.517C171.146 418.488 171.722 418.605 172.245 418.84C172.778 419.064 173.199 419.405 173.509 419.864C173.829 420.312 173.989 420.877 173.989 421.56V421.736C173.989 422.44 173.823 423.053 173.493 423.576C173.162 424.099 172.698 424.504 172.101 424.792C171.503 425.08 170.799 425.224 169.989 425.224ZM181.149 425V422.712H175.309V421.176L180.013 413.8H182.445V421.544H184.365V422.712H182.445V425H181.149ZM176.605 421.544H181.149V414.584H180.925L176.605 421.352V421.544Z" fill="white"/>
<path opacity="0.4" d="M216.973 425V423.832C216.973 423.032 217.112 422.392 217.389 421.912C217.677 421.432 218.072 421.048 218.573 420.76C219.085 420.461 219.693 420.205 220.397 419.992L221.277 419.72C221.757 419.571 222.178 419.389 222.541 419.176C222.904 418.952 223.186 418.675 223.389 418.344C223.592 418.003 223.693 417.587 223.693 417.096V417.032C223.693 416.328 223.448 415.773 222.957 415.368C222.466 414.952 221.837 414.744 221.069 414.744C220.258 414.744 219.597 414.963 219.085 415.4C218.573 415.827 218.317 416.477 218.317 417.352V417.576H217.037V417.368C217.037 416.557 217.213 415.869 217.565 415.304C217.917 414.739 218.397 414.312 219.005 414.024C219.613 413.725 220.301 413.576 221.069 413.576C221.837 413.576 222.514 413.72 223.101 414.008C223.698 414.296 224.162 414.696 224.493 415.208C224.824 415.72 224.989 416.317 224.989 417V417.144C224.989 417.869 224.845 418.472 224.557 418.952C224.269 419.421 223.869 419.805 223.357 420.104C222.856 420.403 222.264 420.659 221.581 420.872L220.717 421.144C220.173 421.315 219.72 421.496 219.357 421.688C219.005 421.869 218.738 422.104 218.557 422.392C218.376 422.68 218.285 423.069 218.285 423.56V423.832H224.893V425H216.973ZM229.878 425V414.664H229.638L227.462 418.648H226.054L228.726 413.8H231.174V425H229.878ZM234.469 425.224C234.16 425.224 233.898 425.123 233.685 424.92C233.482 424.717 233.381 424.456 233.381 424.136C233.381 423.816 233.482 423.555 233.685 423.352C233.898 423.149 234.16 423.048 234.469 423.048C234.789 423.048 235.05 423.149 235.253 423.352C235.456 423.555 235.557 423.816 235.557 424.136C235.557 424.456 235.456 424.717 235.253 424.92C235.05 425.123 234.789 425.224 234.469 425.224ZM234.469 419.128C234.16 419.128 233.898 419.027 233.685 418.824C233.482 418.621 233.381 418.36 233.381 418.04C233.381 417.72 233.482 417.459 233.685 417.256C233.898 417.053 234.16 416.952 234.469 416.952C234.789 416.952 235.05 417.053 235.253 417.256C235.456 417.459 235.557 417.72 235.557 418.04C235.557 418.36 235.456 418.621 235.253 418.824C235.05 419.027 234.789 419.128 234.469 419.128ZM241.332 425.224C240.511 425.224 239.801 425.069 239.204 424.76C238.607 424.44 238.143 424.003 237.812 423.448C237.481 422.883 237.316 422.232 237.316 421.496V421.304H238.612V421.448C238.612 422.291 238.857 422.936 239.348 423.384C239.839 423.832 240.489 424.056 241.3 424.056C242.153 424.056 242.82 423.816 243.3 423.336C243.78 422.856 244.02 422.2 244.02 421.368V421.224C244.02 420.424 243.785 419.789 243.316 419.32C242.857 418.84 242.26 418.6 241.524 418.6C241.097 418.6 240.745 418.669 240.468 418.808C240.191 418.936 239.972 419.101 239.812 419.304C239.652 419.496 239.519 419.683 239.412 419.864H237.652V413.8H245.012V414.968H238.948V418.84H239.172C239.289 418.627 239.449 418.419 239.652 418.216C239.865 418.013 240.148 417.843 240.5 417.704C240.852 417.565 241.289 417.496 241.812 417.496C242.463 417.496 243.049 417.645 243.572 417.944C244.105 418.243 244.527 418.669 244.836 419.224C245.156 419.779 245.316 420.44 245.316 421.208V421.384C245.316 422.141 245.156 422.808 244.836 423.384C244.516 423.96 244.057 424.413 243.46 424.744C242.863 425.064 242.153 425.224 241.332 425.224ZM250.862 425.224C250.041 425.224 249.337 425.08 248.75 424.792C248.174 424.493 247.737 424.088 247.438 423.576C247.139 423.064 246.99 422.483 246.99 421.832H248.286C248.286 422.493 248.505 423.032 248.942 423.448C249.379 423.853 250.019 424.056 250.862 424.056C251.747 424.056 252.425 423.821 252.894 423.352C253.374 422.872 253.614 422.216 253.614 421.384V419.832H253.406C253.203 420.152 252.878 420.451 252.43 420.728C251.993 420.995 251.374 421.128 250.574 421.128C249.902 421.128 249.283 420.979 248.718 420.68C248.163 420.381 247.721 419.96 247.39 419.416C247.059 418.872 246.894 418.227 246.894 417.48V417.288C246.894 416.52 247.07 415.864 247.422 415.32C247.774 414.765 248.249 414.339 248.846 414.04C249.454 413.731 250.142 413.576 250.91 413.576C251.689 413.576 252.377 413.731 252.974 414.04C253.582 414.339 254.057 414.771 254.398 415.336C254.739 415.891 254.91 416.563 254.91 417.352V421.256C254.91 422.088 254.745 422.803 254.414 423.4C254.094 423.987 253.63 424.44 253.022 424.76C252.414 425.069 251.694 425.224 250.862 425.224ZM250.91 420.04C251.443 420.04 251.913 419.933 252.318 419.72C252.723 419.496 253.038 419.192 253.262 418.808C253.497 418.413 253.614 417.955 253.614 417.432V417.304C253.614 416.504 253.363 415.88 252.862 415.432C252.371 414.973 251.721 414.744 250.91 414.744C250.099 414.744 249.443 414.973 248.942 415.432C248.441 415.88 248.19 416.504 248.19 417.304V417.432C248.19 417.955 248.302 418.413 248.526 418.808C248.761 419.192 249.081 419.496 249.486 419.72C249.902 419.933 250.377 420.04 250.91 420.04Z" fill="white"/>
<path opacity="0.4" d="M288.121 425V423.832C288.121 423.032 288.26 422.392 288.537 421.912C288.825 421.432 289.22 421.048 289.721 420.76C290.233 420.461 290.841 420.205 291.545 419.992L292.425 419.72C292.905 419.571 293.327 419.389 293.689 419.176C294.052 418.952 294.335 418.675 294.537 418.344C294.74 418.003 294.841 417.587 294.841 417.096V417.032C294.841 416.328 294.596 415.773 294.105 415.368C293.615 414.952 292.985 414.744 292.217 414.744C291.407 414.744 290.745 414.963 290.233 415.4C289.721 415.827 289.465 416.477 289.465 417.352V417.576H288.185V417.368C288.185 416.557 288.361 415.869 288.713 415.304C289.065 414.739 289.545 414.312 290.153 414.024C290.761 413.725 291.449 413.576 292.217 413.576C292.985 413.576 293.663 413.72 294.249 414.008C294.847 414.296 295.311 414.696 295.641 415.208C295.972 415.72 296.137 416.317 296.137 417V417.144C296.137 417.869 295.993 418.472 295.705 418.952C295.417 419.421 295.017 419.805 294.505 420.104C294.004 420.403 293.412 420.659 292.729 420.872L291.865 421.144C291.321 421.315 290.868 421.496 290.505 421.688C290.153 421.869 289.887 422.104 289.705 422.392C289.524 422.68 289.433 423.069 289.433 423.56V423.832H296.041V425H288.121ZM301.7 425.224C300.91 425.224 300.201 425.075 299.572 424.776C298.953 424.477 298.462 424.045 298.1 423.48C297.748 422.915 297.572 422.232 297.572 421.432V421.128H298.868V421.416C298.868 422.237 299.129 422.883 299.652 423.352C300.174 423.821 300.857 424.056 301.7 424.056C302.553 424.056 303.214 423.837 303.684 423.4C304.164 422.952 304.404 422.392 304.404 421.72V421.592C304.404 421.101 304.286 420.707 304.052 420.408C303.817 420.099 303.497 419.875 303.092 419.736C302.697 419.587 302.26 419.512 301.78 419.512H299.956V417.896L304.228 415.16V414.968H297.844V413.8H305.604V415.608L301.428 418.296V418.488H302.228C302.857 418.488 303.433 418.605 303.956 418.84C304.489 419.064 304.91 419.405 305.22 419.864C305.54 420.312 305.7 420.877 305.7 421.56V421.736C305.7 422.44 305.534 423.053 305.204 423.576C304.873 424.099 304.409 424.504 303.812 424.792C303.214 425.08 302.51 425.224 301.7 425.224ZM308.524 425.224C308.214 425.224 307.953 425.123 307.74 424.92C307.537 424.717 307.436 424.456 307.436 424.136C307.436 423.816 307.537 423.555 307.74 423.352C307.953 423.149 308.214 423.048 308.524 423.048C308.844 423.048 309.105 423.149 309.308 423.352C309.51 423.555 309.612 423.816 309.612 424.136C309.612 424.456 309.51 424.717 309.308 424.92C309.105 425.123 308.844 425.224 308.524 425.224ZM308.524 419.128C308.214 419.128 307.953 419.027 307.74 418.824C307.537 418.621 307.436 418.36 307.436 418.04C307.436 417.72 307.537 417.459 307.74 417.256C307.953 417.053 308.214 416.952 308.524 416.952C308.844 416.952 309.105 417.053 309.308 417.256C309.51 417.459 309.612 417.72 309.612 418.04C309.612 418.36 309.51 418.621 309.308 418.824C309.105 419.027 308.844 419.128 308.524 419.128ZM311.403 425V423.832C311.403 423.032 311.541 422.392 311.819 421.912C312.107 421.432 312.501 421.048 313.003 420.76C313.515 420.461 314.123 420.205 314.827 419.992L315.707 419.72C316.187 419.571 316.608 419.389 316.971 419.176C317.333 418.952 317.616 418.675 317.819 418.344C318.021 418.003 318.123 417.587 318.123 417.096V417.032C318.123 416.328 317.877 415.773 317.387 415.368C316.896 414.952 316.267 414.744 315.499 414.744C314.688 414.744 314.027 414.963 313.515 415.4C313.003 415.827 312.747 416.477 312.747 417.352V417.576H311.467V417.368C311.467 416.557 311.643 415.869 311.995 415.304C312.347 414.739 312.827 414.312 313.435 414.024C314.043 413.725 314.731 413.576 315.499 413.576C316.267 413.576 316.944 413.72 317.531 414.008C318.128 414.296 318.592 414.696 318.923 415.208C319.253 415.72 319.419 416.317 319.419 417V417.144C319.419 417.869 319.275 418.472 318.987 418.952C318.699 419.421 318.299 419.805 317.787 420.104C317.285 420.403 316.693 420.659 316.011 420.872L315.147 421.144C314.603 421.315 314.149 421.496 313.787 421.688C313.435 421.869 313.168 422.104 312.987 422.392C312.805 422.68 312.715 423.069 312.715 423.56V423.832H319.323V425H311.403ZM326.079 425V422.712H320.239V421.176L324.943 413.8H327.375V421.544H329.295V422.712H327.375V425H326.079ZM321.535 421.544H326.079V414.584H325.855L321.535 421.352V421.544Z" fill="white"/>
<path opacity="0.4" d="M366.558 425.224C365.288 425.224 364.275 424.851 363.518 424.104C362.771 423.347 362.398 422.216 362.398 420.712V418.088C362.398 416.595 362.771 415.469 363.518 414.712C364.275 413.955 365.288 413.576 366.558 413.576C367.838 413.576 368.851 413.955 369.598 414.712C370.355 415.469 370.734 416.595 370.734 418.088V420.712C370.734 422.216 370.355 423.347 369.598 424.104C368.851 424.851 367.838 425.224 366.558 425.224ZM366.558 424.056C367.518 424.056 368.238 423.768 368.718 423.192C369.198 422.616 369.438 421.811 369.438 420.776V418.008C369.438 416.973 369.192 416.173 368.702 415.608C368.211 415.032 367.496 414.744 366.558 414.744C365.619 414.744 364.904 415.032 364.414 415.608C363.934 416.184 363.694 416.984 363.694 418.008V420.776C363.694 421.821 363.934 422.632 364.414 423.208C364.894 423.773 365.608 424.056 366.558 424.056ZM376.808 425.224C375.538 425.224 374.525 424.851 373.768 424.104C373.021 423.347 372.648 422.216 372.648 420.712V418.088C372.648 416.595 373.021 415.469 373.768 414.712C374.525 413.955 375.538 413.576 376.808 413.576C378.088 413.576 379.101 413.955 379.848 414.712C380.605 415.469 380.984 416.595 380.984 418.088V420.712C380.984 422.216 380.605 423.347 379.848 424.104C379.101 424.851 378.088 425.224 376.808 425.224ZM376.808 424.056C377.768 424.056 378.488 423.768 378.968 423.192C379.448 422.616 379.688 421.811 379.688 420.776V418.008C379.688 416.973 379.442 416.173 378.952 415.608C378.461 415.032 377.746 414.744 376.808 414.744C375.869 414.744 375.154 415.032 374.664 415.608C374.184 416.184 373.944 416.984 373.944 418.008V420.776C373.944 421.821 374.184 422.632 374.664 423.208C375.144 423.773 375.858 424.056 376.808 424.056ZM383.954 425.224C383.644 425.224 383.383 425.123 383.17 424.92C382.967 424.717 382.866 424.456 382.866 424.136C382.866 423.816 382.967 423.555 383.17 423.352C383.383 423.149 383.644 423.048 383.954 423.048C384.274 423.048 384.535 423.149 384.738 423.352C384.94 423.555 385.042 423.816 385.042 424.136C385.042 424.456 384.94 424.717 384.738 424.92C384.535 425.123 384.274 425.224 383.954 425.224ZM383.954 419.128C383.644 419.128 383.383 419.027 383.17 418.824C382.967 418.621 382.866 418.36 382.866 418.04C382.866 417.72 382.967 417.459 383.17 417.256C383.383 417.053 383.644 416.952 383.954 416.952C384.274 416.952 384.535 417.053 384.738 417.256C384.94 417.459 385.042 417.72 385.042 418.04C385.042 418.36 384.94 418.621 384.738 418.824C384.535 419.027 384.274 419.128 383.954 419.128ZM390.816 425.224C389.995 425.224 389.286 425.069 388.688 424.76C388.091 424.44 387.627 424.003 387.296 423.448C386.966 422.883 386.8 422.232 386.8 421.496V421.304H388.096V421.448C388.096 422.291 388.342 422.936 388.832 423.384C389.323 423.832 389.974 424.056 390.784 424.056C391.638 424.056 392.304 423.816 392.784 423.336C393.264 422.856 393.504 422.2 393.504 421.368V421.224C393.504 420.424 393.27 419.789 392.8 419.32C392.342 418.84 391.744 418.6 391.008 418.6C390.582 418.6 390.23 418.669 389.952 418.808C389.675 418.936 389.456 419.101 389.296 419.304C389.136 419.496 389.003 419.683 388.896 419.864H387.136V413.8H394.496V414.968H388.432V418.84H388.656C388.774 418.627 388.934 418.419 389.136 418.216C389.35 418.013 389.632 417.843 389.984 417.704C390.336 417.565 390.774 417.496 391.296 417.496C391.947 417.496 392.534 417.645 393.056 417.944C393.59 418.243 394.011 418.669 394.32 419.224C394.64 419.779 394.8 420.44 394.8 421.208V421.384C394.8 422.141 394.64 422.808 394.32 423.384C394 423.96 393.542 424.413 392.944 424.744C392.347 425.064 391.638 425.224 390.816 425.224ZM401.915 425V422.712H396.075V421.176L400.779 413.8H403.211V421.544H405.131V422.712H403.211V425H401.915ZM397.371 421.544H401.915V414.584H401.691L397.371 421.352V421.544Z" fill="white"/>
<path opacity="0.4" d="M442.565 425.224C441.296 425.224 440.283 424.851 439.525 424.104C438.779 423.347 438.405 422.216 438.405 420.712V418.088C438.405 416.595 438.779 415.469 439.525 414.712C440.283 413.955 441.296 413.576 442.565 413.576C443.845 413.576 444.859 413.955 445.605 414.712C446.363 415.469 446.741 416.595 446.741 418.088V420.712C446.741 422.216 446.363 423.347 445.605 424.104C444.859 424.851 443.845 425.224 442.565 425.224ZM442.565 424.056C443.525 424.056 444.245 423.768 444.725 423.192C445.205 422.616 445.445 421.811 445.445 420.776V418.008C445.445 416.973 445.2 416.173 444.709 415.608C444.219 415.032 443.504 414.744 442.565 414.744C441.627 414.744 440.912 415.032 440.421 415.608C439.941 416.184 439.701 416.984 439.701 418.008V420.776C439.701 421.821 439.941 422.632 440.421 423.208C440.901 423.773 441.616 424.056 442.565 424.056ZM448.543 425V423.832C448.543 423.032 448.682 422.392 448.959 421.912C449.247 421.432 449.642 421.048 450.143 420.76C450.655 420.461 451.263 420.205 451.967 419.992L452.847 419.72C453.327 419.571 453.749 419.389 454.111 419.176C454.474 418.952 454.757 418.675 454.959 418.344C455.162 418.003 455.263 417.587 455.263 417.096V417.032C455.263 416.328 455.018 415.773 454.527 415.368C454.037 414.952 453.407 414.744 452.639 414.744C451.829 414.744 451.167 414.963 450.655 415.4C450.143 415.827 449.887 416.477 449.887 417.352V417.576H448.607V417.368C448.607 416.557 448.783 415.869 449.135 415.304C449.487 414.739 449.967 414.312 450.575 414.024C451.183 413.725 451.871 413.576 452.639 413.576C453.407 413.576 454.085 413.72 454.671 414.008C455.269 414.296 455.733 414.696 456.063 415.208C456.394 415.72 456.559 416.317 456.559 417V417.144C456.559 417.869 456.415 418.472 456.127 418.952C455.839 419.421 455.439 419.805 454.927 420.104C454.426 420.403 453.834 420.659 453.151 420.872L452.287 421.144C451.743 421.315 451.29 421.496 450.927 421.688C450.575 421.869 450.309 422.104 450.127 422.392C449.946 422.68 449.855 423.069 449.855 423.56V423.832H456.463V425H448.543ZM459.352 425.224C459.043 425.224 458.781 425.123 458.568 424.92C458.365 424.717 458.264 424.456 458.264 424.136C458.264 423.816 458.365 423.555 458.568 423.352C458.781 423.149 459.043 423.048 459.352 423.048C459.672 423.048 459.933 423.149 460.136 423.352C460.339 423.555 460.44 423.816 460.44 424.136C460.44 424.456 460.339 424.717 460.136 424.92C459.933 425.123 459.672 425.224 459.352 425.224ZM459.352 419.128C459.043 419.128 458.781 419.027 458.568 418.824C458.365 418.621 458.264 418.36 458.264 418.04C458.264 417.72 458.365 417.459 458.568 417.256C458.781 417.053 459.043 416.952 459.352 416.952C459.672 416.952 459.933 417.053 460.136 417.256C460.339 417.459 460.44 417.72 460.44 418.04C460.44 418.36 460.339 418.621 460.136 418.824C459.933 419.027 459.672 419.128 459.352 419.128ZM462.231 425V423.832C462.231 423.032 462.369 422.392 462.647 421.912C462.935 421.432 463.329 421.048 463.831 420.76C464.343 420.461 464.951 420.205 465.655 419.992L466.535 419.72C467.015 419.571 467.436 419.389 467.799 419.176C468.161 418.952 468.444 418.675 468.647 418.344C468.849 418.003 468.951 417.587 468.951 417.096V417.032C468.951 416.328 468.705 415.773 468.215 415.368C467.724 414.952 467.095 414.744 466.327 414.744C465.516 414.744 464.855 414.963 464.343 415.4C463.831 415.827 463.575 416.477 463.575 417.352V417.576H462.295V417.368C462.295 416.557 462.471 415.869 462.823 415.304C463.175 414.739 463.655 414.312 464.263 414.024C464.871 413.725 465.559 413.576 466.327 413.576C467.095 413.576 467.772 413.72 468.359 414.008C468.956 414.296 469.42 414.696 469.751 415.208C470.081 415.72 470.247 416.317 470.247 417V417.144C470.247 417.869 470.103 418.472 469.815 418.952C469.527 419.421 469.127 419.805 468.615 420.104C468.113 420.403 467.521 420.659 466.839 420.872L465.975 421.144C465.431 421.315 464.977 421.496 464.615 421.688C464.263 421.869 463.996 422.104 463.815 422.392C463.633 422.68 463.543 423.069 463.543 423.56V423.832H470.151V425H462.231ZM476.907 425V422.712H471.067V421.176L475.771 413.8H478.203V421.544H480.123V422.712H478.203V425H476.907ZM472.363 421.544H476.907V414.584H476.683L472.363 421.352V421.544Z" fill="white"/>
<path opacity="0.4" d="M517.354 425.224C516.085 425.224 515.072 424.851 514.314 424.104C513.568 423.347 513.194 422.216 513.194 420.712V418.088C513.194 416.595 513.568 415.469 514.314 414.712C515.072 413.955 516.085 413.576 517.354 413.576C518.634 413.576 519.648 413.955 520.394 414.712C521.152 415.469 521.53 416.595 521.53 418.088V420.712C521.53 422.216 521.152 423.347 520.394 424.104C519.648 424.851 518.634 425.224 517.354 425.224ZM517.354 424.056C518.314 424.056 519.034 423.768 519.514 423.192C519.994 422.616 520.234 421.811 520.234 420.776V418.008C520.234 416.973 519.989 416.173 519.498 415.608C519.008 415.032 518.293 414.744 517.354 414.744C516.416 414.744 515.701 415.032 515.21 415.608C514.73 416.184 514.49 416.984 514.49 418.008V420.776C514.49 421.821 514.73 422.632 515.21 423.208C515.69 423.773 516.405 424.056 517.354 424.056ZM527.332 425.224C526.543 425.224 525.834 425.075 525.204 424.776C524.586 424.477 524.095 424.045 523.732 423.48C523.38 422.915 523.204 422.232 523.204 421.432V421.128H524.5V421.416C524.5 422.237 524.762 422.883 525.284 423.352C525.807 423.821 526.49 424.056 527.332 424.056C528.186 424.056 528.847 423.837 529.316 423.4C529.796 422.952 530.036 422.392 530.036 421.72V421.592C530.036 421.101 529.919 420.707 529.684 420.408C529.45 420.099 529.13 419.875 528.724 419.736C528.33 419.587 527.892 419.512 527.412 419.512H525.588V417.896L529.86 415.16V414.968H523.476V413.8H531.236V415.608L527.06 418.296V418.488H527.86C528.49 418.488 529.066 418.605 529.588 418.84C530.122 419.064 530.543 419.405 530.852 419.864C531.172 420.312 531.332 420.877 531.332 421.56V421.736C531.332 422.44 531.167 423.053 530.836 423.576C530.506 424.099 530.042 424.504 529.444 424.792C528.847 425.08 528.143 425.224 527.332 425.224ZM534.157 425.224C533.847 425.224 533.586 425.123 533.373 424.92C533.17 424.717 533.069 424.456 533.069 424.136C533.069 423.816 533.17 423.555 533.373 423.352C533.586 423.149 533.847 423.048 534.157 423.048C534.477 423.048 534.738 423.149 534.941 423.352C535.143 423.555 535.245 423.816 535.245 424.136C535.245 424.456 535.143 424.717 534.941 424.92C534.738 425.123 534.477 425.224 534.157 425.224ZM534.157 419.128C533.847 419.128 533.586 419.027 533.373 418.824C533.17 418.621 533.069 418.36 533.069 418.04C533.069 417.72 533.17 417.459 533.373 417.256C533.586 417.053 533.847 416.952 534.157 416.952C534.477 416.952 534.738 417.053 534.941 417.256C535.143 417.459 535.245 417.72 535.245 418.04C535.245 418.36 535.143 418.621 534.941 418.824C534.738 419.027 534.477 419.128 534.157 419.128ZM541.02 425.224C540.198 425.224 539.489 425.069 538.892 424.76C538.294 424.44 537.83 424.003 537.5 423.448C537.169 422.883 537.004 422.232 537.004 421.496V421.304H538.299V421.448C538.299 422.291 538.545 422.936 539.036 423.384C539.526 423.832 540.177 424.056 540.988 424.056C541.841 424.056 542.508 423.816 542.988 423.336C543.468 422.856 543.708 422.2 543.708 421.368V421.224C543.708 420.424 543.473 419.789 543.004 419.32C542.545 418.84 541.948 418.6 541.212 418.6C540.785 418.6 540.433 418.669 540.156 418.808C539.878 418.936 539.66 419.101 539.5 419.304C539.34 419.496 539.206 419.683 539.1 419.864H537.34V413.8H544.7V414.968H538.636V418.84H538.86C538.977 418.627 539.137 418.419 539.34 418.216C539.553 418.013 539.836 417.843 540.188 417.704C540.54 417.565 540.977 417.496 541.5 417.496C542.15 417.496 542.737 417.645 543.26 417.944C543.793 418.243 544.214 418.669 544.524 419.224C544.844 419.779 545.003 420.44 545.003 421.208V421.384C545.003 422.141 544.844 422.808 544.524 423.384C544.204 423.96 543.745 424.413 543.148 424.744C542.55 425.064 541.841 425.224 541.02 425.224ZM552.118 425V422.712H546.278V421.176L550.982 413.8H553.414V421.544H555.334V422.712H553.414V425H552.118ZM547.574 421.544H552.118V414.584H551.894L547.574 421.352V421.544Z" fill="white"/>
<path opacity="0.4" d="M592.597 425.224C591.327 425.224 590.314 424.851 589.557 424.104C588.81 423.347 588.437 422.216 588.437 420.712V418.088C588.437 416.595 588.81 415.469 589.557 414.712C590.314 413.955 591.327 413.576 592.597 413.576C593.877 413.576 594.89 413.955 595.637 414.712C596.394 415.469 596.773 416.595 596.773 418.088V420.712C596.773 422.216 596.394 423.347 595.637 424.104C594.89 424.851 593.877 425.224 592.597 425.224ZM592.597 424.056C593.557 424.056 594.277 423.768 594.757 423.192C595.237 422.616 595.477 421.811 595.477 420.776V418.008C595.477 416.973 595.231 416.173 594.741 415.608C594.25 415.032 593.535 414.744 592.597 414.744C591.658 414.744 590.943 415.032 590.453 415.608C589.973 416.184 589.733 416.984 589.733 418.008V420.776C589.733 421.821 589.973 422.632 590.453 423.208C590.933 423.773 591.647 424.056 592.597 424.056ZM602.559 425.224C601.737 425.224 601.028 425.069 600.431 424.76C599.833 424.44 599.369 424.003 599.039 423.448C598.708 422.883 598.543 422.232 598.543 421.496V421.304H599.839V421.448C599.839 422.291 600.084 422.936 600.575 423.384C601.065 423.832 601.716 424.056 602.527 424.056C603.38 424.056 604.047 423.816 604.527 423.336C605.007 422.856 605.247 422.2 605.247 421.368V421.224C605.247 420.424 605.012 419.789 604.543 419.32C604.084 418.84 603.487 418.6 602.751 418.6C602.324 418.6 601.972 418.669 601.695 418.808C601.417 418.936 601.199 419.101 601.039 419.304C600.879 419.496 600.745 419.683 600.639 419.864H598.879V413.8H606.239V414.968H600.175V418.84H600.399C600.516 418.627 600.676 418.419 600.879 418.216C601.092 418.013 601.375 417.843 601.727 417.704C602.079 417.565 602.516 417.496 603.039 417.496C603.689 417.496 604.276 417.645 604.799 417.944C605.332 418.243 605.753 418.669 606.063 419.224C606.383 419.779 606.543 420.44 606.543 421.208V421.384C606.543 422.141 606.383 422.808 606.063 423.384C605.743 423.96 605.284 424.413 604.687 424.744C604.089 425.064 603.38 425.224 602.559 425.224ZM609.321 425.224C609.011 425.224 608.75 425.123 608.537 424.92C608.334 424.717 608.233 424.456 608.233 424.136C608.233 423.816 608.334 423.555 608.537 423.352C608.75 423.149 609.011 423.048 609.321 423.048C609.641 423.048 609.902 423.149 610.105 423.352C610.307 423.555 610.409 423.816 610.409 424.136C610.409 424.456 610.307 424.717 610.105 424.92C609.902 425.123 609.641 425.224 609.321 425.224ZM609.321 419.128C609.011 419.128 608.75 419.027 608.537 418.824C608.334 418.621 608.233 418.36 608.233 418.04C608.233 417.72 608.334 417.459 608.537 417.256C608.75 417.053 609.011 416.952 609.321 416.952C609.641 416.952 609.902 417.053 610.105 417.256C610.307 417.459 610.409 417.72 610.409 418.04C610.409 418.36 610.307 418.621 610.105 418.824C609.902 419.027 609.641 419.128 609.321 419.128ZM612.2 425V423.832C612.2 423.032 612.338 422.392 612.616 421.912C612.904 421.432 613.298 421.048 613.8 420.76C614.312 420.461 614.92 420.205 615.624 419.992L616.504 419.72C616.984 419.571 617.405 419.389 617.768 419.176C618.13 418.952 618.413 418.675 618.616 418.344C618.818 418.003 618.92 417.587 618.92 417.096V417.032C618.92 416.328 618.674 415.773 618.184 415.368C617.693 414.952 617.064 414.744 616.296 414.744C615.485 414.744 614.824 414.963 614.312 415.4C613.8 415.827 613.544 416.477 613.544 417.352V417.576H612.264V417.368C612.264 416.557 612.44 415.869 612.792 415.304C613.144 414.739 613.624 414.312 614.232 414.024C614.84 413.725 615.528 413.576 616.296 413.576C617.064 413.576 617.741 413.72 618.328 414.008C618.925 414.296 619.389 414.696 619.72 415.208C620.05 415.72 620.216 416.317 620.216 417V417.144C620.216 417.869 620.072 418.472 619.784 418.952C619.496 419.421 619.096 419.805 618.584 420.104C618.082 420.403 617.49 420.659 616.808 420.872L615.944 421.144C615.4 421.315 614.946 421.496 614.584 421.688C614.232 421.869 613.965 422.104 613.784 422.392C613.602 422.68 613.512 423.069 613.512 423.56V423.832H620.12V425H612.2ZM626.875 425V422.712H621.035V421.176L625.739 413.8H628.171V421.544H630.091V422.712H628.171V425H626.875ZM622.331 421.544H626.875V414.584H626.651L622.331 421.352V421.544Z" fill="white"/>
<path opacity="0.4" d="M667.284 425.224C666.015 425.224 665.001 424.851 664.244 424.104C663.497 423.347 663.124 422.216 663.124 420.712V418.088C663.124 416.595 663.497 415.469 664.244 414.712C665.001 413.955 666.015 413.576 667.284 413.576C668.564 413.576 669.577 413.955 670.324 414.712C671.081 415.469 671.46 416.595 671.46 418.088V420.712C671.46 422.216 671.081 423.347 670.324 424.104C669.577 424.851 668.564 425.224 667.284 425.224ZM667.284 424.056C668.244 424.056 668.964 423.768 669.444 423.192C669.924 422.616 670.164 421.811 670.164 420.776V418.008C670.164 416.973 669.919 416.173 669.428 415.608C668.937 415.032 668.223 414.744 667.284 414.744C666.345 414.744 665.631 415.032 665.14 415.608C664.66 416.184 664.42 416.984 664.42 418.008V420.776C664.42 421.821 664.66 422.632 665.14 423.208C665.62 423.773 666.335 424.056 667.284 424.056ZM677.374 425.224C676.606 425.224 675.918 425.075 675.31 424.776C674.713 424.467 674.238 424.029 673.886 423.464C673.545 422.899 673.374 422.227 673.374 421.448V417.544C673.374 416.701 673.539 415.987 673.87 415.4C674.201 414.813 674.665 414.365 675.262 414.056C675.87 413.736 676.59 413.576 677.422 413.576C678.243 413.576 678.942 413.725 679.518 414.024C680.105 414.312 680.547 414.712 680.846 415.224C681.155 415.725 681.31 416.307 681.31 416.968H679.998C679.998 416.307 679.785 415.773 679.358 415.368C678.931 414.952 678.286 414.744 677.422 414.744C676.547 414.744 675.87 414.984 675.39 415.464C674.91 415.933 674.67 416.584 674.67 417.416V418.968H674.894C675.086 418.648 675.406 418.355 675.854 418.088C676.302 417.811 676.926 417.672 677.726 417.672C678.398 417.672 679.011 417.821 679.566 418.12C680.121 418.419 680.563 418.84 680.894 419.384C681.225 419.928 681.39 420.573 681.39 421.32V421.512C681.39 422.269 681.214 422.925 680.862 423.48C680.521 424.035 680.046 424.467 679.438 424.776C678.83 425.075 678.142 425.224 677.374 425.224ZM677.374 424.056C678.185 424.056 678.841 423.827 679.342 423.368C679.843 422.909 680.094 422.285 680.094 421.496V421.368C680.094 420.835 679.977 420.376 679.742 419.992C679.518 419.608 679.203 419.309 678.798 419.096C678.393 418.872 677.918 418.76 677.374 418.76C676.841 418.76 676.371 418.872 675.966 419.096C675.561 419.309 675.241 419.608 675.006 419.992C674.782 420.376 674.67 420.835 674.67 421.368V421.496C674.67 422.285 674.921 422.909 675.422 423.368C675.923 423.827 676.574 424.056 677.374 424.056ZM684.227 425.224C683.918 425.224 683.656 425.123 683.443 424.92C683.24 424.717 683.139 424.456 683.139 424.136C683.139 423.816 683.24 423.555 683.443 423.352C683.656 423.149 683.918 423.048 684.227 423.048C684.547 423.048 684.808 423.149 685.011 423.352C685.214 423.555 685.315 423.816 685.315 424.136C685.315 424.456 685.214 424.717 685.011 424.92C684.808 425.123 684.547 425.224 684.227 425.224ZM684.227 419.128C683.918 419.128 683.656 419.027 683.443 418.824C683.24 418.621 683.139 418.36 683.139 418.04C683.139 417.72 683.24 417.459 683.443 417.256C683.656 417.053 683.918 416.952 684.227 416.952C684.547 416.952 684.808 417.053 685.011 417.256C685.214 417.459 685.315 417.72 685.315 418.04C685.315 418.36 685.214 418.621 685.011 418.824C684.808 419.027 684.547 419.128 684.227 419.128ZM691.09 425.224C690.268 425.224 689.559 425.069 688.962 424.76C688.364 424.44 687.9 424.003 687.57 423.448C687.239 422.883 687.074 422.232 687.074 421.496V421.304H688.37V421.448C688.37 422.291 688.615 422.936 689.106 423.384C689.596 423.832 690.247 424.056 691.058 424.056C691.911 424.056 692.578 423.816 693.058 423.336C693.538 422.856 693.778 422.2 693.778 421.368V421.224C693.778 420.424 693.543 419.789 693.074 419.32C692.615 418.84 692.018 418.6 691.282 418.6C690.855 418.6 690.503 418.669 690.226 418.808C689.948 418.936 689.73 419.101 689.57 419.304C689.41 419.496 689.276 419.683 689.17 419.864H687.41V413.8H694.77V414.968H688.706V418.84H688.93C689.047 418.627 689.207 418.419 689.41 418.216C689.623 418.013 689.906 417.843 690.258 417.704C690.61 417.565 691.047 417.496 691.57 417.496C692.22 417.496 692.807 417.645 693.33 417.944C693.863 418.243 694.284 418.669 694.594 419.224C694.914 419.779 695.074 420.44 695.074 421.208V421.384C695.074 422.141 694.914 422.808 694.594 423.384C694.274 423.96 693.815 424.413 693.218 424.744C692.62 425.064 691.911 425.224 691.09 425.224ZM702.188 425V422.712H696.348V421.176L701.052 413.8H703.484V421.544H705.404V422.712H703.484V425H702.188ZM697.644 421.544H702.188V414.584H701.964L697.644 421.352V421.544Z" fill="white"/>
<path opacity="0.4" d="M742.245 425.224C740.976 425.224 739.962 424.851 739.205 424.104C738.458 423.347 738.085 422.216 738.085 420.712V418.088C738.085 416.595 738.458 415.469 739.205 414.712C739.962 413.955 740.976 413.576 742.245 413.576C743.525 413.576 744.538 413.955 745.285 414.712C746.042 415.469 746.421 416.595 746.421 418.088V420.712C746.421 422.216 746.042 423.347 745.285 424.104C744.538 424.851 743.525 425.224 742.245 425.224ZM742.245 424.056C743.205 424.056 743.925 423.768 744.405 423.192C744.885 422.616 745.125 421.811 745.125 420.776V418.008C745.125 416.973 744.88 416.173 744.389 415.608C743.898 415.032 743.184 414.744 742.245 414.744C741.306 414.744 740.592 415.032 740.101 415.608C739.621 416.184 739.381 416.984 739.381 418.008V420.776C739.381 421.821 739.621 422.632 740.101 423.208C740.581 423.773 741.296 424.056 742.245 424.056ZM752.351 425.224C751.487 425.224 750.735 425.096 750.095 424.84C749.466 424.573 748.975 424.205 748.623 423.736C748.282 423.256 748.111 422.696 748.111 422.056V421.88C748.111 421.325 748.228 420.867 748.463 420.504C748.698 420.141 748.98 419.864 749.311 419.672C749.652 419.469 749.967 419.341 750.255 419.288V419.08C749.967 418.995 749.668 418.856 749.359 418.664C749.06 418.472 748.81 418.211 748.607 417.88C748.415 417.549 748.319 417.144 748.319 416.664V416.488C748.319 415.88 748.49 415.363 748.831 414.936C749.183 414.499 749.663 414.163 750.271 413.928C750.879 413.693 751.572 413.576 752.351 413.576C753.14 413.576 753.834 413.693 754.431 413.928C755.039 414.163 755.514 414.499 755.855 414.936C756.207 415.363 756.383 415.88 756.383 416.488V416.664C756.383 417.144 756.287 417.549 756.095 417.88C755.903 418.211 755.658 418.472 755.359 418.664C755.06 418.856 754.762 418.995 754.463 419.08V419.288C754.762 419.341 755.076 419.469 755.407 419.672C755.738 419.864 756.015 420.141 756.239 420.504C756.474 420.867 756.591 421.325 756.591 421.88V422.056C756.591 422.696 756.42 423.256 756.079 423.736C755.738 424.205 755.247 424.573 754.607 424.84C753.978 425.096 753.226 425.224 752.351 425.224ZM752.351 424.056C753.258 424.056 753.972 423.88 754.495 423.528C755.028 423.176 755.295 422.664 755.295 421.992V421.864C755.295 421.192 755.034 420.68 754.511 420.328C753.988 419.976 753.268 419.8 752.351 419.8C751.444 419.8 750.73 419.976 750.207 420.328C749.684 420.68 749.423 421.192 749.423 421.864V421.992C749.423 422.664 749.684 423.176 750.207 423.528C750.74 423.88 751.455 424.056 752.351 424.056ZM752.351 418.632C753.204 418.632 753.871 418.472 754.351 418.152C754.842 417.821 755.087 417.357 755.087 416.76V416.632C755.087 416.024 754.842 415.56 754.351 415.24C753.86 414.909 753.194 414.744 752.351 414.744C751.508 414.744 750.842 414.909 750.351 415.24C749.86 415.56 749.615 416.024 749.615 416.632V416.76C749.615 417.357 749.86 417.821 750.351 418.152C750.842 418.472 751.508 418.632 752.351 418.632ZM759.36 425.224C759.05 425.224 758.789 425.123 758.576 424.92C758.373 424.717 758.272 424.456 758.272 424.136C758.272 423.816 758.373 423.555 758.576 423.352C758.789 423.149 759.05 423.048 759.36 423.048C759.68 423.048 759.941 423.149 760.144 423.352C760.346 423.555 760.448 423.816 760.448 424.136C760.448 424.456 760.346 424.717 760.144 424.92C759.941 425.123 759.68 425.224 759.36 425.224ZM759.36 419.128C759.05 419.128 758.789 419.027 758.576 418.824C758.373 418.621 758.272 418.36 758.272 418.04C758.272 417.72 758.373 417.459 758.576 417.256C758.789 417.053 759.05 416.952 759.36 416.952C759.68 416.952 759.941 417.053 760.144 417.256C760.346 417.459 760.448 417.72 760.448 418.04C760.448 418.36 760.346 418.621 760.144 418.824C759.941 419.027 759.68 419.128 759.36 419.128ZM765.503 425V414.664H765.263L763.087 418.648H761.679L764.351 413.8H766.799V425H765.503ZM772.862 425.224C772.041 425.224 771.337 425.08 770.75 424.792C770.174 424.493 769.737 424.088 769.438 423.576C769.139 423.064 768.99 422.483 768.99 421.832H770.286C770.286 422.493 770.505 423.032 770.942 423.448C771.379 423.853 772.019 424.056 772.862 424.056C773.747 424.056 774.425 423.821 774.894 423.352C775.374 422.872 775.614 422.216 775.614 421.384V419.832H775.406C775.203 420.152 774.878 420.451 774.43 420.728C773.993 420.995 773.374 421.128 772.574 421.128C771.902 421.128 771.283 420.979 770.718 420.68C770.163 420.381 769.721 419.96 769.39 419.416C769.059 418.872 768.894 418.227 768.894 417.48V417.288C768.894 416.52 769.07 415.864 769.422 415.32C769.774 414.765 770.249 414.339 770.846 414.04C771.454 413.731 772.142 413.576 772.91 413.576C773.689 413.576 774.377 413.731 774.974 414.04C775.582 414.339 776.057 414.771 776.398 415.336C776.739 415.891 776.91 416.563 776.91 417.352V421.256C776.91 422.088 776.745 422.803 776.414 423.4C776.094 423.987 775.63 424.44 775.022 424.76C774.414 425.069 773.694 425.224 772.862 425.224ZM772.91 420.04C773.443 420.04 773.913 419.933 774.318 419.72C774.723 419.496 775.038 419.192 775.262 418.808C775.497 418.413 775.614 417.955 775.614 417.432V417.304C775.614 416.504 775.363 415.88 774.862 415.432C774.371 414.973 773.721 414.744 772.91 414.744C772.099 414.744 771.443 414.973 770.942 415.432C770.441 415.88 770.19 416.504 770.19 417.304V417.432C770.19 417.955 770.302 418.413 770.526 418.808C770.761 419.192 771.081 419.496 771.486 419.72C771.902 419.933 772.377 420.04 772.91 420.04Z" fill="white"/>
<path opacity="0.4" d="M814.175 425.224C812.905 425.224 811.892 424.851 811.135 424.104C810.388 423.347 810.015 422.216 810.015 420.712V418.088C810.015 416.595 810.388 415.469 811.135 414.712C811.892 413.955 812.905 413.576 814.175 413.576C815.455 413.576 816.468 413.955 817.215 414.712C817.972 415.469 818.351 416.595 818.351 418.088V420.712C818.351 422.216 817.972 423.347 817.215 424.104C816.468 424.851 815.455 425.224 814.175 425.224ZM814.175 424.056C815.135 424.056 815.855 423.768 816.335 423.192C816.815 422.616 817.055 421.811 817.055 420.776V418.008C817.055 416.973 816.809 416.173 816.319 415.608C815.828 415.032 815.113 414.744 814.175 414.744C813.236 414.744 812.521 415.032 812.031 415.608C811.551 416.184 811.311 416.984 811.311 418.008V420.776C811.311 421.821 811.551 422.632 812.031 423.208C812.511 423.773 813.225 424.056 814.175 424.056ZM824.089 425.224C823.267 425.224 822.563 425.08 821.977 424.792C821.401 424.493 820.963 424.088 820.665 423.576C820.366 423.064 820.217 422.483 820.217 421.832H821.513C821.513 422.493 821.731 423.032 822.169 423.448C822.606 423.853 823.246 424.056 824.089 424.056C824.974 424.056 825.651 423.821 826.121 423.352C826.601 422.872 826.841 422.216 826.841 421.384V419.832H826.633C826.43 420.152 826.105 420.451 825.657 420.728C825.219 420.995 824.601 421.128 823.801 421.128C823.129 421.128 822.51 420.979 821.945 420.68C821.39 420.381 820.947 419.96 820.617 419.416C820.286 418.872 820.121 418.227 820.121 417.48V417.288C820.121 416.52 820.297 415.864 820.649 415.32C821.001 414.765 821.475 414.339 822.073 414.04C822.681 413.731 823.369 413.576 824.137 413.576C824.915 413.576 825.603 413.731 826.201 414.04C826.809 414.339 827.283 414.771 827.625 415.336C827.966 415.891 828.137 416.563 828.137 417.352V421.256C828.137 422.088 827.971 422.803 827.641 423.4C827.321 423.987 826.857 424.44 826.249 424.76C825.641 425.069 824.921 425.224 824.089 425.224ZM824.137 420.04C824.67 420.04 825.139 419.933 825.545 419.72C825.95 419.496 826.265 419.192 826.489 418.808C826.723 418.413 826.841 417.955 826.841 417.432V417.304C826.841 416.504 826.59 415.88 826.089 415.432C825.598 414.973 824.947 414.744 824.137 414.744C823.326 414.744 822.67 414.973 822.169 415.432C821.667 415.88 821.417 416.504 821.417 417.304V417.432C821.417 417.955 821.529 418.413 821.753 418.808C821.987 419.192 822.307 419.496 822.713 419.72C823.129 419.933 823.603 420.04 824.137 420.04ZM831.118 425.224C830.808 425.224 830.547 425.123 830.334 424.92C830.131 424.717 830.03 424.456 830.03 424.136C830.03 423.816 830.131 423.555 830.334 423.352C830.547 423.149 830.808 423.048 831.118 423.048C831.438 423.048 831.699 423.149 831.902 423.352C832.104 423.555 832.206 423.816 832.206 424.136C832.206 424.456 832.104 424.717 831.902 424.92C831.699 425.123 831.438 425.224 831.118 425.224ZM831.118 419.128C830.808 419.128 830.547 419.027 830.334 418.824C830.131 418.621 830.03 418.36 830.03 418.04C830.03 417.72 830.131 417.459 830.334 417.256C830.547 417.053 830.808 416.952 831.118 416.952C831.438 416.952 831.699 417.053 831.902 417.256C832.104 417.459 832.206 417.72 832.206 418.04C832.206 418.36 832.104 418.621 831.902 418.824C831.699 419.027 831.438 419.128 831.118 419.128ZM839.5 425V422.712H833.66V421.176L838.364 413.8H840.796V421.544H842.716V422.712H840.796V425H839.5ZM834.956 421.544H839.5V414.584H839.276L834.956 421.352V421.544ZM847.932 425.224C847.111 425.224 846.407 425.08 845.82 424.792C845.244 424.493 844.807 424.088 844.508 423.576C844.21 423.064 844.06 422.483 844.06 421.832H845.356C845.356 422.493 845.575 423.032 846.012 423.448C846.45 423.853 847.09 424.056 847.932 424.056C848.818 424.056 849.495 423.821 849.964 423.352C850.444 422.872 850.684 422.216 850.684 421.384V419.832H850.476C850.274 420.152 849.948 420.451 849.5 420.728C849.063 420.995 848.444 421.128 847.644 421.128C846.972 421.128 846.354 420.979 845.788 420.68C845.234 420.381 844.791 419.96 844.46 419.416C844.13 418.872 843.964 418.227 843.964 417.48V417.288C843.964 416.52 844.14 415.864 844.492 415.32C844.844 414.765 845.319 414.339 845.916 414.04C846.524 413.731 847.212 413.576 847.98 413.576C848.759 413.576 849.447 413.731 850.044 414.04C850.652 414.339 851.127 414.771 851.468 415.336C851.81 415.891 851.98 416.563 851.98 417.352V421.256C851.98 422.088 851.815 422.803 851.484 423.4C851.164 423.987 850.7 424.44 850.092 424.76C849.484 425.069 848.764 425.224 847.932 425.224ZM847.98 420.04C848.514 420.04 848.983 419.933 849.388 419.72C849.794 419.496 850.108 419.192 850.332 418.808C850.567 418.413 850.684 417.955 850.684 417.432V417.304C850.684 416.504 850.434 415.88 849.932 415.432C849.442 414.973 848.791 414.744 847.98 414.744C847.17 414.744 846.514 414.973 846.012 415.432C845.511 415.88 845.26 416.504 845.26 417.304V417.432C845.26 417.955 845.372 418.413 845.596 418.808C845.831 419.192 846.151 419.496 846.556 419.72C846.972 419.933 847.447 420.04 847.98 420.04Z" fill="white"/>
<path opacity="0.4" d="M888.557 425V414.664H888.317L886.141 418.648H884.733L887.405 413.8H889.853V425H888.557ZM895.245 425V414.664H895.005L892.829 418.648H891.421L894.093 413.8H896.541V425H895.245ZM899.836 425.224C899.527 425.224 899.266 425.123 899.052 424.92C898.85 424.717 898.748 424.456 898.748 424.136C898.748 423.816 898.85 423.555 899.052 423.352C899.266 423.149 899.527 423.048 899.836 423.048C900.156 423.048 900.418 423.149 900.62 423.352C900.823 423.555 900.924 423.816 900.924 424.136C900.924 424.456 900.823 424.717 900.62 424.92C900.418 425.123 900.156 425.224 899.836 425.224ZM899.836 419.128C899.527 419.128 899.266 419.027 899.052 418.824C898.85 418.621 898.748 418.36 898.748 418.04C898.748 417.72 898.85 417.459 899.052 417.256C899.266 417.053 899.527 416.952 899.836 416.952C900.156 416.952 900.418 417.053 900.62 417.256C900.823 417.459 900.924 417.72 900.924 418.04C900.924 418.36 900.823 418.621 900.62 418.824C900.418 419.027 900.156 419.128 899.836 419.128ZM905.979 425V414.664H905.739L903.563 418.648H902.155L904.827 413.8H907.275V425H905.979ZM914.907 425V422.712H909.067V421.176L913.771 413.8H916.203V421.544H918.123V422.712H916.203V425H914.907ZM910.363 421.544H914.907V414.584H914.683L910.363 421.352V421.544Z" fill="white"/>
<path opacity="0.4" d="M954.596 425V414.664H954.356L952.18 418.648H950.772L953.444 413.8H955.892V425H954.596ZM958.02 425V423.832C958.02 423.032 958.159 422.392 958.436 421.912C958.724 421.432 959.119 421.048 959.62 420.76C960.132 420.461 960.74 420.205 961.444 419.992L962.324 419.72C962.804 419.571 963.225 419.389 963.588 419.176C963.951 418.952 964.233 418.675 964.436 418.344C964.639 418.003 964.74 417.587 964.74 417.096V417.032C964.74 416.328 964.495 415.773 964.004 415.368C963.513 414.952 962.884 414.744 962.116 414.744C961.305 414.744 960.644 414.963 960.132 415.4C959.62 415.827 959.364 416.477 959.364 417.352V417.576H958.084V417.368C958.084 416.557 958.26 415.869 958.612 415.304C958.964 414.739 959.444 414.312 960.052 414.024C960.66 413.725 961.348 413.576 962.116 413.576C962.884 413.576 963.561 413.72 964.148 414.008C964.745 414.296 965.209 414.696 965.54 415.208C965.871 415.72 966.036 416.317 966.036 417V417.144C966.036 417.869 965.892 418.472 965.604 418.952C965.316 419.421 964.916 419.805 964.404 420.104C963.903 420.403 963.311 420.659 962.628 420.872L961.764 421.144C961.22 421.315 960.767 421.496 960.404 421.688C960.052 421.869 959.785 422.104 959.604 422.392C959.423 422.68 959.332 423.069 959.332 423.56V423.832H965.94V425H958.02ZM968.829 425.224C968.519 425.224 968.258 425.123 968.045 424.92C967.842 424.717 967.741 424.456 967.741 424.136C967.741 423.816 967.842 423.555 968.045 423.352C968.258 423.149 968.519 423.048 968.829 423.048C969.149 423.048 969.41 423.149 969.613 423.352C969.815 423.555 969.917 423.816 969.917 424.136C969.917 424.456 969.815 424.717 969.613 424.92C969.41 425.123 969.149 425.224 968.829 425.224ZM968.829 419.128C968.519 419.128 968.258 419.027 968.045 418.824C967.842 418.621 967.741 418.36 967.741 418.04C967.741 417.72 967.842 417.459 968.045 417.256C968.258 417.053 968.519 416.952 968.829 416.952C969.149 416.952 969.41 417.053 969.613 417.256C969.815 417.459 969.917 417.72 969.917 418.04C969.917 418.36 969.815 418.621 969.613 418.824C969.41 419.027 969.149 419.128 968.829 419.128ZM975.707 425.224C974.918 425.224 974.209 425.075 973.579 424.776C972.961 424.477 972.47 424.045 972.107 423.48C971.755 422.915 971.579 422.232 971.579 421.432V421.128H972.875V421.416C972.875 422.237 973.137 422.883 973.659 423.352C974.182 423.821 974.865 424.056 975.707 424.056C976.561 424.056 977.222 423.837 977.691 423.4C978.171 422.952 978.411 422.392 978.411 421.72V421.592C978.411 421.101 978.294 420.707 978.059 420.408C977.825 420.099 977.505 419.875 977.099 419.736C976.705 419.587 976.267 419.512 975.787 419.512H973.963V417.896L978.235 415.16V414.968H971.851V413.8H979.611V415.608L975.435 418.296V418.488H976.235C976.865 418.488 977.441 418.605 977.963 418.84C978.497 419.064 978.918 419.405 979.227 419.864C979.547 420.312 979.707 420.877 979.707 421.56V421.736C979.707 422.44 979.542 423.053 979.211 423.576C978.881 424.099 978.417 424.504 977.819 424.792C977.222 425.08 976.518 425.224 975.707 425.224ZM986.868 425V422.712H981.028V421.176L985.732 413.8H988.164V421.544H990.084V422.712H988.164V425H986.868ZM982.324 421.544H986.868V414.584H986.644L982.324 421.352V421.544Z" fill="white"/>
<path opacity="0.4" d="M1026.23 425V414.664H1025.99L1023.81 418.648H1022.41L1025.08 413.8H1027.53V425H1026.23ZM1033.65 425.224C1032.86 425.224 1032.15 425.075 1031.52 424.776C1030.91 424.477 1030.42 424.045 1030.05 423.48C1029.7 422.915 1029.52 422.232 1029.52 421.432V421.128H1030.82V421.416C1030.82 422.237 1031.08 422.883 1031.6 423.352C1032.13 423.821 1032.81 424.056 1033.65 424.056C1034.51 424.056 1035.17 423.837 1035.64 423.4C1036.12 422.952 1036.36 422.392 1036.36 421.72V421.592C1036.36 421.101 1036.24 420.707 1036 420.408C1035.77 420.099 1035.45 419.875 1035.04 419.736C1034.65 419.587 1034.21 419.512 1033.73 419.512H1031.91V417.896L1036.18 415.16V414.968H1029.8V413.8H1037.56V415.608L1033.38 418.296V418.488H1034.18C1034.81 418.488 1035.39 418.605 1035.91 418.84C1036.44 419.064 1036.86 419.405 1037.17 419.864C1037.49 420.312 1037.65 420.877 1037.65 421.56V421.736C1037.65 422.44 1037.49 423.053 1037.16 423.576C1036.83 424.099 1036.36 424.504 1035.76 424.792C1035.17 425.08 1034.46 425.224 1033.65 425.224ZM1040.48 425.224C1040.17 425.224 1039.91 425.123 1039.69 424.92C1039.49 424.717 1039.39 424.456 1039.39 424.136C1039.39 423.816 1039.49 423.555 1039.69 423.352C1039.91 423.149 1040.17 423.048 1040.48 423.048C1040.8 423.048 1041.06 423.149 1041.26 423.352C1041.46 423.555 1041.56 423.816 1041.56 424.136C1041.56 424.456 1041.46 424.717 1041.26 424.92C1041.06 425.123 1040.8 425.224 1040.48 425.224ZM1040.48 419.128C1040.17 419.128 1039.91 419.027 1039.69 418.824C1039.49 418.621 1039.39 418.36 1039.39 418.04C1039.39 417.72 1039.49 417.459 1039.69 417.256C1039.91 417.053 1040.17 416.952 1040.48 416.952C1040.8 416.952 1041.06 417.053 1041.26 417.256C1041.46 417.459 1041.56 417.72 1041.56 418.04C1041.56 418.36 1041.46 418.621 1041.26 418.824C1041.06 419.027 1040.8 419.128 1040.48 419.128ZM1047.34 425.224C1046.52 425.224 1045.81 425.069 1045.21 424.76C1044.61 424.44 1044.15 424.003 1043.82 423.448C1043.49 422.883 1043.32 422.232 1043.32 421.496V421.304H1044.62V421.448C1044.62 422.291 1044.87 422.936 1045.36 423.384C1045.85 423.832 1046.5 424.056 1047.31 424.056C1048.16 424.056 1048.83 423.816 1049.31 423.336C1049.79 422.856 1050.03 422.2 1050.03 421.368V421.224C1050.03 420.424 1049.79 419.789 1049.32 419.32C1048.87 418.84 1048.27 418.6 1047.53 418.6C1047.11 418.6 1046.75 418.669 1046.48 418.808C1046.2 418.936 1045.98 419.101 1045.82 419.304C1045.66 419.496 1045.53 419.683 1045.42 419.864H1043.66V413.8H1051.02V414.968H1044.96V418.84H1045.18C1045.3 418.627 1045.46 418.419 1045.66 418.216C1045.87 418.013 1046.16 417.843 1046.51 417.704C1046.86 417.565 1047.3 417.496 1047.82 417.496C1048.47 417.496 1049.06 417.645 1049.58 417.944C1050.11 418.243 1050.53 418.669 1050.84 419.224C1051.16 419.779 1051.32 420.44 1051.32 421.208V421.384C1051.32 422.141 1051.16 422.808 1050.84 423.384C1050.52 423.96 1050.07 424.413 1049.47 424.744C1048.87 425.064 1048.16 425.224 1047.34 425.224ZM1056.87 425.224C1056.05 425.224 1055.34 425.08 1054.76 424.792C1054.18 424.493 1053.74 424.088 1053.45 423.576C1053.15 423.064 1053 422.483 1053 421.832H1054.29C1054.29 422.493 1054.51 423.032 1054.95 423.448C1055.39 423.853 1056.03 424.056 1056.87 424.056C1057.76 424.056 1058.43 423.821 1058.9 423.352C1059.38 422.872 1059.62 422.216 1059.62 421.384V419.832H1059.41C1059.21 420.152 1058.89 420.451 1058.44 420.728C1058 420.995 1057.38 421.128 1056.58 421.128C1055.91 421.128 1055.29 420.979 1054.73 420.68C1054.17 420.381 1053.73 419.96 1053.4 419.416C1053.07 418.872 1052.9 418.227 1052.9 417.48V417.288C1052.9 416.52 1053.08 415.864 1053.43 415.32C1053.78 414.765 1054.26 414.339 1054.85 414.04C1055.46 413.731 1056.15 413.576 1056.92 413.576C1057.7 413.576 1058.38 413.731 1058.98 414.04C1059.59 414.339 1060.06 414.771 1060.41 415.336C1060.75 415.891 1060.92 416.563 1060.92 417.352V421.256C1060.92 422.088 1060.75 422.803 1060.42 423.4C1060.1 423.987 1059.64 424.44 1059.03 424.76C1058.42 425.069 1057.7 425.224 1056.87 425.224ZM1056.92 420.04C1057.45 420.04 1057.92 419.933 1058.33 419.72C1058.73 419.496 1059.05 419.192 1059.27 418.808C1059.5 418.413 1059.62 417.955 1059.62 417.432V417.304C1059.62 416.504 1059.37 415.88 1058.87 415.432C1058.38 414.973 1057.73 414.744 1056.92 414.744C1056.11 414.744 1055.45 414.973 1054.95 415.432C1054.45 415.88 1054.2 416.504 1054.2 417.304V417.432C1054.2 417.955 1054.31 418.413 1054.53 418.808C1054.77 419.192 1055.09 419.496 1055.49 419.72C1055.91 419.933 1056.38 420.04 1056.92 420.04Z" fill="white"/>
<path opacity="0.4" d="M1097.37 425V414.664H1097.13L1094.95 418.648H1093.55L1096.22 413.8H1098.67V425H1097.37ZM1104.78 425.224C1103.96 425.224 1103.25 425.069 1102.65 424.76C1102.05 424.44 1101.59 424.003 1101.26 423.448C1100.93 422.883 1100.76 422.232 1100.76 421.496V421.304H1102.06V421.448C1102.06 422.291 1102.3 422.936 1102.79 423.384C1103.28 423.832 1103.93 424.056 1104.75 424.056C1105.6 424.056 1106.27 423.816 1106.75 423.336C1107.23 422.856 1107.47 422.2 1107.47 421.368V421.224C1107.47 420.424 1107.23 419.789 1106.76 419.32C1106.3 418.84 1105.71 418.6 1104.97 418.6C1104.54 418.6 1104.19 418.669 1103.91 418.808C1103.64 418.936 1103.42 419.101 1103.26 419.304C1103.1 419.496 1102.96 419.683 1102.86 419.864H1101.1V413.8H1108.46V414.968H1102.39V418.84H1102.62C1102.73 418.627 1102.89 418.419 1103.1 418.216C1103.31 418.013 1103.59 417.843 1103.95 417.704C1104.3 417.565 1104.73 417.496 1105.26 417.496C1105.91 417.496 1106.49 417.645 1107.02 417.944C1107.55 418.243 1107.97 418.669 1108.28 419.224C1108.6 419.779 1108.76 420.44 1108.76 421.208V421.384C1108.76 422.141 1108.6 422.808 1108.28 423.384C1107.96 423.96 1107.5 424.413 1106.91 424.744C1106.31 425.064 1105.6 425.224 1104.78 425.224ZM1111.54 425.224C1111.23 425.224 1110.97 425.123 1110.76 424.92C1110.55 424.717 1110.45 424.456 1110.45 424.136C1110.45 423.816 1110.55 423.555 1110.76 423.352C1110.97 423.149 1111.23 423.048 1111.54 423.048C1111.86 423.048 1112.12 423.149 1112.32 423.352C1112.53 423.555 1112.63 423.816 1112.63 424.136C1112.63 424.456 1112.53 424.717 1112.32 424.92C1112.12 425.123 1111.86 425.224 1111.54 425.224ZM1111.54 419.128C1111.23 419.128 1110.97 419.027 1110.76 418.824C1110.55 418.621 1110.45 418.36 1110.45 418.04C1110.45 417.72 1110.55 417.459 1110.76 417.256C1110.97 417.053 1111.23 416.952 1111.54 416.952C1111.86 416.952 1112.12 417.053 1112.32 417.256C1112.53 417.459 1112.63 417.72 1112.63 418.04C1112.63 418.36 1112.53 418.621 1112.32 418.824C1112.12 419.027 1111.86 419.128 1111.54 419.128ZM1114.42 425V423.832C1114.42 423.032 1114.56 422.392 1114.83 421.912C1115.12 421.432 1115.52 421.048 1116.02 420.76C1116.53 420.461 1117.14 420.205 1117.84 419.992L1118.72 419.72C1119.2 419.571 1119.62 419.389 1119.99 419.176C1120.35 418.952 1120.63 418.675 1120.83 418.344C1121.04 418.003 1121.14 417.587 1121.14 417.096V417.032C1121.14 416.328 1120.89 415.773 1120.4 415.368C1119.91 414.952 1119.28 414.744 1118.51 414.744C1117.7 414.744 1117.04 414.963 1116.53 415.4C1116.02 415.827 1115.76 416.477 1115.76 417.352V417.576H1114.48V417.368C1114.48 416.557 1114.66 415.869 1115.01 415.304C1115.36 414.739 1115.84 414.312 1116.45 414.024C1117.06 413.725 1117.75 413.576 1118.51 413.576C1119.28 413.576 1119.96 413.72 1120.55 414.008C1121.14 414.296 1121.61 414.696 1121.94 415.208C1122.27 415.72 1122.43 416.317 1122.43 417V417.144C1122.43 417.869 1122.29 418.472 1122 418.952C1121.71 419.421 1121.31 419.805 1120.8 420.104C1120.3 420.403 1119.71 420.659 1119.03 420.872L1118.16 421.144C1117.62 421.315 1117.16 421.496 1116.8 421.688C1116.45 421.869 1116.18 422.104 1116 422.392C1115.82 422.68 1115.73 423.069 1115.73 423.56V423.832H1122.34V425H1114.42ZM1129.09 425V422.712H1123.25V421.176L1127.96 413.8H1130.39V421.544H1132.31V422.712H1130.39V425H1129.09ZM1124.55 421.544H1129.09V414.584H1128.87L1124.55 421.352V421.544Z" fill="white"/>
<path opacity="0.4" d="M1309.16 425V414.664H1308.92L1306.74 418.648H1305.33L1308.01 413.8H1310.45V425H1309.16ZM1316.52 425.224C1315.7 425.224 1314.99 425.08 1314.41 424.792C1313.83 424.493 1313.39 424.088 1313.09 423.576C1312.8 423.064 1312.65 422.483 1312.65 421.832H1313.94C1313.94 422.493 1314.16 423.032 1314.6 423.448C1315.04 423.853 1315.68 424.056 1316.52 424.056C1317.4 424.056 1318.08 423.821 1318.55 423.352C1319.03 422.872 1319.27 422.216 1319.27 421.384V419.832H1319.06C1318.86 420.152 1318.53 420.451 1318.09 420.728C1317.65 420.995 1317.03 421.128 1316.23 421.128C1315.56 421.128 1314.94 420.979 1314.37 420.68C1313.82 420.381 1313.38 419.96 1313.05 419.416C1312.72 418.872 1312.55 418.227 1312.55 417.48V417.288C1312.55 416.52 1312.73 415.864 1313.08 415.32C1313.43 414.765 1313.91 414.339 1314.5 414.04C1315.11 413.731 1315.8 413.576 1316.57 413.576C1317.35 413.576 1318.03 413.731 1318.63 414.04C1319.24 414.339 1319.71 414.771 1320.05 415.336C1320.4 415.891 1320.57 416.563 1320.57 417.352V421.256C1320.57 422.088 1320.4 422.803 1320.07 423.4C1319.75 423.987 1319.29 424.44 1318.68 424.76C1318.07 425.069 1317.35 425.224 1316.52 425.224ZM1316.57 420.04C1317.1 420.04 1317.57 419.933 1317.97 419.72C1318.38 419.496 1318.69 419.192 1318.92 418.808C1319.15 418.413 1319.27 417.955 1319.27 417.432V417.304C1319.27 416.504 1319.02 415.88 1318.52 415.432C1318.03 414.973 1317.38 414.744 1316.57 414.744C1315.76 414.744 1315.1 414.973 1314.6 415.432C1314.1 415.88 1313.85 416.504 1313.85 417.304V417.432C1313.85 417.955 1313.96 418.413 1314.18 418.808C1314.42 419.192 1314.74 419.496 1315.14 419.72C1315.56 419.933 1316.03 420.04 1316.57 420.04ZM1323.55 425.224C1323.24 425.224 1322.98 425.123 1322.76 424.92C1322.56 424.717 1322.46 424.456 1322.46 424.136C1322.46 423.816 1322.56 423.555 1322.76 423.352C1322.98 423.149 1323.24 423.048 1323.55 423.048C1323.87 423.048 1324.13 423.149 1324.33 423.352C1324.53 423.555 1324.64 423.816 1324.64 424.136C1324.64 424.456 1324.53 424.717 1324.33 424.92C1324.13 425.123 1323.87 425.224 1323.55 425.224ZM1323.55 419.128C1323.24 419.128 1322.98 419.027 1322.76 418.824C1322.56 418.621 1322.46 418.36 1322.46 418.04C1322.46 417.72 1322.56 417.459 1322.76 417.256C1322.98 417.053 1323.24 416.952 1323.55 416.952C1323.87 416.952 1324.13 417.053 1324.33 417.256C1324.53 417.459 1324.64 417.72 1324.64 418.04C1324.64 418.36 1324.53 418.621 1324.33 418.824C1324.13 419.027 1323.87 419.128 1323.55 419.128ZM1330.41 425.224C1329.59 425.224 1328.88 425.069 1328.28 424.76C1327.68 424.44 1327.22 424.003 1326.89 423.448C1326.56 422.883 1326.39 422.232 1326.39 421.496V421.304H1327.69V421.448C1327.69 422.291 1327.94 422.936 1328.43 423.384C1328.92 423.832 1329.57 424.056 1330.38 424.056C1331.23 424.056 1331.9 423.816 1332.38 423.336C1332.86 422.856 1333.1 422.2 1333.1 421.368V421.224C1333.1 420.424 1332.86 419.789 1332.39 419.32C1331.94 418.84 1331.34 418.6 1330.6 418.6C1330.18 418.6 1329.82 418.669 1329.55 418.808C1329.27 418.936 1329.05 419.101 1328.89 419.304C1328.73 419.496 1328.6 419.683 1328.49 419.864H1326.73V413.8H1334.09V414.968H1328.03V418.84H1328.25C1328.37 418.627 1328.53 418.419 1328.73 418.216C1328.94 418.013 1329.23 417.843 1329.58 417.704C1329.93 417.565 1330.37 417.496 1330.89 417.496C1331.54 417.496 1332.13 417.645 1332.65 417.944C1333.18 418.243 1333.6 418.669 1333.91 419.224C1334.23 419.779 1334.39 420.44 1334.39 421.208V421.384C1334.39 422.141 1334.23 422.808 1333.91 423.384C1333.59 423.96 1333.14 424.413 1332.54 424.744C1331.94 425.064 1331.23 425.224 1330.41 425.224ZM1339.94 425.224C1339.12 425.224 1338.41 425.08 1337.83 424.792C1337.25 424.493 1336.81 424.088 1336.52 423.576C1336.22 423.064 1336.07 422.483 1336.07 421.832H1337.36C1337.36 422.493 1337.58 423.032 1338.02 423.448C1338.46 423.853 1339.1 424.056 1339.94 424.056C1340.83 424.056 1341.5 423.821 1341.97 423.352C1342.45 422.872 1342.69 422.216 1342.69 421.384V419.832H1342.48C1342.28 420.152 1341.96 420.451 1341.51 420.728C1341.07 420.995 1340.45 421.128 1339.65 421.128C1338.98 421.128 1338.36 420.979 1337.8 420.68C1337.24 420.381 1336.8 419.96 1336.47 419.416C1336.14 418.872 1335.97 418.227 1335.97 417.48V417.288C1335.97 416.52 1336.15 415.864 1336.5 415.32C1336.85 414.765 1337.33 414.339 1337.92 414.04C1338.53 413.731 1339.22 413.576 1339.99 413.576C1340.77 413.576 1341.45 413.731 1342.05 414.04C1342.66 414.339 1343.13 414.771 1343.48 415.336C1343.82 415.891 1343.99 416.563 1343.99 417.352V421.256C1343.99 422.088 1343.82 422.803 1343.49 423.4C1343.17 423.987 1342.71 424.44 1342.1 424.76C1341.49 425.069 1340.77 425.224 1339.94 425.224ZM1339.99 420.04C1340.52 420.04 1340.99 419.933 1341.4 419.72C1341.8 419.496 1342.12 419.192 1342.34 418.808C1342.57 418.413 1342.69 417.955 1342.69 417.432V417.304C1342.69 416.504 1342.44 415.88 1341.94 415.432C1341.45 414.973 1340.8 414.744 1339.99 414.744C1339.18 414.744 1338.52 414.973 1338.02 415.432C1337.52 415.88 1337.27 416.504 1337.27 417.304V417.432C1337.27 417.955 1337.38 418.413 1337.6 418.808C1337.84 419.192 1338.16 419.496 1338.56 419.72C1338.98 419.933 1339.45 420.04 1339.99 420.04Z" fill="white"/>
<path opacity="0.4" d="M1168.45 425V414.664H1168.21L1166.03 418.648H1164.62L1167.3 413.8H1169.74V425H1168.45ZM1175.98 425.224C1175.22 425.224 1174.53 425.075 1173.92 424.776C1173.32 424.467 1172.85 424.029 1172.5 423.464C1172.15 422.899 1171.98 422.227 1171.98 421.448V417.544C1171.98 416.701 1172.15 415.987 1172.48 415.4C1172.81 414.813 1173.27 414.365 1173.87 414.056C1174.48 413.736 1175.2 413.576 1176.03 413.576C1176.85 413.576 1177.55 413.725 1178.13 414.024C1178.71 414.312 1179.16 414.712 1179.46 415.224C1179.76 415.725 1179.92 416.307 1179.92 416.968H1178.61C1178.61 416.307 1178.39 415.773 1177.97 415.368C1177.54 414.952 1176.9 414.744 1176.03 414.744C1175.16 414.744 1174.48 414.984 1174 415.464C1173.52 415.933 1173.28 416.584 1173.28 417.416V418.968H1173.5C1173.7 418.648 1174.02 418.355 1174.46 418.088C1174.91 417.811 1175.54 417.672 1176.34 417.672C1177.01 417.672 1177.62 417.821 1178.18 418.12C1178.73 418.419 1179.17 418.84 1179.5 419.384C1179.83 419.928 1180 420.573 1180 421.32V421.512C1180 422.269 1179.82 422.925 1179.47 423.48C1179.13 424.035 1178.66 424.467 1178.05 424.776C1177.44 425.075 1176.75 425.224 1175.98 425.224ZM1175.98 424.056C1176.79 424.056 1177.45 423.827 1177.95 423.368C1178.45 422.909 1178.7 422.285 1178.7 421.496V421.368C1178.7 420.835 1178.59 420.376 1178.35 419.992C1178.13 419.608 1177.81 419.309 1177.41 419.096C1177 418.872 1176.53 418.76 1175.98 418.76C1175.45 418.76 1174.98 418.872 1174.58 419.096C1174.17 419.309 1173.85 419.608 1173.62 419.992C1173.39 420.376 1173.28 420.835 1173.28 421.368V421.496C1173.28 422.285 1173.53 422.909 1174.03 423.368C1174.53 423.827 1175.18 424.056 1175.98 424.056ZM1182.84 425.224C1182.53 425.224 1182.27 425.123 1182.05 424.92C1181.85 424.717 1181.75 424.456 1181.75 424.136C1181.75 423.816 1181.85 423.555 1182.05 423.352C1182.27 423.149 1182.53 423.048 1182.84 423.048C1183.16 423.048 1183.42 423.149 1183.62 423.352C1183.82 423.555 1183.92 423.816 1183.92 424.136C1183.92 424.456 1183.82 424.717 1183.62 424.92C1183.42 425.123 1183.16 425.224 1182.84 425.224ZM1182.84 419.128C1182.53 419.128 1182.27 419.027 1182.05 418.824C1181.85 418.621 1181.75 418.36 1181.75 418.04C1181.75 417.72 1181.85 417.459 1182.05 417.256C1182.27 417.053 1182.53 416.952 1182.84 416.952C1183.16 416.952 1183.42 417.053 1183.62 417.256C1183.82 417.459 1183.92 417.72 1183.92 418.04C1183.92 418.36 1183.82 418.621 1183.62 418.824C1183.42 419.027 1183.16 419.128 1182.84 419.128ZM1191.22 425V422.712H1185.38V421.176L1190.08 413.8H1192.52V421.544H1194.44V422.712H1192.52V425H1191.22ZM1186.68 421.544H1191.22V414.584H1191L1186.68 421.352V421.544ZM1199.65 425.224C1198.83 425.224 1198.13 425.08 1197.54 424.792C1196.96 424.493 1196.53 424.088 1196.23 423.576C1195.93 423.064 1195.78 422.483 1195.78 421.832H1197.08C1197.08 422.493 1197.29 423.032 1197.73 423.448C1198.17 423.853 1198.81 424.056 1199.65 424.056C1200.54 424.056 1201.21 423.821 1201.68 423.352C1202.16 422.872 1202.4 422.216 1202.4 421.384V419.832H1202.2C1201.99 420.152 1201.67 420.451 1201.22 420.728C1200.78 420.995 1200.16 421.128 1199.36 421.128C1198.69 421.128 1198.07 420.979 1197.51 420.68C1196.95 420.381 1196.51 419.96 1196.18 419.416C1195.85 418.872 1195.68 418.227 1195.68 417.48V417.288C1195.68 416.52 1195.86 415.864 1196.21 415.32C1196.56 414.765 1197.04 414.339 1197.64 414.04C1198.24 413.731 1198.93 413.576 1199.7 413.576C1200.48 413.576 1201.17 413.731 1201.76 414.04C1202.37 414.339 1202.85 414.771 1203.19 415.336C1203.53 415.891 1203.7 416.563 1203.7 417.352V421.256C1203.7 422.088 1203.53 422.803 1203.2 423.4C1202.88 423.987 1202.42 424.44 1201.81 424.76C1201.2 425.069 1200.48 425.224 1199.65 425.224ZM1199.7 420.04C1200.23 420.04 1200.7 419.933 1201.11 419.72C1201.51 419.496 1201.83 419.192 1202.05 418.808C1202.29 418.413 1202.4 417.955 1202.4 417.432V417.304C1202.4 416.504 1202.15 415.88 1201.65 415.432C1201.16 414.973 1200.51 414.744 1199.7 414.744C1198.89 414.744 1198.23 414.973 1197.73 415.432C1197.23 415.88 1196.98 416.504 1196.98 417.304V417.432C1196.98 417.955 1197.09 418.413 1197.32 418.808C1197.55 419.192 1197.87 419.496 1198.28 419.72C1198.69 419.933 1199.17 420.04 1199.7 420.04Z" fill="white"/>
<path opacity="0.4" d="M1240.42 425V414.664H1240.18L1238 418.648H1236.59L1239.26 413.8H1241.71V425H1240.42ZM1247.97 425.224C1247.1 425.224 1246.35 425.096 1245.71 424.84C1245.08 424.573 1244.59 424.205 1244.24 423.736C1243.9 423.256 1243.73 422.696 1243.73 422.056V421.88C1243.73 421.325 1243.85 420.867 1244.08 420.504C1244.31 420.141 1244.6 419.864 1244.93 419.672C1245.27 419.469 1245.58 419.341 1245.87 419.288V419.08C1245.58 418.995 1245.29 418.856 1244.98 418.664C1244.68 418.472 1244.43 418.211 1244.22 417.88C1244.03 417.549 1243.94 417.144 1243.94 416.664V416.488C1243.94 415.88 1244.11 415.363 1244.45 414.936C1244.8 414.499 1245.28 414.163 1245.89 413.928C1246.5 413.693 1247.19 413.576 1247.97 413.576C1248.76 413.576 1249.45 413.693 1250.05 413.928C1250.66 414.163 1251.13 414.499 1251.47 414.936C1251.82 415.363 1252 415.88 1252 416.488V416.664C1252 417.144 1251.9 417.549 1251.71 417.88C1251.52 418.211 1251.27 418.472 1250.98 418.664C1250.68 418.856 1250.38 418.995 1250.08 419.08V419.288C1250.38 419.341 1250.69 419.469 1251.02 419.672C1251.35 419.864 1251.63 420.141 1251.86 420.504C1252.09 420.867 1252.21 421.325 1252.21 421.88V422.056C1252.21 422.696 1252.04 423.256 1251.7 423.736C1251.35 424.205 1250.86 424.573 1250.22 424.84C1249.59 425.096 1248.84 425.224 1247.97 425.224ZM1247.97 424.056C1248.87 424.056 1249.59 423.88 1250.11 423.528C1250.65 423.176 1250.91 422.664 1250.91 421.992V421.864C1250.91 421.192 1250.65 420.68 1250.13 420.328C1249.61 419.976 1248.89 419.8 1247.97 419.8C1247.06 419.8 1246.35 419.976 1245.82 420.328C1245.3 420.68 1245.04 421.192 1245.04 421.864V421.992C1245.04 422.664 1245.3 423.176 1245.82 423.528C1246.36 423.88 1247.07 424.056 1247.97 424.056ZM1247.97 418.632C1248.82 418.632 1249.49 418.472 1249.97 418.152C1250.46 417.821 1250.7 417.357 1250.7 416.76V416.632C1250.7 416.024 1250.46 415.56 1249.97 415.24C1249.48 414.909 1248.81 414.744 1247.97 414.744C1247.13 414.744 1246.46 414.909 1245.97 415.24C1245.48 415.56 1245.23 416.024 1245.23 416.632V416.76C1245.23 417.357 1245.48 417.821 1245.97 418.152C1246.46 418.472 1247.13 418.632 1247.97 418.632ZM1254.98 425.224C1254.67 425.224 1254.41 425.123 1254.19 424.92C1253.99 424.717 1253.89 424.456 1253.89 424.136C1253.89 423.816 1253.99 423.555 1254.19 423.352C1254.41 423.149 1254.67 423.048 1254.98 423.048C1255.3 423.048 1255.56 423.149 1255.76 423.352C1255.96 423.555 1256.06 423.816 1256.06 424.136C1256.06 424.456 1255.96 424.717 1255.76 424.92C1255.56 425.123 1255.3 425.224 1254.98 425.224ZM1254.98 419.128C1254.67 419.128 1254.41 419.027 1254.19 418.824C1253.99 418.621 1253.89 418.36 1253.89 418.04C1253.89 417.72 1253.99 417.459 1254.19 417.256C1254.41 417.053 1254.67 416.952 1254.98 416.952C1255.3 416.952 1255.56 417.053 1255.76 417.256C1255.96 417.459 1256.06 417.72 1256.06 418.04C1256.06 418.36 1255.96 418.621 1255.76 418.824C1255.56 419.027 1255.3 419.128 1254.98 419.128ZM1261.12 425V414.664H1260.88L1258.7 418.648H1257.3L1259.97 413.8H1262.42V425H1261.12ZM1270.05 425V422.712H1264.21V421.176L1268.91 413.8H1271.34V421.544H1273.26V422.712H1271.34V425H1270.05ZM1265.5 421.544H1270.05V414.584H1269.82L1265.5 421.352V421.544Z" fill="white"/>
<line opacity="0.05" x1="139" y1="34.5" x2="1348" y2="34.5" stroke="white"/>
<line opacity="0.05" x1="139" y1="231.5" x2="1348" y2="231.5" stroke="white"/>
<line opacity="0.05" x1="139" y1="132.5" x2="1348" y2="132.5" stroke="white"/>
<line opacity="0.05" x1="139" y1="328.5" x2="1348" y2="328.5" stroke="white"/>
</svg>
