<svg width="51" height="51" viewBox="0 0 51 51" fill="none" xmlns="http://www.w3.org/2000/svg">
<path d="M33.6109 16.1738C33.6109 16.1738 35.7964 15.3216 35.6142 17.3912C35.5535 18.2434 35.0072 21.2261 34.5822 24.4522L33.1252 34.0089C33.1252 34.0089 33.0038 35.4089 31.9111 35.6524C30.8183 35.8959 29.1792 34.8003 28.8756 34.5567C28.6328 34.3742 24.3226 31.635 22.8048 30.2958C22.3799 29.9306 21.8942 29.2001 22.8655 28.3479L29.2399 22.2609C29.9684 21.5304 30.6969 19.8261 27.6615 21.8957L19.1624 27.6784C19.1624 27.6784 18.191 28.2871 16.3698 27.7393L12.4238 26.5218C12.4238 26.5218 10.9668 25.6088 13.4558 24.6957C19.5266 21.8348 26.9937 18.913 33.6109 16.1738Z" fill="white"/>
</svg>
