<svg width="596" height="381" viewBox="0 0 596 381" fill="none" xmlns="http://www.w3.org/2000/svg">
<path opacity="0.4" d="M4.96 18.224C4.192 18.224 3.504 18.0747 2.896 17.776C2.29867 17.4667 1.824 17.0293 1.472 16.464C1.13067 15.8987 0.96 15.2267 0.96 14.448V10.544C0.96 9.70133 1.12533 8.98667 1.456 8.4C1.78667 7.81333 2.25067 7.36533 2.848 7.056C3.456 6.736 4.176 6.576 5.008 6.576C5.82933 6.576 6.528 6.72533 7.104 7.024C7.69067 7.312 8.13333 7.712 8.432 8.224C8.74133 8.72533 8.896 9.30667 8.896 9.968H7.584C7.584 9.30667 7.37067 8.77333 6.944 8.368C6.51733 7.952 5.872 7.744 5.008 7.744C4.13333 7.744 3.456 7.984 2.976 8.464C2.496 8.93333 2.256 9.584 2.256 10.416V11.968H2.48C2.672 11.648 2.992 11.3547 3.44 11.088C3.888 10.8107 4.512 10.672 5.312 10.672C5.984 10.672 6.59733 10.8213 7.152 11.12C7.70667 11.4187 8.14933 11.84 8.48 12.384C8.81067 12.928 8.976 13.5733 8.976 14.32V14.512C8.976 15.2693 8.8 15.9253 8.448 16.48C8.10667 17.0347 7.632 17.4667 7.024 17.776C6.416 18.0747 5.728 18.224 4.96 18.224ZM4.96 17.056C5.77067 17.056 6.42667 16.8267 6.928 16.368C7.42933 15.9093 7.68 15.2853 7.68 14.496V14.368C7.68 13.8347 7.56267 13.376 7.328 12.992C7.104 12.608 6.78933 12.3093 6.384 12.096C5.97867 11.872 5.504 11.76 4.96 11.76C4.42667 11.76 3.95733 11.872 3.552 12.096C3.14667 12.3093 2.82667 12.608 2.592 12.992C2.368 13.376 2.256 13.8347 2.256 14.368V14.496C2.256 15.2853 2.50667 15.9093 3.008 16.368C3.50933 16.8267 4.16 17.056 4.96 17.056ZM14.9169 18.224C13.6475 18.224 12.6342 17.8507 11.8769 17.104C11.1302 16.3467 10.7569 15.216 10.7569 13.712V11.088C10.7569 9.59467 11.1302 8.46933 11.8769 7.712C12.6342 6.95467 13.6475 6.576 14.9169 6.576C16.1969 6.576 17.2102 6.95467 17.9569 7.712C18.7142 8.46933 19.0929 9.59467 19.0929 11.088V13.712C19.0929 15.216 18.7142 16.3467 17.9569 17.104C17.2102 17.8507 16.1969 18.224 14.9169 18.224ZM14.9169 17.056C15.8769 17.056 16.5969 16.768 17.0769 16.192C17.5569 15.616 17.7969 14.8107 17.7969 13.776V11.008C17.7969 9.97333 17.5515 9.17333 17.0609 8.608C16.5702 8.032 15.8555 7.744 14.9169 7.744C13.9782 7.744 13.2635 8.032 12.7729 8.608C12.2929 9.184 12.0529 9.984 12.0529 11.008V13.776C12.0529 14.8213 12.2929 15.632 12.7729 16.208C13.2529 16.7733 13.9675 17.056 14.9169 17.056ZM25.1669 18.224C23.8975 18.224 22.8842 17.8507 22.1269 17.104C21.3802 16.3467 21.0069 15.216 21.0069 13.712V11.088C21.0069 9.59467 21.3802 8.46933 22.1269 7.712C22.8842 6.95467 23.8975 6.576 25.1669 6.576C26.4469 6.576 27.4602 6.95467 28.2069 7.712C28.9642 8.46933 29.3429 9.59467 29.3429 11.088V13.712C29.3429 15.216 28.9642 16.3467 28.2069 17.104C27.4602 17.8507 26.4469 18.224 25.1669 18.224ZM25.1669 17.056C26.1269 17.056 26.8469 16.768 27.3269 16.192C27.8069 15.616 28.0469 14.8107 28.0469 13.776V11.008C28.0469 9.97333 27.8015 9.17333 27.3109 8.608C26.8202 8.032 26.1055 7.744 25.1669 7.744C24.2282 7.744 23.5135 8.032 23.0229 8.608C22.5429 9.184 22.3029 9.984 22.3029 11.008V13.776C22.3029 14.8213 22.5429 15.632 23.0229 16.208C23.5029 16.7733 24.2175 17.056 25.1669 17.056Z" fill="black"/>
<path opacity="0.4" d="M6.352 96V93.712H0.512V92.176L5.216 84.8H7.648V92.544H9.568V93.712H7.648V96H6.352ZM1.808 92.544H6.352V85.584H6.128L1.808 92.352V92.544ZM14.832 96.224C14.0107 96.224 13.3013 96.0693 12.704 95.76C12.1067 95.44 11.6427 95.0027 11.312 94.448C10.9813 93.8827 10.816 93.232 10.816 92.496V92.304H12.112V92.448C12.112 93.2907 12.3573 93.936 12.848 94.384C13.3387 94.832 13.9893 95.056 14.8 95.056C15.6533 95.056 16.32 94.816 16.8 94.336C17.28 93.856 17.52 93.2 17.52 92.368V92.224C17.52 91.424 17.2853 90.7893 16.816 90.32C16.3573 89.84 15.76 89.6 15.024 89.6C14.5973 89.6 14.2453 89.6693 13.968 89.808C13.6907 89.936 13.472 90.1013 13.312 90.304C13.152 90.496 13.0187 90.6827 12.912 90.864H11.152V84.8H18.512V85.968H12.448V89.84H12.672C12.7893 89.6267 12.9493 89.4187 13.152 89.216C13.3653 89.0133 13.648 88.8427 14 88.704C14.352 88.5653 14.7893 88.496 15.312 88.496C15.9627 88.496 16.5493 88.6453 17.072 88.944C17.6053 89.2427 18.0267 89.6693 18.336 90.224C18.656 90.7787 18.816 91.44 18.816 92.208V92.384C18.816 93.1413 18.656 93.808 18.336 94.384C18.016 94.96 17.5573 95.4133 16.96 95.744C16.3627 96.064 15.6533 96.224 14.832 96.224ZM24.6981 96.224C23.4288 96.224 22.4155 95.8507 21.6581 95.104C20.9115 94.3467 20.5381 93.216 20.5381 91.712V89.088C20.5381 87.5947 20.9115 86.4693 21.6581 85.712C22.4155 84.9547 23.4288 84.576 24.6981 84.576C25.9781 84.576 26.9915 84.9547 27.7381 85.712C28.4955 86.4693 28.8741 87.5947 28.8741 89.088V91.712C28.8741 93.216 28.4955 94.3467 27.7381 95.104C26.9915 95.8507 25.9781 96.224 24.6981 96.224ZM24.6981 95.056C25.6581 95.056 26.3781 94.768 26.8581 94.192C27.3381 93.616 27.5781 92.8107 27.5781 91.776V89.008C27.5781 87.9733 27.3328 87.1733 26.8421 86.608C26.3515 86.032 25.6368 85.744 24.6981 85.744C23.7595 85.744 23.0448 86.032 22.5541 86.608C22.0741 87.184 21.8341 87.984 21.8341 89.008V91.776C21.8341 92.8213 22.0741 93.632 22.5541 94.208C23.0341 94.7733 23.7488 95.056 24.6981 95.056Z" fill="black"/>
<path opacity="0.4" d="M4.848 174.224C4.05867 174.224 3.34933 174.075 2.72 173.776C2.10133 173.477 1.61067 173.045 1.248 172.48C0.896 171.915 0.72 171.232 0.72 170.432V170.128H2.016V170.416C2.016 171.237 2.27733 171.883 2.8 172.352C3.32267 172.821 4.00533 173.056 4.848 173.056C5.70133 173.056 6.36267 172.837 6.832 172.4C7.312 171.952 7.552 171.392 7.552 170.72V170.592C7.552 170.101 7.43467 169.707 7.2 169.408C6.96533 169.099 6.64533 168.875 6.24 168.736C5.84533 168.587 5.408 168.512 4.928 168.512H3.104V166.896L7.376 164.16V163.968H0.992V162.8H8.752V164.608L4.576 167.296V167.488H5.376C6.00533 167.488 6.58133 167.605 7.104 167.84C7.63733 168.064 8.05867 168.405 8.368 168.864C8.688 169.312 8.848 169.877 8.848 170.56V170.736C8.848 171.44 8.68267 172.053 8.352 172.576C8.02133 173.099 7.55733 173.504 6.96 173.792C6.36267 174.08 5.65867 174.224 4.848 174.224ZM14.7763 174.224C13.5069 174.224 12.4936 173.851 11.7363 173.104C10.9896 172.347 10.6163 171.216 10.6163 169.712V167.088C10.6163 165.595 10.9896 164.469 11.7363 163.712C12.4936 162.955 13.5069 162.576 14.7763 162.576C16.0563 162.576 17.0696 162.955 17.8163 163.712C18.5736 164.469 18.9523 165.595 18.9523 167.088V169.712C18.9523 171.216 18.5736 172.347 17.8163 173.104C17.0696 173.851 16.0563 174.224 14.7763 174.224ZM14.7763 173.056C15.7363 173.056 16.4563 172.768 16.9363 172.192C17.4163 171.616 17.6562 170.811 17.6562 169.776V167.008C17.6562 165.973 17.4109 165.173 16.9203 164.608C16.4296 164.032 15.7149 163.744 14.7763 163.744C13.8376 163.744 13.1229 164.032 12.6323 164.608C12.1523 165.184 11.9123 165.984 11.9123 167.008V169.776C11.9123 170.821 12.1523 171.632 12.6323 172.208C13.1123 172.773 13.8269 173.056 14.7763 173.056ZM25.0263 174.224C23.7569 174.224 22.7436 173.851 21.9863 173.104C21.2396 172.347 20.8663 171.216 20.8663 169.712V167.088C20.8663 165.595 21.2396 164.469 21.9863 163.712C22.7436 162.955 23.7569 162.576 25.0263 162.576C26.3063 162.576 27.3196 162.955 28.0663 163.712C28.8236 164.469 29.2023 165.595 29.2023 167.088V169.712C29.2023 171.216 28.8236 172.347 28.0663 173.104C27.3196 173.851 26.3063 174.224 25.0263 174.224ZM25.0263 173.056C25.9863 173.056 26.7063 172.768 27.1863 172.192C27.6663 171.616 27.9062 170.811 27.9062 169.776V167.008C27.9062 165.973 27.6609 165.173 27.1703 164.608C26.6796 164.032 25.9649 163.744 25.0263 163.744C24.0876 163.744 23.3729 164.032 22.8823 164.608C22.4023 165.184 22.1623 165.984 22.1623 167.008V169.776C22.1623 170.821 22.4023 171.632 22.8823 172.208C23.3623 172.773 24.0769 173.056 25.0263 173.056Z" fill="black"/>
<path opacity="0.4" d="M4.112 252V241.664H3.872L1.696 245.648H0.288L2.96 240.8H5.408V252H4.112ZM11.5195 252.224C10.6982 252.224 9.98883 252.069 9.3915 251.76C8.79417 251.44 8.33017 251.003 7.9995 250.448C7.66883 249.883 7.5035 249.232 7.5035 248.496V248.304H8.7995V248.448C8.7995 249.291 9.04483 249.936 9.5355 250.384C10.0262 250.832 10.6768 251.056 11.4875 251.056C12.3408 251.056 13.0075 250.816 13.4875 250.336C13.9675 249.856 14.2075 249.2 14.2075 248.368V248.224C14.2075 247.424 13.9728 246.789 13.5035 246.32C13.0448 245.84 12.4475 245.6 11.7115 245.6C11.2848 245.6 10.9328 245.669 10.6555 245.808C10.3782 245.936 10.1595 246.101 9.9995 246.304C9.8395 246.496 9.70617 246.683 9.5995 246.864H7.8395V240.8H15.1995V241.968H9.1355V245.84H9.3595C9.47683 245.627 9.63683 245.419 9.8395 245.216C10.0528 245.013 10.3355 244.843 10.6875 244.704C11.0395 244.565 11.4768 244.496 11.9995 244.496C12.6502 244.496 13.2368 244.645 13.7595 244.944C14.2928 245.243 14.7142 245.669 15.0235 246.224C15.3435 246.779 15.5035 247.44 15.5035 248.208V248.384C15.5035 249.141 15.3435 249.808 15.0235 250.384C14.7035 250.96 14.2448 251.413 13.6475 251.744C13.0502 252.064 12.3408 252.224 11.5195 252.224ZM21.3856 252.224C20.1163 252.224 19.103 251.851 18.3456 251.104C17.599 250.347 17.2256 249.216 17.2256 247.712V245.088C17.2256 243.595 17.599 242.469 18.3456 241.712C19.103 240.955 20.1163 240.576 21.3856 240.576C22.6656 240.576 23.679 240.955 24.4256 241.712C25.183 242.469 25.5616 243.595 25.5616 245.088V247.712C25.5616 249.216 25.183 250.347 24.4256 251.104C23.679 251.851 22.6656 252.224 21.3856 252.224ZM21.3856 251.056C22.3456 251.056 23.0656 250.768 23.5456 250.192C24.0256 249.616 24.2656 248.811 24.2656 247.776V245.008C24.2656 243.973 24.0203 243.173 23.5296 242.608C23.039 242.032 22.3243 241.744 21.3856 241.744C20.447 241.744 19.7323 242.032 19.2416 242.608C18.7616 243.184 18.5216 243.984 18.5216 245.008V247.776C18.5216 248.821 18.7616 249.632 19.2416 250.208C19.7216 250.773 20.4363 251.056 21.3856 251.056Z" fill="black"/>
<path opacity="0.4" d="M5.12 330.224C3.85067 330.224 2.83733 329.851 2.08 329.104C1.33333 328.347 0.96 327.216 0.96 325.712V323.088C0.96 321.595 1.33333 320.469 2.08 319.712C2.83733 318.955 3.85067 318.576 5.12 318.576C6.4 318.576 7.41333 318.955 8.16 319.712C8.91733 320.469 9.296 321.595 9.296 323.088V325.712C9.296 327.216 8.91733 328.347 8.16 329.104C7.41333 329.851 6.4 330.224 5.12 330.224ZM5.12 329.056C6.08 329.056 6.8 328.768 7.28 328.192C7.76 327.616 8 326.811 8 325.776V323.008C8 321.973 7.75467 321.173 7.264 320.608C6.77333 320.032 6.05867 319.744 5.12 319.744C4.18133 319.744 3.46667 320.032 2.976 320.608C2.496 321.184 2.256 321.984 2.256 323.008V325.776C2.256 326.821 2.496 327.632 2.976 328.208C3.456 328.773 4.17067 329.056 5.12 329.056Z" fill="black"/>
<path opacity="0.4" d="M62.4403 375.224C61.171 375.224 60.1576 374.851 59.4003 374.104C58.6536 373.347 58.2803 372.216 58.2803 370.712V368.088C58.2803 366.595 58.6536 365.469 59.4003 364.712C60.1576 363.955 61.171 363.576 62.4403 363.576C63.7203 363.576 64.7336 363.955 65.4803 364.712C66.2376 365.469 66.6163 366.595 66.6163 368.088V370.712C66.6163 372.216 66.2376 373.347 65.4803 374.104C64.7336 374.851 63.7203 375.224 62.4403 375.224ZM62.4403 374.056C63.4003 374.056 64.1203 373.768 64.6003 373.192C65.0803 372.616 65.3203 371.811 65.3203 370.776V368.008C65.3203 366.973 65.075 366.173 64.5843 365.608C64.0936 365.032 63.379 364.744 62.4403 364.744C61.5016 364.744 60.787 365.032 60.2963 365.608C59.8163 366.184 59.5763 366.984 59.5763 368.008V370.776C59.5763 371.821 59.8163 372.632 60.2963 373.208C60.7763 373.773 61.491 374.056 62.4403 374.056ZM71.6823 375V364.664H71.4423L69.2663 368.648H67.8583L70.5303 363.8H72.9783V375H71.6823ZM79.6472 375V363.8H86.4152V365.016H80.9912V368.776H85.9832V369.992H80.9912V375H79.6472ZM91.8261 375.224C91.0367 375.224 90.3434 375.059 89.7461 374.728C89.1487 374.387 88.6847 373.912 88.3541 373.304C88.0234 372.696 87.8581 371.992 87.8581 371.192V371C87.8581 370.189 88.0234 369.48 88.3541 368.872C88.6847 368.264 89.1434 367.795 89.7301 367.464C90.3167 367.123 90.9887 366.952 91.7461 366.952C92.4821 366.952 93.1327 367.112 93.6981 367.432C94.2634 367.741 94.7061 368.189 95.0261 368.776C95.3461 369.363 95.5061 370.051 95.5061 370.84V371.416H89.1221C89.1541 372.259 89.4261 372.92 89.9381 373.4C90.4501 373.869 91.0901 374.104 91.8581 374.104C92.5301 374.104 93.0474 373.949 93.4101 373.64C93.7727 373.331 94.0501 372.963 94.2421 372.536L95.3301 373.064C95.1701 373.395 94.9461 373.725 94.6581 374.056C94.3807 374.387 94.0127 374.664 93.5541 374.888C93.1061 375.112 92.5301 375.224 91.8261 375.224ZM89.1381 370.376H94.2261C94.1834 369.651 93.9327 369.085 93.4741 368.68C93.0261 368.275 92.4501 368.072 91.7461 368.072C91.0314 368.072 90.4447 368.275 89.9861 368.68C89.5274 369.085 89.2447 369.651 89.1381 370.376ZM102.047 375.224C101.236 375.224 100.601 375.069 100.143 374.76C99.6948 374.451 99.3695 374.099 99.1668 373.704H98.9428V375H97.7108V363.8H98.9748V368.408H99.1988C99.3268 368.163 99.5081 367.933 99.7428 367.72C99.9775 367.496 100.281 367.315 100.655 367.176C101.039 367.027 101.503 366.952 102.047 366.952C102.729 366.952 103.348 367.117 103.903 367.448C104.468 367.768 104.916 368.232 105.247 368.84C105.577 369.437 105.743 370.152 105.743 370.984V371.192C105.743 372.024 105.572 372.744 105.231 373.352C104.9 373.96 104.452 374.424 103.887 374.744C103.332 375.064 102.719 375.224 102.047 375.224ZM101.711 374.104C102.521 374.104 103.177 373.848 103.679 373.336C104.191 372.813 104.447 372.088 104.447 371.16V371.016C104.447 370.088 104.191 369.368 103.679 368.856C103.177 368.333 102.521 368.072 101.711 368.072C100.911 368.072 100.249 368.333 99.7268 368.856C99.2148 369.368 98.9588 370.088 98.9588 371.016V371.16C98.9588 372.088 99.2148 372.813 99.7268 373.336C100.249 373.848 100.911 374.104 101.711 374.104Z" fill="black"/>
<path opacity="0.4" d="M129.464 375.224C128.194 375.224 127.181 374.851 126.424 374.104C125.677 373.347 125.304 372.216 125.304 370.712V368.088C125.304 366.595 125.677 365.469 126.424 364.712C127.181 363.955 128.194 363.576 129.464 363.576C130.744 363.576 131.757 363.955 132.504 364.712C133.261 365.469 133.64 366.595 133.64 368.088V370.712C133.64 372.216 133.261 373.347 132.504 374.104C131.757 374.851 130.744 375.224 129.464 375.224ZM129.464 374.056C130.424 374.056 131.144 373.768 131.624 373.192C132.104 372.616 132.344 371.811 132.344 370.776V368.008C132.344 366.973 132.098 366.173 131.608 365.608C131.117 365.032 130.402 364.744 129.464 364.744C128.525 364.744 127.81 365.032 127.32 365.608C126.84 366.184 126.6 366.984 126.6 368.008V370.776C126.6 371.821 126.84 372.632 127.32 373.208C127.8 373.773 128.514 374.056 129.464 374.056ZM135.442 375V373.832C135.442 373.032 135.58 372.392 135.858 371.912C136.146 371.432 136.54 371.048 137.042 370.76C137.554 370.461 138.162 370.205 138.866 369.992L139.746 369.72C140.226 369.571 140.647 369.389 141.01 369.176C141.372 368.952 141.655 368.675 141.858 368.344C142.06 368.003 142.162 367.587 142.162 367.096V367.032C142.162 366.328 141.916 365.773 141.426 365.368C140.935 364.952 140.306 364.744 139.538 364.744C138.727 364.744 138.066 364.963 137.554 365.4C137.042 365.827 136.786 366.477 136.786 367.352V367.576H135.506V367.368C135.506 366.557 135.682 365.869 136.034 365.304C136.386 364.739 136.866 364.312 137.474 364.024C138.082 363.725 138.77 363.576 139.538 363.576C140.306 363.576 140.983 363.72 141.57 364.008C142.167 364.296 142.631 364.696 142.962 365.208C143.292 365.72 143.458 366.317 143.458 367V367.144C143.458 367.869 143.314 368.472 143.026 368.952C142.738 369.421 142.338 369.805 141.826 370.104C141.324 370.403 140.732 370.659 140.05 370.872L139.186 371.144C138.642 371.315 138.188 371.496 137.826 371.688C137.474 371.869 137.207 372.104 137.026 372.392C136.844 372.68 136.754 373.069 136.754 373.56V373.832H143.362V375H135.442ZM149.624 375V363.8H156.392V365.016H150.968V368.776H155.96V369.992H150.968V375H149.624ZM161.803 375.224C161.013 375.224 160.32 375.059 159.723 374.728C159.125 374.387 158.661 373.912 158.331 373.304C158 372.696 157.835 371.992 157.835 371.192V371C157.835 370.189 158 369.48 158.331 368.872C158.661 368.264 159.12 367.795 159.707 367.464C160.293 367.123 160.965 366.952 161.723 366.952C162.459 366.952 163.109 367.112 163.675 367.432C164.24 367.741 164.683 368.189 165.003 368.776C165.323 369.363 165.483 370.051 165.483 370.84V371.416H159.099C159.131 372.259 159.403 372.92 159.915 373.4C160.427 373.869 161.067 374.104 161.835 374.104C162.507 374.104 163.024 373.949 163.387 373.64C163.749 373.331 164.027 372.963 164.219 372.536L165.307 373.064C165.147 373.395 164.923 373.725 164.635 374.056C164.357 374.387 163.989 374.664 163.531 374.888C163.083 375.112 162.507 375.224 161.803 375.224ZM159.115 370.376H164.203C164.16 369.651 163.909 369.085 163.451 368.68C163.003 368.275 162.427 368.072 161.723 368.072C161.008 368.072 160.421 368.275 159.963 368.68C159.504 369.085 159.221 369.651 159.115 370.376ZM172.023 375.224C171.213 375.224 170.578 375.069 170.119 374.76C169.671 374.451 169.346 374.099 169.143 373.704H168.919V375H167.687V363.8H168.951V368.408H169.175C169.303 368.163 169.485 367.933 169.719 367.72C169.954 367.496 170.258 367.315 170.631 367.176C171.015 367.027 171.479 366.952 172.023 366.952C172.706 366.952 173.325 367.117 173.879 367.448C174.445 367.768 174.893 368.232 175.223 368.84C175.554 369.437 175.719 370.152 175.719 370.984V371.192C175.719 372.024 175.549 372.744 175.207 373.352C174.877 373.96 174.429 374.424 173.863 374.744C173.309 375.064 172.695 375.224 172.023 375.224ZM171.687 374.104C172.498 374.104 173.154 373.848 173.655 373.336C174.167 372.813 174.423 372.088 174.423 371.16V371.016C174.423 370.088 174.167 369.368 173.655 368.856C173.154 368.333 172.498 368.072 171.687 368.072C170.887 368.072 170.226 368.333 169.703 368.856C169.191 369.368 168.935 370.088 168.935 371.016V371.16C168.935 372.088 169.191 372.813 169.703 373.336C170.226 373.848 170.887 374.104 171.687 374.104Z" fill="black"/>
<path opacity="0.4" d="M199.464 375.224C198.194 375.224 197.181 374.851 196.424 374.104C195.677 373.347 195.304 372.216 195.304 370.712V368.088C195.304 366.595 195.677 365.469 196.424 364.712C197.181 363.955 198.194 363.576 199.464 363.576C200.744 363.576 201.757 363.955 202.504 364.712C203.261 365.469 203.64 366.595 203.64 368.088V370.712C203.64 372.216 203.261 373.347 202.504 374.104C201.757 374.851 200.744 375.224 199.464 375.224ZM199.464 374.056C200.424 374.056 201.144 373.768 201.624 373.192C202.104 372.616 202.344 371.811 202.344 370.776V368.008C202.344 366.973 202.098 366.173 201.608 365.608C201.117 365.032 200.402 364.744 199.464 364.744C198.525 364.744 197.81 365.032 197.32 365.608C196.84 366.184 196.6 366.984 196.6 368.008V370.776C196.6 371.821 196.84 372.632 197.32 373.208C197.8 373.773 198.514 374.056 199.464 374.056ZM205.442 375V373.832C205.442 373.032 205.58 372.392 205.858 371.912C206.146 371.432 206.54 371.048 207.042 370.76C207.554 370.461 208.162 370.205 208.866 369.992L209.746 369.72C210.226 369.571 210.647 369.389 211.01 369.176C211.372 368.952 211.655 368.675 211.858 368.344C212.06 368.003 212.162 367.587 212.162 367.096V367.032C212.162 366.328 211.916 365.773 211.426 365.368C210.935 364.952 210.306 364.744 209.538 364.744C208.727 364.744 208.066 364.963 207.554 365.4C207.042 365.827 206.786 366.477 206.786 367.352V367.576H205.506V367.368C205.506 366.557 205.682 365.869 206.034 365.304C206.386 364.739 206.866 364.312 207.474 364.024C208.082 363.725 208.77 363.576 209.538 363.576C210.306 363.576 210.983 363.72 211.57 364.008C212.167 364.296 212.631 364.696 212.962 365.208C213.292 365.72 213.458 366.317 213.458 367V367.144C213.458 367.869 213.314 368.472 213.026 368.952C212.738 369.421 212.338 369.805 211.826 370.104C211.324 370.403 210.732 370.659 210.05 370.872L209.186 371.144C208.642 371.315 208.188 371.496 207.826 371.688C207.474 371.869 207.207 372.104 207.026 372.392C206.844 372.68 206.754 373.069 206.754 373.56V373.832H213.362V375H205.442ZM219.624 375V363.8H226.392V365.016H220.968V368.776H225.96V369.992H220.968V375H219.624ZM231.803 375.224C231.013 375.224 230.32 375.059 229.723 374.728C229.125 374.387 228.661 373.912 228.331 373.304C228 372.696 227.835 371.992 227.835 371.192V371C227.835 370.189 228 369.48 228.331 368.872C228.661 368.264 229.12 367.795 229.707 367.464C230.293 367.123 230.965 366.952 231.723 366.952C232.459 366.952 233.109 367.112 233.675 367.432C234.24 367.741 234.683 368.189 235.003 368.776C235.323 369.363 235.483 370.051 235.483 370.84V371.416H229.099C229.131 372.259 229.403 372.92 229.915 373.4C230.427 373.869 231.067 374.104 231.835 374.104C232.507 374.104 233.024 373.949 233.387 373.64C233.749 373.331 234.027 372.963 234.219 372.536L235.307 373.064C235.147 373.395 234.923 373.725 234.635 374.056C234.357 374.387 233.989 374.664 233.531 374.888C233.083 375.112 232.507 375.224 231.803 375.224ZM229.115 370.376H234.203C234.16 369.651 233.909 369.085 233.451 368.68C233.003 368.275 232.427 368.072 231.723 368.072C231.008 368.072 230.421 368.275 229.963 368.68C229.504 369.085 229.221 369.651 229.115 370.376ZM242.023 375.224C241.213 375.224 240.578 375.069 240.119 374.76C239.671 374.451 239.346 374.099 239.143 373.704H238.919V375H237.687V363.8H238.951V368.408H239.175C239.303 368.163 239.485 367.933 239.719 367.72C239.954 367.496 240.258 367.315 240.631 367.176C241.015 367.027 241.479 366.952 242.023 366.952C242.706 366.952 243.325 367.117 243.879 367.448C244.445 367.768 244.893 368.232 245.223 368.84C245.554 369.437 245.719 370.152 245.719 370.984V371.192C245.719 372.024 245.549 372.744 245.207 373.352C244.877 373.96 244.429 374.424 243.863 374.744C243.309 375.064 242.695 375.224 242.023 375.224ZM241.687 374.104C242.498 374.104 243.154 373.848 243.655 373.336C244.167 372.813 244.423 372.088 244.423 371.16V371.016C244.423 370.088 244.167 369.368 243.655 368.856C243.154 368.333 242.498 368.072 241.687 368.072C240.887 368.072 240.226 368.333 239.703 368.856C239.191 369.368 238.935 370.088 238.935 371.016V371.16C238.935 372.088 239.191 372.813 239.703 373.336C240.226 373.848 240.887 374.104 241.687 374.104Z" fill="black"/>
<path opacity="0.4" d="M269.284 375.224C268.015 375.224 267.001 374.851 266.244 374.104C265.497 373.347 265.124 372.216 265.124 370.712V368.088C265.124 366.595 265.497 365.469 266.244 364.712C267.001 363.955 268.015 363.576 269.284 363.576C270.564 363.576 271.577 363.955 272.324 364.712C273.081 365.469 273.46 366.595 273.46 368.088V370.712C273.46 372.216 273.081 373.347 272.324 374.104C271.577 374.851 270.564 375.224 269.284 375.224ZM269.284 374.056C270.244 374.056 270.964 373.768 271.444 373.192C271.924 372.616 272.164 371.811 272.164 370.776V368.008C272.164 366.973 271.919 366.173 271.428 365.608C270.937 365.032 270.223 364.744 269.284 364.744C268.345 364.744 267.631 365.032 267.14 365.608C266.66 366.184 266.42 366.984 266.42 368.008V370.776C266.42 371.821 266.66 372.632 267.14 373.208C267.62 373.773 268.335 374.056 269.284 374.056ZM280.766 375V372.712H274.926V371.176L279.63 363.8H282.062V371.544H283.982V372.712H282.062V375H280.766ZM276.222 371.544H280.766V364.584H280.542L276.222 371.352V371.544ZM289.803 375V363.8H296.571V365.016H291.147V368.776H296.139V369.992H291.147V375H289.803ZM301.982 375.224C301.193 375.224 300.5 375.059 299.902 374.728C299.305 374.387 298.841 373.912 298.51 373.304C298.18 372.696 298.014 371.992 298.014 371.192V371C298.014 370.189 298.18 369.48 298.51 368.872C298.841 368.264 299.3 367.795 299.886 367.464C300.473 367.123 301.145 366.952 301.902 366.952C302.638 366.952 303.289 367.112 303.854 367.432C304.42 367.741 304.862 368.189 305.182 368.776C305.502 369.363 305.662 370.051 305.662 370.84V371.416H299.278C299.31 372.259 299.582 372.92 300.094 373.4C300.606 373.869 301.246 374.104 302.014 374.104C302.686 374.104 303.204 373.949 303.566 373.64C303.929 373.331 304.206 372.963 304.398 372.536L305.486 373.064C305.326 373.395 305.102 373.725 304.814 374.056C304.537 374.387 304.169 374.664 303.71 374.888C303.262 375.112 302.686 375.224 301.982 375.224ZM299.294 370.376H304.382C304.34 369.651 304.089 369.085 303.63 368.68C303.182 368.275 302.606 368.072 301.902 368.072C301.188 368.072 300.601 368.275 300.142 368.68C299.684 369.085 299.401 369.651 299.294 370.376ZM312.203 375.224C311.392 375.224 310.758 375.069 310.299 374.76C309.851 374.451 309.526 374.099 309.323 373.704H309.099V375H307.867V363.8H309.131V368.408H309.355C309.483 368.163 309.664 367.933 309.899 367.72C310.134 367.496 310.438 367.315 310.811 367.176C311.195 367.027 311.659 366.952 312.203 366.952C312.886 366.952 313.504 367.117 314.059 367.448C314.624 367.768 315.072 368.232 315.403 368.84C315.734 369.437 315.899 370.152 315.899 370.984V371.192C315.899 372.024 315.728 372.744 315.387 373.352C315.056 373.96 314.608 374.424 314.043 374.744C313.488 375.064 312.875 375.224 312.203 375.224ZM311.867 374.104C312.678 374.104 313.334 373.848 313.835 373.336C314.347 372.813 314.603 372.088 314.603 371.16V371.016C314.603 370.088 314.347 369.368 313.835 368.856C313.334 368.333 312.678 368.072 311.867 368.072C311.067 368.072 310.406 368.333 309.883 368.856C309.371 369.368 309.115 370.088 309.115 371.016V371.16C309.115 372.088 309.371 372.813 309.883 373.336C310.406 373.848 311.067 374.104 311.867 374.104Z" fill="black"/>
<path opacity="0.4" d="M339.495 375.224C338.226 375.224 337.212 374.851 336.455 374.104C335.708 373.347 335.335 372.216 335.335 370.712V368.088C335.335 366.595 335.708 365.469 336.455 364.712C337.212 363.955 338.226 363.576 339.495 363.576C340.775 363.576 341.788 363.955 342.535 364.712C343.292 365.469 343.671 366.595 343.671 368.088V370.712C343.671 372.216 343.292 373.347 342.535 374.104C341.788 374.851 340.775 375.224 339.495 375.224ZM339.495 374.056C340.455 374.056 341.175 373.768 341.655 373.192C342.135 372.616 342.375 371.811 342.375 370.776V368.008C342.375 366.973 342.13 366.173 341.639 365.608C341.148 365.032 340.434 364.744 339.495 364.744C338.556 364.744 337.842 365.032 337.351 365.608C336.871 366.184 336.631 366.984 336.631 368.008V370.776C336.631 371.821 336.871 372.632 337.351 373.208C337.831 373.773 338.546 374.056 339.495 374.056ZM349.457 375.224C348.636 375.224 347.926 375.069 347.329 374.76C346.732 374.44 346.268 374.003 345.937 373.448C345.606 372.883 345.441 372.232 345.441 371.496V371.304H346.737V371.448C346.737 372.291 346.982 372.936 347.473 373.384C347.964 373.832 348.614 374.056 349.425 374.056C350.278 374.056 350.945 373.816 351.425 373.336C351.905 372.856 352.145 372.2 352.145 371.368V371.224C352.145 370.424 351.91 369.789 351.441 369.32C350.982 368.84 350.385 368.6 349.649 368.6C349.222 368.6 348.87 368.669 348.593 368.808C348.316 368.936 348.097 369.101 347.937 369.304C347.777 369.496 347.644 369.683 347.537 369.864H345.777V363.8H353.137V364.968H347.073V368.84H347.297C347.414 368.627 347.574 368.419 347.777 368.216C347.99 368.013 348.273 367.843 348.625 367.704C348.977 367.565 349.414 367.496 349.937 367.496C350.588 367.496 351.174 367.645 351.697 367.944C352.23 368.243 352.652 368.669 352.961 369.224C353.281 369.779 353.441 370.44 353.441 371.208V371.384C353.441 372.141 353.281 372.808 352.961 373.384C352.641 373.96 352.182 374.413 351.585 374.744C350.988 375.064 350.278 375.224 349.457 375.224ZM359.593 375V363.8H366.361V365.016H360.937V368.776H365.929V369.992H360.937V375H359.593ZM371.771 375.224C370.982 375.224 370.289 375.059 369.691 374.728C369.094 374.387 368.63 373.912 368.299 373.304C367.969 372.696 367.803 371.992 367.803 371.192V371C367.803 370.189 367.969 369.48 368.299 368.872C368.63 368.264 369.089 367.795 369.675 367.464C370.262 367.123 370.934 366.952 371.691 366.952C372.427 366.952 373.078 367.112 373.643 367.432C374.209 367.741 374.651 368.189 374.971 368.776C375.291 369.363 375.451 370.051 375.451 370.84V371.416H369.067C369.099 372.259 369.371 372.92 369.883 373.4C370.395 373.869 371.035 374.104 371.803 374.104C372.475 374.104 372.993 373.949 373.355 373.64C373.718 373.331 373.995 372.963 374.187 372.536L375.275 373.064C375.115 373.395 374.891 373.725 374.603 374.056C374.326 374.387 373.958 374.664 373.499 374.888C373.051 375.112 372.475 375.224 371.771 375.224ZM369.083 370.376H374.171C374.129 369.651 373.878 369.085 373.419 368.68C372.971 368.275 372.395 368.072 371.691 368.072C370.977 368.072 370.39 368.275 369.931 368.68C369.473 369.085 369.19 369.651 369.083 370.376ZM381.992 375.224C381.181 375.224 380.547 375.069 380.088 374.76C379.64 374.451 379.315 374.099 379.112 373.704H378.888V375H377.656V363.8H378.92V368.408H379.144C379.272 368.163 379.453 367.933 379.688 367.72C379.923 367.496 380.227 367.315 380.6 367.176C380.984 367.027 381.448 366.952 381.992 366.952C382.675 366.952 383.293 367.117 383.848 367.448C384.413 367.768 384.861 368.232 385.192 368.84C385.523 369.437 385.688 370.152 385.688 370.984V371.192C385.688 372.024 385.517 372.744 385.176 373.352C384.845 373.96 384.397 374.424 383.832 374.744C383.277 375.064 382.664 375.224 381.992 375.224ZM381.656 374.104C382.467 374.104 383.123 373.848 383.624 373.336C384.136 372.813 384.392 372.088 384.392 371.16V371.016C384.392 370.088 384.136 369.368 383.624 368.856C383.123 368.333 382.467 368.072 381.656 368.072C380.856 368.072 380.195 368.333 379.672 368.856C379.16 369.368 378.904 370.088 378.904 371.016V371.16C378.904 372.088 379.16 372.813 379.672 373.336C380.195 373.848 380.856 374.104 381.656 374.104Z" fill="black"/>
<path opacity="0.4" d="M409.386 375.224C408.116 375.224 407.103 374.851 406.346 374.104C405.599 373.347 405.226 372.216 405.226 370.712V368.088C405.226 366.595 405.599 365.469 406.346 364.712C407.103 363.955 408.116 363.576 409.386 363.576C410.666 363.576 411.679 363.955 412.426 364.712C413.183 365.469 413.562 366.595 413.562 368.088V370.712C413.562 372.216 413.183 373.347 412.426 374.104C411.679 374.851 410.666 375.224 409.386 375.224ZM409.386 374.056C410.346 374.056 411.066 373.768 411.546 373.192C412.026 372.616 412.266 371.811 412.266 370.776V368.008C412.266 366.973 412.02 366.173 411.53 365.608C411.039 365.032 410.324 364.744 409.386 364.744C408.447 364.744 407.732 365.032 407.242 365.608C406.762 366.184 406.522 366.984 406.522 368.008V370.776C406.522 371.821 406.762 372.632 407.242 373.208C407.722 373.773 408.436 374.056 409.386 374.056ZM419.476 375.224C418.708 375.224 418.02 375.075 417.412 374.776C416.814 374.467 416.34 374.029 415.988 373.464C415.646 372.899 415.476 372.227 415.476 371.448V367.544C415.476 366.701 415.641 365.987 415.972 365.4C416.302 364.813 416.766 364.365 417.364 364.056C417.972 363.736 418.692 363.576 419.524 363.576C420.345 363.576 421.044 363.725 421.62 364.024C422.206 364.312 422.649 364.712 422.948 365.224C423.257 365.725 423.412 366.307 423.412 366.968H422.1C422.1 366.307 421.886 365.773 421.46 365.368C421.033 364.952 420.388 364.744 419.524 364.744C418.649 364.744 417.972 364.984 417.492 365.464C417.012 365.933 416.772 366.584 416.772 367.416V368.968H416.996C417.188 368.648 417.508 368.355 417.956 368.088C418.404 367.811 419.028 367.672 419.828 367.672C420.5 367.672 421.113 367.821 421.668 368.12C422.222 368.419 422.665 368.84 422.996 369.384C423.326 369.928 423.492 370.573 423.492 371.32V371.512C423.492 372.269 423.316 372.925 422.964 373.48C422.622 374.035 422.148 374.467 421.54 374.776C420.932 375.075 420.244 375.224 419.476 375.224ZM419.476 374.056C420.286 374.056 420.942 373.827 421.444 373.368C421.945 372.909 422.196 372.285 422.196 371.496V371.368C422.196 370.835 422.078 370.376 421.844 369.992C421.62 369.608 421.305 369.309 420.9 369.096C420.494 368.872 420.02 368.76 419.476 368.76C418.942 368.76 418.473 368.872 418.068 369.096C417.662 369.309 417.342 369.608 417.108 369.992C416.884 370.376 416.772 370.835 416.772 371.368V371.496C416.772 372.285 417.022 372.909 417.524 373.368C418.025 373.827 418.676 374.056 419.476 374.056ZM429.702 375V363.8H436.47V365.016H431.046V368.776H436.038V369.992H431.046V375H429.702ZM441.881 375.224C441.091 375.224 440.398 375.059 439.801 374.728C439.203 374.387 438.739 373.912 438.409 373.304C438.078 372.696 437.913 371.992 437.913 371.192V371C437.913 370.189 438.078 369.48 438.409 368.872C438.739 368.264 439.198 367.795 439.785 367.464C440.371 367.123 441.043 366.952 441.801 366.952C442.537 366.952 443.187 367.112 443.753 367.432C444.318 367.741 444.761 368.189 445.081 368.776C445.401 369.363 445.561 370.051 445.561 370.84V371.416H439.177C439.209 372.259 439.481 372.92 439.993 373.4C440.505 373.869 441.145 374.104 441.913 374.104C442.585 374.104 443.102 373.949 443.465 373.64C443.827 373.331 444.105 372.963 444.297 372.536L445.385 373.064C445.225 373.395 445.001 373.725 444.713 374.056C444.435 374.387 444.067 374.664 443.609 374.888C443.161 375.112 442.585 375.224 441.881 375.224ZM439.193 370.376H444.281C444.238 369.651 443.987 369.085 443.529 368.68C443.081 368.275 442.505 368.072 441.801 368.072C441.086 368.072 440.499 368.275 440.041 368.68C439.582 369.085 439.299 369.651 439.193 370.376ZM452.102 375.224C451.291 375.224 450.656 375.069 450.198 374.76C449.75 374.451 449.424 374.099 449.222 373.704H448.998V375H447.766V363.8H449.03V368.408H449.254C449.382 368.163 449.563 367.933 449.798 367.72C450.032 367.496 450.336 367.315 450.71 367.176C451.094 367.027 451.558 366.952 452.102 366.952C452.784 366.952 453.403 367.117 453.958 367.448C454.523 367.768 454.971 368.232 455.302 368.84C455.632 369.437 455.798 370.152 455.798 370.984V371.192C455.798 372.024 455.627 372.744 455.286 373.352C454.955 373.96 454.507 374.424 453.942 374.744C453.387 375.064 452.774 375.224 452.102 375.224ZM451.766 374.104C452.576 374.104 453.232 373.848 453.734 373.336C454.246 372.813 454.502 372.088 454.502 371.16V371.016C454.502 370.088 454.246 369.368 453.734 368.856C453.232 368.333 452.576 368.072 451.766 368.072C450.966 368.072 450.304 368.333 449.782 368.856C449.27 369.368 449.014 370.088 449.014 371.016V371.16C449.014 372.088 449.27 372.813 449.782 373.336C450.304 373.848 450.966 374.104 451.766 374.104Z" fill="black"/>
<path opacity="0.4" d="M479.409 375.224C478.14 375.224 477.126 374.851 476.369 374.104C475.622 373.347 475.249 372.216 475.249 370.712V368.088C475.249 366.595 475.622 365.469 476.369 364.712C477.126 363.955 478.14 363.576 479.409 363.576C480.689 363.576 481.702 363.955 482.449 364.712C483.206 365.469 483.585 366.595 483.585 368.088V370.712C483.585 372.216 483.206 373.347 482.449 374.104C481.702 374.851 480.689 375.224 479.409 375.224ZM479.409 374.056C480.369 374.056 481.089 373.768 481.569 373.192C482.049 372.616 482.289 371.811 482.289 370.776V368.008C482.289 366.973 482.044 366.173 481.553 365.608C481.062 365.032 480.348 364.744 479.409 364.744C478.47 364.744 477.756 365.032 477.265 365.608C476.785 366.184 476.545 366.984 476.545 368.008V370.776C476.545 371.821 476.785 372.632 477.265 373.208C477.745 373.773 478.46 374.056 479.409 374.056ZM486.69 375V374.6C486.69 374.227 486.722 373.912 486.786 373.656C486.85 373.4 486.972 373.096 487.154 372.744L491.426 365.144V364.968H484.77V363.8H492.786V365.336L488.322 373.336C488.194 373.56 488.103 373.763 488.05 373.944C488.007 374.125 487.986 374.355 487.986 374.632V375H486.69ZM498.678 375V363.8H505.446V365.016H500.022V368.776H505.014V369.992H500.022V375H498.678ZM510.857 375.224C510.068 375.224 509.375 375.059 508.777 374.728C508.18 374.387 507.716 373.912 507.385 373.304C507.055 372.696 506.889 371.992 506.889 371.192V371C506.889 370.189 507.055 369.48 507.385 368.872C507.716 368.264 508.175 367.795 508.761 367.464C509.348 367.123 510.02 366.952 510.777 366.952C511.513 366.952 512.164 367.112 512.729 367.432C513.295 367.741 513.737 368.189 514.057 368.776C514.377 369.363 514.537 370.051 514.537 370.84V371.416H508.153C508.185 372.259 508.457 372.92 508.969 373.4C509.481 373.869 510.121 374.104 510.889 374.104C511.561 374.104 512.079 373.949 512.441 373.64C512.804 373.331 513.081 372.963 513.273 372.536L514.361 373.064C514.201 373.395 513.977 373.725 513.689 374.056C513.412 374.387 513.044 374.664 512.585 374.888C512.137 375.112 511.561 375.224 510.857 375.224ZM508.169 370.376H513.257C513.215 369.651 512.964 369.085 512.505 368.68C512.057 368.275 511.481 368.072 510.777 368.072C510.063 368.072 509.476 368.275 509.017 368.68C508.559 369.085 508.276 369.651 508.169 370.376ZM521.078 375.224C520.267 375.224 519.633 375.069 519.174 374.76C518.726 374.451 518.401 374.099 518.198 373.704H517.974V375H516.742V363.8H518.006V368.408H518.23C518.358 368.163 518.539 367.933 518.774 367.72C519.009 367.496 519.313 367.315 519.686 367.176C520.07 367.027 520.534 366.952 521.078 366.952C521.761 366.952 522.379 367.117 522.934 367.448C523.499 367.768 523.947 368.232 524.278 368.84C524.609 369.437 524.774 370.152 524.774 370.984V371.192C524.774 372.024 524.603 372.744 524.262 373.352C523.931 373.96 523.483 374.424 522.918 374.744C522.363 375.064 521.75 375.224 521.078 375.224ZM520.742 374.104C521.553 374.104 522.209 373.848 522.71 373.336C523.222 372.813 523.478 372.088 523.478 371.16V371.016C523.478 370.088 523.222 369.368 522.71 368.856C522.209 368.333 521.553 368.072 520.742 368.072C519.942 368.072 519.281 368.333 518.758 368.856C518.246 369.368 517.99 370.088 517.99 371.016V371.16C517.99 372.088 518.246 372.813 518.758 373.336C519.281 373.848 519.942 374.104 520.742 374.104Z" fill="black"/>
<path opacity="0.4" d="M548.3 375.224C547.03 375.224 546.017 374.851 545.26 374.104C544.513 373.347 544.14 372.216 544.14 370.712V368.088C544.14 366.595 544.513 365.469 545.26 364.712C546.017 363.955 547.03 363.576 548.3 363.576C549.58 363.576 550.593 363.955 551.34 364.712C552.097 365.469 552.476 366.595 552.476 368.088V370.712C552.476 372.216 552.097 373.347 551.34 374.104C550.593 374.851 549.58 375.224 548.3 375.224ZM548.3 374.056C549.26 374.056 549.98 373.768 550.46 373.192C550.94 372.616 551.18 371.811 551.18 370.776V368.008C551.18 366.973 550.934 366.173 550.444 365.608C549.953 365.032 549.238 364.744 548.3 364.744C547.361 364.744 546.646 365.032 546.156 365.608C545.676 366.184 545.436 366.984 545.436 368.008V370.776C545.436 371.821 545.676 372.632 546.156 373.208C546.636 373.773 547.35 374.056 548.3 374.056ZM558.406 375.224C557.542 375.224 556.79 375.096 556.15 374.84C555.52 374.573 555.03 374.205 554.678 373.736C554.336 373.256 554.166 372.696 554.166 372.056V371.88C554.166 371.325 554.283 370.867 554.518 370.504C554.752 370.141 555.035 369.864 555.366 369.672C555.707 369.469 556.022 369.341 556.31 369.288V369.08C556.022 368.995 555.723 368.856 555.414 368.664C555.115 368.472 554.864 368.211 554.662 367.88C554.47 367.549 554.374 367.144 554.374 366.664V366.488C554.374 365.88 554.544 365.363 554.886 364.936C555.238 364.499 555.718 364.163 556.326 363.928C556.934 363.693 557.627 363.576 558.406 363.576C559.195 363.576 559.888 363.693 560.486 363.928C561.094 364.163 561.568 364.499 561.91 364.936C562.262 365.363 562.438 365.88 562.438 366.488V366.664C562.438 367.144 562.342 367.549 562.15 367.88C561.958 368.211 561.712 368.472 561.414 368.664C561.115 368.856 560.816 368.995 560.518 369.08V369.288C560.816 369.341 561.131 369.469 561.462 369.672C561.792 369.864 562.07 370.141 562.294 370.504C562.528 370.867 562.646 371.325 562.646 371.88V372.056C562.646 372.696 562.475 373.256 562.134 373.736C561.792 374.205 561.302 374.573 560.662 374.84C560.032 375.096 559.28 375.224 558.406 375.224ZM558.406 374.056C559.312 374.056 560.027 373.88 560.55 373.528C561.083 373.176 561.35 372.664 561.35 371.992V371.864C561.35 371.192 561.088 370.68 560.566 370.328C560.043 369.976 559.323 369.8 558.406 369.8C557.499 369.8 556.784 369.976 556.262 370.328C555.739 370.68 555.478 371.192 555.478 371.864V371.992C555.478 372.664 555.739 373.176 556.262 373.528C556.795 373.88 557.51 374.056 558.406 374.056ZM558.406 368.632C559.259 368.632 559.926 368.472 560.406 368.152C560.896 367.821 561.142 367.357 561.142 366.76V366.632C561.142 366.024 560.896 365.56 560.406 365.24C559.915 364.909 559.248 364.744 558.406 364.744C557.563 364.744 556.896 364.909 556.406 365.24C555.915 365.56 555.67 366.024 555.67 366.632V366.76C555.67 367.357 555.915 367.821 556.406 368.152C556.896 368.472 557.563 368.632 558.406 368.632ZM568.788 375V363.8H575.556V365.016H570.132V368.776H575.124V369.992H570.132V375H568.788ZM580.967 375.224C580.177 375.224 579.484 375.059 578.887 374.728C578.289 374.387 577.825 373.912 577.495 373.304C577.164 372.696 576.999 371.992 576.999 371.192V371C576.999 370.189 577.164 369.48 577.495 368.872C577.825 368.264 578.284 367.795 578.871 367.464C579.457 367.123 580.129 366.952 580.887 366.952C581.623 366.952 582.273 367.112 582.839 367.432C583.404 367.741 583.847 368.189 584.167 368.776C584.487 369.363 584.647 370.051 584.647 370.84V371.416H578.263C578.295 372.259 578.567 372.92 579.079 373.4C579.591 373.869 580.231 374.104 580.999 374.104C581.671 374.104 582.188 373.949 582.551 373.64C582.913 373.331 583.191 372.963 583.383 372.536L584.471 373.064C584.311 373.395 584.087 373.725 583.799 374.056C583.521 374.387 583.153 374.664 582.695 374.888C582.247 375.112 581.671 375.224 580.967 375.224ZM578.279 370.376H583.367C583.324 369.651 583.073 369.085 582.615 368.68C582.167 368.275 581.591 368.072 580.887 368.072C580.172 368.072 579.585 368.275 579.127 368.68C578.668 369.085 578.385 369.651 578.279 370.376ZM591.187 375.224C590.377 375.224 589.742 375.069 589.283 374.76C588.835 374.451 588.51 374.099 588.307 373.704H588.083V375H586.851V363.8H588.115V368.408H588.339C588.467 368.163 588.649 367.933 588.883 367.72C589.118 367.496 589.422 367.315 589.795 367.176C590.179 367.027 590.643 366.952 591.187 366.952C591.87 366.952 592.489 367.117 593.043 367.448C593.609 367.768 594.057 368.232 594.387 368.84C594.718 369.437 594.883 370.152 594.883 370.984V371.192C594.883 372.024 594.713 372.744 594.371 373.352C594.041 373.96 593.593 374.424 593.027 374.744C592.473 375.064 591.859 375.224 591.187 375.224ZM590.851 374.104C591.662 374.104 592.318 373.848 592.819 373.336C593.331 372.813 593.587 372.088 593.587 371.16V371.016C593.587 370.088 593.331 369.368 592.819 368.856C592.318 368.333 591.662 368.072 590.851 368.072C590.051 368.072 589.39 368.333 588.867 368.856C588.355 369.368 588.099 370.088 588.099 371.016V371.16C588.099 372.088 588.355 372.813 588.867 373.336C589.39 373.848 590.051 374.104 590.851 374.104Z" fill="black"/>
<line opacity="0.2" x1="59" y1="11.5" x2="584" y2="11.5" stroke="#999999"/>
<line opacity="0.2" x1="59" y1="167.5" x2="584" y2="167.5" stroke="#999999"/>
<line opacity="0.2" x1="59" y1="89.5" x2="584" y2="89.5" stroke="#999999"/>
<line opacity="0.2" x1="59" y1="323.5" x2="584" y2="323.5" stroke="#999999"/>
<line opacity="0.2" x1="59" y1="245.5" x2="584" y2="245.5" stroke="#999999"/>
<path opacity="0.27" d="M79 323.721C79 324.427 78.4275 325 77.7212 325C79 325 76.8687 325 76.0944 325C75.32 325 75.1929 325 74.4505 325C73.7082 325 69.9971 325 69.2291 325C70.0227 325 68.4611 325 69.2291 325C70.0227 325 68.4355 325 69.2291 325L69.2291 70.8854C69.2291 68.1873 71.4164 66 74.1145 66C76.8127 66 79 68.1873 79 70.8854L79 323.721Z" fill="#8659FF"/>
<path opacity="0.27" d="M123 323.721C123 324.427 122.427 325 121.721 325C123 325 120.869 325 120.094 325C119.32 325 119.193 325 118.451 325C117.708 325 113.997 325 113.229 325C114.023 325 112.461 325 113.229 325C114.023 325 112.436 325 113.229 325L113.229 70.8854C113.229 68.1873 115.416 66 118.115 66C120.813 66 123 68.1873 123 70.8854L123 323.721Z" fill="#8659FF"/>
<path opacity="0.27" d="M68 323.721C68 324.427 67.4275 325 66.7212 325C68 325 65.8687 325 65.0944 325C64.32 325 64.1929 325 63.4505 325C62.7082 325 58.9971 325 58.2291 325C59.0227 325 57.4611 325 58.2291 325C59.0227 325 57.4355 325 58.2291 325L58.2291 59.8854C58.2291 57.1873 60.4164 55 63.1145 55C65.8127 55 68 57.1873 68 59.8854L68 323.721Z" fill="#8659FF"/>
<path opacity="0.27" d="M68 64.7212C68 65.4275 67.4275 66 66.7212 66C68 66 65.8687 66 65.0944 66C64.32 66 64.1929 66 63.4505 66C62.7082 66 58.9971 66 58.2291 66C59.0227 66 57.4611 66 58.2291 66C59.0227 66 57.4355 66 58.2291 66L58.2291 59.8855C58.2291 57.1873 60.4164 55 63.1145 55C65.8127 55 68 57.1873 68 59.8854L68 64.7212Z" fill="#FF0000"/>
<path opacity="0.27" d="M134 323.721C134 324.427 133.427 325 132.721 325C134 325 131.869 325 131.094 325C130.32 325 130.193 325 129.451 325C128.708 325 124.997 325 124.229 325C125.023 325 123.461 325 124.229 325C125.023 325 123.436 325 124.229 325L124.229 59.8854C124.229 57.1873 126.416 55 129.115 55C131.813 55 134 57.1873 134 59.8854L134 323.721Z" fill="#8659FF"/>
<path opacity="0.27" d="M134 64.7212C134 65.4275 133.427 66 132.721 66C134 66 131.869 66 131.094 66C130.32 66 130.193 66 129.451 66C128.708 66 124.997 66 124.229 66C125.023 66 123.461 66 124.229 66C125.023 66 123.436 66 124.229 66L124.229 59.8855C124.229 57.1873 126.416 55 129.115 55C131.813 55 134 57.1873 134 59.8854L134 64.7212Z" fill="#FF0000"/>
<path opacity="0.27" d="M90 323.721C90 324.427 89.4275 325 88.7212 325C90 325 87.8687 325 87.0944 325C86.32 325 86.1929 325 85.4505 325C84.7082 325 80.9971 325 80.2291 325C81.0227 325 79.4611 325 80.2291 325C81.0227 325 79.4355 325 80.2291 325L80.2291 66.8854C80.2291 64.1873 82.4164 62 85.1145 62C87.8127 62 90 64.1873 90 66.8854L90 323.721Z" fill="#8659FF"/>
<path opacity="0.27" d="M90 71.7212C90 72.4275 89.4275 73 88.7212 73C90 73 87.8687 73 87.0944 73C86.32 73 86.1929 73 85.4505 73C84.7082 73 80.9971 73 80.2291 73C81.0227 73 79.4611 73 80.2291 73C81.0227 73 79.4355 73 80.2291 73L80.2291 66.8855C80.2291 64.1873 82.4164 62 85.1145 62C87.8127 62 90 64.1873 90 66.8854L90 71.7212Z" fill="#FF0000"/>
<path opacity="0.27" d="M101 323.721C101 324.427 100.427 325 99.7212 325C101 325 98.8687 325 98.0944 325C97.32 325 97.1929 325 96.4505 325C95.7082 325 91.9971 325 91.2291 325C92.0227 325 90.4611 325 91.2291 325C92.0227 325 90.4355 325 91.2291 325L91.2291 66.8854C91.2291 64.1873 93.4164 62 96.1145 62C98.8127 62 101 64.1873 101 66.8854L101 323.721Z" fill="#8659FF"/>
<path opacity="0.27" d="M101 71.7212C101 72.4275 100.427 73 99.7212 73C101 73 98.8687 73 98.0944 73C97.32 73 97.1929 73 96.4505 73C95.7082 73 91.9971 73 91.2291 73C92.0227 73 90.4611 73 91.2291 73C92.0227 73 90.4355 73 91.2291 73L91.2291 66.8855C91.2291 64.1873 93.4164 62 96.1145 62C98.8127 62 101 64.1873 101 66.8854L101 71.7212Z" fill="#FF0000"/>
<path opacity="0.27" d="M112 323.721C112 324.427 111.427 325 110.721 325C112 325 109.869 325 109.094 325C108.32 325 108.193 325 107.451 325C106.708 325 102.997 325 102.229 325C103.023 325 101.461 325 102.229 325C103.023 325 101.436 325 102.229 325L102.229 66.8854C102.229 64.1873 104.416 62 107.115 62C109.813 62 112 64.1873 112 66.8854L112 323.721Z" fill="#8659FF"/>
<path opacity="0.27" d="M112 71.7212C112 72.4275 111.427 73 110.721 73C112 73 109.869 73 109.094 73C108.32 73 108.193 73 107.451 73C106.708 73 102.997 73 102.229 73C103.023 73 101.461 73 102.229 73C103.023 73 101.436 73 102.229 73L102.229 66.8855C102.229 64.1873 104.416 62 107.115 62C109.813 62 112 64.1873 112 66.8854L112 71.7212Z" fill="#FF0000"/>
<path opacity="0.27" d="M233 323.721C233 324.427 232.427 325 231.721 325C233 325 230.869 325 230.094 325C229.32 325 229.193 325 228.451 325C227.708 325 223.997 325 223.229 325C224.023 325 222.461 325 223.229 325C224.023 325 222.436 325 223.229 325L223.229 70.8854C223.229 68.1873 225.416 66 228.115 66C230.813 66 233 68.1873 233 70.8854L233 323.721Z" fill="#8659FF"/>
<path opacity="0.27" d="M277 323.721C277 324.427 276.427 325 275.721 325C277 325 274.869 325 274.094 325C273.32 325 273.193 325 272.451 325C271.708 325 267.997 325 267.229 325C268.023 325 266.461 325 267.229 325C268.023 325 266.436 325 267.229 325L267.229 70.8854C267.229 68.1873 269.416 66 272.115 66C274.813 66 277 68.1873 277 70.8854L277 323.721Z" fill="#8659FF"/>
<path opacity="0.27" d="M222 323.721C222 324.427 221.427 325 220.721 325C222 325 219.869 325 219.094 325C218.32 325 218.193 325 217.451 325C216.708 325 212.997 325 212.229 325C213.023 325 211.461 325 212.229 325C213.023 325 211.436 325 212.229 325L212.229 59.8854C212.229 57.1873 214.416 55 217.115 55C219.813 55 222 57.1873 222 59.8854L222 323.721Z" fill="#8659FF"/>
<path opacity="0.27" d="M222 64.7212C222 65.4275 221.427 66 220.721 66C222 66 219.869 66 219.094 66C218.32 66 218.193 66 217.451 66C216.708 66 212.997 66 212.229 66C213.023 66 211.461 66 212.229 66C213.023 66 211.436 66 212.229 66L212.229 59.8855C212.229 57.1873 214.416 55 217.115 55C219.813 55 222 57.1873 222 59.8854L222 64.7212Z" fill="#FF0000"/>
<path opacity="0.27" d="M288 323.721C288 324.427 287.427 325 286.721 325C288 325 285.869 325 285.094 325C284.32 325 284.193 325 283.451 325C282.708 325 278.997 325 278.229 325C279.023 325 277.461 325 278.229 325C279.023 325 277.436 325 278.229 325L278.229 59.8854C278.229 57.1873 280.416 55 283.115 55C285.813 55 288 57.1873 288 59.8854L288 323.721Z" fill="#8659FF"/>
<path opacity="0.27" d="M288 64.7212C288 65.4275 287.427 66 286.721 66C288 66 285.869 66 285.094 66C284.32 66 284.193 66 283.451 66C282.708 66 278.997 66 278.229 66C279.023 66 277.461 66 278.229 66C279.023 66 277.436 66 278.229 66L278.229 59.8855C278.229 57.1873 280.416 55 283.115 55C285.813 55 288 57.1873 288 59.8854L288 64.7212Z" fill="#FF0000"/>
<path opacity="0.27" d="M244 323.721C244 324.427 243.427 325 242.721 325C244 325 241.869 325 241.094 325C240.32 325 240.193 325 239.451 325C238.708 325 234.997 325 234.229 325C235.023 325 233.461 325 234.229 325C235.023 325 233.436 325 234.229 325L234.229 66.8854C234.229 64.1873 236.416 62 239.115 62C241.813 62 244 64.1873 244 66.8854L244 323.721Z" fill="#8659FF"/>
<path opacity="0.27" d="M244 71.7212C244 72.4275 243.427 73 242.721 73C244 73 241.869 73 241.094 73C240.32 73 240.193 73 239.451 73C238.708 73 234.997 73 234.229 73C235.023 73 233.461 73 234.229 73C235.023 73 233.436 73 234.229 73L234.229 66.8855C234.229 64.1873 236.416 62 239.115 62C241.813 62 244 64.1873 244 66.8854L244 71.7212Z" fill="#FF0000"/>
<path opacity="0.27" d="M255 323.721C255 324.427 254.427 325 253.721 325C255 325 252.869 325 252.094 325C251.32 325 251.193 325 250.451 325C249.708 325 245.997 325 245.229 325C246.023 325 244.461 325 245.229 325C246.023 325 244.436 325 245.229 325L245.229 66.8854C245.229 64.1873 247.416 62 250.115 62C252.813 62 255 64.1873 255 66.8854L255 323.721Z" fill="#8659FF"/>
<path opacity="0.27" d="M255 71.7212C255 72.4275 254.427 73 253.721 73C255 73 252.869 73 252.094 73C251.32 73 251.193 73 250.451 73C249.708 73 245.997 73 245.229 73C246.023 73 244.461 73 245.229 73C246.023 73 244.436 73 245.229 73L245.229 66.8855C245.229 64.1873 247.416 62 250.115 62C252.813 62 255 64.1873 255 66.8854L255 71.7212Z" fill="#FF0000"/>
<path opacity="0.27" d="M266 323.721C266 324.427 265.427 325 264.721 325C266 325 263.869 325 263.094 325C262.32 325 262.193 325 261.451 325C260.708 325 256.997 325 256.229 325C257.023 325 255.461 325 256.229 325C257.023 325 255.436 325 256.229 325L256.229 66.8854C256.229 64.1873 258.416 62 261.115 62C263.813 62 266 64.1873 266 66.8854L266 323.721Z" fill="#8659FF"/>
<path opacity="0.27" d="M266 71.7212C266 72.4275 265.427 73 264.721 73C266 73 263.869 73 263.094 73C262.32 73 262.193 73 261.451 73C260.708 73 256.997 73 256.229 73C257.023 73 255.461 73 256.229 73C257.023 73 255.436 73 256.229 73L256.229 66.8855C256.229 64.1873 258.416 62 261.115 62C263.813 62 266 64.1873 266 66.8854L266 71.7212Z" fill="#FF0000"/>
<path opacity="0.27" d="M387 323.721C387 324.427 386.427 325 385.721 325C387 325 384.869 325 384.094 325C383.32 325 383.193 325 382.451 325C381.708 325 377.997 325 377.229 325C378.023 325 376.461 325 377.229 325C378.023 325 376.436 325 377.229 325L377.229 70.8854C377.229 68.1873 379.416 66 382.115 66C384.813 66 387 68.1873 387 70.8854L387 323.721Z" fill="#8659FF"/>
<path opacity="0.27" d="M431 323.721C431 324.427 430.427 325 429.721 325C431 325 428.869 325 428.094 325C427.32 325 427.193 325 426.451 325C425.708 325 421.997 325 421.229 325C422.023 325 420.461 325 421.229 325C422.023 325 420.436 325 421.229 325L421.229 70.8854C421.229 68.1873 423.416 66 426.115 66C428.813 66 431 68.1873 431 70.8854L431 323.721Z" fill="#8659FF"/>
<path opacity="0.27" d="M376 323.721C376 324.427 375.427 325 374.721 325C376 325 373.869 325 373.094 325C372.32 325 372.193 325 371.451 325C370.708 325 366.997 325 366.229 325C367.023 325 365.461 325 366.229 325C367.023 325 365.436 325 366.229 325L366.229 59.8854C366.229 57.1873 368.416 55 371.115 55C373.813 55 376 57.1873 376 59.8854L376 323.721Z" fill="#8659FF"/>
<path opacity="0.27" d="M376 64.7212C376 65.4275 375.427 66 374.721 66C376 66 373.869 66 373.094 66C372.32 66 372.193 66 371.451 66C370.708 66 366.997 66 366.229 66C367.023 66 365.461 66 366.229 66C367.023 66 365.436 66 366.229 66L366.229 59.8855C366.229 57.1873 368.416 55 371.115 55C373.813 55 376 57.1873 376 59.8854L376 64.7212Z" fill="#FF0000"/>
<path opacity="0.27" d="M442 323.721C442 324.427 441.427 325 440.721 325C442 325 439.869 325 439.094 325C438.32 325 438.193 325 437.451 325C436.708 325 432.997 325 432.229 325C433.023 325 431.461 325 432.229 325C433.023 325 431.436 325 432.229 325L432.229 59.8854C432.229 57.1873 434.416 55 437.115 55C439.813 55 442 57.1873 442 59.8854L442 323.721Z" fill="#8659FF"/>
<path opacity="0.27" d="M442 64.7212C442 65.4275 441.427 66 440.721 66C442 66 439.869 66 439.094 66C438.32 66 438.193 66 437.451 66C436.708 66 432.997 66 432.229 66C433.023 66 431.461 66 432.229 66C433.023 66 431.436 66 432.229 66L432.229 59.8855C432.229 57.1873 434.416 55 437.115 55C439.813 55 442 57.1873 442 59.8854L442 64.7212Z" fill="#FF0000"/>
<path opacity="0.27" d="M398 323.721C398 324.427 397.427 325 396.721 325C398 325 395.869 325 395.094 325C394.32 325 394.193 325 393.451 325C392.708 325 388.997 325 388.229 325C389.023 325 387.461 325 388.229 325C389.023 325 387.436 325 388.229 325L388.229 66.8854C388.229 64.1873 390.416 62 393.115 62C395.813 62 398 64.1873 398 66.8854L398 323.721Z" fill="#8659FF"/>
<path opacity="0.27" d="M398 71.7212C398 72.4275 397.427 73 396.721 73C398 73 395.869 73 395.094 73C394.32 73 394.193 73 393.451 73C392.708 73 388.997 73 388.229 73C389.023 73 387.461 73 388.229 73C389.023 73 387.436 73 388.229 73L388.229 66.8855C388.229 64.1873 390.416 62 393.115 62C395.813 62 398 64.1873 398 66.8854L398 71.7212Z" fill="#FF0000"/>
<path opacity="0.27" d="M409 323.721C409 324.427 408.427 325 407.721 325C409 325 406.869 325 406.094 325C405.32 325 405.193 325 404.451 325C403.708 325 399.997 325 399.229 325C400.023 325 398.461 325 399.229 325C400.023 325 398.436 325 399.229 325L399.229 66.8854C399.229 64.1873 401.416 62 404.115 62C406.813 62 409 64.1873 409 66.8854L409 323.721Z" fill="#8659FF"/>
<path opacity="0.27" d="M409 71.7212C409 72.4275 408.427 73 407.721 73C409 73 406.869 73 406.094 73C405.32 73 405.193 73 404.451 73C403.708 73 399.997 73 399.229 73C400.023 73 398.461 73 399.229 73C400.023 73 398.436 73 399.229 73L399.229 66.8855C399.229 64.1873 401.416 62 404.115 62C406.813 62 409 64.1873 409 66.8854L409 71.7212Z" fill="#FF0000"/>
<path opacity="0.27" d="M420 323.721C420 324.427 419.427 325 418.721 325C420 325 417.869 325 417.094 325C416.32 325 416.193 325 415.451 325C414.708 325 410.997 325 410.229 325C411.023 325 409.461 325 410.229 325C411.023 325 409.436 325 410.229 325L410.229 66.8854C410.229 64.1873 412.416 62 415.115 62C417.813 62 420 64.1873 420 66.8854L420 323.721Z" fill="#8659FF"/>
<path opacity="0.27" d="M420 71.7212C420 72.4275 419.427 73 418.721 73C420 73 417.869 73 417.094 73C416.32 73 416.193 73 415.451 73C414.708 73 410.997 73 410.229 73C411.023 73 409.461 73 410.229 73C411.023 73 409.436 73 410.229 73L410.229 66.8855C410.229 64.1873 412.416 62 415.115 62C417.813 62 420 64.1873 420 66.8854L420 71.7212Z" fill="#FF0000"/>
<path opacity="0.27" d="M156 323.721C156 324.427 155.427 325 154.721 325C156 325 153.869 325 153.094 325C152.32 325 152.193 325 151.451 325C150.708 325 146.997 325 146.229 325C147.023 325 145.461 325 146.229 325C147.023 325 145.436 325 146.229 325L146.229 70.8854C146.229 68.1873 148.416 66 151.115 66C153.813 66 156 68.1873 156 70.8854L156 323.721Z" fill="#8659FF"/>
<path opacity="0.27" d="M200 323.721C200 324.427 199.427 325 198.721 325C200 325 197.869 325 197.094 325C196.32 325 196.193 325 195.451 325C194.708 325 190.997 325 190.229 325C191.023 325 189.461 325 190.229 325C191.023 325 189.436 325 190.229 325L190.229 70.8854C190.229 68.1873 192.416 66 195.115 66C197.813 66 200 68.1873 200 70.8854L200 323.721Z" fill="#8659FF"/>
<path opacity="0.27" d="M145 323.721C145 324.427 144.427 325 143.721 325C145 325 142.869 325 142.094 325C141.32 325 141.193 325 140.451 325C139.708 325 135.997 325 135.229 325C136.023 325 134.461 325 135.229 325C136.023 325 134.436 325 135.229 325L135.229 59.8854C135.229 57.1873 137.416 55 140.115 55C142.813 55 145 57.1873 145 59.8854L145 323.721Z" fill="#8659FF"/>
<path opacity="0.27" d="M145 64.7212C145 65.4275 144.427 66 143.721 66C145 66 142.869 66 142.094 66C141.32 66 141.193 66 140.451 66C139.708 66 135.997 66 135.229 66C136.023 66 134.461 66 135.229 66C136.023 66 134.436 66 135.229 66L135.229 59.8855C135.229 57.1873 137.416 55 140.115 55C142.813 55 145 57.1873 145 59.8854L145 64.7212Z" fill="#FF0000"/>
<path opacity="0.27" d="M211 323.721C211 324.427 210.427 325 209.721 325C211 325 208.869 325 208.094 325C207.32 325 207.193 325 206.451 325C205.708 325 201.997 325 201.229 325C202.023 325 200.461 325 201.229 325C202.023 325 200.436 325 201.229 325L201.229 59.8854C201.229 57.1873 203.416 55 206.115 55C208.813 55 211 57.1873 211 59.8854L211 323.721Z" fill="#8659FF"/>
<path opacity="0.27" d="M211 64.7212C211 65.4275 210.427 66 209.721 66C211 66 208.869 66 208.094 66C207.32 66 207.193 66 206.451 66C205.708 66 201.997 66 201.229 66C202.023 66 200.461 66 201.229 66C202.023 66 200.436 66 201.229 66L201.229 59.8855C201.229 57.1873 203.416 55 206.115 55C208.813 55 211 57.1873 211 59.8854L211 64.7212Z" fill="#FF0000"/>
<path opacity="0.27" d="M167 323.721C167 324.427 166.427 325 165.721 325C167 325 164.869 325 164.094 325C163.32 325 163.193 325 162.451 325C161.708 325 157.997 325 157.229 325C158.023 325 156.461 325 157.229 325C158.023 325 156.436 325 157.229 325L157.229 66.8854C157.229 64.1873 159.416 62 162.115 62C164.813 62 167 64.1873 167 66.8854L167 323.721Z" fill="#8659FF"/>
<path opacity="0.27" d="M167 71.7212C167 72.4275 166.427 73 165.721 73C167 73 164.869 73 164.094 73C163.32 73 163.193 73 162.451 73C161.708 73 157.997 73 157.229 73C158.023 73 156.461 73 157.229 73C158.023 73 156.436 73 157.229 73L157.229 66.8855C157.229 64.1873 159.416 62 162.115 62C164.813 62 167 64.1873 167 66.8854L167 71.7212Z" fill="#FF0000"/>
<path opacity="0.27" d="M178 323.721C178 324.427 177.427 325 176.721 325C178 325 175.869 325 175.094 325C174.32 325 174.193 325 173.451 325C172.708 325 168.997 325 168.229 325C169.023 325 167.461 325 168.229 325C169.023 325 167.436 325 168.229 325L168.229 66.8854C168.229 64.1873 170.416 62 173.115 62C175.813 62 178 64.1873 178 66.8854L178 323.721Z" fill="#8659FF"/>
<path opacity="0.27" d="M178 71.7212C178 72.4275 177.427 73 176.721 73C178 73 175.869 73 175.094 73C174.32 73 174.193 73 173.451 73C172.708 73 168.997 73 168.229 73C169.023 73 167.461 73 168.229 73C169.023 73 167.436 73 168.229 73L168.229 66.8855C168.229 64.1873 170.416 62 173.115 62C175.813 62 178 64.1873 178 66.8854L178 71.7212Z" fill="#FF0000"/>
<path opacity="0.27" d="M189 323.721C189 324.427 188.427 325 187.721 325C189 325 186.869 325 186.094 325C185.32 325 185.193 325 184.451 325C183.708 325 179.997 325 179.229 325C180.023 325 178.461 325 179.229 325C180.023 325 178.436 325 179.229 325L179.229 66.8854C179.229 64.1873 181.416 62 184.115 62C186.813 62 189 64.1873 189 66.8854L189 323.721Z" fill="#8659FF"/>
<path opacity="0.27" d="M189 71.7212C189 72.4275 188.427 73 187.721 73C189 73 186.869 73 186.094 73C185.32 73 185.193 73 184.451 73C183.708 73 179.997 73 179.229 73C180.023 73 178.461 73 179.229 73C180.023 73 178.436 73 179.229 73L179.229 66.8855C179.229 64.1873 181.416 62 184.115 62C186.813 62 189 64.1873 189 66.8854L189 71.7212Z" fill="#FF0000"/>
<path opacity="0.27" d="M310 323.721C310 324.427 309.427 325 308.721 325C310 325 307.869 325 307.094 325C306.32 325 306.193 325 305.451 325C304.708 325 300.997 325 300.229 325C301.023 325 299.461 325 300.229 325C301.023 325 299.436 325 300.229 325L300.229 70.8854C300.229 68.1873 302.416 66 305.115 66C307.813 66 310 68.1873 310 70.8854L310 323.721Z" fill="#8659FF"/>
<path opacity="0.27" d="M354 323.721C354 324.427 353.427 325 352.721 325C354 325 351.869 325 351.094 325C350.32 325 350.193 325 349.451 325C348.708 325 344.997 325 344.229 325C345.023 325 343.461 325 344.229 325C345.023 325 343.436 325 344.229 325L344.229 70.8854C344.229 68.1873 346.416 66 349.115 66C351.813 66 354 68.1873 354 70.8854L354 323.721Z" fill="#8659FF"/>
<path opacity="0.27" d="M299 323.721C299 324.427 298.427 325 297.721 325C299 325 296.869 325 296.094 325C295.32 325 295.193 325 294.451 325C293.708 325 289.997 325 289.229 325C290.023 325 288.461 325 289.229 325C290.023 325 288.436 325 289.229 325L289.229 59.8854C289.229 57.1873 291.416 55 294.115 55C296.813 55 299 57.1873 299 59.8854L299 323.721Z" fill="#8659FF"/>
<path opacity="0.27" d="M299 64.7212C299 65.4275 298.427 66 297.721 66C299 66 296.869 66 296.094 66C295.32 66 295.193 66 294.451 66C293.708 66 289.997 66 289.229 66C290.023 66 288.461 66 289.229 66C290.023 66 288.436 66 289.229 66L289.229 59.8855C289.229 57.1873 291.416 55 294.115 55C296.813 55 299 57.1873 299 59.8854L299 64.7212Z" fill="#FF0000"/>
<path opacity="0.27" d="M365 323.721C365 324.427 364.427 325 363.721 325C365 325 362.869 325 362.094 325C361.32 325 361.193 325 360.451 325C359.708 325 355.997 325 355.229 325C356.023 325 354.461 325 355.229 325C356.023 325 354.436 325 355.229 325L355.229 59.8854C355.229 57.1873 357.416 55 360.115 55C362.813 55 365 57.1873 365 59.8854L365 323.721Z" fill="#8659FF"/>
<path opacity="0.27" d="M365 64.7212C365 65.4275 364.427 66 363.721 66C365 66 362.869 66 362.094 66C361.32 66 361.193 66 360.451 66C359.708 66 355.997 66 355.229 66C356.023 66 354.461 66 355.229 66C356.023 66 354.436 66 355.229 66L355.229 59.8855C355.229 57.1873 357.416 55 360.115 55C362.813 55 365 57.1873 365 59.8854L365 64.7212Z" fill="#FF0000"/>
<path opacity="0.27" d="M321 323.721C321 324.427 320.427 325 319.721 325C321 325 318.869 325 318.094 325C317.32 325 317.193 325 316.451 325C315.708 325 311.997 325 311.229 325C312.023 325 310.461 325 311.229 325C312.023 325 310.436 325 311.229 325L311.229 66.8854C311.229 64.1873 313.416 62 316.115 62C318.813 62 321 64.1873 321 66.8854L321 323.721Z" fill="#8659FF"/>
<path opacity="0.27" d="M321 71.7212C321 72.4275 320.427 73 319.721 73C321 73 318.869 73 318.094 73C317.32 73 317.193 73 316.451 73C315.708 73 311.997 73 311.229 73C312.023 73 310.461 73 311.229 73C312.023 73 310.436 73 311.229 73L311.229 66.8855C311.229 64.1873 313.416 62 316.115 62C318.813 62 321 64.1873 321 66.8854L321 71.7212Z" fill="#FF0000"/>
<path opacity="0.27" d="M332 323.721C332 324.427 331.427 325 330.721 325C332 325 329.869 325 329.094 325C328.32 325 328.193 325 327.451 325C326.708 325 322.997 325 322.229 325C323.023 325 321.461 325 322.229 325C323.023 325 321.436 325 322.229 325L322.229 66.8854C322.229 64.1873 324.416 62 327.115 62C329.813 62 332 64.1873 332 66.8854L332 323.721Z" fill="#8659FF"/>
<path opacity="0.27" d="M332 71.7212C332 72.4275 331.427 73 330.721 73C332 73 329.869 73 329.094 73C328.32 73 328.193 73 327.451 73C326.708 73 322.997 73 322.229 73C323.023 73 321.461 73 322.229 73C323.023 73 321.436 73 322.229 73L322.229 66.8855C322.229 64.1873 324.416 62 327.115 62C329.813 62 332 64.1873 332 66.8854L332 71.7212Z" fill="#FF0000"/>
<path opacity="0.27" d="M343 323.721C343 324.427 342.427 325 341.721 325C343 325 340.869 325 340.094 325C339.32 325 339.193 325 338.451 325C337.708 325 333.997 325 333.229 325C334.023 325 332.461 325 333.229 325C334.023 325 332.436 325 333.229 325L333.229 66.8854C333.229 64.1873 335.416 62 338.115 62C340.813 62 343 64.1873 343 66.8854L343 323.721Z" fill="#8659FF"/>
<path opacity="0.27" d="M343 71.7212C343 72.4275 342.427 73 341.721 73C343 73 340.869 73 340.094 73C339.32 73 339.193 73 338.451 73C337.708 73 333.997 73 333.229 73C334.023 73 332.461 73 333.229 73C334.023 73 332.436 73 333.229 73L333.229 66.8855C333.229 64.1873 335.416 62 338.115 62C340.813 62 343 64.1873 343 66.8854L343 71.7212Z" fill="#FF0000"/>
<path opacity="0.27" d="M464 323.721C464 324.427 463.427 325 462.721 325C464 325 461.869 325 461.094 325C460.32 325 460.193 325 459.451 325C458.708 325 454.997 325 454.229 325C455.023 325 453.461 325 454.229 325C455.023 325 453.436 325 454.229 325L454.229 70.8854C454.229 68.1873 456.416 66 459.115 66C461.813 66 464 68.1873 464 70.8854L464 323.721Z" fill="#8659FF"/>
<path opacity="0.27" d="M508 323.721C508 324.427 507.427 325 506.721 325C508 325 505.869 325 505.094 325C504.32 325 504.193 325 503.451 325C502.708 325 498.997 325 498.229 325C499.023 325 497.461 325 498.229 325C499.023 325 497.436 325 498.229 325L498.229 70.8854C498.229 68.1873 500.416 66 503.115 66C505.813 66 508 68.1873 508 70.8854L508 323.721Z" fill="#8659FF"/>
<path opacity="0.27" d="M453 323.721C453 324.427 452.427 325 451.721 325C453 325 450.869 325 450.094 325C449.32 325 449.193 325 448.451 325C447.708 325 443.997 325 443.229 325C444.023 325 442.461 325 443.229 325C444.023 325 442.436 325 443.229 325L443.229 59.8854C443.229 57.1873 445.416 55 448.115 55C450.813 55 453 57.1873 453 59.8854L453 323.721Z" fill="#8659FF"/>
<path opacity="0.27" d="M453 64.7212C453 65.4275 452.427 66 451.721 66C453 66 450.869 66 450.094 66C449.32 66 449.193 66 448.451 66C447.708 66 443.997 66 443.229 66C444.023 66 442.461 66 443.229 66C444.023 66 442.436 66 443.229 66L443.229 59.8855C443.229 57.1873 445.416 55 448.115 55C450.813 55 453 57.1873 453 59.8854L453 64.7212Z" fill="#FF0000"/>
<path opacity="0.27" d="M519 323.721C519 324.427 518.427 325 517.721 325C519 325 516.869 325 516.094 325C515.32 325 515.193 325 514.451 325C513.708 325 509.997 325 509.229 325C510.023 325 508.461 325 509.229 325C510.023 325 508.436 325 509.229 325L509.229 59.8854C509.229 57.1873 511.416 55 514.115 55C516.813 55 519 57.1873 519 59.8854L519 323.721Z" fill="#8659FF"/>
<path opacity="0.27" d="M519 64.7212C519 65.4275 518.427 66 517.721 66C519 66 516.869 66 516.094 66C515.32 66 515.193 66 514.451 66C513.708 66 509.997 66 509.229 66C510.023 66 508.461 66 509.229 66C510.023 66 508.436 66 509.229 66L509.229 59.8855C509.229 57.1873 511.416 55 514.115 55C516.813 55 519 57.1873 519 59.8854L519 64.7212Z" fill="#FF0000"/>
<path opacity="0.27" d="M475 323.721C475 324.427 474.427 325 473.721 325C475 325 472.869 325 472.094 325C471.32 325 471.193 325 470.451 325C469.708 325 465.997 325 465.229 325C466.023 325 464.461 325 465.229 325C466.023 325 464.436 325 465.229 325L465.229 66.8854C465.229 64.1873 467.416 62 470.115 62C472.813 62 475 64.1873 475 66.8854L475 323.721Z" fill="#8659FF"/>
<path opacity="0.27" d="M475 71.7212C475 72.4275 474.427 73 473.721 73C475 73 472.869 73 472.094 73C471.32 73 471.193 73 470.451 73C469.708 73 465.997 73 465.229 73C466.023 73 464.461 73 465.229 73C466.023 73 464.436 73 465.229 73L465.229 66.8855C465.229 64.1873 467.416 62 470.115 62C472.813 62 475 64.1873 475 66.8854L475 71.7212Z" fill="#FF0000"/>
<path opacity="0.27" d="M486 323.721C486 324.427 485.427 325 484.721 325C486 325 483.869 325 483.094 325C482.32 325 482.193 325 481.451 325C480.708 325 476.997 325 476.229 325C477.023 325 475.461 325 476.229 325C477.023 325 475.436 325 476.229 325L476.229 66.8854C476.229 64.1873 478.416 62 481.115 62C483.813 62 486 64.1873 486 66.8854L486 323.721Z" fill="#8659FF"/>
<path opacity="0.27" d="M486 71.7212C486 72.4275 485.427 73 484.721 73C486 73 483.869 73 483.094 73C482.32 73 482.193 73 481.451 73C480.708 73 476.997 73 476.229 73C477.023 73 475.461 73 476.229 73C477.023 73 475.436 73 476.229 73L476.229 66.8855C476.229 64.1873 478.416 62 481.115 62C483.813 62 486 64.1873 486 66.8854L486 71.7212Z" fill="#FF0000"/>
<path opacity="0.27" d="M497 323.721C497 324.427 496.427 325 495.721 325C497 325 494.869 325 494.094 325C493.32 325 493.193 325 492.451 325C491.708 325 487.997 325 487.229 325C488.023 325 486.461 325 487.229 325C488.023 325 486.436 325 487.229 325L487.229 66.8854C487.229 64.1873 489.416 62 492.115 62C494.813 62 497 64.1873 497 66.8854L497 323.721Z" fill="#8659FF"/>
<path opacity="0.27" d="M497 71.7212C497 72.4275 496.427 73 495.721 73C497 73 494.869 73 494.094 73C493.32 73 493.193 73 492.451 73C491.708 73 487.997 73 487.229 73C488.023 73 486.461 73 487.229 73C488.023 73 486.436 73 487.229 73L487.229 66.8855C487.229 64.1873 489.416 62 492.115 62C494.813 62 497 64.1873 497 66.8854L497 71.7212Z" fill="#FF0000"/>
<path opacity="0.27" d="M541 323.721C541 324.427 540.427 325 539.721 325C541 325 538.869 325 538.094 325C537.32 325 537.193 325 536.451 325C535.708 325 531.997 325 531.229 325C532.023 325 530.461 325 531.229 325C532.023 325 530.436 325 531.229 325L531.229 70.8854C531.229 68.1873 533.416 66 536.115 66C538.813 66 541 68.1873 541 70.8854L541 323.721Z" fill="#8659FF"/>
<path opacity="0.27" d="M585 323.721C585 324.427 584.427 325 583.721 325C585 325 582.869 325 582.094 325C581.32 325 581.193 325 580.451 325C579.708 325 575.997 325 575.229 325C576.023 325 574.461 325 575.229 325C576.023 325 574.436 325 575.229 325L575.229 70.8854C575.229 68.1873 577.416 66 580.115 66C582.813 66 585 68.1873 585 70.8854L585 323.721Z" fill="#8659FF"/>
<path opacity="0.27" d="M530 323.721C530 324.427 529.427 325 528.721 325C530 325 527.869 325 527.094 325C526.32 325 526.193 325 525.451 325C524.708 325 520.997 325 520.229 325C521.023 325 519.461 325 520.229 325C521.023 325 519.436 325 520.229 325L520.229 59.8854C520.229 57.1873 522.416 55 525.115 55C527.813 55 530 57.1873 530 59.8854L530 323.721Z" fill="#8659FF"/>
<path opacity="0.27" d="M530 64.7212C530 65.4275 529.427 66 528.721 66C530 66 527.869 66 527.094 66C526.32 66 526.193 66 525.451 66C524.708 66 520.997 66 520.229 66C521.023 66 519.461 66 520.229 66C521.023 66 519.436 66 520.229 66L520.229 59.8855C520.229 57.1873 522.416 55 525.115 55C527.813 55 530 57.1873 530 59.8854L530 64.7212Z" fill="#FF0000"/>
<path opacity="0.27" d="M552 323.721C552 324.427 551.427 325 550.721 325C552 325 549.869 325 549.094 325C548.32 325 548.193 325 547.451 325C546.708 325 542.997 325 542.229 325C543.023 325 541.461 325 542.229 325C543.023 325 541.436 325 542.229 325L542.229 66.8854C542.229 64.1873 544.416 62 547.115 62C549.813 62 552 64.1873 552 66.8854L552 323.721Z" fill="#8659FF"/>
<path opacity="0.27" d="M552 71.7212C552 72.4275 551.427 73 550.721 73C552 73 549.869 73 549.094 73C548.32 73 548.193 73 547.451 73C546.708 73 542.997 73 542.229 73C543.023 73 541.461 73 542.229 73C543.023 73 541.436 73 542.229 73L542.229 66.8855C542.229 64.1873 544.416 62 547.115 62C549.813 62 552 64.1873 552 66.8854L552 71.7212Z" fill="#FF0000"/>
<path opacity="0.27" d="M563 323.721C563 324.427 562.427 325 561.721 325C563 325 560.869 325 560.094 325C559.32 325 559.193 325 558.451 325C557.708 325 553.997 325 553.229 325C554.023 325 552.461 325 553.229 325C554.023 325 552.436 325 553.229 325L553.229 66.8854C553.229 64.1873 555.416 62 558.115 62C560.813 62 563 64.1873 563 66.8854L563 323.721Z" fill="#8659FF"/>
<path opacity="0.27" d="M563 71.7212C563 72.4275 562.427 73 561.721 73C563 73 560.869 73 560.094 73C559.32 73 559.193 73 558.451 73C557.708 73 553.997 73 553.229 73C554.023 73 552.461 73 553.229 73C554.023 73 552.436 73 553.229 73L553.229 66.8855C553.229 64.1873 555.416 62 558.115 62C560.813 62 563 64.1873 563 66.8854L563 71.7212Z" fill="#FF0000"/>
<path opacity="0.27" d="M574 323.721C574 324.427 573.427 325 572.721 325C574 325 571.869 325 571.094 325C570.32 325 570.193 325 569.451 325C568.708 325 564.997 325 564.229 325C565.023 325 563.461 325 564.229 325C565.023 325 563.436 325 564.229 325L564.229 66.8854C564.229 64.1873 566.416 62 569.115 62C571.813 62 574 64.1873 574 66.8854L574 323.721Z" fill="#8659FF"/>
<path opacity="0.27" d="M574 71.7212C574 72.4275 573.427 73 572.721 73C574 73 571.869 73 571.094 73C570.32 73 570.193 73 569.451 73C568.708 73 564.997 73 564.229 73C565.023 73 563.461 73 564.229 73C565.023 73 563.436 73 564.229 73L564.229 66.8855C564.229 64.1873 566.416 62 569.115 62C571.813 62 574 64.1873 574 66.8854L574 71.7212Z" fill="#FF0000"/>
</svg>
