<svg width="239" height="54" viewBox="0 0 239 54" fill="none" xmlns="http://www.w3.org/2000/svg">
<mask id="path-1-outside-1_1396_82433" maskUnits="userSpaceOnUse" x="54" y="9" width="184" height="20" fill="black">
<rect fill="white" x="54" y="9" width="184" height="20"/>
<path d="M67.6191 28H64.2549L55 10.252H59.4814L65.9307 22.6426L72.3926 10.252H76.874L67.6191 28ZM94.9268 28H90.3818L83.2598 15.2793L76.125 28H71.5801L81.5205 10.252H84.9863L94.9268 28ZM109.996 28H95.8789V10.2773H99.8525V24.0264H109.996V28ZM115.671 28H111.697V10.252H115.671V28ZM129.801 28H118.527V10.3154H129.801C131.02 10.3154 132.166 10.5482 133.241 11.0137C135.416 11.9701 136.986 13.54 137.951 15.7236C138.417 16.7985 138.649 17.9411 138.649 19.1514C138.649 20.3701 138.417 21.5169 137.951 22.5918C136.986 24.7669 135.416 26.3369 133.241 27.3018C132.166 27.7673 131.02 28 129.801 28ZM129.801 24.0264C130.698 24.0264 131.515 23.8063 132.251 23.3662C132.987 22.9261 133.576 22.3379 134.016 21.6016C134.456 20.8568 134.676 20.04 134.676 19.1514C134.676 18.2627 134.456 17.4502 134.016 16.7139C133.576 15.9775 132.987 15.3893 132.251 14.9492C131.515 14.5091 130.698 14.2891 129.801 14.2891H122.501V24.0264H129.801ZM160.765 28H156.22L149.098 15.2793L141.963 28H137.418L147.358 10.252H150.824L160.765 28ZM166.414 28H162.44V14.2256H155.979V10.252H172.863V14.2256H166.414V28ZM187.729 28H179.173C178.377 28 177.628 27.8477 176.926 27.543C175.504 26.9167 174.476 25.8883 173.841 24.458C173.545 23.764 173.396 23.0192 173.396 22.2236V16.0918C173.396 15.3047 173.545 14.5599 173.841 13.8574C174.476 12.4271 175.504 11.3988 176.926 10.7725C177.628 10.4678 178.377 10.3154 179.173 10.3154H187.729C188.517 10.3154 189.261 10.4678 189.964 10.7725C191.386 11.3988 192.414 12.4271 193.049 13.8574C193.354 14.5599 193.506 15.3047 193.506 16.0918V22.2236C193.506 23.0192 193.354 23.764 193.049 24.458C192.414 25.8883 191.386 26.9167 189.964 27.543C189.261 27.8477 188.517 28 187.729 28ZM187.729 24.0264C188.229 24.0264 188.652 23.8529 188.999 23.5059C189.346 23.1504 189.52 22.723 189.52 22.2236V16.0918C189.52 15.5924 189.346 15.1693 188.999 14.8223C188.652 14.4668 188.229 14.2891 187.729 14.2891H179.173C178.674 14.2891 178.246 14.4668 177.891 14.8223C177.544 15.1693 177.37 15.5924 177.37 16.0918V22.2236C177.37 22.723 177.544 23.1504 177.891 23.5059C178.246 23.8529 178.674 24.0264 179.173 24.0264H187.729ZM215.481 28H210.543L207.077 23.3281H199.333V28H195.359V19.3545H208.943C209.646 19.3545 210.247 19.1048 210.746 18.6055C211.245 18.1061 211.495 17.5052 211.495 16.8027C211.495 16.0918 211.245 15.4867 210.746 14.9873C210.247 14.488 209.646 14.2383 208.943 14.2383H195.359V10.252L208.943 10.2646C209.84 10.2646 210.683 10.4382 211.47 10.7852C213.078 11.4961 214.242 12.6556 214.961 14.2637C215.308 15.11 215.481 15.9564 215.481 16.8027C215.481 17.6406 215.308 18.4827 214.961 19.3291C214.267 20.8949 213.141 22.0374 211.584 22.7568L215.481 28ZM231.084 28H222.515C221.744 28 221.012 27.8604 220.318 27.5811C218.922 27.0225 217.889 26.0661 217.221 24.7119C216.899 24.0433 216.738 23.3281 216.738 22.5664H220.725C220.725 22.8796 220.818 23.1462 221.004 23.3662C221.19 23.5778 221.419 23.7386 221.689 23.8486C221.969 23.9587 222.244 24.0137 222.515 24.0137H231.084C231.355 24.0137 231.63 23.9587 231.909 23.8486C232.188 23.7386 232.421 23.5778 232.607 23.3662C232.794 23.1462 232.887 22.8796 232.887 22.5664C232.887 22.2617 232.794 22.0036 232.607 21.792C232.421 21.5719 232.188 21.4069 231.909 21.2969C231.63 21.1784 231.355 21.1191 231.084 21.1191H222.515C221.744 21.1191 221.012 20.9837 220.318 20.7129C218.922 20.1543 217.889 19.1979 217.221 17.8438C216.899 17.1751 216.738 16.46 216.738 15.6982C216.738 14.9365 216.899 14.2214 217.221 13.5527C217.889 12.1986 218.922 11.2422 220.318 10.6836C221.012 10.4128 221.744 10.2773 222.515 10.2773H231.084C231.863 10.2773 232.595 10.4128 233.28 10.6836C234.685 11.2422 235.722 12.1986 236.391 13.5527C236.704 14.2214 236.86 14.9365 236.86 15.6982H232.887C232.887 15.3936 232.794 15.1354 232.607 14.9238C232.421 14.7038 232.188 14.5387 231.909 14.4287C231.63 14.3102 231.355 14.251 231.084 14.251H222.515C222.244 14.251 221.969 14.3102 221.689 14.4287C221.419 14.5387 221.19 14.7038 221.004 14.9238C220.818 15.1354 220.725 15.3936 220.725 15.6982C220.725 16.0114 220.818 16.2738 221.004 16.4854C221.19 16.6969 221.419 16.862 221.689 16.9805C221.969 17.0905 222.244 17.1455 222.515 17.1455H231.084C231.863 17.1455 232.595 17.2852 233.28 17.5645C234.685 18.123 235.722 19.0794 236.391 20.4336C236.704 21.1022 236.86 21.8132 236.86 22.5664C236.86 23.3281 236.704 24.0433 236.391 24.7119C235.722 26.0661 234.685 27.0225 233.28 27.5811C232.595 27.8604 231.863 28 231.084 28Z"/>
</mask>
<path d="M67.6191 28V28.5H67.9223L68.0625 28.2312L67.6191 28ZM64.2549 28L63.8115 28.2312L63.9517 28.5H64.2549V28ZM55 10.252V9.75195H54.1754L54.5567 10.4831L55 10.252ZM59.4814 10.252L59.925 10.0211L59.7849 9.75195H59.4814V10.252ZM65.9307 22.6426L65.4871 22.8734L65.9302 23.7247L66.374 22.8738L65.9307 22.6426ZM72.3926 10.252V9.75195H72.0894L71.9492 10.0207L72.3926 10.252ZM76.874 10.252L77.3174 10.4831L77.6987 9.75195H76.874V10.252ZM67.6191 27.5H64.2549V28.5H67.6191V27.5ZM64.6982 27.7688L55.4433 10.0208L54.5567 10.4831L63.8115 28.2312L64.6982 27.7688ZM55 10.752H59.4814V9.75195H55V10.752ZM59.0379 10.4828L65.4871 22.8734L66.3742 22.4117L59.925 10.0211L59.0379 10.4828ZM66.374 22.8738L72.8359 10.4832L71.9492 10.0207L65.4873 22.4114L66.374 22.8738ZM72.3926 10.752H76.874V9.75195H72.3926V10.752ZM76.4307 10.0208L67.1758 27.7688L68.0625 28.2312L77.3174 10.4831L76.4307 10.0208ZM94.9268 28V28.5H95.7799L95.363 27.7557L94.9268 28ZM90.3818 28L89.9456 28.2443L90.0887 28.5H90.3818V28ZM83.2598 15.2793L83.696 15.035L83.2602 14.2565L82.8237 15.0347L83.2598 15.2793ZM76.125 28V28.5H76.4178L76.5611 28.2446L76.125 28ZM71.5801 28L71.1438 27.7557L70.727 28.5H71.5801V28ZM81.5205 10.252V9.75195H81.2275L81.0843 10.0076L81.5205 10.252ZM84.9863 10.252L85.4226 10.0076L85.2794 9.75195H84.9863V10.252ZM94.9268 27.5H90.3818V28.5H94.9268V27.5ZM90.8181 27.7557L83.696 15.035L82.8235 15.5236L89.9456 28.2443L90.8181 27.7557ZM82.8237 15.0347L75.6889 27.7554L76.5611 28.2446L83.6959 15.5239L82.8237 15.0347ZM76.125 27.5H71.5801V28.5H76.125V27.5ZM72.0163 28.2443L81.9567 10.4963L81.0843 10.0076L71.1438 27.7557L72.0163 28.2443ZM81.5205 10.752H84.9863V9.75195H81.5205V10.752ZM84.5501 10.4963L94.4905 28.2443L95.363 27.7557L85.4226 10.0076L84.5501 10.4963ZM109.996 28V28.5H110.496V28H109.996ZM95.8789 28H95.3789V28.5H95.8789V28ZM95.8789 10.2773V9.77734H95.3789V10.2773H95.8789ZM99.8525 10.2773H100.353V9.77734H99.8525V10.2773ZM99.8525 24.0264H99.3525V24.5264H99.8525V24.0264ZM109.996 24.0264H110.496V23.5264H109.996V24.0264ZM109.996 27.5H95.8789V28.5H109.996V27.5ZM96.3789 28V10.2773H95.3789V28H96.3789ZM95.8789 10.7773H99.8525V9.77734H95.8789V10.7773ZM99.3525 10.2773V24.0264H100.353V10.2773H99.3525ZM99.8525 24.5264H109.996V23.5264H99.8525V24.5264ZM109.496 24.0264V28H110.496V24.0264H109.496ZM115.671 28V28.5H116.171V28H115.671ZM111.697 28H111.197V28.5H111.697V28ZM111.697 10.252V9.75195H111.197V10.252H111.697ZM115.671 10.252H116.171V9.75195H115.671V10.252ZM115.671 27.5H111.697V28.5H115.671V27.5ZM112.197 28V10.252H111.197V28H112.197ZM111.697 10.752H115.671V9.75195H111.697V10.752ZM115.171 10.252V28H116.171V10.252H115.171ZM118.527 28H118.027V28.5H118.527V28ZM118.527 10.3154V9.81543H118.027V10.3154H118.527ZM133.241 11.0137L133.442 10.556L133.44 10.5549L133.241 11.0137ZM137.951 15.7236L138.41 15.5249L138.409 15.5216L137.951 15.7236ZM137.951 22.5918L138.408 22.7945L138.41 22.7905L137.951 22.5918ZM133.241 27.3018L133.44 27.7606L133.444 27.7588L133.241 27.3018ZM134.016 21.6016L134.445 21.8581L134.446 21.8559L134.016 21.6016ZM132.251 14.9492L131.994 15.3784L132.251 14.9492ZM122.501 14.2891V13.7891H122.001V14.2891H122.501ZM122.501 24.0264H122.001V24.5264H122.501V24.0264ZM129.801 27.5H118.527V28.5H129.801V27.5ZM119.027 28V10.3154H118.027V28H119.027ZM118.527 10.8154H129.801V9.81543H118.527V10.8154ZM129.801 10.8154C130.954 10.8154 132.033 11.0353 133.043 11.4725L133.44 10.5549C132.3 10.0611 131.085 9.81543 129.801 9.81543V10.8154ZM133.04 11.4714C135.1 12.3773 136.579 13.8557 137.494 15.9257L138.409 15.5216C137.393 13.2244 135.732 11.5629 133.442 10.556L133.04 11.4714ZM137.492 15.9223C137.93 16.9324 138.149 18.0071 138.149 19.1514H139.149C139.149 17.8751 138.904 16.6646 138.41 15.5249L137.492 15.9223ZM138.149 19.1514C138.149 20.3046 137.93 21.3835 137.492 22.3931L138.41 22.7905C138.904 21.6504 139.149 20.4356 139.149 19.1514H138.149ZM137.494 22.3891C136.58 24.4508 135.1 25.9302 133.038 26.8447L133.444 27.7588C135.732 26.7437 137.393 25.083 138.408 22.7945L137.494 22.3891ZM133.043 26.8429C132.033 27.2802 130.954 27.5 129.801 27.5V28.5C131.085 28.5 132.3 28.2543 133.44 27.7606L133.043 26.8429ZM129.801 24.5264C130.784 24.5264 131.69 24.284 132.507 23.7954L131.994 22.937C131.339 23.3286 130.612 23.5264 129.801 23.5264V24.5264ZM132.507 23.7954C133.315 23.3129 133.962 22.6654 134.445 21.8581L133.586 21.345C133.189 22.0104 132.66 22.5393 131.994 22.937L132.507 23.7954ZM134.446 21.8559C134.933 21.0319 135.176 20.127 135.176 19.1514H134.176C134.176 19.9531 133.978 20.6816 133.585 21.3472L134.446 21.8559ZM135.176 19.1514C135.176 18.1758 134.933 17.2741 134.445 16.4573L133.586 16.9704C133.978 17.6263 134.176 18.3496 134.176 19.1514H135.176ZM134.445 16.4573C133.962 15.6501 133.315 15.0025 132.507 14.52L131.994 15.3784C132.66 15.7761 133.189 16.305 133.586 16.9704L134.445 16.4573ZM132.507 14.52C131.69 14.0314 130.784 13.7891 129.801 13.7891V14.7891C130.612 14.7891 131.339 14.9868 131.994 15.3784L132.507 14.52ZM129.801 13.7891H122.501V14.7891H129.801V13.7891ZM122.001 14.2891V24.0264H123.001V14.2891H122.001ZM122.501 24.5264H129.801V23.5264H122.501V24.5264ZM160.765 28V28.5H161.618L161.201 27.7557L160.765 28ZM156.22 28L155.783 28.2443L155.927 28.5H156.22V28ZM149.098 15.2793L149.534 15.035L149.098 14.2565L148.662 15.0347L149.098 15.2793ZM141.963 28V28.5H142.256L142.399 28.2446L141.963 28ZM137.418 28L136.982 27.7557L136.565 28.5H137.418V28ZM147.358 10.252V9.75195H147.065L146.922 10.0076L147.358 10.252ZM150.824 10.252L151.26 10.0076L151.117 9.75195H150.824V10.252ZM160.765 27.5H156.22V28.5H160.765V27.5ZM156.656 27.7557L149.534 15.035L148.661 15.5236L155.783 28.2443L156.656 27.7557ZM148.662 15.0347L141.527 27.7554L142.399 28.2446L149.534 15.5239L148.662 15.0347ZM141.963 27.5H137.418V28.5H141.963V27.5ZM137.854 28.2443L147.795 10.4963L146.922 10.0076L136.982 27.7557L137.854 28.2443ZM147.358 10.752H150.824V9.75195H147.358V10.752ZM150.388 10.4963L160.328 28.2443L161.201 27.7557L151.26 10.0076L150.388 10.4963ZM166.414 28V28.5H166.914V28H166.414ZM162.44 28H161.94V28.5H162.44V28ZM162.44 14.2256H162.94V13.7256H162.44V14.2256ZM155.979 14.2256H155.479V14.7256H155.979V14.2256ZM155.979 10.252V9.75195H155.479V10.252H155.979ZM172.863 10.252H173.363V9.75195H172.863V10.252ZM172.863 14.2256V14.7256H173.363V14.2256H172.863ZM166.414 14.2256V13.7256H165.914V14.2256H166.414ZM166.414 27.5H162.44V28.5H166.414V27.5ZM162.94 28V14.2256H161.94V28H162.94ZM162.44 13.7256H155.979V14.7256H162.44V13.7256ZM156.479 14.2256V10.252H155.479V14.2256H156.479ZM155.979 10.752H172.863V9.75195H155.979V10.752ZM172.363 10.252V14.2256H173.363V10.252H172.363ZM172.863 13.7256H166.414V14.7256H172.863V13.7256ZM165.914 14.2256V28H166.914V14.2256H165.914ZM176.926 27.543L176.724 28.0006L176.727 28.0017L176.926 27.543ZM173.841 24.458L173.381 24.6543L173.384 24.6608L173.841 24.458ZM173.841 13.8574L173.384 13.6546L173.38 13.6631L173.841 13.8574ZM176.926 10.7725L176.727 10.3137L176.724 10.3149L176.926 10.7725ZM189.964 10.7725L190.165 10.3149L190.163 10.3138L189.964 10.7725ZM193.049 13.8574L193.508 13.6585L193.506 13.6546L193.049 13.8574ZM193.049 24.458L193.506 24.6608L193.507 24.659L193.049 24.458ZM189.964 27.543L190.163 28.0017L190.165 28.0005L189.964 27.543ZM188.999 23.5059L189.353 23.8594L189.357 23.8551L188.999 23.5059ZM188.999 14.8223L188.641 15.1716L188.645 15.1758L188.999 14.8223ZM177.891 14.8223L177.537 14.4687L177.891 14.8223ZM177.891 23.5059L177.533 23.8552L177.541 23.8636L177.891 23.5059ZM187.729 27.5H179.173V28.5H187.729V27.5ZM179.173 27.5C178.443 27.5 177.762 27.3606 177.125 27.0843L176.727 28.0017C177.495 28.3347 178.312 28.5 179.173 28.5V27.5ZM177.127 27.0854C175.82 26.5097 174.883 25.5727 174.298 24.2552L173.384 24.6608C174.069 26.204 175.188 27.3237 176.724 28.0005L177.127 27.0854ZM174.301 24.2617C174.032 23.6331 173.896 22.9555 173.896 22.2236H172.896C172.896 23.0829 173.057 23.8949 173.381 24.6543L174.301 24.2617ZM173.896 22.2236V16.0918H172.896V22.2236H173.896ZM173.896 16.0918C173.896 15.3692 174.032 14.6907 174.302 14.0517L173.38 13.6631C173.057 14.4291 172.896 15.2402 172.896 16.0918H173.896ZM174.298 14.0602C174.883 12.7427 175.82 11.8058 177.127 11.23L176.724 10.3149C175.188 10.9918 174.069 12.1114 173.384 13.6546L174.298 14.0602ZM177.125 11.2312C177.762 10.9548 178.443 10.8154 179.173 10.8154V9.81543C178.312 9.81543 177.495 9.98076 176.727 10.3138L177.125 11.2312ZM179.173 10.8154H187.729V9.81543H179.173V10.8154ZM187.729 10.8154C188.45 10.8154 189.127 10.9545 189.765 11.2312L190.163 10.3138C189.396 9.98106 188.583 9.81543 187.729 9.81543V10.8154ZM189.762 11.23C191.069 11.8058 192.007 12.7427 192.592 14.0602L193.506 13.6546C192.821 12.1114 191.702 10.9918 190.165 10.3149L189.762 11.23ZM192.59 14.0564C192.867 14.6943 193.006 15.3712 193.006 16.0918H194.006C194.006 15.2382 193.84 14.4255 193.508 13.6585L192.59 14.0564ZM193.006 16.0918V22.2236H194.006V16.0918H193.006ZM193.006 22.2236C193.006 22.9535 192.867 23.6295 192.591 24.257L193.507 24.659C193.841 23.8985 194.006 23.0849 194.006 22.2236H193.006ZM192.592 24.2552C192.007 25.5727 191.069 26.5097 189.762 27.0854L190.165 28.0005C191.702 27.3237 192.821 26.204 193.506 24.6608L192.592 24.2552ZM189.765 27.0843C189.127 27.3609 188.45 27.5 187.729 27.5V28.5C188.583 28.5 189.396 28.3344 190.163 28.0017L189.765 27.0843ZM187.729 24.5264C188.359 24.5264 188.91 24.302 189.353 23.8594L188.645 23.1523C188.394 23.4037 188.099 23.5264 187.729 23.5264V24.5264ZM189.357 23.8551C189.796 23.4057 190.02 22.8527 190.02 22.2236H189.02C189.02 22.5932 188.897 22.8951 188.641 23.1566L189.357 23.8551ZM190.02 22.2236V16.0918H189.02V22.2236H190.02ZM190.02 16.0918C190.02 15.4625 189.795 14.9113 189.353 14.4687L188.645 15.1758C188.897 15.4272 189.02 15.7224 189.02 16.0918H190.02ZM189.357 14.473C188.915 14.0206 188.363 13.7891 187.729 13.7891V14.7891C188.095 14.7891 188.389 14.913 188.641 15.1715L189.357 14.473ZM187.729 13.7891H179.173V14.7891H187.729V13.7891ZM179.173 13.7891C178.54 13.7891 177.986 14.0202 177.537 14.4687L178.244 15.1758C178.507 14.9134 178.807 14.7891 179.173 14.7891V13.7891ZM177.537 14.4687C177.094 14.9113 176.87 15.4625 176.87 16.0918H177.87C177.87 15.7224 177.993 15.4272 178.244 15.1758L177.537 14.4687ZM176.87 16.0918V22.2236H177.87V16.0918H176.87ZM176.87 22.2236C176.87 22.8527 177.094 23.4057 177.533 23.8551L178.248 23.1566C177.993 22.8951 177.87 22.5932 177.87 22.2236H176.87ZM177.541 23.8636C177.991 24.3024 178.544 24.5264 179.173 24.5264V23.5264C178.803 23.5264 178.501 23.4034 178.24 23.1481L177.541 23.8636ZM179.173 24.5264H187.729V23.5264H179.173V24.5264ZM215.481 28V28.5H216.476L215.883 27.7017L215.481 28ZM210.543 28L210.141 28.2979L210.291 28.5H210.543V28ZM207.077 23.3281L207.479 23.0302L207.329 22.8281H207.077V23.3281ZM199.333 23.3281V22.8281H198.833V23.3281H199.333ZM199.333 28V28.5H199.833V28H199.333ZM195.359 28H194.859V28.5H195.359V28ZM195.359 19.3545V18.8545H194.859V19.3545H195.359ZM210.746 14.9873L211.1 14.6338L210.746 14.9873ZM195.359 14.2383H194.859V14.7383H195.359V14.2383ZM195.359 10.252L195.36 9.75195L194.859 9.75149V10.252H195.359ZM208.943 10.2646L208.943 10.7646H208.943V10.2646ZM211.47 10.7852L211.672 10.3279L211.671 10.3276L211.47 10.7852ZM214.961 14.2637L215.424 14.074L215.421 14.0667L215.417 14.0595L214.961 14.2637ZM214.961 19.3291L215.418 19.5318L215.424 19.5188L214.961 19.3291ZM211.584 22.7568L211.374 22.3029L210.815 22.5611L211.183 23.0551L211.584 22.7568ZM215.481 27.5H210.543V28.5H215.481V27.5ZM210.945 27.7021L207.479 23.0302L206.676 23.626L210.141 28.2979L210.945 27.7021ZM207.077 22.8281H199.333V23.8281H207.077V22.8281ZM198.833 23.3281V28H199.833V23.3281H198.833ZM199.333 27.5H195.359V28.5H199.333V27.5ZM195.859 28V19.3545H194.859V28H195.859ZM195.359 19.8545H208.943V18.8545H195.359V19.8545ZM208.943 19.8545C209.779 19.8545 210.507 19.5516 211.1 18.959L210.393 18.2519C209.986 18.6581 209.512 18.8545 208.943 18.8545V19.8545ZM211.1 18.959C211.692 18.3665 211.995 17.6386 211.995 16.8027H210.995C210.995 17.3718 210.799 17.8458 210.393 18.2519L211.1 18.959ZM211.995 16.8027C211.995 15.9602 211.693 15.2276 211.1 14.6338L210.393 15.3409C210.797 15.7457 210.995 16.2234 210.995 16.8027H211.995ZM211.1 14.6338C210.507 14.0412 209.779 13.7383 208.943 13.7383V14.7383C209.512 14.7383 209.986 14.9347 210.393 15.3409L211.1 14.6338ZM208.943 13.7383H195.359V14.7383H208.943V13.7383ZM195.859 14.2383V10.252H194.859V14.2383H195.859ZM195.359 10.752L208.943 10.7646L208.944 9.76465L195.36 9.75195L195.359 10.752ZM208.943 10.7646C209.774 10.7646 210.547 10.9249 211.268 11.2427L211.671 10.3276C210.818 9.95142 209.907 9.76465 208.943 9.76465V10.7646ZM211.268 11.2425C212.762 11.9033 213.836 12.9725 214.505 14.4679L215.417 14.0595C214.648 12.3387 213.393 11.0889 211.672 10.3279L211.268 11.2425ZM214.498 14.4533C214.823 15.2444 214.981 16.0265 214.981 16.8027H215.981C215.981 15.8862 215.793 14.9756 215.424 14.074L214.498 14.4533ZM214.981 16.8027C214.981 17.5698 214.823 18.3477 214.498 19.1394L215.424 19.5188C215.793 18.6178 215.981 17.7114 215.981 16.8027H214.981ZM214.504 19.1265C213.859 20.581 212.822 21.6344 211.374 22.3029L211.794 23.2107C213.461 22.4405 214.675 21.2087 215.418 19.5317L214.504 19.1265ZM211.183 23.0551L215.08 28.2983L215.883 27.7017L211.985 22.4585L211.183 23.0551ZM220.318 27.5811L220.505 27.1172L220.504 27.1168L220.318 27.5811ZM217.221 24.7119L216.77 24.9287L216.772 24.9333L217.221 24.7119ZM216.738 22.5664V22.0664H216.238V22.5664H216.738ZM220.725 22.5664H221.225V22.0664H220.725V22.5664ZM221.004 23.3662L220.622 23.6892L220.629 23.6965L221.004 23.3662ZM221.689 23.8486L221.501 24.3119L221.506 24.3138L221.689 23.8486ZM232.607 23.3662L232.983 23.6966L232.989 23.6892L232.607 23.3662ZM232.607 21.792L232.226 22.115L232.232 22.1223L232.607 21.792ZM231.909 21.2969L231.714 21.7573L231.726 21.7621L231.909 21.2969ZM220.318 20.7129L220.133 21.1771L220.137 21.1787L220.318 20.7129ZM217.221 17.8438L216.77 18.0605L216.772 18.0651L217.221 17.8438ZM217.221 13.5527L216.772 13.3314L216.77 13.336L217.221 13.5527ZM220.318 10.6836L220.137 10.2178L220.133 10.2194L220.318 10.6836ZM233.28 10.6836L233.465 10.219L233.464 10.2186L233.28 10.6836ZM236.391 13.5527L236.844 13.3406L236.839 13.3314L236.391 13.5527ZM236.86 15.6982V16.1982H237.36V15.6982H236.86ZM232.887 15.6982H232.387V16.1982H232.887V15.6982ZM232.607 14.9238L232.226 15.2469L232.232 15.2541L232.607 14.9238ZM231.909 14.4287L231.714 14.8892L231.726 14.8939L231.909 14.4287ZM221.689 14.4287L221.878 14.892L221.885 14.889L221.689 14.4287ZM221.004 14.9238L221.379 15.2542L221.386 15.2468L221.004 14.9238ZM221.689 16.9805L221.489 17.4385L221.498 17.4423L221.506 17.4457L221.689 16.9805ZM233.28 17.5645L233.092 18.0275L233.096 18.0291L233.28 17.5645ZM236.391 20.4336L236.844 20.2215L236.839 20.2122L236.391 20.4336ZM236.391 24.7119L236.839 24.9333L236.843 24.924L236.391 24.7119ZM233.28 27.5811L233.096 27.1164L233.092 27.118L233.28 27.5811ZM231.084 27.5H222.515V28.5H231.084V27.5ZM222.515 27.5C221.807 27.5 221.138 27.3719 220.505 27.1172L220.132 28.0449C220.887 28.3488 221.682 28.5 222.515 28.5V27.5ZM220.504 27.1168C219.223 26.6042 218.283 25.7346 217.669 24.4906L216.772 24.9333C217.495 26.3975 218.621 27.4407 220.133 28.0453L220.504 27.1168ZM217.671 24.4952C217.383 23.896 217.238 23.2551 217.238 22.5664H216.238C216.238 23.4011 216.415 24.1906 216.77 24.9287L217.671 24.4952ZM216.738 23.0664H220.725V22.0664H216.738V23.0664ZM220.225 22.5664C220.225 22.9868 220.353 23.3708 220.622 23.6892L221.386 23.0432C221.283 22.9215 221.225 22.7723 221.225 22.5664H220.225ZM220.629 23.6965C220.868 23.9685 221.161 24.1738 221.501 24.3119L221.878 23.3854C221.676 23.3034 221.512 23.1871 221.379 23.0359L220.629 23.6965ZM221.506 24.3138C221.838 24.4444 222.175 24.5137 222.515 24.5137V23.5137C222.313 23.5137 222.1 23.473 221.873 23.3834L221.506 24.3138ZM222.515 24.5137H231.084V23.5137H222.515V24.5137ZM231.084 24.5137C231.424 24.5137 231.761 24.4444 232.092 24.3138L231.726 23.3834C231.499 23.473 231.286 23.5137 231.084 23.5137V24.5137ZM232.092 24.3138C232.441 24.1767 232.741 23.9715 232.983 23.6965L232.232 23.0359C232.102 23.1841 231.936 23.3005 231.726 23.3834L232.092 24.3138ZM232.989 23.6892C233.259 23.3708 233.387 22.9868 233.387 22.5664H232.387C232.387 22.7723 232.329 22.9215 232.226 23.0432L232.989 23.6892ZM233.387 22.5664C233.387 22.1508 233.256 21.7723 232.983 21.4617L232.232 22.1223C232.331 22.2349 232.387 22.3726 232.387 22.5664H233.387ZM232.989 21.469C232.747 21.1832 232.445 20.9707 232.092 20.8317L231.726 21.7621C231.932 21.8431 232.095 21.9606 232.226 22.115L232.989 21.469ZM232.104 20.8366C231.771 20.695 231.43 20.6191 231.084 20.6191V21.6191C231.28 21.6191 231.489 21.6617 231.714 21.7572L232.104 20.8366ZM231.084 20.6191H222.515V21.6191H231.084V20.6191ZM222.515 20.6191C221.805 20.6191 221.134 20.4946 220.5 20.2471L220.137 21.1787C220.89 21.4729 221.684 21.6191 222.515 21.6191V20.6191ZM220.504 20.2487C219.223 19.7361 218.283 18.8665 217.669 17.6224L216.772 18.0651C217.495 19.5294 218.621 20.5725 220.133 21.1771L220.504 20.2487ZM217.671 17.627C217.383 17.0279 217.238 16.387 217.238 15.6982H216.238C216.238 16.5329 216.415 17.3224 216.77 18.0605L217.671 17.627ZM217.238 15.6982C217.238 15.0095 217.383 14.3686 217.671 13.7695L216.77 13.336C216.415 14.0741 216.238 14.8635 216.238 15.6982H217.238ZM217.669 13.7741C218.283 12.53 219.223 11.6604 220.504 11.1478L220.133 10.2194C218.621 10.824 217.495 11.8671 216.772 13.3314L217.669 13.7741ZM220.5 11.1494C221.134 10.9019 221.805 10.7773 222.515 10.7773V9.77734C221.684 9.77734 220.89 9.9236 220.137 10.2178L220.5 11.1494ZM222.515 10.7773H231.084V9.77734H222.515V10.7773ZM231.084 10.7773C231.803 10.7773 232.473 10.9022 233.097 11.1486L233.464 10.2186C232.717 9.92334 231.922 9.77734 231.084 9.77734V10.7773ZM233.096 11.1482C234.386 11.6612 235.328 12.531 235.942 13.7741L236.839 13.3314C236.116 11.8662 234.985 10.8232 233.465 10.219L233.096 11.1482ZM235.938 13.7648C236.219 14.3649 236.36 15.0074 236.36 15.6982H237.36C237.36 14.8656 237.189 14.0778 236.843 13.3407L235.938 13.7648ZM236.86 15.1982H232.887V16.1982H236.86V15.1982ZM233.387 15.6982C233.387 15.2826 233.256 14.9041 232.983 14.5935L232.232 15.2541C232.331 15.3667 232.387 15.5045 232.387 15.6982H233.387ZM232.989 14.6009C232.747 14.3151 232.445 14.1025 232.092 13.9635L231.726 14.8939C231.932 14.975 232.095 15.0925 232.226 15.2468L232.989 14.6009ZM232.104 13.9684C231.771 13.8269 231.43 13.751 231.084 13.751V14.751C231.28 14.751 231.489 14.7936 231.714 14.889L232.104 13.9684ZM231.084 13.751H222.515V14.751H231.084V13.751ZM222.515 13.751C222.169 13.751 221.828 13.8269 221.494 13.9684L221.885 14.889C222.11 14.7936 222.319 14.751 222.515 14.751V13.751ZM221.501 13.9655C221.157 14.1055 220.861 14.3182 220.622 14.6009L221.386 15.2468C221.519 15.0894 221.681 14.972 221.878 14.8919L221.501 13.9655ZM220.629 14.5935C220.355 14.9041 220.225 15.2826 220.225 15.6982H221.225C221.225 15.5045 221.28 15.3667 221.379 15.2541L220.629 14.5935ZM220.225 15.6982C220.225 16.1185 220.353 16.5025 220.629 16.8157L221.379 16.155C221.282 16.0451 221.225 15.9043 221.225 15.6982H220.225ZM220.629 16.8157C220.865 17.0848 221.155 17.2922 221.489 17.4385L221.89 16.5224C221.683 16.4317 221.515 16.3091 221.379 16.155L220.629 16.8157ZM221.506 17.4457C221.838 17.5762 222.175 17.6455 222.515 17.6455V16.6455C222.313 16.6455 222.1 16.6048 221.873 16.5153L221.506 17.4457ZM222.515 17.6455H231.084V16.6455H222.515V17.6455ZM231.084 17.6455C231.801 17.6455 232.469 17.7739 233.092 18.0275L233.469 17.1014C232.72 16.7965 231.924 16.6455 231.084 16.6455V17.6455ZM233.096 18.0291C234.386 18.542 235.328 19.4118 235.942 20.655L236.839 20.2122C236.116 18.747 234.985 17.7041 233.465 17.0998L233.096 18.0291ZM235.938 20.6457C236.219 21.2465 236.36 21.8849 236.36 22.5664H237.36C237.36 21.7414 237.188 20.9579 236.843 20.2215L235.938 20.6457ZM236.36 22.5664C236.36 23.2572 236.219 23.8997 235.938 24.4998L236.843 24.924C237.189 24.1869 237.36 23.399 237.36 22.5664H236.36ZM235.942 24.4906C235.328 25.7337 234.386 26.6035 233.096 27.1164L233.465 28.0457C234.985 27.4414 236.116 26.3985 236.839 24.9333L235.942 24.4906ZM233.092 27.118C232.469 27.3716 231.801 27.5 231.084 27.5V28.5C231.924 28.5 232.72 28.3491 233.469 28.0441L233.092 27.118Z" fill="black" mask="url(#path-1-outside-1_1396_82433)"/>
<mask id="path-3-outside-2_1396_82433" maskUnits="userSpaceOnUse" x="55" y="39" width="185" height="10" fill="black">
<rect fill="white" x="55" y="39" width="185" height="10"/>
<path d="M57.4199 48H55.5859V44.0098H61.8555C62.1836 44.0098 62.4629 43.8945 62.6934 43.6641C62.9238 43.4336 63.0391 43.1562 63.0391 42.832C63.0391 42.5039 62.9238 42.2246 62.6934 41.9941C62.4629 41.7637 62.1836 41.6484 61.8555 41.6484H55.5859V39.8086L61.8555 39.8145C62.2695 39.8145 62.6602 39.8945 63.0273 40.0547C63.7695 40.3828 64.3047 40.918 64.6328 41.6602C64.793 42.0273 64.873 42.418 64.873 42.832C64.873 43.2422 64.793 43.6309 64.6328 43.998C64.3047 44.7402 63.7695 45.2754 63.0273 45.6035C62.6602 45.7637 62.2695 45.8438 61.8555 45.8438H57.4199V48ZM75.2202 48H72.9409L71.3413 45.8438H67.7671V48H65.9331V44.0098H72.2027C72.5269 44.0098 72.8042 43.8945 73.0347 43.6641C73.2652 43.4336 73.3804 43.1562 73.3804 42.832C73.3804 42.5039 73.2652 42.2246 73.0347 41.9941C72.8042 41.7637 72.5269 41.6484 72.2027 41.6484H65.9331V39.8086L72.2027 39.8145C72.6167 39.8145 73.0054 39.8945 73.3687 40.0547C74.1109 40.3828 74.648 40.918 74.98 41.6602C75.1402 42.0508 75.2202 42.4414 75.2202 42.832C75.2202 43.2188 75.1402 43.6074 74.98 43.998C74.6597 44.7207 74.1402 45.248 73.4214 45.5801L75.2202 48ZM83.1182 48H79.169C78.8018 48 78.4561 47.9297 78.1319 47.7891C77.4756 47.5 77.001 47.0254 76.708 46.3652C76.5713 46.0449 76.503 45.7012 76.503 45.334V42.5039C76.503 42.1406 76.5713 41.7969 76.708 41.4727C77.001 40.8125 77.4756 40.3379 78.1319 40.0488C78.4561 39.9082 78.8018 39.8379 79.169 39.8379H83.1182C83.4815 39.8379 83.8252 39.9082 84.1495 40.0488C84.8057 40.3379 85.2803 40.8125 85.5733 41.4727C85.7139 41.7969 85.7842 42.1406 85.7842 42.5039V45.334C85.7842 45.7012 85.7139 46.0449 85.5733 46.3652C85.2803 47.0254 84.8057 47.5 84.1495 47.7891C83.8252 47.9297 83.4815 48 83.1182 48ZM83.1182 46.166C83.3487 46.166 83.544 46.0859 83.7041 45.9258C83.8643 45.7617 83.9444 45.5645 83.9444 45.334V42.5039C83.9444 42.2734 83.8643 42.0781 83.7041 41.918C83.544 41.7539 83.3487 41.6719 83.1182 41.6719H79.169C78.9385 41.6719 78.7412 41.7539 78.5772 41.918C78.417 42.0781 78.337 42.2734 78.337 42.5039V45.334C78.337 45.5645 78.417 45.7617 78.5772 45.9258C78.7412 46.0859 78.9385 46.166 79.169 46.166H83.1182ZM92.6627 48H87.4595V39.8379H92.6627C93.2252 39.8379 93.7545 39.9453 94.2505 40.1602C95.2545 40.6016 95.9791 41.3262 96.4244 42.334C96.6392 42.8301 96.7466 43.3574 96.7466 43.916C96.7466 44.4785 96.6392 45.0078 96.4244 45.5039C95.9791 46.5078 95.2545 47.2324 94.2505 47.6777C93.7545 47.8926 93.2252 48 92.6627 48ZM92.6627 46.166C93.0767 46.166 93.4537 46.0645 93.7935 45.8613C94.1334 45.6582 94.4048 45.3867 94.608 45.0469C94.8111 44.7031 94.9127 44.3262 94.9127 43.916C94.9127 43.5059 94.8111 43.1309 94.608 42.791C94.4048 42.4512 94.1334 42.1797 93.7935 41.9766C93.4537 41.7734 93.0767 41.6719 92.6627 41.6719H89.2935V46.166H92.6627ZM104.75 48H100.801C100.434 48 100.09 47.9297 99.7696 47.7891C99.1134 47.5 98.6387 47.0254 98.3458 46.3652C98.2052 46.0449 98.1348 45.7012 98.1348 45.334V39.832H99.9688V45.334C99.9688 45.5645 100.049 45.7617 100.209 45.9258C100.373 46.0859 100.57 46.166 100.801 46.166H104.75C104.977 46.166 105.172 46.084 105.336 45.9199C105.5 45.7559 105.582 45.5605 105.582 45.334V39.832H107.416V45.334C107.416 45.7012 107.346 46.0469 107.205 46.3711C106.916 47.0273 106.443 47.5 105.787 47.7891C105.463 47.9297 105.117 48 104.75 48ZM115.589 48H111.64C111.273 48 110.929 47.9316 110.609 47.7949C109.949 47.502 109.474 47.0273 109.185 46.3711C109.045 46.0469 108.974 45.7012 108.974 45.334V42.5039C108.974 42.1406 109.045 41.7969 109.185 41.4727C109.474 40.8164 109.949 40.3418 110.609 40.0488C110.929 39.9082 111.273 39.8379 111.64 39.8379H115.589C115.957 39.8379 116.302 39.9082 116.627 40.0488C117.283 40.3418 117.757 40.8164 118.05 41.4727C118.187 41.7969 118.255 42.1406 118.255 42.5039H116.421C116.421 42.2734 116.339 42.0781 116.175 41.918C116.015 41.7578 115.82 41.6777 115.589 41.6777H111.64C111.41 41.6777 111.213 41.7578 111.048 41.918C110.888 42.0781 110.808 42.2734 110.808 42.5039V45.334C110.808 45.5645 110.888 45.7617 111.048 45.9258C111.213 46.0859 111.41 46.166 111.64 46.166H115.589C115.82 46.166 116.015 46.0859 116.175 45.9258C116.339 45.7617 116.421 45.5645 116.421 45.334H118.255C118.255 45.7012 118.187 46.0469 118.05 46.3711C117.757 47.0273 117.283 47.502 116.627 47.7949C116.302 47.9316 115.957 48 115.589 48ZM123.997 48H122.163V41.6426H119.181V39.8086H126.974V41.6426H123.997V48ZM138.697 48H134.748C134.381 48 134.035 47.9297 133.711 47.7891C133.055 47.5 132.58 47.0254 132.287 46.3652C132.151 46.0449 132.082 45.7012 132.082 45.334V42.5039C132.082 42.1406 132.151 41.7969 132.287 41.4727C132.58 40.8125 133.055 40.3379 133.711 40.0488C134.035 39.9082 134.381 39.8379 134.748 39.8379H138.697C139.061 39.8379 139.404 39.9082 139.729 40.0488C140.385 40.3379 140.86 40.8125 141.152 41.4727C141.293 41.7969 141.363 42.1406 141.363 42.5039V45.334C141.363 45.7012 141.293 46.0449 141.152 46.3652C140.86 47.0254 140.385 47.5 139.729 47.7891C139.404 47.9297 139.061 48 138.697 48ZM138.697 46.166C138.928 46.166 139.123 46.0859 139.283 45.9258C139.444 45.7617 139.524 45.5645 139.524 45.334V42.5039C139.524 42.2734 139.444 42.0781 139.283 41.918C139.123 41.7539 138.928 41.6719 138.697 41.6719H134.748C134.518 41.6719 134.32 41.7539 134.156 41.918C133.996 42.0781 133.916 42.2734 133.916 42.5039V45.334C133.916 45.5645 133.996 45.7617 134.156 45.9258C134.32 46.0859 134.518 46.166 134.748 46.166H138.697ZM144.879 48H143.039V42.9727H150.832V44.8066H144.879V48ZM152.326 41.6426H143.039V39.8086H152.326V41.6426ZM166.727 48H164.448L162.848 45.8438H159.274V48H157.44V44.0098H163.71C164.034 44.0098 164.311 43.8945 164.542 43.6641C164.772 43.4336 164.887 43.1562 164.887 42.832C164.887 42.5039 164.772 42.2246 164.542 41.9941C164.311 41.7637 164.034 41.6484 163.71 41.6484H157.44V39.8086L163.71 39.8145C164.124 39.8145 164.512 39.8945 164.876 40.0547C165.618 40.3828 166.155 40.918 166.487 41.6602C166.647 42.0508 166.727 42.4414 166.727 42.832C166.727 43.2188 166.647 43.6074 166.487 43.998C166.167 44.7207 165.647 45.248 164.928 45.5801L166.727 48ZM178.422 48H176.324L173.037 42.1289L169.744 48H167.647L172.235 39.8086H173.834L178.422 48ZM190.123 48H188.289V42.6445L185.482 46.6523H183.982L181.181 42.6445V48H179.342V39.8086H181.422L184.732 44.5371L188.043 39.8086H190.123V48ZM200.956 48H191.669V46.166H200.956V48ZM200.956 41.6719H191.669V39.8379H200.956V41.6719ZM200.206 44.8359H192.413V43.002H200.206V44.8359ZM208.673 48H204.718C204.362 48 204.024 47.9355 203.704 47.8066C203.059 47.5488 202.583 47.1074 202.274 46.4824C202.126 46.1738 202.052 45.8438 202.052 45.4922H203.891C203.891 45.6367 203.934 45.7598 204.02 45.8613C204.106 45.959 204.212 46.0332 204.337 46.084C204.466 46.1348 204.593 46.1602 204.718 46.1602H208.673C208.798 46.1602 208.925 46.1348 209.054 46.084C209.182 46.0332 209.29 45.959 209.376 45.8613C209.462 45.7598 209.505 45.6367 209.505 45.4922C209.505 45.3516 209.462 45.2324 209.376 45.1348C209.29 45.0332 209.182 44.957 209.054 44.9062C208.925 44.8516 208.798 44.8242 208.673 44.8242H204.718C204.362 44.8242 204.024 44.7617 203.704 44.6367C203.059 44.3789 202.583 43.9375 202.274 43.3125C202.126 43.0039 202.052 42.6738 202.052 42.3223C202.052 41.9707 202.126 41.6406 202.274 41.332C202.583 40.707 203.059 40.2656 203.704 40.0078C204.024 39.8828 204.362 39.8203 204.718 39.8203H208.673C209.032 39.8203 209.37 39.8828 209.686 40.0078C210.335 40.2656 210.813 40.707 211.122 41.332C211.266 41.6406 211.339 41.9707 211.339 42.3223H209.505C209.505 42.1816 209.462 42.0625 209.376 41.9648C209.29 41.8633 209.182 41.7871 209.054 41.7363C208.925 41.6816 208.798 41.6543 208.673 41.6543H204.718C204.593 41.6543 204.466 41.6816 204.337 41.7363C204.212 41.7871 204.106 41.8633 204.02 41.9648C203.934 42.0625 203.891 42.1816 203.891 42.3223C203.891 42.4668 203.934 42.5879 204.02 42.6855C204.106 42.7832 204.212 42.8594 204.337 42.9141C204.466 42.9648 204.593 42.9902 204.718 42.9902H208.673C209.032 42.9902 209.37 43.0547 209.686 43.1836C210.335 43.4414 210.813 43.8828 211.122 44.5078C211.266 44.8164 211.339 45.1445 211.339 45.4922C211.339 45.8438 211.266 46.1738 211.122 46.4824C210.813 47.1074 210.335 47.5488 209.686 47.8066C209.37 47.9355 209.032 48 208.673 48ZM217.168 48H215.334V41.6426H212.352V39.8086H220.145V41.6426H217.168V48ZM226.18 48H224.346V41.6426H221.363V39.8086H229.156V41.6426H226.18V48ZM238.267 48H236.169L232.882 42.1289L229.589 48H227.492L232.079 39.8086H233.679L238.267 48Z"/>
</mask>
<path d="M57.4199 48V48.5H57.9199V48H57.4199ZM55.5859 48H55.0859V48.5H55.5859V48ZM55.5859 44.0098V43.5098H55.0859V44.0098H55.5859ZM55.5859 41.6484H55.0859V42.1484H55.5859V41.6484ZM55.5859 39.8086L55.5864 39.3086L55.0859 39.3081V39.8086H55.5859ZM61.8555 39.8145L61.855 40.3145H61.8555V39.8145ZM63.0273 40.0547L63.2295 39.5974L63.2272 39.5964L63.0273 40.0547ZM64.6328 41.6602L65.0911 41.4603L65.0901 41.458L64.6328 41.6602ZM64.6328 43.998L65.0901 44.2002L65.0911 44.1979L64.6328 43.998ZM63.0273 45.6035L63.2272 46.0618L63.2295 46.0608L63.0273 45.6035ZM57.4199 45.8438V45.3438H56.9199V45.8438H57.4199ZM57.4199 47.5H55.5859V48.5H57.4199V47.5ZM56.0859 48V44.0098H55.0859V48H56.0859ZM55.5859 44.5098H61.8555V43.5098H55.5859V44.5098ZM61.8555 44.5098C62.3152 44.5098 62.722 44.3426 63.0469 44.0176L62.3398 43.3105C62.2038 43.4465 62.052 43.5098 61.8555 43.5098V44.5098ZM63.0469 44.0176C63.3706 43.6939 63.5391 43.2896 63.5391 42.832H62.5391C62.5391 43.0229 62.4771 43.1733 62.3398 43.3105L63.0469 44.0176ZM63.5391 42.832C63.5391 42.3723 63.3719 41.9655 63.0469 41.6406L62.3398 42.3477C62.4758 42.4837 62.5391 42.6355 62.5391 42.832H63.5391ZM63.0469 41.6406C62.722 41.3156 62.3152 41.1484 61.8555 41.1484V42.1484C62.052 42.1484 62.2038 42.2117 62.3398 42.3477L63.0469 41.6406ZM61.8555 41.1484H55.5859V42.1484H61.8555V41.1484ZM56.0859 41.6484V39.8086H55.0859V41.6484H56.0859ZM55.5855 40.3086L61.855 40.3145L61.8559 39.3145L55.5864 39.3086L55.5855 40.3086ZM61.8555 40.3145C62.2031 40.3145 62.5254 40.3813 62.8274 40.513L63.2272 39.5964C62.7949 39.4078 62.336 39.3145 61.8555 39.3145V40.3145ZM62.8252 40.512C63.4535 40.7898 63.8977 41.234 64.1755 41.8623L65.0901 41.458C64.7117 40.602 64.0855 39.9758 63.2295 39.5974L62.8252 40.512ZM64.1745 41.8601C64.3062 42.1621 64.373 42.4844 64.373 42.832H65.373C65.373 42.3515 65.2797 41.8926 65.0911 41.4603L64.1745 41.8601ZM64.373 42.832C64.373 43.1751 64.3065 43.4955 64.1745 43.7981L65.0911 44.1979C65.2794 43.7662 65.373 43.3093 65.373 42.832H64.373ZM64.1755 43.7959C63.8977 44.4242 63.4535 44.8684 62.8252 45.1462L63.2295 46.0608C64.0855 45.6824 64.7117 45.0562 65.0901 44.2002L64.1755 43.7959ZM62.8274 45.1452C62.5254 45.2769 62.2031 45.3438 61.8555 45.3438V46.3438C62.336 46.3438 62.7949 46.2504 63.2272 46.0618L62.8274 45.1452ZM61.8555 45.3438H57.4199V46.3438H61.8555V45.3438ZM56.9199 45.8438V48H57.9199V45.8438H56.9199ZM75.2202 48V48.5H76.2149L75.6215 47.7017L75.2202 48ZM72.9409 48L72.5394 48.2979L72.6893 48.5H72.9409V48ZM71.3413 45.8438L71.7429 45.5458L71.593 45.3438H71.3413V45.8438ZM67.7671 45.8438V45.3438H67.2671V45.8438H67.7671ZM67.7671 48V48.5H68.2671V48H67.7671ZM65.9331 48H65.4331V48.5H65.9331V48ZM65.9331 44.0098V43.5098H65.4331V44.0098H65.9331ZM65.9331 41.6484H65.4331V42.1484H65.9331V41.6484ZM65.9331 39.8086L65.9336 39.3086L65.4331 39.3081V39.8086H65.9331ZM72.2027 39.8145L72.2022 40.3145H72.2027V39.8145ZM73.3687 40.0547L73.5708 39.5974L73.5704 39.5972L73.3687 40.0547ZM74.98 41.6602L75.4426 41.4705L75.4396 41.4632L75.4364 41.456L74.98 41.6602ZM74.98 43.998L75.4373 44.2007L75.4426 44.1877L74.98 43.998ZM73.4214 45.5801L73.2117 45.1262L72.6529 45.3843L73.0201 45.8784L73.4214 45.5801ZM75.2202 47.5H72.9409V48.5H75.2202V47.5ZM73.3425 47.7021L71.7429 45.5458L70.9398 46.1417L72.5394 48.2979L73.3425 47.7021ZM71.3413 45.3438H67.7671V46.3438H71.3413V45.3438ZM67.2671 45.8438V48H68.2671V45.8438H67.2671ZM67.7671 47.5H65.9331V48.5H67.7671V47.5ZM66.4331 48V44.0098H65.4331V48H66.4331ZM65.9331 44.5098H72.2027V43.5098H65.9331V44.5098ZM72.2027 44.5098C72.6603 44.5098 73.0646 44.3413 73.3882 44.0176L72.6811 43.3105C72.5439 43.4478 72.3935 43.5098 72.2027 43.5098V44.5098ZM73.3882 44.0176C73.7119 43.6939 73.8804 43.2896 73.8804 42.832H72.8804C72.8804 43.0229 72.8184 43.1733 72.6811 43.3105L73.3882 44.0176ZM73.8804 42.832C73.8804 42.3723 73.7132 41.9655 73.3882 41.6406L72.6811 42.3477C72.8171 42.4837 72.8804 42.6355 72.8804 42.832H73.8804ZM73.3882 41.6406C73.0646 41.3169 72.6603 41.1484 72.2027 41.1484V42.1484C72.3935 42.1484 72.5439 42.2104 72.6811 42.3477L73.3882 41.6406ZM72.2027 41.1484H65.9331V42.1484H72.2027V41.1484ZM66.4331 41.6484V39.8086H65.4331V41.6484H66.4331ZM65.9327 40.3086L72.2022 40.3145L72.2031 39.3145L65.9336 39.3086L65.9327 40.3086ZM72.2027 40.3145C72.5503 40.3145 72.87 40.3813 73.167 40.5122L73.5704 39.5972C73.1408 39.4078 72.6831 39.3145 72.2027 39.3145V40.3145ZM73.1665 40.512C73.7953 40.79 74.242 41.2348 74.5236 41.8643L75.4364 41.456C75.054 40.6011 74.4264 39.9756 73.5708 39.5974L73.1665 40.512ZM74.5174 41.8498C74.6549 42.1852 74.7202 42.5116 74.7202 42.832H75.7202C75.7202 42.3713 75.6255 41.9164 75.4426 41.4705L74.5174 41.8498ZM74.7202 42.832C74.7202 43.148 74.6551 43.4724 74.5174 43.8084L75.4426 44.1877C75.6252 43.7425 75.7202 43.2895 75.7202 42.832H74.7202ZM74.5229 43.7954C74.2519 44.4069 73.8204 44.845 73.2117 45.1262L73.6311 46.034C74.4599 45.6511 75.0675 45.0345 75.4371 44.2007L74.5229 43.7954ZM73.0201 45.8784L74.819 48.2983L75.6215 47.7017L73.8227 45.2818L73.0201 45.8784ZM78.1319 47.7891L77.9303 48.2466L77.9329 48.2478L78.1319 47.7891ZM76.708 46.3652L76.2481 46.5615L76.251 46.5681L76.708 46.3652ZM76.708 41.4727L76.2509 41.2698L76.2473 41.2784L76.708 41.4727ZM78.1319 40.0488L77.9329 39.5901L77.9303 39.5913L78.1319 40.0488ZM84.1495 40.0488L84.351 39.5912L84.3484 39.5901L84.1495 40.0488ZM85.5733 41.4727L86.032 41.2737L86.0303 41.2698L85.5733 41.4727ZM85.5733 46.3652L86.0303 46.5681L86.0311 46.5662L85.5733 46.3652ZM84.1495 47.7891L84.3484 48.2478L84.351 48.2466L84.1495 47.7891ZM83.7041 45.9258L84.0577 46.2794L84.0619 46.275L83.7041 45.9258ZM83.7041 41.918L83.3463 42.2673L83.3506 42.2715L83.7041 41.918ZM78.5772 45.9258L78.2193 46.2752L78.2279 46.2836L78.5772 45.9258ZM83.1182 47.5H79.169V48.5H83.1182V47.5ZM79.169 47.5C78.8675 47.5 78.5898 47.4427 78.3308 47.3304L77.9329 48.2478C78.3224 48.4167 78.7361 48.5 79.169 48.5V47.5ZM78.3334 47.3315C77.792 47.093 77.408 46.7097 77.1651 46.1624L76.251 46.5681C76.5941 47.3411 77.1593 47.907 77.9303 48.2466L78.3334 47.3315ZM77.1679 46.169C77.0591 45.914 77.003 45.6374 77.003 45.334H76.003C76.003 45.7649 76.0836 46.1758 76.2482 46.5615L77.1679 46.169ZM77.003 45.334V42.5039H76.003V45.334H77.003ZM77.003 42.5039C77.003 42.2051 77.0588 41.9277 77.1688 41.6669L76.2473 41.2784C76.0838 41.6661 76.003 42.0761 76.003 42.5039H77.003ZM77.1651 41.6755C77.408 41.1282 77.792 40.7449 78.3334 40.5064L77.9303 39.5913C77.1593 39.9309 76.5941 40.4968 76.251 41.2698L77.1651 41.6755ZM78.3308 40.5075C78.5898 40.3952 78.8675 40.3379 79.169 40.3379V39.3379C78.7361 39.3379 78.3224 39.4212 77.9329 39.5901L78.3308 40.5075ZM79.169 40.3379H83.1182V39.3379H79.169V40.3379ZM83.1182 40.3379C83.415 40.3379 83.6908 40.3949 83.9505 40.5075L84.3484 39.5901C83.9596 39.4215 83.548 39.3379 83.1182 39.3379V40.3379ZM83.9479 40.5064C84.4894 40.7449 84.8734 41.1282 85.1163 41.6755L86.0303 41.2698C85.6872 40.4968 85.1221 39.9309 84.351 39.5913L83.9479 40.5064ZM85.1146 41.6716C85.2272 41.9313 85.2842 42.2071 85.2842 42.5039H86.2842C86.2842 42.0741 86.2006 41.6625 86.032 41.2737L85.1146 41.6716ZM85.2842 42.5039V45.334H86.2842V42.5039H85.2842ZM85.2842 45.334C85.2842 45.6355 85.2269 45.9104 85.1155 46.1642L86.0311 46.5662C86.2009 46.1794 86.2842 45.7669 86.2842 45.334H85.2842ZM85.1163 46.1624C84.8734 46.7097 84.4894 47.093 83.9479 47.3315L84.351 48.2466C85.1221 47.907 85.6872 47.3411 86.0303 46.5681L85.1163 46.1624ZM83.9505 47.3304C83.6908 47.443 83.415 47.5 83.1182 47.5V48.5C83.548 48.5 83.9596 48.4164 84.3484 48.2478L83.9505 47.3304ZM83.1182 46.666C83.4787 46.666 83.8019 46.5351 84.0577 46.2793L83.3506 45.5722C83.286 45.6368 83.2187 45.666 83.1182 45.666V46.666ZM84.0619 46.275C84.3138 46.017 84.4444 45.6942 84.4444 45.334H83.4444C83.4444 45.4347 83.4148 45.5064 83.3464 45.5765L84.0619 46.275ZM84.4444 45.334V42.5039H83.4444V45.334H84.4444ZM84.4444 42.5039C84.4444 42.1434 84.3134 41.8202 84.0577 41.5644L83.3506 42.2715C83.4151 42.3361 83.4444 42.4034 83.4444 42.5039H84.4444ZM84.0619 41.5687C83.8071 41.3077 83.4826 41.1719 83.1182 41.1719V42.1719C83.2148 42.1719 83.2808 42.2001 83.3464 42.2672L84.0619 41.5687ZM83.1182 41.1719H79.169V42.1719H83.1182V41.1719ZM79.169 41.1719C78.8049 41.1719 78.4808 41.3073 78.2236 41.5644L78.9307 42.2715C79.0017 42.2005 79.0721 42.1719 79.169 42.1719V41.1719ZM78.2236 41.5644C77.9679 41.8202 77.837 42.1434 77.837 42.5039H78.837C78.837 42.4034 78.8662 42.3361 78.9307 42.2715L78.2236 41.5644ZM77.837 42.5039V45.334H78.837V42.5039H77.837ZM77.837 45.334C77.837 45.6942 77.9675 46.017 78.2194 46.275L78.935 45.5765C78.8665 45.5064 78.837 45.4347 78.837 45.334H77.837ZM78.2279 46.2836C78.4859 46.5354 78.8088 46.666 79.169 46.666V45.666C79.0683 45.666 78.9966 45.6364 78.9265 45.568L78.2279 46.2836ZM79.169 46.666H83.1182V45.666H79.169V46.666ZM87.4595 48H86.9595V48.5H87.4595V48ZM87.4595 39.8379V39.3379H86.9595V39.8379H87.4595ZM94.2505 40.1602L94.4518 39.7024L94.4492 39.7013L94.2505 40.1602ZM96.4244 42.334L96.8832 42.1353L96.8817 42.1319L96.4244 42.334ZM96.4244 45.5039L96.8814 45.7067L96.8832 45.7026L96.4244 45.5039ZM94.2505 47.6777L94.4493 48.1366L94.4533 48.1348L94.2505 47.6777ZM94.608 45.0469L95.0372 45.3034L95.0384 45.3012L94.608 45.0469ZM89.2935 41.6719V41.1719H88.7935V41.6719H89.2935ZM89.2935 46.166H88.7935V46.666H89.2935V46.166ZM92.6627 47.5H87.4595V48.5H92.6627V47.5ZM87.9595 48V39.8379H86.9595V48H87.9595ZM87.4595 40.3379H92.6627V39.3379H87.4595V40.3379ZM92.6627 40.3379C93.1596 40.3379 93.621 40.4324 94.0518 40.619L94.4492 39.7013C93.8879 39.4582 93.2907 39.3379 92.6627 39.3379V40.3379ZM94.0493 40.6179C94.9383 41.0088 95.5719 41.6419 95.967 42.5361L96.8817 42.1319C96.3862 41.0105 95.5706 40.1944 94.4518 39.7024L94.0493 40.6179ZM95.9656 42.5327C96.1523 42.964 96.2466 43.4234 96.2466 43.916H97.2466C97.2466 43.2914 97.1261 42.6962 96.8832 42.1353L95.9656 42.5327ZM96.2466 43.916C96.2466 44.413 96.1521 44.8744 95.9656 45.3052L96.8832 45.7026C97.1263 45.1412 97.2466 44.544 97.2466 43.916H96.2466ZM95.9673 45.3012C95.5723 46.1917 94.9383 46.8257 94.0478 47.2207L94.4533 48.1348C95.5706 47.6392 96.3858 46.8239 96.8814 45.7066L95.9673 45.3012ZM94.0518 47.2189C93.621 47.4055 93.1596 47.5 92.6627 47.5V48.5C93.2907 48.5 93.8879 48.3797 94.4492 48.1366L94.0518 47.2189ZM92.6627 46.666C93.1627 46.666 93.629 46.5421 94.05 46.2905L93.537 45.4321C93.2783 45.5868 92.9907 45.666 92.6627 45.666V46.666ZM94.05 46.2905C94.4608 46.045 94.7916 45.7142 95.0372 45.3034L94.1788 44.7904C94.0181 45.0593 93.8059 45.2714 93.537 45.4321L94.05 46.2905ZM95.0384 45.3012C95.2884 44.8783 95.4127 44.4131 95.4127 43.916H94.4127C94.4127 44.2392 94.3338 44.528 94.1775 44.7925L95.0384 45.3012ZM95.4127 43.916C95.4127 43.4189 95.2883 42.9547 95.0372 42.5345L94.1788 43.0475C94.3339 43.307 94.4127 43.5928 94.4127 43.916H95.4127ZM95.0372 42.5345C94.7916 42.1237 94.4608 41.7929 94.05 41.5474L93.537 42.4057C93.8059 42.5665 94.0181 42.7786 94.1788 43.0475L95.0372 42.5345ZM94.05 41.5474C93.629 41.2957 93.1627 41.1719 92.6627 41.1719V42.1719C92.9907 42.1719 93.2783 42.2511 93.537 42.4057L94.05 41.5474ZM92.6627 41.1719H89.2935V42.1719H92.6627V41.1719ZM88.7935 41.6719V46.166H89.7935V41.6719H88.7935ZM89.2935 46.666H92.6627V45.666H89.2935V46.666ZM99.7696 47.7891L99.5681 48.2466L99.5686 48.2469L99.7696 47.7891ZM98.3458 46.3652L97.888 46.5662L97.8888 46.5681L98.3458 46.3652ZM98.1348 39.832V39.332H97.6348V39.832H98.1348ZM99.9688 39.832H100.469V39.332H99.9688V39.832ZM100.209 45.9258L99.8512 46.2752L99.8598 46.2836L100.209 45.9258ZM105.582 39.832V39.332H105.082V39.832H105.582ZM107.416 39.832H107.916V39.332H107.416V39.832ZM107.205 46.3711L107.663 46.5726L107.664 46.5701L107.205 46.3711ZM105.787 47.7891L105.986 48.2478L105.989 48.2466L105.787 47.7891ZM104.75 47.5H100.801V48.5H104.75V47.5ZM100.801 47.5C100.499 47.5 100.224 47.4427 99.9706 47.3312L99.5686 48.2469C99.9554 48.4167 100.368 48.5 100.801 48.5V47.5ZM99.9712 47.3315C99.4297 47.093 99.0457 46.7097 98.8028 46.1624L97.8888 46.5681C98.2318 47.3411 98.797 47.907 99.5681 48.2466L99.9712 47.3315ZM98.8036 46.1642C98.6922 45.9104 98.6348 45.6355 98.6348 45.334H97.6348C97.6348 45.7669 97.7181 46.1794 97.888 46.5662L98.8036 46.1642ZM98.6348 45.334V39.832H97.6348V45.334H98.6348ZM98.1348 40.332H99.9688V39.332H98.1348V40.332ZM99.4688 39.832V45.334H100.469V39.832H99.4688ZM99.4688 45.334C99.4688 45.6942 99.5994 46.017 99.8513 46.275L100.567 45.5765C100.498 45.5064 100.469 45.4347 100.469 45.334H99.4688ZM99.8598 46.2836C100.118 46.5354 100.441 46.666 100.801 46.666V45.666C100.7 45.666 100.628 45.6364 100.558 45.568L99.8598 46.2836ZM100.801 46.666H104.75V45.666H100.801V46.666ZM104.75 46.666C105.113 46.666 105.434 46.5288 105.69 46.2735L104.982 45.5664C104.91 45.6392 104.84 45.666 104.75 45.666V46.666ZM105.69 46.2735C105.945 46.0182 106.082 45.6967 106.082 45.334H105.082C105.082 45.4244 105.055 45.4935 104.982 45.5664L105.69 46.2735ZM106.082 45.334V39.832H105.082V45.334H106.082ZM105.582 40.332H107.416V39.332H105.582V40.332ZM106.916 39.832V45.334H107.916V39.832H106.916ZM106.916 45.334C106.916 45.6355 106.859 45.9132 106.746 46.1721L107.664 46.5701C107.833 46.1806 107.916 45.7669 107.916 45.334H106.916ZM106.748 46.1695C106.509 46.7115 106.128 47.0928 105.586 47.3315L105.989 48.2466C106.759 47.9072 107.323 47.3432 107.663 46.5726L106.748 46.1695ZM105.588 47.3304C105.329 47.4427 105.052 47.5 104.75 47.5V48.5C105.183 48.5 105.597 48.4167 105.986 48.2478L105.588 47.3304ZM110.609 47.7949L110.406 48.252L110.413 48.2548L110.609 47.7949ZM109.185 46.3711L108.726 46.5701L108.728 46.5726L109.185 46.3711ZM109.185 41.4727L108.728 41.2711L108.726 41.2737L109.185 41.4727ZM110.609 40.0488L110.408 39.591L110.406 39.5918L110.609 40.0488ZM116.627 40.0488L116.83 39.5922L116.826 39.5901L116.627 40.0488ZM118.05 41.4727L118.511 41.2783L118.507 41.2688L118.05 41.4727ZM118.255 42.5039V43.0039H118.755V42.5039H118.255ZM116.421 42.5039H115.921V43.0039H116.421V42.5039ZM116.175 41.918L115.822 42.2715L115.826 42.2758L116.175 41.918ZM111.048 41.918L110.699 41.5602L110.695 41.5644L111.048 41.918ZM111.048 45.9258L110.691 46.2752L110.699 46.2836L111.048 45.9258ZM116.421 45.334V44.834H115.921V45.334H116.421ZM118.255 45.334H118.755V44.834H118.255V45.334ZM118.05 46.3711L118.507 46.575L118.511 46.5654L118.05 46.3711ZM116.627 47.7949L116.821 48.2557L116.83 48.2515L116.627 47.7949ZM115.589 47.5H111.64V48.5H115.589V47.5ZM111.64 47.5C111.337 47.5 111.06 47.4439 110.805 47.3351L110.413 48.2548C110.798 48.4194 111.209 48.5 111.64 48.5V47.5ZM110.812 47.3379C110.264 47.095 109.881 46.711 109.643 46.1695L108.728 46.5726C109.067 47.3437 109.633 47.9089 110.406 48.2519L110.812 47.3379ZM109.644 46.1721C109.532 45.9132 109.474 45.6355 109.474 45.334H108.474C108.474 45.7669 108.558 46.1806 108.726 46.5701L109.644 46.1721ZM109.474 45.334V42.5039H108.474V45.334H109.474ZM109.474 42.5039C109.474 42.2071 109.531 41.9313 109.644 41.6716L108.726 41.2737C108.558 41.6625 108.474 42.0741 108.474 42.5039H109.474ZM109.643 41.6742C109.881 41.1328 110.264 40.7487 110.812 40.5058L110.406 39.5918C109.633 39.9349 109.067 40.5001 108.728 41.2711L109.643 41.6742ZM110.81 40.5067C111.064 40.3952 111.339 40.3379 111.64 40.3379V39.3379C111.207 39.3379 110.795 39.4212 110.408 39.591L110.81 40.5067ZM111.64 40.3379H115.589V39.3379H111.64V40.3379ZM115.589 40.3379C115.891 40.3379 116.169 40.3952 116.428 40.5075L116.826 39.5901C116.436 39.4212 116.022 39.3379 115.589 39.3379V40.3379ZM116.423 40.5054C116.966 40.7481 117.351 41.1327 117.594 41.6765L118.507 41.2688C118.164 40.5001 117.599 39.9355 116.83 39.5923L116.423 40.5054ZM117.59 41.6669C117.7 41.9277 117.755 42.2051 117.755 42.5039H118.755C118.755 42.0761 118.675 41.6661 118.511 41.2784L117.59 41.6669ZM118.255 42.0039H116.421V43.0039H118.255V42.0039ZM116.921 42.5039C116.921 42.1395 116.786 41.815 116.525 41.5602L115.826 42.2758C115.893 42.3413 115.921 42.4073 115.921 42.5039H116.921ZM116.529 41.5644C116.273 41.3087 115.95 41.1777 115.589 41.1777V42.1777C115.69 42.1777 115.757 42.207 115.822 42.2715L116.529 41.5644ZM115.589 41.1777H111.64V42.1777H115.589V41.1777ZM111.64 41.1777C111.28 41.1777 110.957 41.3083 110.699 41.5602L111.398 42.2758C111.468 42.2073 111.54 42.1777 111.64 42.1777V41.1777ZM110.695 41.5644C110.439 41.8202 110.308 42.1434 110.308 42.5039H111.308C111.308 42.4034 111.337 42.3361 111.402 42.2715L110.695 41.5644ZM110.308 42.5039V45.334H111.308V42.5039H110.308ZM110.308 45.334C110.308 45.6942 110.439 46.017 110.691 46.275L111.406 45.5765C111.338 45.5064 111.308 45.4347 111.308 45.334H110.308ZM110.699 46.2836C110.957 46.5354 111.28 46.666 111.64 46.666V45.666C111.54 45.666 111.468 45.6364 111.398 45.568L110.699 46.2836ZM111.64 46.666H115.589V45.666H111.64V46.666ZM115.589 46.666C115.95 46.666 116.273 46.5351 116.529 46.2793L115.822 45.5722C115.757 45.6368 115.69 45.666 115.589 45.666V46.666ZM116.529 46.2793C116.786 46.0222 116.921 45.6981 116.921 45.334H115.921C115.921 45.4308 115.893 45.5012 115.822 45.5722L116.529 46.2793ZM116.421 45.834H118.255V44.834H116.421V45.834ZM117.755 45.334C117.755 45.6374 117.699 45.9168 117.59 46.1768L118.511 46.5654C118.675 46.177 118.755 45.7649 118.755 45.334H117.755ZM117.594 46.1673C117.351 46.711 116.966 47.0956 116.423 47.3384L116.83 48.2515C117.599 47.9083 118.164 47.3437 118.507 46.5749L117.594 46.1673ZM116.432 47.3342C116.172 47.4439 115.893 47.5 115.589 47.5V48.5C116.02 48.5 116.432 48.4194 116.821 48.2556L116.432 47.3342ZM123.997 48V48.5H124.497V48H123.997ZM122.163 48H121.663V48.5H122.163V48ZM122.163 41.6426H122.663V41.1426H122.163V41.6426ZM119.181 41.6426H118.681V42.1426H119.181V41.6426ZM119.181 39.8086V39.3086H118.681V39.8086H119.181ZM126.974 39.8086H127.474V39.3086H126.974V39.8086ZM126.974 41.6426V42.1426H127.474V41.6426H126.974ZM123.997 41.6426V41.1426H123.497V41.6426H123.997ZM123.997 47.5H122.163V48.5H123.997V47.5ZM122.663 48V41.6426H121.663V48H122.663ZM122.163 41.1426H119.181V42.1426H122.163V41.1426ZM119.681 41.6426V39.8086H118.681V41.6426H119.681ZM119.181 40.3086H126.974V39.3086H119.181V40.3086ZM126.474 39.8086V41.6426H127.474V39.8086H126.474ZM126.974 41.1426H123.997V42.1426H126.974V41.1426ZM123.497 41.6426V48H124.497V41.6426H123.497ZM133.711 47.7891L133.51 48.2466L133.512 48.2478L133.711 47.7891ZM132.287 46.3652L131.827 46.5615L131.83 46.5681L132.287 46.3652ZM132.287 41.4727L131.83 41.2698L131.827 41.2784L132.287 41.4727ZM133.711 40.0488L133.512 39.5901L133.51 39.5913L133.711 40.0488ZM139.729 40.0488L139.93 39.5912L139.928 39.5901L139.729 40.0488ZM141.152 41.4727L141.611 41.2737L141.61 41.2698L141.152 41.4727ZM141.152 46.3652L141.61 46.5681L141.61 46.5662L141.152 46.3652ZM139.729 47.7891L139.928 48.2478L139.93 48.2466L139.729 47.7891ZM139.283 45.9258L139.637 46.2794L139.641 46.275L139.283 45.9258ZM139.283 41.918L138.926 42.2673L138.93 42.2715L139.283 41.918ZM134.156 45.9258L133.799 46.2752L133.807 46.2836L134.156 45.9258ZM138.697 47.5H134.748V48.5H138.697V47.5ZM134.748 47.5C134.447 47.5 134.169 47.4427 133.91 47.3304L133.512 48.2478C133.902 48.4167 134.315 48.5 134.748 48.5V47.5ZM133.913 47.3315C133.371 47.093 132.987 46.7097 132.744 46.1624L131.83 46.5681C132.173 47.3411 132.738 47.907 133.51 48.2466L133.913 47.3315ZM132.747 46.169C132.638 45.914 132.582 45.6374 132.582 45.334H131.582C131.582 45.7649 131.663 46.1758 131.827 46.5615L132.747 46.169ZM132.582 45.334V42.5039H131.582V45.334H132.582ZM132.582 42.5039C132.582 42.2051 132.638 41.9277 132.748 41.6669L131.827 41.2784C131.663 41.6661 131.582 42.0761 131.582 42.5039H132.582ZM132.744 41.6755C132.987 41.1282 133.371 40.7449 133.913 40.5064L133.51 39.5913C132.738 39.9309 132.173 40.4968 131.83 41.2698L132.744 41.6755ZM133.91 40.5075C134.169 40.3952 134.447 40.3379 134.748 40.3379V39.3379C134.315 39.3379 133.902 39.4212 133.512 39.5901L133.91 40.5075ZM134.748 40.3379H138.697V39.3379H134.748V40.3379ZM138.697 40.3379C138.994 40.3379 139.27 40.3949 139.53 40.5075L139.928 39.5901C139.539 39.4215 139.127 39.3379 138.697 39.3379V40.3379ZM139.527 40.5064C140.069 40.7449 140.453 41.1282 140.695 41.6755L141.61 41.2698C141.266 40.4968 140.701 39.9309 139.93 39.5913L139.527 40.5064ZM140.694 41.6716C140.806 41.9313 140.863 42.2071 140.863 42.5039H141.863C141.863 42.0741 141.78 41.6625 141.611 41.2737L140.694 41.6716ZM140.863 42.5039V45.334H141.863V42.5039H140.863ZM140.863 45.334C140.863 45.6355 140.806 45.9104 140.695 46.1642L141.61 46.5662C141.78 46.1794 141.863 45.7669 141.863 45.334H140.863ZM140.695 46.1624C140.453 46.7097 140.069 47.093 139.527 47.3315L139.93 48.2466C140.701 47.907 141.266 47.3411 141.61 46.5681L140.695 46.1624ZM139.53 47.3304C139.27 47.443 138.994 47.5 138.697 47.5V48.5C139.127 48.5 139.539 48.4164 139.928 48.2478L139.53 47.3304ZM138.697 46.666C139.058 46.666 139.381 46.5351 139.637 46.2793L138.93 45.5722C138.865 45.6368 138.798 45.666 138.697 45.666V46.666ZM139.641 46.275C139.893 46.017 140.024 45.6942 140.024 45.334H139.024C139.024 45.4347 138.994 45.5064 138.926 45.5765L139.641 46.275ZM140.024 45.334V42.5039H139.024V45.334H140.024ZM140.024 42.5039C140.024 42.1434 139.893 41.8202 139.637 41.5644L138.93 42.2715C138.994 42.3361 139.024 42.4034 139.024 42.5039H140.024ZM139.641 41.5687C139.386 41.3077 139.062 41.1719 138.697 41.1719V42.1719C138.794 42.1719 138.86 42.2001 138.926 42.2672L139.641 41.5687ZM138.697 41.1719H134.748V42.1719H138.697V41.1719ZM134.748 41.1719C134.384 41.1719 134.06 41.3073 133.803 41.5644L134.51 42.2715C134.581 42.2005 134.651 42.1719 134.748 42.1719V41.1719ZM133.803 41.5644C133.547 41.8202 133.416 42.1434 133.416 42.5039H134.416C134.416 42.4034 134.445 42.3361 134.51 42.2715L133.803 41.5644ZM133.416 42.5039V45.334H134.416V42.5039H133.416ZM133.416 45.334C133.416 45.6942 133.547 46.017 133.799 46.275L134.514 45.5765C134.446 45.5064 134.416 45.4347 134.416 45.334H133.416ZM133.807 46.2836C134.065 46.5354 134.388 46.666 134.748 46.666V45.666C134.647 45.666 134.576 45.6364 134.506 45.568L133.807 46.2836ZM134.748 46.666H138.697V45.666H134.748V46.666ZM144.879 48V48.5H145.379V48H144.879ZM143.039 48H142.539V48.5H143.039V48ZM143.039 42.9727V42.4727H142.539V42.9727H143.039ZM150.832 42.9727H151.332V42.4727H150.832V42.9727ZM150.832 44.8066V45.3066H151.332V44.8066H150.832ZM144.879 44.8066V44.3066H144.379V44.8066H144.879ZM152.326 41.6426V42.1426H152.826V41.6426H152.326ZM143.039 41.6426H142.539V42.1426H143.039V41.6426ZM143.039 39.8086V39.3086H142.539V39.8086H143.039ZM152.326 39.8086H152.826V39.3086H152.326V39.8086ZM144.879 47.5H143.039V48.5H144.879V47.5ZM143.539 48V42.9727H142.539V48H143.539ZM143.039 43.4727H150.832V42.4727H143.039V43.4727ZM150.332 42.9727V44.8066H151.332V42.9727H150.332ZM150.832 44.3066H144.879V45.3066H150.832V44.3066ZM144.379 44.8066V48H145.379V44.8066H144.379ZM152.326 41.1426H143.039V42.1426H152.326V41.1426ZM143.539 41.6426V39.8086H142.539V41.6426H143.539ZM143.039 40.3086H152.326V39.3086H143.039V40.3086ZM151.826 39.8086V41.6426H152.826V39.8086H151.826ZM166.727 48V48.5H167.722L167.129 47.7017L166.727 48ZM164.448 48L164.046 48.2979L164.196 48.5H164.448V48ZM162.848 45.8438L163.25 45.5458L163.1 45.3438H162.848V45.8438ZM159.274 45.8438V45.3438H158.774V45.8438H159.274ZM159.274 48V48.5H159.774V48H159.274ZM157.44 48H156.94V48.5H157.44V48ZM157.44 44.0098V43.5098H156.94V44.0098H157.44ZM157.44 41.6484H156.94V42.1484H157.44V41.6484ZM157.44 39.8086L157.441 39.3086L156.94 39.3081V39.8086H157.44ZM163.71 39.8145L163.709 40.3145H163.71V39.8145ZM164.876 40.0547L165.078 39.5974L165.077 39.5972L164.876 40.0547ZM166.487 41.6602L166.95 41.4705L166.947 41.4632L166.943 41.456L166.487 41.6602ZM166.487 43.998L166.944 44.2007L166.95 44.1877L166.487 43.998ZM164.928 45.5801L164.719 45.1262L164.16 45.3843L164.527 45.8784L164.928 45.5801ZM166.727 47.5H164.448V48.5H166.727V47.5ZM164.85 47.7021L163.25 45.5458L162.447 46.1417L164.046 48.2979L164.85 47.7021ZM162.848 45.3438H159.274V46.3438H162.848V45.3438ZM158.774 45.8438V48H159.774V45.8438H158.774ZM159.274 47.5H157.44V48.5H159.274V47.5ZM157.94 48V44.0098H156.94V48H157.94ZM157.44 44.5098H163.71V43.5098H157.44V44.5098ZM163.71 44.5098C164.167 44.5098 164.572 44.3413 164.895 44.0176L164.188 43.3105C164.051 43.4478 163.901 43.5098 163.71 43.5098V44.5098ZM164.895 44.0176C165.219 43.6939 165.387 43.2896 165.387 42.832H164.387C164.387 43.0229 164.325 43.1733 164.188 43.3105L164.895 44.0176ZM165.387 42.832C165.387 42.3723 165.22 41.9655 164.895 41.6406L164.188 42.3477C164.324 42.4837 164.387 42.6355 164.387 42.832H165.387ZM164.895 41.6406C164.572 41.3169 164.167 41.1484 163.71 41.1484V42.1484C163.901 42.1484 164.051 42.2104 164.188 42.3477L164.895 41.6406ZM163.71 41.1484H157.44V42.1484H163.71V41.1484ZM157.94 41.6484V39.8086H156.94V41.6484H157.94ZM157.44 40.3086L163.709 40.3145L163.71 39.3145L157.441 39.3086L157.44 40.3086ZM163.71 40.3145C164.057 40.3145 164.377 40.3813 164.674 40.5122L165.077 39.5972C164.648 39.4078 164.19 39.3145 163.71 39.3145V40.3145ZM164.674 40.512C165.302 40.79 165.749 41.2348 166.031 41.8643L166.943 41.456C166.561 40.6011 165.933 39.9756 165.078 39.5974L164.674 40.512ZM166.024 41.8498C166.162 42.1852 166.227 42.5116 166.227 42.832H167.227C167.227 42.3713 167.132 41.9164 166.95 41.4705L166.024 41.8498ZM166.227 42.832C166.227 43.148 166.162 43.4724 166.024 43.8084L166.95 44.1877C167.132 43.7425 167.227 43.2895 167.227 42.832H166.227ZM166.03 43.7954C165.759 44.4069 165.327 44.845 164.719 45.1262L165.138 46.034C165.967 45.6511 166.575 45.0345 166.944 44.2007L166.03 43.7954ZM164.527 45.8784L166.326 48.2983L167.129 47.7017L165.33 45.2818L164.527 45.8784ZM178.422 48V48.5H179.275L178.858 47.7557L178.422 48ZM176.324 48L175.888 48.2443L176.031 48.5H176.324V48ZM173.037 42.1289L173.474 41.8846L173.038 41.1061L172.601 41.8843L173.037 42.1289ZM169.744 48V48.5H170.037L170.18 48.2446L169.744 48ZM167.647 48L167.21 47.7557L166.794 48.5H167.647V48ZM172.235 39.8086V39.3086H171.942L171.798 39.5643L172.235 39.8086ZM173.834 39.8086L174.27 39.5643L174.127 39.3086H173.834V39.8086ZM178.422 47.5H176.324V48.5H178.422V47.5ZM176.761 47.7557L173.474 41.8846L172.601 42.3732L175.888 48.2443L176.761 47.7557ZM172.601 41.8843L169.308 47.7554L170.18 48.2446L173.473 42.3735L172.601 41.8843ZM169.744 47.5H167.647V48.5H169.744V47.5ZM168.083 48.2443L172.671 40.0529L171.798 39.5643L167.21 47.7557L168.083 48.2443ZM172.235 40.3086H173.834V39.3086H172.235V40.3086ZM173.398 40.0529L177.986 48.2443L178.858 47.7557L174.27 39.5643L173.398 40.0529ZM190.123 48V48.5H190.623V48H190.123ZM188.289 48H187.789V48.5H188.289V48ZM188.289 42.6445H188.789V41.0589L187.879 42.3577L188.289 42.6445ZM185.482 46.6523V47.1523H185.742L185.892 46.9392L185.482 46.6523ZM183.982 46.6523L183.572 46.9388L183.722 47.1523H183.982V46.6523ZM181.181 42.6445L181.591 42.3581L180.681 41.0562V42.6445H181.181ZM181.181 48V48.5H181.681V48H181.181ZM179.342 48H178.842V48.5H179.342V48ZM179.342 39.8086V39.3086H178.842V39.8086H179.342ZM181.422 39.8086L181.831 39.5218L181.682 39.3086H181.422V39.8086ZM184.732 44.5371L184.323 44.8239L184.732 45.4089L185.142 44.8239L184.732 44.5371ZM188.043 39.8086V39.3086H187.782L187.633 39.5218L188.043 39.8086ZM190.123 39.8086H190.623V39.3086H190.123V39.8086ZM190.123 47.5H188.289V48.5H190.123V47.5ZM188.789 48V42.6445H187.789V48H188.789ZM187.879 42.3577L185.073 46.3655L185.892 46.9392L188.698 42.9313L187.879 42.3577ZM185.482 46.1523H183.982V47.1523H185.482V46.1523ZM184.392 46.3659L181.591 42.3581L180.772 42.9309L183.572 46.9388L184.392 46.3659ZM180.681 42.6445V48H181.681V42.6445H180.681ZM181.181 47.5H179.342V48.5H181.181V47.5ZM179.842 48V39.8086H178.842V48H179.842ZM179.342 40.3086H181.422V39.3086H179.342V40.3086ZM181.012 40.0954L184.323 44.8239L185.142 44.2503L181.831 39.5218L181.012 40.0954ZM185.142 44.8239L188.452 40.0954L187.633 39.5218L184.323 44.2503L185.142 44.8239ZM188.043 40.3086H190.123V39.3086H188.043V40.3086ZM189.623 39.8086V48H190.623V39.8086H189.623ZM200.956 48V48.5H201.456V48H200.956ZM191.669 48H191.169V48.5H191.669V48ZM191.669 46.166V45.666H191.169V46.166H191.669ZM200.956 46.166H201.456V45.666H200.956V46.166ZM200.956 41.6719V42.1719H201.456V41.6719H200.956ZM191.669 41.6719H191.169V42.1719H191.669V41.6719ZM191.669 39.8379V39.3379H191.169V39.8379H191.669ZM200.956 39.8379H201.456V39.3379H200.956V39.8379ZM200.206 44.8359V45.3359H200.706V44.8359H200.206ZM192.413 44.8359H191.913V45.3359H192.413V44.8359ZM192.413 43.002V42.502H191.913V43.002H192.413ZM200.206 43.002H200.706V42.502H200.206V43.002ZM200.956 47.5H191.669V48.5H200.956V47.5ZM192.169 48V46.166H191.169V48H192.169ZM191.669 46.666H200.956V45.666H191.669V46.666ZM200.456 46.166V48H201.456V46.166H200.456ZM200.956 41.1719H191.669V42.1719H200.956V41.1719ZM192.169 41.6719V39.8379H191.169V41.6719H192.169ZM191.669 40.3379H200.956V39.3379H191.669V40.3379ZM200.456 39.8379V41.6719H201.456V39.8379H200.456ZM200.206 44.3359H192.413V45.3359H200.206V44.3359ZM192.913 44.8359V43.002H191.913V44.8359H192.913ZM192.413 43.502H200.206V42.502H192.413V43.502ZM199.706 43.002V44.8359H200.706V43.002H199.706ZM203.704 47.8066L203.891 47.3428L203.89 47.3424L203.704 47.8066ZM202.274 46.4824L201.824 46.6992L201.826 46.7038L202.274 46.4824ZM202.052 45.4922V44.9922H201.552V45.4922H202.052ZM203.891 45.4922H204.391V44.9922H203.891V45.4922ZM204.02 45.8613L203.639 46.1844L203.645 46.1916L204.02 45.8613ZM204.337 46.084L204.149 46.5472L204.153 46.5492L204.337 46.084ZM209.376 45.8613L209.751 46.1917L209.757 46.1843L209.376 45.8613ZM209.376 45.1348L208.994 45.4578L209 45.4651L209.376 45.1348ZM209.054 44.9062L208.858 45.3667L208.87 45.3715L209.054 44.9062ZM203.704 44.6367L203.518 45.101L203.522 45.1025L203.704 44.6367ZM202.274 43.3125L201.824 43.5292L201.826 43.5339L202.274 43.3125ZM202.274 41.332L201.826 41.1107L201.824 41.1153L202.274 41.332ZM203.704 40.0078L203.522 39.542L203.518 39.5436L203.704 40.0078ZM209.686 40.0078L209.871 39.5432L209.87 39.5428L209.686 40.0078ZM211.122 41.332L211.575 41.1199L211.57 41.1107L211.122 41.332ZM211.339 42.3223V42.8223H211.839V42.3223H211.339ZM209.505 42.3223H209.005V42.8223H209.505V42.3223ZM209.376 41.9648L208.994 42.2879L209 42.2952L209.376 41.9648ZM209.054 41.7363L208.858 42.1968L208.87 42.2015L209.054 41.7363ZM204.337 41.7363L204.525 42.1996L204.532 42.1966L204.337 41.7363ZM204.02 41.9648L204.396 42.2952L204.402 42.2878L204.02 41.9648ZM204.337 42.9141L204.136 43.3721L204.145 43.3759L204.153 43.3793L204.337 42.9141ZM209.686 43.1836L209.498 43.6467L209.502 43.6482L209.686 43.1836ZM211.122 44.5078L211.575 44.2957L211.57 44.2865L211.122 44.5078ZM211.122 46.4824L211.57 46.7038L211.575 46.6945L211.122 46.4824ZM209.686 47.8066L209.502 47.342L209.498 47.3436L209.686 47.8066ZM208.673 47.5H204.718V48.5H208.673V47.5ZM204.718 47.5C204.424 47.5 204.15 47.4471 203.891 47.3428L203.517 48.2705C203.899 48.424 204.3 48.5 204.718 48.5V47.5ZM203.89 47.3424C203.36 47.1306 202.977 46.776 202.723 46.2611L201.826 46.7038C202.189 47.4389 202.759 47.9671 203.518 48.2709L203.89 47.3424ZM202.725 46.2657C202.61 46.0265 202.552 45.7708 202.552 45.4922H201.552C201.552 45.9167 201.642 46.3211 201.824 46.6992L202.725 46.2657ZM202.052 45.9922H203.891V44.9922H202.052V45.9922ZM203.391 45.4922C203.391 45.744 203.469 45.9844 203.639 46.1843L204.402 45.5384C204.398 45.5333 204.397 45.5305 204.396 45.528C204.395 45.5249 204.391 45.5144 204.391 45.4922H203.391ZM203.645 46.1916C203.784 46.3497 203.954 46.4684 204.149 46.5472L204.525 45.6208C204.469 45.598 204.428 45.5683 204.396 45.531L203.645 46.1916ZM204.153 46.5492C204.334 46.6205 204.523 46.6602 204.718 46.6602V45.6602C204.662 45.6602 204.597 45.6491 204.52 45.6188L204.153 46.5492ZM204.718 46.6602H208.673V45.6602H204.718V46.6602ZM208.673 46.6602C208.867 46.6602 209.056 46.6205 209.237 46.5492L208.87 45.6188C208.793 45.6491 208.728 45.6602 208.673 45.6602V46.6602ZM209.237 46.5492C209.435 46.4713 209.609 46.3527 209.751 46.1916L209 45.531C208.97 45.5652 208.93 45.5951 208.87 45.6188L209.237 46.5492ZM209.757 46.1843C209.927 45.9844 210.005 45.744 210.005 45.4922H209.005C209.005 45.5144 209.001 45.5249 209 45.528C209 45.5305 208.998 45.5333 208.994 45.5384L209.757 46.1843ZM210.005 45.4922C210.005 45.2406 209.924 45.0011 209.751 44.8045L209 45.4651C209.002 45.467 209.003 45.4678 209.002 45.4676C209.002 45.4673 209.002 45.4669 209.002 45.467C209.002 45.4671 209.003 45.4687 209.003 45.4723C209.004 45.4761 209.005 45.4825 209.005 45.4922H210.005ZM209.757 44.8118C209.616 44.6445 209.439 44.5208 209.237 44.441L208.87 45.3715C208.926 45.3932 208.964 45.4219 208.994 45.4577L209.757 44.8118ZM209.249 44.446C209.066 44.3682 208.872 44.3242 208.673 44.3242V45.3242C208.723 45.3242 208.784 45.3349 208.858 45.3665L209.249 44.446ZM208.673 44.3242H204.718V45.3242H208.673V44.3242ZM204.718 44.3242C204.422 44.3242 204.146 44.2726 203.886 44.1709L203.522 45.1025C203.902 45.2509 204.302 45.3242 204.718 45.3242V44.3242ZM203.89 44.1725C203.36 43.9607 202.977 43.6061 202.723 43.0911L201.826 43.5339C202.189 44.2689 202.759 44.7971 203.518 45.101L203.89 44.1725ZM202.725 43.0958C202.61 42.8566 202.552 42.6009 202.552 42.3223H201.552C201.552 42.7468 201.642 43.1512 201.824 43.5292L202.725 43.0958ZM202.552 42.3223C202.552 42.0437 202.61 41.7879 202.725 41.5488L201.824 41.1153C201.642 41.4933 201.552 41.8977 201.552 42.3223H202.552ZM202.723 41.5534C202.977 41.0385 203.36 40.6839 203.89 40.4721L203.518 39.5436C202.759 39.8474 202.189 40.3756 201.826 41.1107L202.723 41.5534ZM203.886 40.4736C204.146 40.372 204.422 40.3203 204.718 40.3203V39.3203C204.302 39.3203 203.902 39.3936 203.522 39.542L203.886 40.4736ZM204.718 40.3203H208.673V39.3203H204.718V40.3203ZM208.673 40.3203C208.973 40.3203 209.248 40.3722 209.503 40.4728L209.87 39.5428C209.492 39.3934 209.091 39.3203 208.673 39.3203V40.3203ZM209.502 40.4724C210.035 40.6846 210.42 41.0394 210.674 41.5534L211.57 41.1107C211.207 40.3746 210.634 39.8466 209.871 39.5432L209.502 40.4724ZM210.669 41.5441C210.782 41.7842 210.839 42.0416 210.839 42.3223H211.839C211.839 41.8998 211.751 41.4971 211.575 41.12L210.669 41.5441ZM211.339 41.8223H209.505V42.8223H211.339V41.8223ZM210.005 42.3223C210.005 42.0707 209.924 41.8312 209.751 41.6345L209 42.2952C209.002 42.2971 209.003 42.2979 209.002 42.2977C209.002 42.2974 209.002 42.297 209.002 42.2971C209.002 42.2972 209.003 42.2988 209.003 42.3024C209.004 42.3062 209.005 42.3126 209.005 42.3223H210.005ZM209.757 41.6419C209.616 41.4746 209.439 41.3509 209.237 41.2711L208.87 42.2015C208.926 42.2233 208.964 42.252 208.994 42.2878L209.757 41.6419ZM209.249 41.276C209.066 41.1983 208.872 41.1543 208.673 41.1543V42.1543C208.723 42.1543 208.784 42.165 208.858 42.1966L209.249 41.276ZM208.673 41.1543H204.718V42.1543H208.673V41.1543ZM204.718 41.1543C204.518 41.1543 204.325 41.1983 204.141 41.276L204.532 42.1966C204.607 42.165 204.667 42.1543 204.718 42.1543V41.1543ZM204.149 41.2731C203.95 41.3539 203.778 41.4777 203.639 41.6419L204.402 42.2878C204.435 42.2489 204.474 42.2204 204.525 42.1996L204.149 41.2731ZM203.645 41.6345C203.472 41.8312 203.391 42.0707 203.391 42.3223H204.391C204.391 42.3126 204.392 42.3062 204.393 42.3024C204.393 42.2988 204.394 42.2972 204.394 42.2971C204.394 42.297 204.394 42.2974 204.394 42.2977C204.394 42.2979 204.394 42.2971 204.396 42.2952L203.645 41.6345ZM203.391 42.3223C203.391 42.5739 203.47 42.8166 203.645 43.0159L204.396 42.3552C204.395 42.3539 204.394 42.3536 204.395 42.3541C204.395 42.3546 204.395 42.3548 204.395 42.3543C204.395 42.3537 204.391 42.3446 204.391 42.3223H203.391ZM203.645 43.0159C203.782 43.1711 203.948 43.2896 204.136 43.3721L204.537 42.456C204.476 42.4291 204.431 42.3953 204.396 42.3552L203.645 43.0159ZM204.153 43.3793C204.334 43.4505 204.523 43.4902 204.718 43.4902V42.4902C204.662 42.4902 204.597 42.4791 204.52 42.4489L204.153 43.3793ZM204.718 43.4902H208.673V42.4902H204.718V43.4902ZM208.673 43.4902C208.971 43.4902 209.244 43.5434 209.498 43.6466L209.875 42.7205C209.496 42.566 209.093 42.4902 208.673 42.4902V43.4902ZM209.502 43.6482C210.035 43.8604 210.42 44.2152 210.674 44.7292L211.57 44.2865C211.207 43.5504 210.634 43.0224 209.871 42.719L209.502 43.6482ZM210.669 44.7199C210.782 44.9607 210.839 45.2163 210.839 45.4922H211.839C211.839 45.0728 211.751 44.6721 211.575 44.2957L210.669 44.7199ZM210.839 45.4922C210.839 45.7728 210.782 46.0303 210.669 46.2704L211.575 46.6945C211.751 46.3174 211.839 45.9147 211.839 45.4922H210.839ZM210.674 46.2611C210.42 46.775 210.035 47.1298 209.502 47.342L209.871 48.2713C210.634 47.9678 211.207 47.4398 211.57 46.7038L210.674 46.2611ZM209.498 47.3436C209.244 47.4468 208.971 47.5 208.673 47.5V48.5C209.093 48.5 209.496 48.4242 209.875 48.2697L209.498 47.3436ZM217.168 48V48.5H217.668V48H217.168ZM215.334 48H214.834V48.5H215.334V48ZM215.334 41.6426H215.834V41.1426H215.334V41.6426ZM212.352 41.6426H211.852V42.1426H212.352V41.6426ZM212.352 39.8086V39.3086H211.852V39.8086H212.352ZM220.145 39.8086H220.645V39.3086H220.145V39.8086ZM220.145 41.6426V42.1426H220.645V41.6426H220.145ZM217.168 41.6426V41.1426H216.668V41.6426H217.168ZM217.168 47.5H215.334V48.5H217.168V47.5ZM215.834 48V41.6426H214.834V48H215.834ZM215.334 41.1426H212.352V42.1426H215.334V41.1426ZM212.852 41.6426V39.8086H211.852V41.6426H212.852ZM212.352 40.3086H220.145V39.3086H212.352V40.3086ZM219.645 39.8086V41.6426H220.645V39.8086H219.645ZM220.145 41.1426H217.168V42.1426H220.145V41.1426ZM216.668 41.6426V48H217.668V41.6426H216.668ZM226.18 48V48.5H226.68V48H226.18ZM224.346 48H223.846V48.5H224.346V48ZM224.346 41.6426H224.846V41.1426H224.346V41.6426ZM221.363 41.6426H220.863V42.1426H221.363V41.6426ZM221.363 39.8086V39.3086H220.863V39.8086H221.363ZM229.156 39.8086H229.656V39.3086H229.156V39.8086ZM229.156 41.6426V42.1426H229.656V41.6426H229.156ZM226.18 41.6426V41.1426H225.68V41.6426H226.18ZM226.18 47.5H224.346V48.5H226.18V47.5ZM224.846 48V41.6426H223.846V48H224.846ZM224.346 41.1426H221.363V42.1426H224.346V41.1426ZM221.863 41.6426V39.8086H220.863V41.6426H221.863ZM221.363 40.3086H229.156V39.3086H221.363V40.3086ZM228.656 39.8086V41.6426H229.656V39.8086H228.656ZM229.156 41.1426H226.18V42.1426H229.156V41.1426ZM225.68 41.6426V48H226.68V41.6426H225.68ZM238.267 48V48.5H239.12L238.703 47.7557L238.267 48ZM236.169 48L235.733 48.2443L235.876 48.5H236.169V48ZM232.882 42.1289L233.318 41.8846L232.883 41.1061L232.446 41.8843L232.882 42.1289ZM229.589 48V48.5H229.882L230.025 48.2446L229.589 48ZM227.492 48L227.055 47.7557L226.638 48.5H227.492V48ZM232.079 39.8086V39.3086H231.786L231.643 39.5643L232.079 39.8086ZM233.679 39.8086L234.115 39.5643L233.972 39.3086H233.679V39.8086ZM238.267 47.5H236.169V48.5H238.267V47.5ZM236.606 47.7557L233.318 41.8846L232.446 42.3732L235.733 48.2443L236.606 47.7557ZM232.446 41.8843L229.153 47.7554L230.025 48.2446L233.318 42.3735L232.446 41.8843ZM229.589 47.5H227.492V48.5H229.589V47.5ZM227.928 48.2443L232.516 40.0529L231.643 39.5643L227.055 47.7557L227.928 48.2443ZM232.079 40.3086H233.679V39.3086H232.079V40.3086ZM233.243 40.0529L237.831 48.2443L238.703 47.7557L234.115 39.5643L233.243 40.0529Z" fill="black" mask="url(#path-3-outside-2_1396_82433)"/>
<path d="M16.8364 17.8914L11.582 10.6566C14.9359 8.45392 18.8978 7.11602 23.144 6.89429V15.8368C20.845 16.0186 18.7003 16.7503 16.8364 17.8914Z" fill="white" stroke="black" stroke-width="0.5"/>
<path d="M10.9967 24.6746L2.48399 21.8956C3.96613 18.012 6.45542 14.6263 9.64243 12.063L14.897 19.298C13.2057 20.7521 11.8636 22.591 10.9967 24.6746Z" fill="white" stroke="black" stroke-width="0.5"/>
<path d="M10.2532 33.5819L1.74137 36.3446C1.21922 34.403 0.943359 32.3698 0.943359 30.2593C0.943359 28.1488 1.21922 26.1156 1.74137 24.1739L10.2532 26.9367C9.99823 27.9998 9.86388 29.1075 9.86388 30.2593C9.86388 31.3953 9.99822 32.5166 10.2532 33.5819Z" fill="white" stroke="black" stroke-width="0.5"/>
<path d="M14.8974 41.2537L9.643 48.4724C6.47068 45.9089 3.96666 42.5233 2.48417 38.6406L10.9966 35.8777C11.8647 37.9621 13.2212 39.8004 14.8974 41.2537Z" fill="white" stroke="black" stroke-width="0.5"/>
<path d="M23.144 44.6973V53.6413C18.8826 53.4197 14.9356 52.0818 11.582 49.879L16.8364 42.6441C18.7016 43.7849 20.8465 44.5018 23.144 44.6973Z" fill="white" stroke="black" stroke-width="0.5"/>
<path d="M31.8564 42.6441L37.1104 49.8783C33.7558 52.0663 29.794 53.4189 25.5488 53.6412V44.6988C27.8479 44.517 29.9926 43.7852 31.8564 42.6441Z" fill="white" stroke="black" stroke-width="0.5"/>
<path d="M37.6941 35.844L46.2068 38.623C44.7247 42.5066 42.2354 45.8923 39.0484 48.4556L33.7938 41.2206C35.4851 39.7665 36.8272 37.9277 37.6941 35.844Z" fill="white" stroke="black" stroke-width="0.5"/>
<path d="M38.4394 26.9367L46.9513 24.1739C47.4734 26.1156 47.7493 28.1488 47.7493 30.2593C47.7493 32.3698 47.4734 34.403 46.9513 36.3446L38.4395 33.5819C38.6944 32.5187 38.8288 31.4111 38.8288 30.2593C38.8288 29.1233 38.6944 28.0019 38.4394 26.9367Z" fill="white" stroke="black" stroke-width="0.5"/>
<path d="M33.811 19.2822L39.0653 12.0634C42.2377 14.6269 44.7417 18.0125 46.2242 21.8952L37.7118 24.6581C36.8437 22.5738 35.4872 20.7354 33.811 19.2822Z" fill="white" stroke="black" stroke-width="0.5"/>
<path d="M25.5488 15.8368V6.89424C29.8102 7.11582 33.7572 8.45369 37.1109 10.6566L31.8564 17.8914C29.9926 16.7503 27.8479 16.0186 25.5488 15.8368Z" fill="white" stroke="black" stroke-width="0.5"/>
<path d="M14.9633 31.6075H15.259L15.0844 31.3689L14.6895 30.8294C14.8404 30.7251 14.9581 30.5833 15.0376 30.4059L15.0376 30.4059L15.0382 30.4047C15.0954 30.2739 15.1203 30.1421 15.1203 30.0177C15.1203 29.8807 15.0858 29.7571 15.0412 29.6381L15.0415 29.638L15.0376 29.6294C14.9332 29.3965 14.7615 29.2152 14.5171 29.1088C14.3915 29.0505 14.2657 29.026 14.1287 29.026H12.3828H12.2328V29.176V29.6838V29.8338H12.3828H14.1287C14.1835 29.8338 14.2169 29.8484 14.2467 29.8815C14.2895 29.929 14.3056 29.9711 14.3056 30.0177C14.3056 30.0651 14.2889 30.1043 14.2521 30.1411C14.2153 30.1779 14.1761 30.1946 14.1287 30.1946H12.3828H12.2328V30.3446V31.4575V31.6075H12.3828H12.8906H13.0406V31.4575V31.0093H13.8099L14.2101 31.547L14.255 31.6075H14.3304H14.9633Z" fill="white" stroke="black" stroke-width="0.3"/>
<path d="M18.4217 31.6072H18.6772L18.5527 31.3841L17.2798 29.1027L17.2369 29.0258H17.1488H16.7037H16.6158L16.5728 29.1024L15.293 31.3838L15.1677 31.6072H15.4238H16.0081H16.0959L16.1389 31.5307L16.9257 30.1298L17.7064 31.5303L17.7493 31.6072H17.8374H18.4217Z" fill="white" stroke="black" stroke-width="0.3"/>
<path d="M21.8768 31.6072H22.0268V31.4572V29.1758V29.0258H21.8768H21.2995H21.2216L21.1768 29.0895L20.3748 30.2291L19.5792 29.0899L19.5344 29.0258H19.4562H18.8789H18.7289V29.1758V31.4503V31.6003H18.8789H19.3936H19.5436V31.4503V30.4376L20.0498 31.1607L20.0946 31.2247H20.1727H20.59H20.6681L20.7129 31.1607L21.219 30.4376V31.4572V31.6072H21.369H21.8768Z" fill="white" stroke="black" stroke-width="0.3"/>
<path d="M25.0923 29.8475H25.2423V29.6975V29.1827V29.0327H25.0923H22.5117H22.3617V29.1827V29.6975V29.8475H22.5117H25.0923ZM25.0923 31.6072H25.2423V31.4572V30.9495V30.7995H25.0923H22.5117H22.3617V30.9495V31.4572V31.6072H22.5117H25.0923ZM24.8836 30.7239H25.0336V30.5739V30.0661V29.9161H24.8836H22.7134H22.5634V30.0661V30.5739V30.7239H22.7134H24.8836Z" fill="white" stroke="black" stroke-width="0.3"/>
<path d="M25.4477 30.6046H25.5977H25.8879C25.7281 30.5161 25.6066 30.3838 25.5256 30.2154M25.4477 30.6046L25.525 30.2144C25.5252 30.2147 25.5254 30.2151 25.5256 30.2154M25.4477 30.6046V30.7546M25.4477 30.6046V30.7546M25.5256 30.2154C25.4726 30.1091 25.4477 29.9887 25.4477 29.8712C25.4477 29.7508 25.4738 29.639 25.5241 29.5301M25.5256 30.2154L25.5241 29.5301M25.4477 30.7546C25.4477 30.8721 25.4726 30.9924 25.5256 31.0988M25.4477 30.7546L25.525 29.5281M25.525 29.5281L25.525 29.5281C25.6245 29.3209 25.7851 29.1681 26.0029 29.0843C26.107 29.0443 26.2158 29.0187 26.3419 29.0187H27.4409C27.5505 29.0187 27.6695 29.0341 27.7844 29.0861C27.9995 29.1701 28.1585 29.3218 28.2573 29.527C28.3102 29.6334 28.3351 29.7537 28.3351 29.8712V30.0212H28.1851H27.8891C28.0552 30.1097 28.181 30.2445 28.2642 30.4173C28.3164 30.5222 28.3421 30.6354 28.3421 30.7546C28.3421 30.875 28.316 30.9868 28.2657 31.0957L28.2647 31.0977L28.2647 31.0977C28.1653 31.3049 28.0047 31.4577 27.7869 31.5415L27.7805 31.5439L27.7805 31.5438C27.6686 31.581 27.561 31.6071 27.4409 31.6071H26.3419C26.2234 31.6071 26.1078 31.5818 26.0029 31.5415C25.7855 31.4578 25.625 31.3054 25.5256 31.0988M25.525 29.5281L25.5241 29.5301M25.525 29.5281L25.5241 29.5301M25.5256 31.0988C25.5254 31.0984 25.5252 31.0981 25.525 31.0977L25.6603 31.0328L25.5261 31.0999C25.5259 31.0995 25.5257 31.0992 25.5256 31.0988ZM26.2624 30.7546V30.7209C26.2893 30.7229 26.3159 30.7237 26.3419 30.7237H27.4409C27.4552 30.7237 27.4711 30.7265 27.4895 30.7339C27.4993 30.7378 27.5071 30.7419 27.5125 30.7455C27.5147 30.747 27.5161 30.7481 27.5167 30.7487C27.5186 30.7512 27.5197 30.753 27.5204 30.7541C27.5204 30.7542 27.5204 30.7544 27.5204 30.7546C27.5204 30.7574 27.5204 30.7597 27.5203 30.7617C27.5072 30.7736 27.498 30.7788 27.4895 30.7822C27.4711 30.7896 27.4552 30.7924 27.4409 30.7924H26.3419C26.3276 30.7924 26.3117 30.7896 26.2933 30.7822C26.2835 30.7783 26.2757 30.7742 26.2704 30.7706C26.2682 30.7692 26.2669 30.7681 26.2662 30.7676C26.2648 30.7655 26.264 30.7638 26.2635 30.7624C26.263 30.7609 26.2624 30.7585 26.2624 30.7546ZM27.5274 29.8712V29.9128C27.5011 29.9103 27.4745 29.909 27.4479 29.909H26.3489C26.3346 29.909 26.3187 29.9063 26.3002 29.8989C26.2905 29.895 26.2827 29.8908 26.2773 29.8873C26.2751 29.8858 26.2738 29.8848 26.2731 29.8842C26.2718 29.8821 26.271 29.8804 26.2705 29.8791C26.2699 29.8775 26.2693 29.8751 26.2693 29.8712C26.2693 29.8712 26.2693 29.8712 26.2693 29.8712C26.2825 29.8592 26.2917 29.8539 26.3002 29.8505C26.3187 29.8431 26.3346 29.8404 26.3489 29.8404H27.4479C27.4621 29.8404 27.478 29.8431 27.4965 29.8505C27.5063 29.8544 27.5141 29.8586 27.5194 29.8621C27.5217 29.8637 27.5231 29.8647 27.5237 29.8653C27.5255 29.8678 27.5267 29.8696 27.5274 29.8707C27.5274 29.8709 27.5274 29.871 27.5274 29.8712Z" fill="white" stroke="black" stroke-width="0.3"/>
<path d="M30.0026 31.6072H30.1526V31.4572V29.8335H30.8303H30.9803V29.6835V29.1758V29.0258H30.8303H28.6602H28.5102V29.1758V29.6835V29.8335H28.6602H29.3448V31.4572V31.6072H29.4948H30.0026Z" fill="white" stroke="black" stroke-width="0.3"/>
<path d="M32.7135 31.6072H32.8635V31.4572V29.8335H33.5413H33.6913V29.6835V29.1758V29.0258H33.5413H31.3711H31.2211V29.1758V29.6835V29.8335H31.3711H32.0558V31.4572V31.6072H32.2058H32.7135Z" fill="white" stroke="black" stroke-width="0.3"/>
<path d="M36.2752 31.6072H36.5314L36.406 31.3838L35.1262 29.1024L35.0832 29.0258H34.9954H34.5502H34.4621L34.4192 29.1027L33.1464 31.3841L33.0219 31.6072H33.2773H33.8616H33.9494L33.9924 31.5307L34.7793 30.1298L35.5599 31.5303L35.6028 31.6072H35.6909H36.2752Z" fill="white" stroke="black" stroke-width="0.3"/>
</svg>
