<svg width="29" height="21" viewBox="0 0 29 21" fill="none" xmlns="http://www.w3.org/2000/svg">
<path d="M29 9.84632C28.9849 9.81613 28.9623 9.78594 28.9472 9.74819C28.7207 9.06884 28.2376 8.69897 27.5205 8.67633C27.2488 8.66878 26.977 8.67633 26.6978 8.67633C18.387 8.67633 10.0688 8.67633 1.75803 8.67633C1.51649 8.67633 1.26739 8.69897 1.03339 8.76691C0.39933 8.97071 0.00681496 9.60477 0.0747509 10.2615C0.142685 10.9182 0.648426 11.4541 1.30513 11.5447C1.46365 11.5673 1.62216 11.5673 1.78068 11.5673C10.2424 11.5673 18.7116 11.5598 27.1733 11.5749C28.0716 11.5749 28.7056 11.2805 28.9925 10.3974C29 10.2237 29 10.035 29 9.84632Z" fill="black"/>
<path d="M10.9292 0.00335482C7.8117 0.00335482 4.69424 0.00335482 1.57677 0.00335482C0.701164 0.00335482 0.0671043 0.629867 0.0671043 1.45264C0.0746536 2.20747 0.670971 2.84153 1.42581 2.88682C1.50129 2.89437 1.57677 2.88682 1.65226 2.88682C7.8268 2.88682 14.0089 2.88682 20.1834 2.88682C20.9534 2.88682 21.5195 2.49431 21.7082 1.83005C21.9648 0.916704 21.3081 0.0109032 20.3646 0.00335482C19.1795 -0.00419352 17.9944 0.00335482 16.8018 0.00335482C14.8468 0.00335482 12.8842 0.00335482 10.9292 0.00335482Z" fill="black"/>
<path d="M8.04578 20.2481C10.2046 20.2481 12.3559 20.2556 14.5147 20.2481C15.4582 20.2481 16.115 19.4555 15.9489 18.5346C15.8281 17.8553 15.2318 17.3646 14.4921 17.3646C12.9296 17.3571 11.367 17.3646 9.80454 17.3646C7.05694 17.3646 4.30935 17.3646 1.56175 17.3646C0.97298 17.3646 0.52008 17.6137 0.240791 18.127C-0.0234003 18.6101 -0.000754356 19.1083 0.293631 19.5763C0.588016 20.0443 1.02582 20.2556 1.57685 20.2556C3.73567 20.2481 5.8945 20.2481 8.04578 20.2481Z" fill="black"/>
</svg>
