<svg width="40" height="40" viewBox="0 0 40 40" fill="none" xmlns="http://www.w3.org/2000/svg">
<rect width="40" height="40" rx="6" fill="#141416"/>
<path d="M19.828 22.0551C18.903 22.0551 17.9781 22.0516 17.0531 22.0558C14.4131 22.0677 12.3785 24.0693 12.3221 26.7121C12.3103 27.264 12.3275 27.816 12.3116 28.3679C12.3166 28.5129 12.2708 28.655 12.1822 28.7698C12.0936 28.8845 11.9677 28.9648 11.8263 28.9968C11.703 29.0359 11.5704 29.0339 11.4483 28.9911C11.3263 28.9483 11.2214 28.867 11.1496 28.7594C11.0759 28.6672 11.0313 28.5552 11.0214 28.4376C11.0056 27.3065 10.921 26.1708 11.2491 25.0618C11.61 23.8236 12.361 22.7352 13.3904 21.9584C14.4198 21.1815 15.6726 20.7579 16.9622 20.7505C18.822 20.7403 20.6817 20.7479 22.5415 20.7486C25.8869 20.7497 28.432 23.1157 28.6595 26.4558C28.7024 27.0839 28.6841 27.7174 28.6735 28.3475C28.6673 28.7148 28.4466 28.9572 28.1204 29.0158C27.9833 29.0386 27.8425 29.0154 27.72 28.9498C27.5974 28.8841 27.5001 28.7798 27.443 28.6531C27.3925 28.5151 27.3672 28.3692 27.3681 28.2222C27.3589 27.769 27.367 27.3155 27.3641 26.8621C27.3462 24.0794 25.3199 22.0591 22.5435 22.0554C21.6385 22.0541 20.7333 22.054 19.828 22.0551Z" fill="white"/>
<path d="M19.8644 10C22.4428 10 24.5594 12.1408 24.5566 14.7452C24.5538 17.3141 22.4127 19.4516 19.8477 19.4463C17.2506 19.4409 15.1226 17.3145 15.127 14.7291C15.1284 13.4739 15.6282 12.2706 16.5166 11.3838C17.4049 10.497 18.6091 9.99923 19.8644 10ZM19.8125 11.3123C17.9122 11.3483 16.3927 12.9059 16.4371 14.7727C16.482 16.6623 18.0256 18.1671 19.8838 18.1328C21.7621 18.0983 23.2726 16.551 23.2466 14.688C23.2205 12.8156 21.6554 11.2774 19.8125 11.312V11.3123Z" fill="white"/>
</svg>
