<svg width="620" height="211" viewBox="0 0 620 211" fill="none" xmlns="http://www.w3.org/2000/svg">
<path opacity="0.27" d="M68.6992 97.3045C92.8216 97.3045 123.059 68.1131 160.092 68.1131C197.125 68.1131 208.337 101.025 249.447 101.025C290.557 101.025 301.429 0 340.84 0C380.251 0 390.444 51.228 431.214 51.228C471.984 51.228 480.818 17.7438 522.947 17.7438C565.076 17.7438 570.173 68.9717 612.302 68.9717V171.714H68.6992V97.3045Z" fill="#8659FF"/>
<path opacity="0.4" d="M5.1955 25.224C4.38483 25.224 3.6595 25.08 3.0195 24.792C2.3795 24.504 1.87283 24.072 1.4995 23.496C1.13683 22.9093 0.9555 22.1787 0.9555 21.304V20.968H2.2835V21.304C2.2835 22.232 2.5555 22.9253 3.0995 23.384C3.6435 23.832 4.34217 24.056 5.1955 24.056C6.07017 24.056 6.73683 23.8587 7.1955 23.464C7.65417 23.0693 7.8835 22.5733 7.8835 21.976C7.8835 21.56 7.78217 21.2293 7.5795 20.984C7.37683 20.7387 7.08883 20.5413 6.7155 20.392C6.34217 20.232 5.90483 20.0933 5.4035 19.976L4.5555 19.768C3.90483 19.5973 3.32883 19.3893 2.8275 19.144C2.32617 18.8987 1.9315 18.5787 1.6435 18.184C1.36617 17.7787 1.2275 17.2613 1.2275 16.632C1.2275 16.0027 1.3875 15.4587 1.7075 15C2.0275 14.5413 2.47017 14.1893 3.0355 13.944C3.60083 13.6987 4.26217 13.576 5.0195 13.576C5.77683 13.576 6.45417 13.7093 7.0515 13.976C7.64883 14.232 8.1235 14.616 8.4755 15.128C8.8275 15.6293 9.0035 16.264 9.0035 17.032V17.704H7.6755V17.032C7.6755 16.488 7.55817 16.0507 7.3235 15.72C7.0995 15.3893 6.78483 15.144 6.3795 14.984C5.98483 14.824 5.5315 14.744 5.0195 14.744C4.2835 14.744 3.6915 14.9093 3.2435 15.24C2.7955 15.56 2.5715 16.0187 2.5715 16.616C2.5715 17.0107 2.66217 17.3307 2.8435 17.576C3.0355 17.8213 3.3075 18.024 3.6595 18.184C4.0115 18.3333 4.43283 18.4667 4.9235 18.584L5.7715 18.792C6.4115 18.9307 6.99283 19.1227 7.5155 19.368C8.03817 19.6027 8.44883 19.928 8.7475 20.344C9.05683 20.7493 9.2115 21.2827 9.2115 21.944C9.2115 22.6053 9.04617 23.1813 8.7155 23.672C8.38483 24.1627 7.9155 24.5467 7.3075 24.824C6.71017 25.0907 6.00617 25.224 5.1955 25.224ZM4.5875 26.856V11.944H5.8195V26.856H4.5875ZM15.12 25.224C13.8507 25.224 12.8373 24.8507 12.08 24.104C11.3333 23.3467 10.96 22.216 10.96 20.712V18.088C10.96 16.5947 11.3333 15.4693 12.08 14.712C12.8373 13.9547 13.8507 13.576 15.12 13.576C16.4 13.576 17.4133 13.9547 18.16 14.712C18.9173 15.4693 19.296 16.5947 19.296 18.088V20.712C19.296 22.216 18.9173 23.3467 18.16 24.104C17.4133 24.8507 16.4 25.224 15.12 25.224ZM15.12 24.056C16.08 24.056 16.8 23.768 17.28 23.192C17.76 22.616 18 21.8107 18 20.776V18.008C18 16.9733 17.7547 16.1733 17.264 15.608C16.7733 15.032 16.0587 14.744 15.12 14.744C14.1813 14.744 13.4667 15.032 12.976 15.608C12.496 16.184 12.256 16.984 12.256 18.008V20.776C12.256 21.8213 12.496 22.632 12.976 23.208C13.456 23.7733 14.1707 24.056 15.12 24.056ZM22.016 25.224C21.7067 25.224 21.4453 25.1227 21.232 24.92C21.0293 24.7173 20.928 24.456 20.928 24.136C20.928 23.816 21.0293 23.5547 21.232 23.352C21.4453 23.1493 21.7067 23.048 22.016 23.048C22.336 23.048 22.5973 23.1493 22.8 23.352C23.0027 23.5547 23.104 23.816 23.104 24.136C23.104 24.456 23.0027 24.7173 22.8 24.92C22.5973 25.1227 22.336 25.224 22.016 25.224ZM29.0229 25.224C28.1589 25.224 27.4069 25.096 26.7669 24.84C26.1375 24.5733 25.6469 24.2053 25.2949 23.736C24.9535 23.256 24.7829 22.696 24.7829 22.056V21.88C24.7829 21.3253 24.9002 20.8667 25.1349 20.504C25.3695 20.1413 25.6522 19.864 25.9829 19.672C26.3242 19.4693 26.6389 19.3413 26.9269 19.288V19.08C26.6389 18.9947 26.3402 18.856 26.0309 18.664C25.7322 18.472 25.4815 18.2107 25.2789 17.88C25.0869 17.5493 24.9909 17.144 24.9909 16.664V16.488C24.9909 15.88 25.1615 15.3627 25.5029 14.936C25.8549 14.4987 26.3349 14.1627 26.9429 13.928C27.5509 13.6933 28.2442 13.576 29.0229 13.576C29.8122 13.576 30.5055 13.6933 31.1029 13.928C31.7109 14.1627 32.1855 14.4987 32.5269 14.936C32.8789 15.3627 33.0549 15.88 33.0549 16.488V16.664C33.0549 17.144 32.9589 17.5493 32.7669 17.88C32.5749 18.2107 32.3295 18.472 32.0309 18.664C31.7322 18.856 31.4335 18.9947 31.1349 19.08V19.288C31.4335 19.3413 31.7482 19.4693 32.0789 19.672C32.4095 19.864 32.6869 20.1413 32.9109 20.504C33.1455 20.8667 33.2629 21.3253 33.2629 21.88V22.056C33.2629 22.696 33.0922 23.256 32.7509 23.736C32.4095 24.2053 31.9189 24.5733 31.2789 24.84C30.6495 25.096 29.8975 25.224 29.0229 25.224ZM29.0229 24.056C29.9295 24.056 30.6442 23.88 31.1669 23.528C31.7002 23.176 31.9669 22.664 31.9669 21.992V21.864C31.9669 21.192 31.7055 20.68 31.1829 20.328C30.6602 19.976 29.9402 19.8 29.0229 19.8C28.1162 19.8 27.4015 19.976 26.8789 20.328C26.3562 20.68 26.0949 21.192 26.0949 21.864V21.992C26.0949 22.664 26.3562 23.176 26.8789 23.528C27.4122 23.88 28.1269 24.056 29.0229 24.056ZM29.0229 18.632C29.8762 18.632 30.5429 18.472 31.0229 18.152C31.5135 17.8213 31.7589 17.3573 31.7589 16.76V16.632C31.7589 16.024 31.5135 15.56 31.0229 15.24C30.5322 14.9093 29.8655 14.744 29.0229 14.744C28.1802 14.744 27.5135 14.9093 27.0229 15.24C26.5322 15.56 26.2869 16.024 26.2869 16.632V16.76C26.2869 17.3573 26.5322 17.8213 27.0229 18.152C27.5135 18.472 28.1802 18.632 29.0229 18.632ZM38.9756 25.224C38.2076 25.224 37.5196 25.0747 36.9116 24.776C36.3143 24.4667 35.8396 24.0293 35.4876 23.464C35.1463 22.8987 34.9756 22.2267 34.9756 21.448V17.544C34.9756 16.7013 35.141 15.9867 35.4716 15.4C35.8023 14.8133 36.2663 14.3653 36.8636 14.056C37.4716 13.736 38.1916 13.576 39.0236 13.576C39.845 13.576 40.5436 13.7253 41.1196 14.024C41.7063 14.312 42.149 14.712 42.4476 15.224C42.757 15.7253 42.9116 16.3067 42.9116 16.968H41.5996C41.5996 16.3067 41.3863 15.7733 40.9596 15.368C40.533 14.952 39.8876 14.744 39.0236 14.744C38.149 14.744 37.4716 14.984 36.9916 15.464C36.5116 15.9333 36.2716 16.584 36.2716 17.416V18.968H36.4956C36.6876 18.648 37.0076 18.3547 37.4556 18.088C37.9036 17.8107 38.5276 17.672 39.3276 17.672C39.9996 17.672 40.613 17.8213 41.1676 18.12C41.7223 18.4187 42.165 18.84 42.4956 19.384C42.8263 19.928 42.9916 20.5733 42.9916 21.32V21.512C42.9916 22.2693 42.8156 22.9253 42.4636 23.48C42.1223 24.0347 41.6476 24.4667 41.0396 24.776C40.4316 25.0747 39.7436 25.224 38.9756 25.224ZM38.9756 24.056C39.7863 24.056 40.4423 23.8267 40.9436 23.368C41.445 22.9093 41.6956 22.2853 41.6956 21.496V21.368C41.6956 20.8347 41.5783 20.376 41.3436 19.992C41.1196 19.608 40.805 19.3093 40.3996 19.096C39.9943 18.872 39.5196 18.76 38.9756 18.76C38.4423 18.76 37.973 18.872 37.5676 19.096C37.1623 19.3093 36.8423 19.608 36.6076 19.992C36.3836 20.376 36.2716 20.8347 36.2716 21.368V21.496C36.2716 22.2853 36.5223 22.9093 37.0236 23.368C37.525 23.8267 38.1756 24.056 38.9756 24.056Z" fill="white"/>
<path opacity="0.4" d="M5.1955 70.224C4.38483 70.224 3.6595 70.08 3.0195 69.792C2.3795 69.504 1.87283 69.072 1.4995 68.496C1.13683 67.9093 0.9555 67.1787 0.9555 66.304V65.968H2.2835V66.304C2.2835 67.232 2.5555 67.9253 3.0995 68.384C3.6435 68.832 4.34217 69.056 5.1955 69.056C6.07017 69.056 6.73683 68.8587 7.1955 68.464C7.65417 68.0693 7.8835 67.5733 7.8835 66.976C7.8835 66.56 7.78217 66.2293 7.5795 65.984C7.37683 65.7387 7.08883 65.5413 6.7155 65.392C6.34217 65.232 5.90483 65.0933 5.4035 64.976L4.5555 64.768C3.90483 64.5973 3.32883 64.3893 2.8275 64.144C2.32617 63.8987 1.9315 63.5787 1.6435 63.184C1.36617 62.7787 1.2275 62.2613 1.2275 61.632C1.2275 61.0027 1.3875 60.4587 1.7075 60C2.0275 59.5413 2.47017 59.1893 3.0355 58.944C3.60083 58.6987 4.26217 58.576 5.0195 58.576C5.77683 58.576 6.45417 58.7093 7.0515 58.976C7.64883 59.232 8.1235 59.616 8.4755 60.128C8.8275 60.6293 9.0035 61.264 9.0035 62.032V62.704H7.6755V62.032C7.6755 61.488 7.55817 61.0507 7.3235 60.72C7.0995 60.3893 6.78483 60.144 6.3795 59.984C5.98483 59.824 5.5315 59.744 5.0195 59.744C4.2835 59.744 3.6915 59.9093 3.2435 60.24C2.7955 60.56 2.5715 61.0187 2.5715 61.616C2.5715 62.0107 2.66217 62.3307 2.8435 62.576C3.0355 62.8213 3.3075 63.024 3.6595 63.184C4.0115 63.3333 4.43283 63.4667 4.9235 63.584L5.7715 63.792C6.4115 63.9307 6.99283 64.1227 7.5155 64.368C8.03817 64.6027 8.44883 64.928 8.7475 65.344C9.05683 65.7493 9.2115 66.2827 9.2115 66.944C9.2115 67.6053 9.04617 68.1813 8.7155 68.672C8.38483 69.1627 7.9155 69.5467 7.3075 69.824C6.71017 70.0907 6.00617 70.224 5.1955 70.224ZM4.5875 71.856V56.944H5.8195V71.856H4.5875ZM15.12 70.224C13.8507 70.224 12.8373 69.8507 12.08 69.104C11.3333 68.3467 10.96 67.216 10.96 65.712V63.088C10.96 61.5947 11.3333 60.4693 12.08 59.712C12.8373 58.9547 13.8507 58.576 15.12 58.576C16.4 58.576 17.4133 58.9547 18.16 59.712C18.9173 60.4693 19.296 61.5947 19.296 63.088V65.712C19.296 67.216 18.9173 68.3467 18.16 69.104C17.4133 69.8507 16.4 70.224 15.12 70.224ZM15.12 69.056C16.08 69.056 16.8 68.768 17.28 68.192C17.76 67.616 18 66.8107 18 65.776V63.008C18 61.9733 17.7547 61.1733 17.264 60.608C16.7733 60.032 16.0587 59.744 15.12 59.744C14.1813 59.744 13.4667 60.032 12.976 60.608C12.496 61.184 12.256 61.984 12.256 63.008V65.776C12.256 66.8213 12.496 67.632 12.976 68.208C13.456 68.7733 14.1707 69.056 15.12 69.056ZM22.016 70.224C21.7067 70.224 21.4453 70.1227 21.232 69.92C21.0293 69.7173 20.928 69.456 20.928 69.136C20.928 68.816 21.0293 68.5547 21.232 68.352C21.4453 68.1493 21.7067 68.048 22.016 68.048C22.336 68.048 22.5973 68.1493 22.8 68.352C23.0027 68.5547 23.104 68.816 23.104 69.136C23.104 69.456 23.0027 69.7173 22.8 69.92C22.5973 70.1227 22.336 70.224 22.016 70.224ZM29.0229 70.224C28.1589 70.224 27.4069 70.096 26.7669 69.84C26.1375 69.5733 25.6469 69.2053 25.2949 68.736C24.9535 68.256 24.7829 67.696 24.7829 67.056V66.88C24.7829 66.3253 24.9002 65.8667 25.1349 65.504C25.3695 65.1413 25.6522 64.864 25.9829 64.672C26.3242 64.4693 26.6389 64.3413 26.9269 64.288V64.08C26.6389 63.9947 26.3402 63.856 26.0309 63.664C25.7322 63.472 25.4815 63.2107 25.2789 62.88C25.0869 62.5493 24.9909 62.144 24.9909 61.664V61.488C24.9909 60.88 25.1615 60.3627 25.5029 59.936C25.8549 59.4987 26.3349 59.1627 26.9429 58.928C27.5509 58.6933 28.2442 58.576 29.0229 58.576C29.8122 58.576 30.5055 58.6933 31.1029 58.928C31.7109 59.1627 32.1855 59.4987 32.5269 59.936C32.8789 60.3627 33.0549 60.88 33.0549 61.488V61.664C33.0549 62.144 32.9589 62.5493 32.7669 62.88C32.5749 63.2107 32.3295 63.472 32.0309 63.664C31.7322 63.856 31.4335 63.9947 31.1349 64.08V64.288C31.4335 64.3413 31.7482 64.4693 32.0789 64.672C32.4095 64.864 32.6869 65.1413 32.9109 65.504C33.1455 65.8667 33.2629 66.3253 33.2629 66.88V67.056C33.2629 67.696 33.0922 68.256 32.7509 68.736C32.4095 69.2053 31.9189 69.5733 31.2789 69.84C30.6495 70.096 29.8975 70.224 29.0229 70.224ZM29.0229 69.056C29.9295 69.056 30.6442 68.88 31.1669 68.528C31.7002 68.176 31.9669 67.664 31.9669 66.992V66.864C31.9669 66.192 31.7055 65.68 31.1829 65.328C30.6602 64.976 29.9402 64.8 29.0229 64.8C28.1162 64.8 27.4015 64.976 26.8789 65.328C26.3562 65.68 26.0949 66.192 26.0949 66.864V66.992C26.0949 67.664 26.3562 68.176 26.8789 68.528C27.4122 68.88 28.1269 69.056 29.0229 69.056ZM29.0229 63.632C29.8762 63.632 30.5429 63.472 31.0229 63.152C31.5135 62.8213 31.7589 62.3573 31.7589 61.76V61.632C31.7589 61.024 31.5135 60.56 31.0229 60.24C30.5322 59.9093 29.8655 59.744 29.0229 59.744C28.1802 59.744 27.5135 59.9093 27.0229 60.24C26.5322 60.56 26.2869 61.024 26.2869 61.632V61.76C26.2869 62.3573 26.5322 62.8213 27.0229 63.152C27.5135 63.472 28.1802 63.632 29.0229 63.632ZM38.9756 70.224C38.2076 70.224 37.5196 70.0747 36.9116 69.776C36.3143 69.4667 35.8396 69.0293 35.4876 68.464C35.1463 67.8987 34.9756 67.2267 34.9756 66.448V62.544C34.9756 61.7013 35.141 60.9867 35.4716 60.4C35.8023 59.8133 36.2663 59.3653 36.8636 59.056C37.4716 58.736 38.1916 58.576 39.0236 58.576C39.845 58.576 40.5436 58.7253 41.1196 59.024C41.7063 59.312 42.149 59.712 42.4476 60.224C42.757 60.7253 42.9116 61.3067 42.9116 61.968H41.5996C41.5996 61.3067 41.3863 60.7733 40.9596 60.368C40.533 59.952 39.8876 59.744 39.0236 59.744C38.149 59.744 37.4716 59.984 36.9916 60.464C36.5116 60.9333 36.2716 61.584 36.2716 62.416V63.968H36.4956C36.6876 63.648 37.0076 63.3547 37.4556 63.088C37.9036 62.8107 38.5276 62.672 39.3276 62.672C39.9996 62.672 40.613 62.8213 41.1676 63.12C41.7223 63.4187 42.165 63.84 42.4956 64.384C42.8263 64.928 42.9916 65.5733 42.9916 66.32V66.512C42.9916 67.2693 42.8156 67.9253 42.4636 68.48C42.1223 69.0347 41.6476 69.4667 41.0396 69.776C40.4316 70.0747 39.7436 70.224 38.9756 70.224ZM38.9756 69.056C39.7863 69.056 40.4423 68.8267 40.9436 68.368C41.445 67.9093 41.6956 67.2853 41.6956 66.496V66.368C41.6956 65.8347 41.5783 65.376 41.3436 64.992C41.1196 64.608 40.805 64.3093 40.3996 64.096C39.9943 63.872 39.5196 63.76 38.9756 63.76C38.4423 63.76 37.973 63.872 37.5676 64.096C37.1623 64.3093 36.8423 64.608 36.6076 64.992C36.3836 65.376 36.2716 65.8347 36.2716 66.368V66.496C36.2716 67.2853 36.5223 67.9093 37.0236 68.368C37.525 68.8267 38.1756 69.056 38.9756 69.056Z" fill="white"/>
<path opacity="0.4" d="M5.1955 115.224C4.38483 115.224 3.6595 115.08 3.0195 114.792C2.3795 114.504 1.87283 114.072 1.4995 113.496C1.13683 112.909 0.9555 112.179 0.9555 111.304V110.968H2.2835V111.304C2.2835 112.232 2.5555 112.925 3.0995 113.384C3.6435 113.832 4.34217 114.056 5.1955 114.056C6.07017 114.056 6.73683 113.859 7.1955 113.464C7.65417 113.069 7.8835 112.573 7.8835 111.976C7.8835 111.56 7.78217 111.229 7.5795 110.984C7.37683 110.739 7.08883 110.541 6.7155 110.392C6.34217 110.232 5.90483 110.093 5.4035 109.976L4.5555 109.768C3.90483 109.597 3.32883 109.389 2.8275 109.144C2.32617 108.899 1.9315 108.579 1.6435 108.184C1.36617 107.779 1.2275 107.261 1.2275 106.632C1.2275 106.003 1.3875 105.459 1.7075 105C2.0275 104.541 2.47017 104.189 3.0355 103.944C3.60083 103.699 4.26217 103.576 5.0195 103.576C5.77683 103.576 6.45417 103.709 7.0515 103.976C7.64883 104.232 8.1235 104.616 8.4755 105.128C8.8275 105.629 9.0035 106.264 9.0035 107.032V107.704H7.6755V107.032C7.6755 106.488 7.55817 106.051 7.3235 105.72C7.0995 105.389 6.78483 105.144 6.3795 104.984C5.98483 104.824 5.5315 104.744 5.0195 104.744C4.2835 104.744 3.6915 104.909 3.2435 105.24C2.7955 105.56 2.5715 106.019 2.5715 106.616C2.5715 107.011 2.66217 107.331 2.8435 107.576C3.0355 107.821 3.3075 108.024 3.6595 108.184C4.0115 108.333 4.43283 108.467 4.9235 108.584L5.7715 108.792C6.4115 108.931 6.99283 109.123 7.5155 109.368C8.03817 109.603 8.44883 109.928 8.7475 110.344C9.05683 110.749 9.2115 111.283 9.2115 111.944C9.2115 112.605 9.04617 113.181 8.7155 113.672C8.38483 114.163 7.9155 114.547 7.3075 114.824C6.71017 115.091 6.00617 115.224 5.1955 115.224ZM4.5875 116.856V101.944H5.8195V116.856H4.5875ZM15.12 115.224C13.8507 115.224 12.8373 114.851 12.08 114.104C11.3333 113.347 10.96 112.216 10.96 110.712V108.088C10.96 106.595 11.3333 105.469 12.08 104.712C12.8373 103.955 13.8507 103.576 15.12 103.576C16.4 103.576 17.4133 103.955 18.16 104.712C18.9173 105.469 19.296 106.595 19.296 108.088V110.712C19.296 112.216 18.9173 113.347 18.16 114.104C17.4133 114.851 16.4 115.224 15.12 115.224ZM15.12 114.056C16.08 114.056 16.8 113.768 17.28 113.192C17.76 112.616 18 111.811 18 110.776V108.008C18 106.973 17.7547 106.173 17.264 105.608C16.7733 105.032 16.0587 104.744 15.12 104.744C14.1813 104.744 13.4667 105.032 12.976 105.608C12.496 106.184 12.256 106.984 12.256 108.008V110.776C12.256 111.821 12.496 112.632 12.976 113.208C13.456 113.773 14.1707 114.056 15.12 114.056ZM22.016 115.224C21.7067 115.224 21.4453 115.123 21.232 114.92C21.0293 114.717 20.928 114.456 20.928 114.136C20.928 113.816 21.0293 113.555 21.232 113.352C21.4453 113.149 21.7067 113.048 22.016 113.048C22.336 113.048 22.5973 113.149 22.8 113.352C23.0027 113.555 23.104 113.816 23.104 114.136C23.104 114.456 23.0027 114.717 22.8 114.92C22.5973 115.123 22.336 115.224 22.016 115.224ZM29.0229 115.224C28.1589 115.224 27.4069 115.096 26.7669 114.84C26.1375 114.573 25.6469 114.205 25.2949 113.736C24.9535 113.256 24.7829 112.696 24.7829 112.056V111.88C24.7829 111.325 24.9002 110.867 25.1349 110.504C25.3695 110.141 25.6522 109.864 25.9829 109.672C26.3242 109.469 26.6389 109.341 26.9269 109.288V109.08C26.6389 108.995 26.3402 108.856 26.0309 108.664C25.7322 108.472 25.4815 108.211 25.2789 107.88C25.0869 107.549 24.9909 107.144 24.9909 106.664V106.488C24.9909 105.88 25.1615 105.363 25.5029 104.936C25.8549 104.499 26.3349 104.163 26.9429 103.928C27.5509 103.693 28.2442 103.576 29.0229 103.576C29.8122 103.576 30.5055 103.693 31.1029 103.928C31.7109 104.163 32.1855 104.499 32.5269 104.936C32.8789 105.363 33.0549 105.88 33.0549 106.488V106.664C33.0549 107.144 32.9589 107.549 32.7669 107.88C32.5749 108.211 32.3295 108.472 32.0309 108.664C31.7322 108.856 31.4335 108.995 31.1349 109.08V109.288C31.4335 109.341 31.7482 109.469 32.0789 109.672C32.4095 109.864 32.6869 110.141 32.9109 110.504C33.1455 110.867 33.2629 111.325 33.2629 111.88V112.056C33.2629 112.696 33.0922 113.256 32.7509 113.736C32.4095 114.205 31.9189 114.573 31.2789 114.84C30.6495 115.096 29.8975 115.224 29.0229 115.224ZM29.0229 114.056C29.9295 114.056 30.6442 113.88 31.1669 113.528C31.7002 113.176 31.9669 112.664 31.9669 111.992V111.864C31.9669 111.192 31.7055 110.68 31.1829 110.328C30.6602 109.976 29.9402 109.8 29.0229 109.8C28.1162 109.8 27.4015 109.976 26.8789 110.328C26.3562 110.68 26.0949 111.192 26.0949 111.864V111.992C26.0949 112.664 26.3562 113.176 26.8789 113.528C27.4122 113.88 28.1269 114.056 29.0229 114.056ZM29.0229 108.632C29.8762 108.632 30.5429 108.472 31.0229 108.152C31.5135 107.821 31.7589 107.357 31.7589 106.76V106.632C31.7589 106.024 31.5135 105.56 31.0229 105.24C30.5322 104.909 29.8655 104.744 29.0229 104.744C28.1802 104.744 27.5135 104.909 27.0229 105.24C26.5322 105.56 26.2869 106.024 26.2869 106.632V106.76C26.2869 107.357 26.5322 107.821 27.0229 108.152C27.5135 108.472 28.1802 108.632 29.0229 108.632ZM38.9756 115.224C38.2076 115.224 37.5196 115.075 36.9116 114.776C36.3143 114.467 35.8396 114.029 35.4876 113.464C35.1463 112.899 34.9756 112.227 34.9756 111.448V107.544C34.9756 106.701 35.141 105.987 35.4716 105.4C35.8023 104.813 36.2663 104.365 36.8636 104.056C37.4716 103.736 38.1916 103.576 39.0236 103.576C39.845 103.576 40.5436 103.725 41.1196 104.024C41.7063 104.312 42.149 104.712 42.4476 105.224C42.757 105.725 42.9116 106.307 42.9116 106.968H41.5996C41.5996 106.307 41.3863 105.773 40.9596 105.368C40.533 104.952 39.8876 104.744 39.0236 104.744C38.149 104.744 37.4716 104.984 36.9916 105.464C36.5116 105.933 36.2716 106.584 36.2716 107.416V108.968H36.4956C36.6876 108.648 37.0076 108.355 37.4556 108.088C37.9036 107.811 38.5276 107.672 39.3276 107.672C39.9996 107.672 40.613 107.821 41.1676 108.12C41.7223 108.419 42.165 108.84 42.4956 109.384C42.8263 109.928 42.9916 110.573 42.9916 111.32V111.512C42.9916 112.269 42.8156 112.925 42.4636 113.48C42.1223 114.035 41.6476 114.467 41.0396 114.776C40.4316 115.075 39.7436 115.224 38.9756 115.224ZM38.9756 114.056C39.7863 114.056 40.4423 113.827 40.9436 113.368C41.445 112.909 41.6956 112.285 41.6956 111.496V111.368C41.6956 110.835 41.5783 110.376 41.3436 109.992C41.1196 109.608 40.805 109.309 40.3996 109.096C39.9943 108.872 39.5196 108.76 38.9756 108.76C38.4423 108.76 37.973 108.872 37.5676 109.096C37.1623 109.309 36.8423 109.608 36.6076 109.992C36.3836 110.376 36.2716 110.835 36.2716 111.368V111.496C36.2716 112.285 36.5223 112.909 37.0236 113.368C37.525 113.827 38.1756 114.056 38.9756 114.056Z" fill="white"/>
<path opacity="0.4" d="M5.1955 160.224C4.38483 160.224 3.6595 160.08 3.0195 159.792C2.3795 159.504 1.87283 159.072 1.4995 158.496C1.13683 157.909 0.9555 157.179 0.9555 156.304V155.968H2.2835V156.304C2.2835 157.232 2.5555 157.925 3.0995 158.384C3.6435 158.832 4.34217 159.056 5.1955 159.056C6.07017 159.056 6.73683 158.859 7.1955 158.464C7.65417 158.069 7.8835 157.573 7.8835 156.976C7.8835 156.56 7.78217 156.229 7.5795 155.984C7.37683 155.739 7.08883 155.541 6.7155 155.392C6.34217 155.232 5.90483 155.093 5.4035 154.976L4.5555 154.768C3.90483 154.597 3.32883 154.389 2.8275 154.144C2.32617 153.899 1.9315 153.579 1.6435 153.184C1.36617 152.779 1.2275 152.261 1.2275 151.632C1.2275 151.003 1.3875 150.459 1.7075 150C2.0275 149.541 2.47017 149.189 3.0355 148.944C3.60083 148.699 4.26217 148.576 5.0195 148.576C5.77683 148.576 6.45417 148.709 7.0515 148.976C7.64883 149.232 8.1235 149.616 8.4755 150.128C8.8275 150.629 9.0035 151.264 9.0035 152.032V152.704H7.6755V152.032C7.6755 151.488 7.55817 151.051 7.3235 150.72C7.0995 150.389 6.78483 150.144 6.3795 149.984C5.98483 149.824 5.5315 149.744 5.0195 149.744C4.2835 149.744 3.6915 149.909 3.2435 150.24C2.7955 150.56 2.5715 151.019 2.5715 151.616C2.5715 152.011 2.66217 152.331 2.8435 152.576C3.0355 152.821 3.3075 153.024 3.6595 153.184C4.0115 153.333 4.43283 153.467 4.9235 153.584L5.7715 153.792C6.4115 153.931 6.99283 154.123 7.5155 154.368C8.03817 154.603 8.44883 154.928 8.7475 155.344C9.05683 155.749 9.2115 156.283 9.2115 156.944C9.2115 157.605 9.04617 158.181 8.7155 158.672C8.38483 159.163 7.9155 159.547 7.3075 159.824C6.71017 160.091 6.00617 160.224 5.1955 160.224ZM4.5875 161.856V146.944H5.8195V161.856H4.5875ZM15.12 160.224C13.8507 160.224 12.8373 159.851 12.08 159.104C11.3333 158.347 10.96 157.216 10.96 155.712V153.088C10.96 151.595 11.3333 150.469 12.08 149.712C12.8373 148.955 13.8507 148.576 15.12 148.576C16.4 148.576 17.4133 148.955 18.16 149.712C18.9173 150.469 19.296 151.595 19.296 153.088V155.712C19.296 157.216 18.9173 158.347 18.16 159.104C17.4133 159.851 16.4 160.224 15.12 160.224ZM15.12 159.056C16.08 159.056 16.8 158.768 17.28 158.192C17.76 157.616 18 156.811 18 155.776V153.008C18 151.973 17.7547 151.173 17.264 150.608C16.7733 150.032 16.0587 149.744 15.12 149.744C14.1813 149.744 13.4667 150.032 12.976 150.608C12.496 151.184 12.256 151.984 12.256 153.008V155.776C12.256 156.821 12.496 157.632 12.976 158.208C13.456 158.773 14.1707 159.056 15.12 159.056ZM22.016 160.224C21.7067 160.224 21.4453 160.123 21.232 159.92C21.0293 159.717 20.928 159.456 20.928 159.136C20.928 158.816 21.0293 158.555 21.232 158.352C21.4453 158.149 21.7067 158.048 22.016 158.048C22.336 158.048 22.5973 158.149 22.8 158.352C23.0027 158.555 23.104 158.816 23.104 159.136C23.104 159.456 23.0027 159.717 22.8 159.92C22.5973 160.123 22.336 160.224 22.016 160.224ZM29.0229 160.224C28.1589 160.224 27.4069 160.096 26.7669 159.84C26.1375 159.573 25.6469 159.205 25.2949 158.736C24.9535 158.256 24.7829 157.696 24.7829 157.056V156.88C24.7829 156.325 24.9002 155.867 25.1349 155.504C25.3695 155.141 25.6522 154.864 25.9829 154.672C26.3242 154.469 26.6389 154.341 26.9269 154.288V154.08C26.6389 153.995 26.3402 153.856 26.0309 153.664C25.7322 153.472 25.4815 153.211 25.2789 152.88C25.0869 152.549 24.9909 152.144 24.9909 151.664V151.488C24.9909 150.88 25.1615 150.363 25.5029 149.936C25.8549 149.499 26.3349 149.163 26.9429 148.928C27.5509 148.693 28.2442 148.576 29.0229 148.576C29.8122 148.576 30.5055 148.693 31.1029 148.928C31.7109 149.163 32.1855 149.499 32.5269 149.936C32.8789 150.363 33.0549 150.88 33.0549 151.488V151.664C33.0549 152.144 32.9589 152.549 32.7669 152.88C32.5749 153.211 32.3295 153.472 32.0309 153.664C31.7322 153.856 31.4335 153.995 31.1349 154.08V154.288C31.4335 154.341 31.7482 154.469 32.0789 154.672C32.4095 154.864 32.6869 155.141 32.9109 155.504C33.1455 155.867 33.2629 156.325 33.2629 156.88V157.056C33.2629 157.696 33.0922 158.256 32.7509 158.736C32.4095 159.205 31.9189 159.573 31.2789 159.84C30.6495 160.096 29.8975 160.224 29.0229 160.224ZM29.0229 159.056C29.9295 159.056 30.6442 158.88 31.1669 158.528C31.7002 158.176 31.9669 157.664 31.9669 156.992V156.864C31.9669 156.192 31.7055 155.68 31.1829 155.328C30.6602 154.976 29.9402 154.8 29.0229 154.8C28.1162 154.8 27.4015 154.976 26.8789 155.328C26.3562 155.68 26.0949 156.192 26.0949 156.864V156.992C26.0949 157.664 26.3562 158.176 26.8789 158.528C27.4122 158.88 28.1269 159.056 29.0229 159.056ZM29.0229 153.632C29.8762 153.632 30.5429 153.472 31.0229 153.152C31.5135 152.821 31.7589 152.357 31.7589 151.76V151.632C31.7589 151.024 31.5135 150.56 31.0229 150.24C30.5322 149.909 29.8655 149.744 29.0229 149.744C28.1802 149.744 27.5135 149.909 27.0229 150.24C26.5322 150.56 26.2869 151.024 26.2869 151.632V151.76C26.2869 152.357 26.5322 152.821 27.0229 153.152C27.5135 153.472 28.1802 153.632 29.0229 153.632ZM38.9756 160.224C38.2076 160.224 37.5196 160.075 36.9116 159.776C36.3143 159.467 35.8396 159.029 35.4876 158.464C35.1463 157.899 34.9756 157.227 34.9756 156.448V152.544C34.9756 151.701 35.141 150.987 35.4716 150.4C35.8023 149.813 36.2663 149.365 36.8636 149.056C37.4716 148.736 38.1916 148.576 39.0236 148.576C39.845 148.576 40.5436 148.725 41.1196 149.024C41.7063 149.312 42.149 149.712 42.4476 150.224C42.757 150.725 42.9116 151.307 42.9116 151.968H41.5996C41.5996 151.307 41.3863 150.773 40.9596 150.368C40.533 149.952 39.8876 149.744 39.0236 149.744C38.149 149.744 37.4716 149.984 36.9916 150.464C36.5116 150.933 36.2716 151.584 36.2716 152.416V153.968H36.4956C36.6876 153.648 37.0076 153.355 37.4556 153.088C37.9036 152.811 38.5276 152.672 39.3276 152.672C39.9996 152.672 40.613 152.821 41.1676 153.12C41.7223 153.419 42.165 153.84 42.4956 154.384C42.8263 154.928 42.9916 155.573 42.9916 156.32V156.512C42.9916 157.269 42.8156 157.925 42.4636 158.48C42.1223 159.035 41.6476 159.467 41.0396 159.776C40.4316 160.075 39.7436 160.224 38.9756 160.224ZM38.9756 159.056C39.7863 159.056 40.4423 158.827 40.9436 158.368C41.445 157.909 41.6956 157.285 41.6956 156.496V156.368C41.6956 155.835 41.5783 155.376 41.3436 154.992C41.1196 154.608 40.805 154.309 40.3996 154.096C39.9943 153.872 39.5196 153.76 38.9756 153.76C38.4423 153.76 37.973 153.872 37.5676 154.096C37.1623 154.309 36.8423 154.608 36.6076 154.992C36.3836 155.376 36.2716 155.835 36.2716 156.368V156.496C36.2716 157.285 36.5223 157.909 37.0236 158.368C37.525 158.827 38.1756 159.056 38.9756 159.056Z" fill="white"/>
<path opacity="0.4" d="M5.1955 205.224C4.38483 205.224 3.6595 205.08 3.0195 204.792C2.3795 204.504 1.87283 204.072 1.4995 203.496C1.13683 202.909 0.9555 202.179 0.9555 201.304V200.968H2.2835V201.304C2.2835 202.232 2.5555 202.925 3.0995 203.384C3.6435 203.832 4.34217 204.056 5.1955 204.056C6.07017 204.056 6.73683 203.859 7.1955 203.464C7.65417 203.069 7.8835 202.573 7.8835 201.976C7.8835 201.56 7.78217 201.229 7.5795 200.984C7.37683 200.739 7.08883 200.541 6.7155 200.392C6.34217 200.232 5.90483 200.093 5.4035 199.976L4.5555 199.768C3.90483 199.597 3.32883 199.389 2.8275 199.144C2.32617 198.899 1.9315 198.579 1.6435 198.184C1.36617 197.779 1.2275 197.261 1.2275 196.632C1.2275 196.003 1.3875 195.459 1.7075 195C2.0275 194.541 2.47017 194.189 3.0355 193.944C3.60083 193.699 4.26217 193.576 5.0195 193.576C5.77683 193.576 6.45417 193.709 7.0515 193.976C7.64883 194.232 8.1235 194.616 8.4755 195.128C8.8275 195.629 9.0035 196.264 9.0035 197.032V197.704H7.6755V197.032C7.6755 196.488 7.55817 196.051 7.3235 195.72C7.0995 195.389 6.78483 195.144 6.3795 194.984C5.98483 194.824 5.5315 194.744 5.0195 194.744C4.2835 194.744 3.6915 194.909 3.2435 195.24C2.7955 195.56 2.5715 196.019 2.5715 196.616C2.5715 197.011 2.66217 197.331 2.8435 197.576C3.0355 197.821 3.3075 198.024 3.6595 198.184C4.0115 198.333 4.43283 198.467 4.9235 198.584L5.7715 198.792C6.4115 198.931 6.99283 199.123 7.5155 199.368C8.03817 199.603 8.44883 199.928 8.7475 200.344C9.05683 200.749 9.2115 201.283 9.2115 201.944C9.2115 202.605 9.04617 203.181 8.7155 203.672C8.38483 204.163 7.9155 204.547 7.3075 204.824C6.71017 205.091 6.00617 205.224 5.1955 205.224ZM4.5875 206.856V191.944H5.8195V206.856H4.5875ZM15.12 205.224C13.8507 205.224 12.8373 204.851 12.08 204.104C11.3333 203.347 10.96 202.216 10.96 200.712V198.088C10.96 196.595 11.3333 195.469 12.08 194.712C12.8373 193.955 13.8507 193.576 15.12 193.576C16.4 193.576 17.4133 193.955 18.16 194.712C18.9173 195.469 19.296 196.595 19.296 198.088V200.712C19.296 202.216 18.9173 203.347 18.16 204.104C17.4133 204.851 16.4 205.224 15.12 205.224ZM15.12 204.056C16.08 204.056 16.8 203.768 17.28 203.192C17.76 202.616 18 201.811 18 200.776V198.008C18 196.973 17.7547 196.173 17.264 195.608C16.7733 195.032 16.0587 194.744 15.12 194.744C14.1813 194.744 13.4667 195.032 12.976 195.608C12.496 196.184 12.256 196.984 12.256 198.008V200.776C12.256 201.821 12.496 202.632 12.976 203.208C13.456 203.773 14.1707 204.056 15.12 204.056ZM22.016 205.224C21.7067 205.224 21.4453 205.123 21.232 204.92C21.0293 204.717 20.928 204.456 20.928 204.136C20.928 203.816 21.0293 203.555 21.232 203.352C21.4453 203.149 21.7067 203.048 22.016 203.048C22.336 203.048 22.5973 203.149 22.8 203.352C23.0027 203.555 23.104 203.816 23.104 204.136C23.104 204.456 23.0027 204.717 22.8 204.92C22.5973 205.123 22.336 205.224 22.016 205.224ZM29.0229 205.224C28.1589 205.224 27.4069 205.096 26.7669 204.84C26.1375 204.573 25.6469 204.205 25.2949 203.736C24.9535 203.256 24.7829 202.696 24.7829 202.056V201.88C24.7829 201.325 24.9002 200.867 25.1349 200.504C25.3695 200.141 25.6522 199.864 25.9829 199.672C26.3242 199.469 26.6389 199.341 26.9269 199.288V199.08C26.6389 198.995 26.3402 198.856 26.0309 198.664C25.7322 198.472 25.4815 198.211 25.2789 197.88C25.0869 197.549 24.9909 197.144 24.9909 196.664V196.488C24.9909 195.88 25.1615 195.363 25.5029 194.936C25.8549 194.499 26.3349 194.163 26.9429 193.928C27.5509 193.693 28.2442 193.576 29.0229 193.576C29.8122 193.576 30.5055 193.693 31.1029 193.928C31.7109 194.163 32.1855 194.499 32.5269 194.936C32.8789 195.363 33.0549 195.88 33.0549 196.488V196.664C33.0549 197.144 32.9589 197.549 32.7669 197.88C32.5749 198.211 32.3295 198.472 32.0309 198.664C31.7322 198.856 31.4335 198.995 31.1349 199.08V199.288C31.4335 199.341 31.7482 199.469 32.0789 199.672C32.4095 199.864 32.6869 200.141 32.9109 200.504C33.1455 200.867 33.2629 201.325 33.2629 201.88V202.056C33.2629 202.696 33.0922 203.256 32.7509 203.736C32.4095 204.205 31.9189 204.573 31.2789 204.84C30.6495 205.096 29.8975 205.224 29.0229 205.224ZM29.0229 204.056C29.9295 204.056 30.6442 203.88 31.1669 203.528C31.7002 203.176 31.9669 202.664 31.9669 201.992V201.864C31.9669 201.192 31.7055 200.68 31.1829 200.328C30.6602 199.976 29.9402 199.8 29.0229 199.8C28.1162 199.8 27.4015 199.976 26.8789 200.328C26.3562 200.68 26.0949 201.192 26.0949 201.864V201.992C26.0949 202.664 26.3562 203.176 26.8789 203.528C27.4122 203.88 28.1269 204.056 29.0229 204.056ZM29.0229 198.632C29.8762 198.632 30.5429 198.472 31.0229 198.152C31.5135 197.821 31.7589 197.357 31.7589 196.76V196.632C31.7589 196.024 31.5135 195.56 31.0229 195.24C30.5322 194.909 29.8655 194.744 29.0229 194.744C28.1802 194.744 27.5135 194.909 27.0229 195.24C26.5322 195.56 26.2869 196.024 26.2869 196.632V196.76C26.2869 197.357 26.5322 197.821 27.0229 198.152C27.5135 198.472 28.1802 198.632 29.0229 198.632ZM38.9756 205.224C38.2076 205.224 37.5196 205.075 36.9116 204.776C36.3143 204.467 35.8396 204.029 35.4876 203.464C35.1463 202.899 34.9756 202.227 34.9756 201.448V197.544C34.9756 196.701 35.141 195.987 35.4716 195.4C35.8023 194.813 36.2663 194.365 36.8636 194.056C37.4716 193.736 38.1916 193.576 39.0236 193.576C39.845 193.576 40.5436 193.725 41.1196 194.024C41.7063 194.312 42.149 194.712 42.4476 195.224C42.757 195.725 42.9116 196.307 42.9116 196.968H41.5996C41.5996 196.307 41.3863 195.773 40.9596 195.368C40.533 194.952 39.8876 194.744 39.0236 194.744C38.149 194.744 37.4716 194.984 36.9916 195.464C36.5116 195.933 36.2716 196.584 36.2716 197.416V198.968H36.4956C36.6876 198.648 37.0076 198.355 37.4556 198.088C37.9036 197.811 38.5276 197.672 39.3276 197.672C39.9996 197.672 40.613 197.821 41.1676 198.12C41.7223 198.419 42.165 198.84 42.4956 199.384C42.8263 199.928 42.9916 200.573 42.9916 201.32V201.512C42.9916 202.269 42.8156 202.925 42.4636 203.48C42.1223 204.035 41.6476 204.467 41.0396 204.776C40.4316 205.075 39.7436 205.224 38.9756 205.224ZM38.9756 204.056C39.7863 204.056 40.4423 203.827 40.9436 203.368C41.445 202.909 41.6956 202.285 41.6956 201.496V201.368C41.6956 200.835 41.5783 200.376 41.3436 199.992C41.1196 199.608 40.805 199.309 40.3996 199.096C39.9943 198.872 39.5196 198.76 38.9756 198.76C38.4423 198.76 37.973 198.872 37.5676 199.096C37.1623 199.309 36.8423 199.608 36.6076 199.992C36.3836 200.376 36.2716 200.835 36.2716 201.368V201.496C36.2716 202.285 36.5223 202.909 37.0236 203.368C37.525 203.827 38.1756 204.056 38.9756 204.056Z" fill="white"/>
<path opacity="0.4" d="M72.1511 205V194.664H71.9111L69.7351 198.648H68.3271L70.9991 193.8H73.4471V205H72.1511ZM77.1586 205V204.6C77.1586 204.227 77.1906 203.912 77.2546 203.656C77.3186 203.4 77.4412 203.096 77.6226 202.744L81.8946 195.144V194.968H75.2386V193.8H83.2546V195.336L78.7906 203.336C78.6626 203.56 78.5719 203.763 78.5186 203.944C78.4759 204.125 78.4546 204.355 78.4546 204.632V205H77.1586ZM92.0752 205.224C90.9765 205.224 90.1072 204.915 89.4672 204.296C88.8379 203.677 88.5232 202.792 88.5232 201.64V200.776H89.8512V201.64C89.8512 202.333 90.0325 202.899 90.3952 203.336C90.7685 203.773 91.3232 203.992 92.0592 203.992C92.8059 203.992 93.3339 203.779 93.6432 203.352C93.9525 202.915 94.1072 202.344 94.1072 201.64V195.016H92.1392V193.8H96.6672V195.016H95.4512V201.64C95.4512 202.803 95.1632 203.693 94.5872 204.312C94.0112 204.92 93.1739 205.224 92.0752 205.224ZM100.673 205.224C100.129 205.224 99.6333 205.128 99.1853 204.936C98.7373 204.744 98.3853 204.467 98.1293 204.104C97.8733 203.741 97.7453 203.299 97.7453 202.776C97.7453 202.243 97.8733 201.805 98.1293 201.464C98.3853 201.112 98.7373 200.851 99.1853 200.68C99.6333 200.499 100.135 200.408 100.689 200.408H103.329V199.832C103.329 199.277 103.164 198.84 102.833 198.52C102.513 198.2 102.033 198.04 101.393 198.04C100.764 198.04 100.273 198.195 99.9213 198.504C99.5693 198.803 99.3293 199.208 99.2013 199.72L98.0173 199.336C98.1453 198.899 98.348 198.504 98.6253 198.152C98.9026 197.789 99.2706 197.501 99.7293 197.288C100.199 197.064 100.759 196.952 101.409 196.952C102.412 196.952 103.191 197.213 103.745 197.736C104.3 198.248 104.577 198.973 104.577 199.912V203.448C104.577 203.768 104.727 203.928 105.025 203.928H105.745V205H104.641C104.289 205 104.007 204.904 103.793 204.712C103.58 204.509 103.473 204.243 103.473 203.912V203.832H103.281C103.164 204.035 103.004 204.248 102.801 204.472C102.609 204.685 102.343 204.861 102.001 205C101.66 205.149 101.217 205.224 100.673 205.224ZM100.817 204.136C101.564 204.136 102.167 203.917 102.625 203.48C103.095 203.032 103.329 202.408 103.329 201.608V201.432H100.737C100.236 201.432 99.82 201.544 99.4893 201.768C99.1693 201.981 99.0093 202.307 99.0093 202.744C99.0093 203.181 99.1746 203.523 99.5053 203.768C99.8466 204.013 100.284 204.136 100.817 204.136ZM107.476 205V197.176H108.708V198.504H108.932C109.103 198.131 109.391 197.795 109.796 197.496C110.212 197.187 110.82 197.032 111.62 197.032C112.207 197.032 112.73 197.155 113.188 197.4C113.658 197.645 114.031 198.008 114.308 198.488C114.586 198.968 114.724 199.56 114.724 200.264V205H113.46V200.36C113.46 199.581 113.263 199.016 112.868 198.664C112.484 198.312 111.962 198.136 111.3 198.136C110.543 198.136 109.924 198.381 109.444 198.872C108.975 199.363 108.74 200.093 108.74 201.064V205H107.476Z" fill="white"/>
<path opacity="0.4" d="M153.268 205V194.664H153.028L150.852 198.648H149.444L152.116 193.8H154.564V205H153.268ZM160.628 205.224C159.806 205.224 159.102 205.08 158.516 204.792C157.94 204.493 157.502 204.088 157.204 203.576C156.905 203.064 156.756 202.483 156.756 201.832H158.052C158.052 202.493 158.27 203.032 158.708 203.448C159.145 203.853 159.785 204.056 160.628 204.056C161.513 204.056 162.19 203.821 162.66 203.352C163.14 202.872 163.38 202.216 163.38 201.384V199.832H163.172C162.969 200.152 162.644 200.451 162.196 200.728C161.758 200.995 161.14 201.128 160.34 201.128C159.668 201.128 159.049 200.979 158.484 200.68C157.929 200.381 157.486 199.96 157.156 199.416C156.825 198.872 156.66 198.227 156.66 197.48V197.288C156.66 196.52 156.836 195.864 157.188 195.32C157.54 194.765 158.014 194.339 158.612 194.04C159.22 193.731 159.908 193.576 160.676 193.576C161.454 193.576 162.142 193.731 162.74 194.04C163.348 194.339 163.822 194.771 164.164 195.336C164.505 195.891 164.676 196.563 164.676 197.352V201.256C164.676 202.088 164.51 202.803 164.18 203.4C163.86 203.987 163.396 204.44 162.788 204.76C162.18 205.069 161.46 205.224 160.628 205.224ZM160.676 200.04C161.209 200.04 161.678 199.933 162.084 199.72C162.489 199.496 162.804 199.192 163.028 198.808C163.262 198.413 163.38 197.955 163.38 197.432V197.304C163.38 196.504 163.129 195.88 162.628 195.432C162.137 194.973 161.486 194.744 160.676 194.744C159.865 194.744 159.209 194.973 158.708 195.432C158.206 195.88 157.956 196.504 157.956 197.304V197.432C157.956 197.955 158.068 198.413 158.292 198.808C158.526 199.192 158.846 199.496 159.252 199.72C159.668 199.933 160.142 200.04 160.676 200.04ZM173.958 205.224C172.859 205.224 171.99 204.915 171.35 204.296C170.721 203.677 170.406 202.792 170.406 201.64V200.776H171.734V201.64C171.734 202.333 171.915 202.899 172.278 203.336C172.651 203.773 173.206 203.992 173.942 203.992C174.689 203.992 175.217 203.779 175.526 203.352C175.835 202.915 175.99 202.344 175.99 201.64V195.016H174.022V193.8H178.55V195.016H177.334V201.64C177.334 202.803 177.046 203.693 176.47 204.312C175.894 204.92 175.057 205.224 173.958 205.224ZM182.556 205.224C182.012 205.224 181.516 205.128 181.068 204.936C180.62 204.744 180.268 204.467 180.012 204.104C179.756 203.741 179.628 203.299 179.628 202.776C179.628 202.243 179.756 201.805 180.012 201.464C180.268 201.112 180.62 200.851 181.068 200.68C181.516 200.499 182.017 200.408 182.572 200.408H185.212V199.832C185.212 199.277 185.047 198.84 184.716 198.52C184.396 198.2 183.916 198.04 183.276 198.04C182.647 198.04 182.156 198.195 181.804 198.504C181.452 198.803 181.212 199.208 181.084 199.72L179.9 199.336C180.028 198.899 180.231 198.504 180.508 198.152C180.785 197.789 181.153 197.501 181.612 197.288C182.081 197.064 182.641 196.952 183.292 196.952C184.295 196.952 185.073 197.213 185.628 197.736C186.183 198.248 186.46 198.973 186.46 199.912V203.448C186.46 203.768 186.609 203.928 186.908 203.928H187.628V205H186.524C186.172 205 185.889 204.904 185.676 204.712C185.463 204.509 185.356 204.243 185.356 203.912V203.832H185.164C185.047 204.035 184.887 204.248 184.684 204.472C184.492 204.685 184.225 204.861 183.884 205C183.543 205.149 183.1 205.224 182.556 205.224ZM182.7 204.136C183.447 204.136 184.049 203.917 184.508 203.48C184.977 203.032 185.212 202.408 185.212 201.608V201.432H182.62C182.119 201.432 181.703 201.544 181.372 201.768C181.052 201.981 180.892 202.307 180.892 202.744C180.892 203.181 181.057 203.523 181.388 203.768C181.729 204.013 182.167 204.136 182.7 204.136ZM189.359 205V197.176H190.591V198.504H190.815C190.986 198.131 191.274 197.795 191.679 197.496C192.095 197.187 192.703 197.032 193.503 197.032C194.09 197.032 194.613 197.155 195.071 197.4C195.541 197.645 195.914 198.008 196.191 198.488C196.469 198.968 196.607 199.56 196.607 200.264V205H195.343V200.36C195.343 199.581 195.146 199.016 194.751 198.664C194.367 198.312 193.845 198.136 193.183 198.136C192.426 198.136 191.807 198.381 191.327 198.872C190.858 199.363 190.623 200.093 190.623 201.064V205H189.359Z" fill="white"/>
<path opacity="0.4" d="M232.082 205V203.832C232.082 203.032 232.221 202.392 232.498 201.912C232.786 201.432 233.181 201.048 233.682 200.76C234.194 200.461 234.802 200.205 235.506 199.992L236.386 199.72C236.866 199.571 237.288 199.389 237.65 199.176C238.013 198.952 238.296 198.675 238.498 198.344C238.701 198.003 238.802 197.587 238.802 197.096V197.032C238.802 196.328 238.557 195.773 238.066 195.368C237.576 194.952 236.946 194.744 236.178 194.744C235.368 194.744 234.706 194.963 234.194 195.4C233.682 195.827 233.426 196.477 233.426 197.352V197.576H232.146V197.368C232.146 196.557 232.322 195.869 232.674 195.304C233.026 194.739 233.506 194.312 234.114 194.024C234.722 193.725 235.41 193.576 236.178 193.576C236.946 193.576 237.624 193.72 238.21 194.008C238.808 194.296 239.272 194.696 239.602 195.208C239.933 195.72 240.098 196.317 240.098 197V197.144C240.098 197.869 239.954 198.472 239.666 198.952C239.378 199.421 238.978 199.805 238.466 200.104C237.965 200.403 237.373 200.659 236.69 200.872L235.826 201.144C235.282 201.315 234.829 201.496 234.466 201.688C234.114 201.869 233.848 202.104 233.666 202.392C233.485 202.68 233.394 203.069 233.394 203.56V203.832H240.002V205H232.082ZM244.987 205V194.664H244.747L242.571 198.648H241.163L243.835 193.8H246.283V205H244.987ZM255.88 205.224C254.781 205.224 253.912 204.915 253.272 204.296C252.643 203.677 252.328 202.792 252.328 201.64V200.776H253.656V201.64C253.656 202.333 253.837 202.899 254.2 203.336C254.573 203.773 255.128 203.992 255.864 203.992C256.611 203.992 257.139 203.779 257.448 203.352C257.757 202.915 257.912 202.344 257.912 201.64V195.016H255.944V193.8H260.472V195.016H259.256V201.64C259.256 202.803 258.968 203.693 258.392 204.312C257.816 204.92 256.979 205.224 255.88 205.224ZM264.478 205.224C263.934 205.224 263.438 205.128 262.99 204.936C262.542 204.744 262.19 204.467 261.934 204.104C261.678 203.741 261.55 203.299 261.55 202.776C261.55 202.243 261.678 201.805 261.934 201.464C262.19 201.112 262.542 200.851 262.99 200.68C263.438 200.499 263.939 200.408 264.494 200.408H267.134V199.832C267.134 199.277 266.969 198.84 266.638 198.52C266.318 198.2 265.838 198.04 265.198 198.04C264.569 198.04 264.078 198.195 263.726 198.504C263.374 198.803 263.134 199.208 263.006 199.72L261.822 199.336C261.95 198.899 262.153 198.504 262.43 198.152C262.707 197.789 263.075 197.501 263.534 197.288C264.003 197.064 264.563 196.952 265.214 196.952C266.217 196.952 266.995 197.213 267.55 197.736C268.105 198.248 268.382 198.973 268.382 199.912V203.448C268.382 203.768 268.531 203.928 268.83 203.928H269.55V205H268.446C268.094 205 267.811 204.904 267.598 204.712C267.385 204.509 267.278 204.243 267.278 203.912V203.832H267.086C266.969 204.035 266.809 204.248 266.606 204.472C266.414 204.685 266.147 204.861 265.806 205C265.465 205.149 265.022 205.224 264.478 205.224ZM264.622 204.136C265.369 204.136 265.971 203.917 266.43 203.48C266.899 203.032 267.134 202.408 267.134 201.608V201.432H264.542C264.041 201.432 263.625 201.544 263.294 201.768C262.974 201.981 262.814 202.307 262.814 202.744C262.814 203.181 262.979 203.523 263.31 203.768C263.651 204.013 264.089 204.136 264.622 204.136ZM271.281 205V197.176H272.513V198.504H272.737C272.908 198.131 273.196 197.795 273.601 197.496C274.017 197.187 274.625 197.032 275.425 197.032C276.012 197.032 276.534 197.155 276.993 197.4C277.462 197.645 277.836 198.008 278.113 198.488C278.39 198.968 278.529 199.56 278.529 200.264V205H277.265V200.36C277.265 199.581 277.068 199.016 276.673 198.664C276.289 198.312 275.766 198.136 275.105 198.136C274.348 198.136 273.729 198.381 273.249 198.872C272.78 199.363 272.545 200.093 272.545 201.064V205H271.281Z" fill="white"/>
<path opacity="0.4" d="M314.129 205V203.832C314.129 203.032 314.268 202.392 314.545 201.912C314.833 201.432 315.228 201.048 315.729 200.76C316.241 200.461 316.849 200.205 317.553 199.992L318.433 199.72C318.913 199.571 319.335 199.389 319.697 199.176C320.06 198.952 320.343 198.675 320.545 198.344C320.748 198.003 320.849 197.587 320.849 197.096V197.032C320.849 196.328 320.604 195.773 320.113 195.368C319.623 194.952 318.993 194.744 318.225 194.744C317.415 194.744 316.753 194.963 316.241 195.4C315.729 195.827 315.473 196.477 315.473 197.352V197.576H314.193V197.368C314.193 196.557 314.369 195.869 314.721 195.304C315.073 194.739 315.553 194.312 316.161 194.024C316.769 193.725 317.457 193.576 318.225 193.576C318.993 193.576 319.671 193.72 320.257 194.008C320.855 194.296 321.319 194.696 321.649 195.208C321.98 195.72 322.145 196.317 322.145 197V197.144C322.145 197.869 322.001 198.472 321.713 198.952C321.425 199.421 321.025 199.805 320.513 200.104C320.012 200.403 319.42 200.659 318.737 200.872L317.873 201.144C317.329 201.315 316.876 201.496 316.513 201.688C316.161 201.869 315.895 202.104 315.713 202.392C315.532 202.68 315.441 203.069 315.441 203.56V203.832H322.049V205H314.129ZM327.707 205.224C326.918 205.224 326.209 205.075 325.579 204.776C324.961 204.477 324.47 204.045 324.107 203.48C323.755 202.915 323.579 202.232 323.579 201.432V201.128H324.875V201.416C324.875 202.237 325.137 202.883 325.659 203.352C326.182 203.821 326.865 204.056 327.707 204.056C328.561 204.056 329.222 203.837 329.691 203.4C330.171 202.952 330.411 202.392 330.411 201.72V201.592C330.411 201.101 330.294 200.707 330.059 200.408C329.825 200.099 329.505 199.875 329.099 199.736C328.705 199.587 328.267 199.512 327.787 199.512H325.963V197.896L330.235 195.16V194.968H323.851V193.8H331.611V195.608L327.435 198.296V198.488H328.235C328.865 198.488 329.441 198.605 329.963 198.84C330.497 199.064 330.918 199.405 331.227 199.864C331.547 200.312 331.707 200.877 331.707 201.56V201.736C331.707 202.44 331.542 203.053 331.211 203.576C330.881 204.099 330.417 204.504 329.819 204.792C329.222 205.08 328.518 205.224 327.707 205.224ZM340.833 205.224C339.734 205.224 338.865 204.915 338.225 204.296C337.596 203.677 337.281 202.792 337.281 201.64V200.776H338.609V201.64C338.609 202.333 338.79 202.899 339.153 203.336C339.526 203.773 340.081 203.992 340.817 203.992C341.564 203.992 342.092 203.779 342.401 203.352C342.71 202.915 342.865 202.344 342.865 201.64V195.016H340.897V193.8H345.425V195.016H344.209V201.64C344.209 202.803 343.921 203.693 343.345 204.312C342.769 204.92 341.932 205.224 340.833 205.224ZM349.431 205.224C348.887 205.224 348.391 205.128 347.943 204.936C347.495 204.744 347.143 204.467 346.887 204.104C346.631 203.741 346.503 203.299 346.503 202.776C346.503 202.243 346.631 201.805 346.887 201.464C347.143 201.112 347.495 200.851 347.943 200.68C348.391 200.499 348.892 200.408 349.447 200.408H352.087V199.832C352.087 199.277 351.922 198.84 351.591 198.52C351.271 198.2 350.791 198.04 350.151 198.04C349.522 198.04 349.031 198.195 348.679 198.504C348.327 198.803 348.087 199.208 347.959 199.72L346.775 199.336C346.903 198.899 347.106 198.504 347.383 198.152C347.66 197.789 348.028 197.501 348.487 197.288C348.956 197.064 349.516 196.952 350.167 196.952C351.17 196.952 351.948 197.213 352.503 197.736C353.058 198.248 353.335 198.973 353.335 199.912V203.448C353.335 203.768 353.484 203.928 353.783 203.928H354.503V205H353.399C353.047 205 352.764 204.904 352.551 204.712C352.338 204.509 352.231 204.243 352.231 203.912V203.832H352.039C351.922 204.035 351.762 204.248 351.559 204.472C351.367 204.685 351.1 204.861 350.759 205C350.418 205.149 349.975 205.224 349.431 205.224ZM349.575 204.136C350.322 204.136 350.924 203.917 351.383 203.48C351.852 203.032 352.087 202.408 352.087 201.608V201.432H349.495C348.994 201.432 348.578 201.544 348.247 201.768C347.927 201.981 347.767 202.307 347.767 202.744C347.767 203.181 347.932 203.523 348.263 203.768C348.604 204.013 349.042 204.136 349.575 204.136ZM356.234 205V197.176H357.466V198.504H357.69C357.861 198.131 358.149 197.795 358.554 197.496C358.97 197.187 359.578 197.032 360.378 197.032C360.965 197.032 361.488 197.155 361.946 197.4C362.416 197.645 362.789 198.008 363.066 198.488C363.344 198.968 363.482 199.56 363.482 200.264V205H362.218V200.36C362.218 199.581 362.021 199.016 361.626 198.664C361.242 198.312 360.72 198.136 360.058 198.136C359.301 198.136 358.682 198.381 358.202 198.872C357.733 199.363 357.498 200.093 357.498 201.064V205H356.234Z" fill="white"/>
<path opacity="0.4" d="M399.137 205V203.832C399.137 203.032 399.276 202.392 399.553 201.912C399.841 201.432 400.236 201.048 400.737 200.76C401.249 200.461 401.857 200.205 402.561 199.992L403.441 199.72C403.921 199.571 404.342 199.389 404.705 199.176C405.068 198.952 405.35 198.675 405.553 198.344C405.756 198.003 405.857 197.587 405.857 197.096V197.032C405.857 196.328 405.612 195.773 405.121 195.368C404.63 194.952 404.001 194.744 403.233 194.744C402.422 194.744 401.761 194.963 401.249 195.4C400.737 195.827 400.481 196.477 400.481 197.352V197.576H399.201V197.368C399.201 196.557 399.377 195.869 399.729 195.304C400.081 194.739 400.561 194.312 401.169 194.024C401.777 193.725 402.465 193.576 403.233 193.576C404.001 193.576 404.678 193.72 405.265 194.008C405.862 194.296 406.326 194.696 406.657 195.208C406.988 195.72 407.153 196.317 407.153 197V197.144C407.153 197.869 407.009 198.472 406.721 198.952C406.433 199.421 406.033 199.805 405.521 200.104C405.02 200.403 404.428 200.659 403.745 200.872L402.881 201.144C402.337 201.315 401.884 201.496 401.521 201.688C401.169 201.869 400.902 202.104 400.721 202.392C400.54 202.68 400.449 203.069 400.449 203.56V203.832H407.057V205H399.137ZM412.762 205.224C411.94 205.224 411.231 205.069 410.634 204.76C410.036 204.44 409.572 204.003 409.242 203.448C408.911 202.883 408.746 202.232 408.746 201.496V201.304H410.042V201.448C410.042 202.291 410.287 202.936 410.778 203.384C411.268 203.832 411.919 204.056 412.73 204.056C413.583 204.056 414.25 203.816 414.73 203.336C415.21 202.856 415.45 202.2 415.45 201.368V201.224C415.45 200.424 415.215 199.789 414.746 199.32C414.287 198.84 413.69 198.6 412.954 198.6C412.527 198.6 412.175 198.669 411.898 198.808C411.62 198.936 411.402 199.101 411.242 199.304C411.082 199.496 410.948 199.683 410.842 199.864H409.082V193.8H416.442V194.968H410.378V198.84H410.602C410.719 198.627 410.879 198.419 411.082 198.216C411.295 198.013 411.578 197.843 411.93 197.704C412.282 197.565 412.719 197.496 413.242 197.496C413.892 197.496 414.479 197.645 415.002 197.944C415.535 198.243 415.956 198.669 416.266 199.224C416.586 199.779 416.746 200.44 416.746 201.208V201.384C416.746 202.141 416.586 202.808 416.266 203.384C415.946 203.96 415.487 204.413 414.89 204.744C414.292 205.064 413.583 205.224 412.762 205.224ZM425.825 205.224C424.727 205.224 423.857 204.915 423.217 204.296C422.588 203.677 422.273 202.792 422.273 201.64V200.776H423.601V201.64C423.601 202.333 423.783 202.899 424.145 203.336C424.519 203.773 425.073 203.992 425.809 203.992C426.556 203.992 427.084 203.779 427.393 203.352C427.703 202.915 427.857 202.344 427.857 201.64V195.016H425.889V193.8H430.417V195.016H429.201V201.64C429.201 202.803 428.913 203.693 428.337 204.312C427.761 204.92 426.924 205.224 425.825 205.224ZM434.423 205.224C433.879 205.224 433.383 205.128 432.935 204.936C432.487 204.744 432.135 204.467 431.879 204.104C431.623 203.741 431.495 203.299 431.495 202.776C431.495 202.243 431.623 201.805 431.879 201.464C432.135 201.112 432.487 200.851 432.935 200.68C433.383 200.499 433.885 200.408 434.439 200.408H437.079V199.832C437.079 199.277 436.914 198.84 436.583 198.52C436.263 198.2 435.783 198.04 435.143 198.04C434.514 198.04 434.023 198.195 433.671 198.504C433.319 198.803 433.079 199.208 432.951 199.72L431.767 199.336C431.895 198.899 432.098 198.504 432.375 198.152C432.653 197.789 433.021 197.501 433.479 197.288C433.949 197.064 434.509 196.952 435.159 196.952C436.162 196.952 436.941 197.213 437.495 197.736C438.05 198.248 438.327 198.973 438.327 199.912V203.448C438.327 203.768 438.477 203.928 438.775 203.928H439.495V205H438.391C438.039 205 437.757 204.904 437.543 204.712C437.33 204.509 437.223 204.243 437.223 203.912V203.832H437.031C436.914 204.035 436.754 204.248 436.551 204.472C436.359 204.685 436.093 204.861 435.751 205C435.41 205.149 434.967 205.224 434.423 205.224ZM434.567 204.136C435.314 204.136 435.917 203.917 436.375 203.48C436.845 203.032 437.079 202.408 437.079 201.608V201.432H434.487C433.986 201.432 433.57 201.544 433.239 201.768C432.919 201.981 432.759 202.307 432.759 202.744C432.759 203.181 432.925 203.523 433.255 203.768C433.597 204.013 434.034 204.136 434.567 204.136ZM441.226 205V197.176H442.458V198.504H442.682C442.853 198.131 443.141 197.795 443.546 197.496C443.962 197.187 444.57 197.032 445.37 197.032C445.957 197.032 446.48 197.155 446.938 197.4C447.408 197.645 447.781 198.008 448.058 198.488C448.336 198.968 448.474 199.56 448.474 200.264V205H447.21V200.36C447.21 199.581 447.013 199.016 446.618 198.664C446.234 198.312 445.712 198.136 445.05 198.136C444.293 198.136 443.674 198.381 443.194 198.872C442.725 199.363 442.49 200.093 442.49 201.064V205H441.226Z" fill="white"/>
<path opacity="0.4" d="M483.973 205V203.832C483.973 203.032 484.112 202.392 484.389 201.912C484.677 201.432 485.072 201.048 485.573 200.76C486.085 200.461 486.693 200.205 487.397 199.992L488.277 199.72C488.757 199.571 489.178 199.389 489.541 199.176C489.904 198.952 490.186 198.675 490.389 198.344C490.592 198.003 490.693 197.587 490.693 197.096V197.032C490.693 196.328 490.448 195.773 489.957 195.368C489.466 194.952 488.837 194.744 488.069 194.744C487.258 194.744 486.597 194.963 486.085 195.4C485.573 195.827 485.317 196.477 485.317 197.352V197.576H484.037V197.368C484.037 196.557 484.213 195.869 484.565 195.304C484.917 194.739 485.397 194.312 486.005 194.024C486.613 193.725 487.301 193.576 488.069 193.576C488.837 193.576 489.514 193.72 490.101 194.008C490.698 194.296 491.162 194.696 491.493 195.208C491.824 195.72 491.989 196.317 491.989 197V197.144C491.989 197.869 491.845 198.472 491.557 198.952C491.269 199.421 490.869 199.805 490.357 200.104C489.856 200.403 489.264 200.659 488.581 200.872L487.717 201.144C487.173 201.315 486.72 201.496 486.357 201.688C486.005 201.869 485.738 202.104 485.557 202.392C485.376 202.68 485.285 203.069 485.285 203.56V203.832H491.893V205H483.973ZM495.073 205V204.6C495.073 204.227 495.105 203.912 495.169 203.656C495.233 203.4 495.355 203.096 495.537 202.744L499.809 195.144V194.968H493.153V193.8H501.169V195.336L496.705 203.336C496.577 203.56 496.486 203.763 496.433 203.944C496.39 204.125 496.369 204.355 496.369 204.632V205H495.073ZM509.989 205.224C508.891 205.224 508.021 204.915 507.381 204.296C506.752 203.677 506.437 202.792 506.437 201.64V200.776H507.765V201.64C507.765 202.333 507.947 202.899 508.309 203.336C508.683 203.773 509.237 203.992 509.973 203.992C510.72 203.992 511.248 203.779 511.557 203.352C511.867 202.915 512.021 202.344 512.021 201.64V195.016H510.053V193.8H514.581V195.016H513.365V201.64C513.365 202.803 513.077 203.693 512.501 204.312C511.925 204.92 511.088 205.224 509.989 205.224ZM518.587 205.224C518.043 205.224 517.547 205.128 517.099 204.936C516.651 204.744 516.299 204.467 516.043 204.104C515.787 203.741 515.659 203.299 515.659 202.776C515.659 202.243 515.787 201.805 516.043 201.464C516.299 201.112 516.651 200.851 517.099 200.68C517.547 200.499 518.049 200.408 518.603 200.408H521.243V199.832C521.243 199.277 521.078 198.84 520.747 198.52C520.427 198.2 519.947 198.04 519.307 198.04C518.678 198.04 518.187 198.195 517.835 198.504C517.483 198.803 517.243 199.208 517.115 199.72L515.931 199.336C516.059 198.899 516.262 198.504 516.539 198.152C516.817 197.789 517.185 197.501 517.643 197.288C518.113 197.064 518.673 196.952 519.323 196.952C520.326 196.952 521.105 197.213 521.659 197.736C522.214 198.248 522.491 198.973 522.491 199.912V203.448C522.491 203.768 522.641 203.928 522.939 203.928H523.659V205H522.555C522.203 205 521.921 204.904 521.707 204.712C521.494 204.509 521.387 204.243 521.387 203.912V203.832H521.195C521.078 204.035 520.918 204.248 520.715 204.472C520.523 204.685 520.257 204.861 519.915 205C519.574 205.149 519.131 205.224 518.587 205.224ZM518.731 204.136C519.478 204.136 520.081 203.917 520.539 203.48C521.009 203.032 521.243 202.408 521.243 201.608V201.432H518.651C518.15 201.432 517.734 201.544 517.403 201.768C517.083 201.981 516.923 202.307 516.923 202.744C516.923 203.181 517.089 203.523 517.419 203.768C517.761 204.013 518.198 204.136 518.731 204.136ZM525.391 205V197.176H526.623V198.504H526.847C527.017 198.131 527.305 197.795 527.711 197.496C528.127 197.187 528.735 197.032 529.535 197.032C530.121 197.032 530.644 197.155 531.103 197.4C531.572 197.645 531.945 198.008 532.223 198.488C532.5 198.968 532.639 199.56 532.639 200.264V205H531.375V200.36C531.375 199.581 531.177 199.016 530.783 198.664C530.399 198.312 529.876 198.136 529.215 198.136C528.457 198.136 527.839 198.381 527.359 198.872C526.889 199.363 526.655 200.093 526.655 201.064V205H525.391Z" fill="white"/>
<path opacity="0.4" d="M572.293 205.224C571.504 205.224 570.795 205.075 570.165 204.776C569.547 204.477 569.056 204.045 568.693 203.48C568.341 202.915 568.165 202.232 568.165 201.432V201.128H569.461V201.416C569.461 202.237 569.723 202.883 570.245 203.352C570.768 203.821 571.451 204.056 572.293 204.056C573.147 204.056 573.808 203.837 574.277 203.4C574.757 202.952 574.997 202.392 574.997 201.72V201.592C574.997 201.101 574.88 200.707 574.645 200.408C574.411 200.099 574.091 199.875 573.685 199.736C573.291 199.587 572.853 199.512 572.373 199.512H570.549V197.896L574.821 195.16V194.968H568.437V193.8H576.197V195.608L572.021 198.296V198.488H572.821C573.451 198.488 574.027 198.605 574.549 198.84C575.083 199.064 575.504 199.405 575.813 199.864C576.133 200.312 576.293 200.877 576.293 201.56V201.736C576.293 202.44 576.128 203.053 575.797 203.576C575.467 204.099 575.003 204.504 574.405 204.792C573.808 205.08 573.104 205.224 572.293 205.224ZM582.222 205.224C580.952 205.224 579.939 204.851 579.182 204.104C578.435 203.347 578.062 202.216 578.062 200.712V198.088C578.062 196.595 578.435 195.469 579.182 194.712C579.939 193.955 580.952 193.576 582.222 193.576C583.502 193.576 584.515 193.955 585.262 194.712C586.019 195.469 586.398 196.595 586.398 198.088V200.712C586.398 202.216 586.019 203.347 585.262 204.104C584.515 204.851 583.502 205.224 582.222 205.224ZM582.222 204.056C583.182 204.056 583.902 203.768 584.382 203.192C584.862 202.616 585.102 201.811 585.102 200.776V198.008C585.102 196.973 584.856 196.173 584.366 195.608C583.875 195.032 583.16 194.744 582.222 194.744C581.283 194.744 580.568 195.032 580.078 195.608C579.598 196.184 579.358 196.984 579.358 198.008V200.776C579.358 201.821 579.598 202.632 580.078 203.208C580.558 203.773 581.272 204.056 582.222 204.056ZM595.669 205.224C594.57 205.224 593.701 204.915 593.061 204.296C592.432 203.677 592.117 202.792 592.117 201.64V200.776H593.445V201.64C593.445 202.333 593.626 202.899 593.989 203.336C594.362 203.773 594.917 203.992 595.653 203.992C596.4 203.992 596.928 203.779 597.237 203.352C597.546 202.915 597.701 202.344 597.701 201.64V195.016H595.733V193.8H600.261V195.016H599.045V201.64C599.045 202.803 598.757 203.693 598.181 204.312C597.605 204.92 596.768 205.224 595.669 205.224ZM604.267 205.224C603.723 205.224 603.227 205.128 602.779 204.936C602.331 204.744 601.979 204.467 601.723 204.104C601.467 203.741 601.339 203.299 601.339 202.776C601.339 202.243 601.467 201.805 601.723 201.464C601.979 201.112 602.331 200.851 602.779 200.68C603.227 200.499 603.728 200.408 604.283 200.408H606.923V199.832C606.923 199.277 606.758 198.84 606.427 198.52C606.107 198.2 605.627 198.04 604.987 198.04C604.358 198.04 603.867 198.195 603.515 198.504C603.163 198.803 602.923 199.208 602.795 199.72L601.611 199.336C601.739 198.899 601.942 198.504 602.219 198.152C602.496 197.789 602.864 197.501 603.323 197.288C603.792 197.064 604.352 196.952 605.003 196.952C606.006 196.952 606.784 197.213 607.339 197.736C607.894 198.248 608.171 198.973 608.171 199.912V203.448C608.171 203.768 608.32 203.928 608.619 203.928H609.339V205H608.235C607.883 205 607.6 204.904 607.387 204.712C607.174 204.509 607.067 204.243 607.067 203.912V203.832H606.875C606.758 204.035 606.598 204.248 606.395 204.472C606.203 204.685 605.936 204.861 605.595 205C605.254 205.149 604.811 205.224 604.267 205.224ZM604.411 204.136C605.158 204.136 605.76 203.917 606.219 203.48C606.688 203.032 606.923 202.408 606.923 201.608V201.432H604.331C603.83 201.432 603.414 201.544 603.083 201.768C602.763 201.981 602.603 202.307 602.603 202.744C602.603 203.181 602.768 203.523 603.099 203.768C603.44 204.013 603.878 204.136 604.411 204.136ZM611.07 205V197.176H612.302V198.504H612.526C612.697 198.131 612.985 197.795 613.39 197.496C613.806 197.187 614.414 197.032 615.214 197.032C615.801 197.032 616.324 197.155 616.782 197.4C617.252 197.645 617.625 198.008 617.902 198.488C618.18 198.968 618.318 199.56 618.318 200.264V205H617.054V200.36C617.054 199.581 616.857 199.016 616.462 198.664C616.078 198.312 615.556 198.136 614.894 198.136C614.137 198.136 613.518 198.381 613.038 198.872C612.569 199.363 612.334 200.093 612.334 201.064V205H611.07Z" fill="white"/>
<line opacity="0.05" x1="70" y1="24.5" x2="612" y2="24.5" stroke="white"/>
<line opacity="0.05" x1="70" y1="69.5" x2="612" y2="69.5" stroke="white"/>
<line opacity="0.05" x1="70" y1="114.5" x2="612" y2="114.5" stroke="white"/>
<line opacity="0.05" x1="70" y1="159.5" x2="612" y2="159.5" stroke="white"/>
</svg>
