<svg width="46" height="46" viewBox="0 0 46 46" fill="none" xmlns="http://www.w3.org/2000/svg">
<g clip-path="url(#clip0_344_20938)">
<path d="M23 46C35.7025 46 46 35.7025 46 23C46 10.2975 35.7025 0 23 0C10.2975 0 0 10.2975 0 23C0 35.7025 10.2975 46 23 46Z" fill="#D0BAF5"/>
<path d="M17.6925 14.1536H12.3848V19.4612H17.6925V14.1536Z" fill="white"/>
<path d="M33.6163 14.1532H28.3086V19.4609H33.6163V14.1532Z" fill="white"/>
<path d="M17.6925 24.7684H12.3848V30.0761H17.6925V24.7684Z" fill="#7B3FE4"/>
<path d="M33.6163 24.7684H28.3086V30.0761H33.6163V24.7684Z" fill="#7B3FE4"/>
<path d="M17.6925 30.0759H12.3848V35.3836H17.6925V30.0759Z" fill="#7B3FE4"/>
<path d="M23.001 30.0759H17.6934V35.3836H23.001V30.0759Z" fill="#7B3FE4"/>
<path d="M28.3077 30.0759H23V35.3836H28.3077V30.0759Z" fill="#7B3FE4"/>
<path d="M33.6163 30.0759H28.3086V35.3836H33.6163V30.0759Z" fill="#7B3FE4"/>
</g>
<defs>
<clipPath id="clip0_344_20938">
<rect width="46" height="46" fill="white"/>
</clipPath>
</defs>
</svg>
