<svg width="589" height="327" viewBox="0 0 589 327" fill="none" xmlns="http://www.w3.org/2000/svg">
<path opacity="0.27" d="M58 91C58 88.7909 59.7899 87 61.9991 87C62.7538 87 63.6723 87 64.9364 87C68.7202 87 69.5606 87 73.761 87C77.9613 87 78.6507 87 82.6775 87C86.7043 87 88.8991 87 93.0648 87C97.2304 87 97.0225 87 101.327 87C103.922 87 105.34 87 107 87C109.209 87 111 88.7909 111 91V266C111 268.209 109.209 270 107 270H62C59.7909 270 58 268.209 58 266V91Z" fill="#8659FF"/>
<path opacity="0.27" d="M126 4.00001C126 1.79087 127.79 1.30315e-05 129.999 1.30315e-05C130.754 1.30315e-05 131.672 1.30315e-05 132.936 1.30315e-05C136.72 1.30315e-05 137.561 1.30315e-05 141.761 1.30315e-05C145.961 1.30315e-05 146.651 1.30315e-05 150.677 1.30315e-05C154.704 1.30315e-05 156.899 1.30315e-05 161.065 1.30315e-05C165.23 1.30315e-05 165.022 -1.30315e-05 169.327 -1.30315e-05C171.922 -1.30315e-05 173.34 -8.29393e-06 175 -4.53183e-06C177.209 4.7516e-07 179 1.79086 179 4V266C179 268.209 177.209 270 175 270H130C127.791 270 126 268.209 126 266V4.00001Z" fill="#8659FF"/>
<path opacity="0.27" d="M194 4.00001C194 1.79087 195.79 1.30315e-05 197.999 1.30315e-05C198.754 1.30315e-05 199.672 1.30315e-05 200.936 1.30315e-05C204.72 1.30315e-05 205.561 1.30315e-05 209.761 1.30315e-05C213.961 1.30315e-05 214.651 1.30315e-05 218.677 1.30315e-05C222.704 1.30315e-05 224.899 1.30315e-05 229.065 1.30315e-05C233.23 1.30315e-05 233.022 -1.30315e-05 237.327 -1.30315e-05C239.922 -1.30315e-05 241.34 -8.29393e-06 243 -4.53183e-06C245.209 4.7516e-07 247 1.79086 247 4V266C247 268.209 245.209 270 243 270H198C195.791 270 194 268.209 194 266V4.00001Z" fill="#8659FF"/>
<path opacity="0.27" d="M262 69C262 66.7909 263.79 65 265.999 65C266.754 65 267.672 65 268.936 65C272.72 65 273.561 65 277.761 65C281.961 65 282.651 65 286.677 65C290.704 65 292.899 65 297.065 65C301.23 65 301.022 65 305.327 65C307.922 65 309.34 65 311 65C313.209 65 315 66.7909 315 69V266C315 268.209 313.209 270 311 270H266C263.791 270 262 268.209 262 266V69Z" fill="#8659FF"/>
<path opacity="0.27" d="M330 46C330 43.7909 331.79 42 333.999 42C334.754 42 335.672 42 336.936 42C340.72 42 341.561 42 345.761 42C349.961 42 350.651 42 354.677 42C358.704 42 360.899 42 365.065 42C369.23 42 369.022 42 373.327 42C375.922 42 377.34 42 379 42C381.209 42 383 43.7909 383 46V266C383 268.209 381.209 270 379 270H334C331.791 270 330 268.209 330 266V46Z" fill="#8659FF"/>
<path opacity="0.27" d="M398 4.00001C398 1.79087 399.79 1.30315e-05 401.999 1.30315e-05C402.754 1.30315e-05 403.672 1.30315e-05 404.936 1.30315e-05C408.72 1.30315e-05 409.561 1.30315e-05 413.761 1.30315e-05C417.961 1.30315e-05 418.651 1.30315e-05 422.677 1.30315e-05C426.704 1.30315e-05 428.899 1.30315e-05 433.065 1.30315e-05C437.23 1.30315e-05 437.022 -1.30315e-05 441.327 -1.30315e-05C443.922 -1.30315e-05 445.34 -8.29393e-06 447 -4.53183e-06C449.209 4.7516e-07 451 1.79086 451 4V266C451 268.209 449.209 270 447 270H402C399.791 270 398 268.209 398 266V4.00001Z" fill="#8659FF"/>
<path opacity="0.27" d="M466 52C466 49.7909 467.79 48 469.999 48C470.754 48 471.672 48 472.936 48C476.72 48 477.561 48 481.761 48C485.961 48 486.651 48 490.677 48C494.704 48 496.899 48 501.065 48C505.23 48 505.022 48 509.327 48C511.922 48 513.34 48 515 48C517.209 48 519 49.7909 519 52V266C519 268.209 517.209 270 515 270H470C467.791 270 466 268.209 466 266V52Z" fill="#8659FF"/>
<path opacity="0.27" d="M534 147C534 144.791 535.79 143 537.999 143C538.754 143 539.672 143 540.936 143C544.72 143 545.561 143 549.761 143C553.961 143 554.651 143 558.677 143C562.704 143 564.899 143 569.065 143C573.23 143 573.022 143 577.327 143C579.922 143 581.34 143 583 143C585.209 143 587 144.791 587 147V266C587 268.209 585.209 270 583 270H538C535.791 270 534 268.209 534 266V147Z" fill="#8659FF"/>
<path opacity="0.4" d="M0.848 42V40.832C0.848 40.032 0.986667 39.392 1.264 38.912C1.552 38.432 1.94667 38.048 2.448 37.76C2.96 37.4613 3.568 37.2053 4.272 36.992L5.152 36.72C5.632 36.5707 6.05333 36.3893 6.416 36.176C6.77867 35.952 7.06133 35.6747 7.264 35.344C7.46667 35.0027 7.568 34.5867 7.568 34.096V34.032C7.568 33.328 7.32267 32.7733 6.832 32.368C6.34133 31.952 5.712 31.744 4.944 31.744C4.13333 31.744 3.472 31.9627 2.96 32.4C2.448 32.8267 2.192 33.4773 2.192 34.352V34.576H0.912V34.368C0.912 33.5573 1.088 32.8693 1.44 32.304C1.792 31.7387 2.272 31.312 2.88 31.024C3.488 30.7253 4.176 30.576 4.944 30.576C5.712 30.576 6.38933 30.72 6.976 31.008C7.57333 31.296 8.03733 31.696 8.368 32.208C8.69867 32.72 8.864 33.3173 8.864 34V34.144C8.864 34.8693 8.72 35.472 8.432 35.952C8.144 36.4213 7.744 36.8053 7.232 37.104C6.73067 37.4027 6.13867 37.6587 5.456 37.872L4.592 38.144C4.048 38.3147 3.59467 38.496 3.232 38.688C2.88 38.8693 2.61333 39.104 2.432 39.392C2.25067 39.68 2.16 40.0693 2.16 40.56V40.832H8.768V42H0.848ZM11.6566 42.224C11.3473 42.224 11.086 42.1227 10.8726 41.92C10.67 41.7173 10.5686 41.456 10.5686 41.136C10.5686 40.816 10.67 40.5547 10.8726 40.352C11.086 40.1493 11.3473 40.048 11.6566 40.048C11.9766 40.048 12.238 40.1493 12.4406 40.352C12.6433 40.5547 12.7446 40.816 12.7446 41.136C12.7446 41.456 12.6433 41.7173 12.4406 41.92C12.238 42.1227 11.9766 42.224 11.6566 42.224ZM14.5355 42V40.832C14.5355 40.032 14.6742 39.392 14.9515 38.912C15.2395 38.432 15.6342 38.048 16.1355 37.76C16.6475 37.4613 17.2555 37.2053 17.9595 36.992L18.8395 36.72C19.3195 36.5707 19.7408 36.3893 20.1035 36.176C20.4662 35.952 20.7488 35.6747 20.9515 35.344C21.1542 35.0027 21.2555 34.5867 21.2555 34.096V34.032C21.2555 33.328 21.0102 32.7733 20.5195 32.368C20.0288 31.952 19.3995 31.744 18.6315 31.744C17.8208 31.744 17.1595 31.9627 16.6475 32.4C16.1355 32.8267 15.8795 33.4773 15.8795 34.352V34.576H14.5995V34.368C14.5995 33.5573 14.7755 32.8693 15.1275 32.304C15.4795 31.7387 15.9595 31.312 16.5675 31.024C17.1755 30.7253 17.8635 30.576 18.6315 30.576C19.3995 30.576 20.0768 30.72 20.6635 31.008C21.2608 31.296 21.7248 31.696 22.0555 32.208C22.3862 32.72 22.5515 33.3173 22.5515 34V34.144C22.5515 34.8693 22.4075 35.472 22.1195 35.952C21.8315 36.4213 21.4315 36.8053 20.9195 37.104C20.4182 37.4027 19.8262 37.6587 19.1435 37.872L18.2795 38.144C17.7355 38.3147 17.2822 38.496 16.9195 38.688C16.5675 38.8693 16.3008 39.104 16.1195 39.392C15.9382 39.68 15.8475 40.0693 15.8475 40.56V40.832H22.4555V42H14.5355ZM28.1601 42.224C27.3388 42.224 26.6295 42.0693 26.0321 41.76C25.4348 41.44 24.9708 41.0027 24.6401 40.448C24.3095 39.8827 24.1441 39.232 24.1441 38.496V38.304H25.4401V38.448C25.4401 39.2907 25.6855 39.936 26.1761 40.384C26.6668 40.832 27.3175 41.056 28.1281 41.056C28.9815 41.056 29.6481 40.816 30.1281 40.336C30.6081 39.856 30.8481 39.2 30.8481 38.368V38.224C30.8481 37.424 30.6135 36.7893 30.1441 36.32C29.6855 35.84 29.0881 35.6 28.3521 35.6C27.9255 35.6 27.5735 35.6693 27.2961 35.808C27.0188 35.936 26.8001 36.1013 26.6401 36.304C26.4801 36.496 26.3468 36.6827 26.2401 36.864H24.4801V30.8H31.8401V31.968H25.7761V35.84H26.0001C26.1175 35.6267 26.2775 35.4187 26.4801 35.216C26.6935 35.0133 26.9761 34.8427 27.3281 34.704C27.6801 34.5653 28.1175 34.496 28.6401 34.496C29.2908 34.496 29.8775 34.6453 30.4001 34.944C30.9335 35.2427 31.3548 35.6693 31.6641 36.224C31.9841 36.7787 32.1441 37.44 32.1441 38.208V38.384C32.1441 39.1413 31.9841 39.808 31.6641 40.384C31.3441 40.96 30.8855 41.4133 30.2881 41.744C29.6908 42.064 28.9815 42.224 28.1601 42.224Z" fill="black"/>
<path opacity="0.4" d="M4.112 120V109.664H3.872L1.696 113.648H0.288L2.96 108.8H5.408V120H4.112ZM8.7035 120.224C8.39417 120.224 8.13283 120.123 7.9195 119.92C7.71683 119.717 7.6155 119.456 7.6155 119.136C7.6155 118.816 7.71683 118.555 7.9195 118.352C8.13283 118.149 8.39417 118.048 8.7035 118.048C9.0235 118.048 9.28483 118.149 9.4875 118.352C9.69017 118.555 9.7915 118.816 9.7915 119.136C9.7915 119.456 9.69017 119.717 9.4875 119.92C9.28483 120.123 9.0235 120.224 8.7035 120.224ZM15.5664 120.224C14.745 120.224 14.0357 120.069 13.4384 119.76C12.841 119.44 12.377 119.003 12.0464 118.448C11.7157 117.883 11.5504 117.232 11.5504 116.496V116.304H12.8464V116.448C12.8464 117.291 13.0917 117.936 13.5824 118.384C14.073 118.832 14.7237 119.056 15.5344 119.056C16.3877 119.056 17.0544 118.816 17.5344 118.336C18.0144 117.856 18.2544 117.2 18.2544 116.368V116.224C18.2544 115.424 18.0197 114.789 17.5504 114.32C17.0917 113.84 16.4944 113.6 15.7584 113.6C15.3317 113.6 14.9797 113.669 14.7024 113.808C14.425 113.936 14.2064 114.101 14.0464 114.304C13.8864 114.496 13.753 114.683 13.6464 114.864H11.8864V108.8H19.2464V109.968H13.1824V113.84H13.4064C13.5237 113.627 13.6837 113.419 13.8864 113.216C14.0997 113.013 14.3824 112.843 14.7344 112.704C15.0864 112.565 15.5237 112.496 16.0464 112.496C16.697 112.496 17.2837 112.645 17.8064 112.944C18.3397 113.243 18.761 113.669 19.0704 114.224C19.3904 114.779 19.5504 115.44 19.5504 116.208V116.384C19.5504 117.141 19.3904 117.808 19.0704 118.384C18.7504 118.96 18.2917 119.413 17.6944 119.744C17.097 120.064 16.3877 120.224 15.5664 120.224Z" fill="black"/>
<path opacity="0.4" d="M5.12 198.224C3.85067 198.224 2.83733 197.851 2.08 197.104C1.33333 196.347 0.96 195.216 0.96 193.712V191.088C0.96 189.595 1.33333 188.469 2.08 187.712C2.83733 186.955 3.85067 186.576 5.12 186.576C6.4 186.576 7.41333 186.955 8.16 187.712C8.91733 188.469 9.296 189.595 9.296 191.088V193.712C9.296 195.216 8.91733 196.347 8.16 197.104C7.41333 197.851 6.4 198.224 5.12 198.224ZM5.12 197.056C6.08 197.056 6.8 196.768 7.28 196.192C7.76 195.616 8 194.811 8 193.776V191.008C8 189.973 7.75467 189.173 7.264 188.608C6.77333 188.032 6.05867 187.744 5.12 187.744C4.18133 187.744 3.46667 188.032 2.976 188.608C2.496 189.184 2.256 189.984 2.256 191.008V193.776C2.256 194.821 2.496 195.632 2.976 196.208C3.456 196.773 4.17067 197.056 5.12 197.056ZM12.016 198.224C11.7067 198.224 11.4453 198.123 11.232 197.92C11.0293 197.717 10.928 197.456 10.928 197.136C10.928 196.816 11.0293 196.555 11.232 196.352C11.4453 196.149 11.7067 196.048 12.016 196.048C12.336 196.048 12.5973 196.149 12.8 196.352C13.0027 196.555 13.104 196.816 13.104 197.136C13.104 197.456 13.0027 197.717 12.8 197.92C12.5973 198.123 12.336 198.224 12.016 198.224ZM15.9164 198V197.6C15.9164 197.227 15.9484 196.912 16.0124 196.656C16.0764 196.4 16.199 196.096 16.3804 195.744L20.6524 188.144V187.968H13.9964V186.8H22.0124V188.336L17.5484 196.336C17.4204 196.56 17.3297 196.763 17.2764 196.944C17.2337 197.125 17.2124 197.355 17.2124 197.632V198H15.9164ZM27.3476 198.224C26.5263 198.224 25.817 198.069 25.2196 197.76C24.6223 197.44 24.1583 197.003 23.8276 196.448C23.497 195.883 23.3316 195.232 23.3316 194.496V194.304H24.6276V194.448C24.6276 195.291 24.873 195.936 25.3636 196.384C25.8543 196.832 26.505 197.056 27.3156 197.056C28.169 197.056 28.8356 196.816 29.3156 196.336C29.7956 195.856 30.0356 195.2 30.0356 194.368V194.224C30.0356 193.424 29.801 192.789 29.3316 192.32C28.873 191.84 28.2756 191.6 27.5396 191.6C27.113 191.6 26.761 191.669 26.4836 191.808C26.2063 191.936 25.9876 192.101 25.8276 192.304C25.6676 192.496 25.5343 192.683 25.4276 192.864H23.6676V186.8H31.0276V187.968H24.9636V191.84H25.1876C25.305 191.627 25.465 191.419 25.6676 191.216C25.881 191.013 26.1636 190.843 26.5156 190.704C26.8676 190.565 27.305 190.496 27.8276 190.496C28.4783 190.496 29.065 190.645 29.5876 190.944C30.121 191.243 30.5423 191.669 30.8516 192.224C31.1716 192.779 31.3316 193.44 31.3316 194.208V194.384C31.3316 195.141 31.1716 195.808 30.8516 196.384C30.5316 196.96 30.073 197.413 29.4756 197.744C28.8783 198.064 28.169 198.224 27.3476 198.224Z" fill="black"/>
<path opacity="0.4" d="M5.12 276.224C3.85067 276.224 2.83733 275.851 2.08 275.104C1.33333 274.347 0.96 273.216 0.96 271.712V269.088C0.96 267.595 1.33333 266.469 2.08 265.712C2.83733 264.955 3.85067 264.576 5.12 264.576C6.4 264.576 7.41333 264.955 8.16 265.712C8.91733 266.469 9.296 267.595 9.296 269.088V271.712C9.296 273.216 8.91733 274.347 8.16 275.104C7.41333 275.851 6.4 276.224 5.12 276.224ZM5.12 275.056C6.08 275.056 6.8 274.768 7.28 274.192C7.76 273.616 8 272.811 8 271.776V269.008C8 267.973 7.75467 267.173 7.264 266.608C6.77333 266.032 6.05867 265.744 5.12 265.744C4.18133 265.744 3.46667 266.032 2.976 266.608C2.496 267.184 2.256 267.984 2.256 269.008V271.776C2.256 272.821 2.496 273.632 2.976 274.208C3.456 274.773 4.17067 275.056 5.12 275.056Z" fill="black"/>
<path opacity="0.4" d="M66.2917 321V310.664H66.0517L63.8757 314.648H62.4677L65.1397 309.8H67.5877V321H66.2917ZM75.2192 321V318.712H69.3792V317.176L74.0832 309.8H76.5152V317.544H78.4352V318.712H76.5152V321H75.2192ZM70.6752 317.544H75.2192V310.584H74.9952L70.6752 317.352V317.544ZM80.8832 321.224C80.5739 321.224 80.3125 321.123 80.0992 320.92C79.8965 320.717 79.7952 320.456 79.7952 320.136C79.7952 319.816 79.8965 319.555 80.0992 319.352C80.3125 319.149 80.5739 319.048 80.8832 319.048C81.2032 319.048 81.4645 319.149 81.6672 319.352C81.8699 319.555 81.9712 319.816 81.9712 320.136C81.9712 320.456 81.8699 320.717 81.6672 320.92C81.4645 321.123 81.2032 321.224 80.8832 321.224ZM80.8832 315.128C80.5739 315.128 80.3125 315.027 80.0992 314.824C79.8965 314.621 79.7952 314.36 79.7952 314.04C79.7952 313.72 79.8965 313.459 80.0992 313.256C80.3125 313.053 80.5739 312.952 80.8832 312.952C81.2032 312.952 81.4645 313.053 81.6672 313.256C81.8699 313.459 81.9712 313.72 81.9712 314.04C81.9712 314.36 81.8699 314.621 81.6672 314.824C81.4645 315.027 81.2032 315.128 80.8832 315.128ZM87.7621 321.224C86.9727 321.224 86.2634 321.075 85.6341 320.776C85.0154 320.477 84.5247 320.045 84.1621 319.48C83.8101 318.915 83.6341 318.232 83.6341 317.432V317.128H84.9301V317.416C84.9301 318.237 85.1914 318.883 85.7141 319.352C86.2367 319.821 86.9194 320.056 87.7621 320.056C88.6154 320.056 89.2767 319.837 89.7461 319.4C90.2261 318.952 90.4661 318.392 90.4661 317.72V317.592C90.4661 317.101 90.3487 316.707 90.1141 316.408C89.8794 316.099 89.5594 315.875 89.1541 315.736C88.7594 315.587 88.3221 315.512 87.8421 315.512H86.0181V313.896L90.2901 311.16V310.968H83.9061V309.8H91.6661V311.608L87.4901 314.296V314.488H88.2901C88.9194 314.488 89.4954 314.605 90.0181 314.84C90.5514 315.064 90.9727 315.405 91.2821 315.864C91.6021 316.312 91.7621 316.877 91.7621 317.56V317.736C91.7621 318.44 91.5967 319.053 91.2661 319.576C90.9354 320.099 90.4714 320.504 89.8741 320.792C89.2767 321.08 88.5727 321.224 87.7621 321.224ZM97.6903 321.224C96.421 321.224 95.4076 320.851 94.6503 320.104C93.9036 319.347 93.5303 318.216 93.5303 316.712V314.088C93.5303 312.595 93.9036 311.469 94.6503 310.712C95.4076 309.955 96.421 309.576 97.6903 309.576C98.9703 309.576 99.9836 309.955 100.73 310.712C101.488 311.469 101.866 312.595 101.866 314.088V316.712C101.866 318.216 101.488 319.347 100.73 320.104C99.9836 320.851 98.9703 321.224 97.6903 321.224ZM97.6903 320.056C98.6503 320.056 99.3703 319.768 99.8503 319.192C100.33 318.616 100.57 317.811 100.57 316.776V314.008C100.57 312.973 100.325 312.173 99.8343 311.608C99.3436 311.032 98.629 310.744 97.6903 310.744C96.7516 310.744 96.037 311.032 95.5463 311.608C95.0663 312.184 94.8263 312.984 94.8263 314.008V316.776C94.8263 317.821 95.0663 318.632 95.5463 319.208C96.0263 319.773 96.741 320.056 97.6903 320.056Z" fill="black"/>
<path opacity="0.4" d="M186.393 321V310.664H186.153L183.977 314.648H182.569L185.241 309.8H187.689V321H186.393ZM193.929 321.224C193.161 321.224 192.473 321.075 191.865 320.776C191.267 320.467 190.793 320.029 190.441 319.464C190.099 318.899 189.929 318.227 189.929 317.448V313.544C189.929 312.701 190.094 311.987 190.425 311.4C190.755 310.813 191.219 310.365 191.817 310.056C192.425 309.736 193.145 309.576 193.977 309.576C194.798 309.576 195.497 309.725 196.073 310.024C196.659 310.312 197.102 310.712 197.401 311.224C197.71 311.725 197.865 312.307 197.865 312.968H196.553C196.553 312.307 196.339 311.773 195.913 311.368C195.486 310.952 194.841 310.744 193.977 310.744C193.102 310.744 192.425 310.984 191.945 311.464C191.465 311.933 191.225 312.584 191.225 313.416V314.968H191.449C191.641 314.648 191.961 314.355 192.409 314.088C192.857 313.811 193.481 313.672 194.281 313.672C194.953 313.672 195.566 313.821 196.121 314.12C196.675 314.419 197.118 314.84 197.449 315.384C197.779 315.928 197.945 316.573 197.945 317.32V317.512C197.945 318.269 197.769 318.925 197.417 319.48C197.075 320.035 196.601 320.467 195.993 320.776C195.385 321.075 194.697 321.224 193.929 321.224ZM193.929 320.056C194.739 320.056 195.395 319.827 195.897 319.368C196.398 318.909 196.649 318.285 196.649 317.496V317.368C196.649 316.835 196.531 316.376 196.297 315.992C196.073 315.608 195.758 315.309 195.353 315.096C194.947 314.872 194.473 314.76 193.929 314.76C193.395 314.76 192.926 314.872 192.521 315.096C192.115 315.309 191.795 315.608 191.561 315.992C191.337 316.376 191.225 316.835 191.225 317.368V317.496C191.225 318.285 191.475 318.909 191.977 319.368C192.478 319.827 193.129 320.056 193.929 320.056ZM200.782 321.224C200.472 321.224 200.211 321.123 199.998 320.92C199.795 320.717 199.694 320.456 199.694 320.136C199.694 319.816 199.795 319.555 199.998 319.352C200.211 319.149 200.472 319.048 200.782 319.048C201.102 319.048 201.363 319.149 201.566 319.352C201.768 319.555 201.87 319.816 201.87 320.136C201.87 320.456 201.768 320.717 201.566 320.92C201.363 321.123 201.102 321.224 200.782 321.224ZM200.782 315.128C200.472 315.128 200.211 315.027 199.998 314.824C199.795 314.621 199.694 314.36 199.694 314.04C199.694 313.72 199.795 313.459 199.998 313.256C200.211 313.053 200.472 312.952 200.782 312.952C201.102 312.952 201.363 313.053 201.566 313.256C201.768 313.459 201.87 313.72 201.87 314.04C201.87 314.36 201.768 314.621 201.566 314.824C201.363 315.027 201.102 315.128 200.782 315.128ZM207.661 321.224C206.871 321.224 206.162 321.075 205.533 320.776C204.914 320.477 204.423 320.045 204.061 319.48C203.709 318.915 203.533 318.232 203.533 317.432V317.128H204.829V317.416C204.829 318.237 205.09 318.883 205.613 319.352C206.135 319.821 206.818 320.056 207.661 320.056C208.514 320.056 209.175 319.837 209.645 319.4C210.125 318.952 210.365 318.392 210.365 317.72V317.592C210.365 317.101 210.247 316.707 210.013 316.408C209.778 316.099 209.458 315.875 209.053 315.736C208.658 315.587 208.221 315.512 207.741 315.512H205.917V313.896L210.189 311.16V310.968H203.805V309.8H211.565V311.608L207.389 314.296V314.488H208.189C208.818 314.488 209.394 314.605 209.917 314.84C210.45 315.064 210.871 315.405 211.181 315.864C211.501 316.312 211.661 316.877 211.661 317.56V317.736C211.661 318.44 211.495 319.053 211.165 319.576C210.834 320.099 210.37 320.504 209.773 320.792C209.175 321.08 208.471 321.224 207.661 321.224ZM217.589 321.224C216.319 321.224 215.306 320.851 214.549 320.104C213.802 319.347 213.429 318.216 213.429 316.712V314.088C213.429 312.595 213.802 311.469 214.549 310.712C215.306 309.955 216.319 309.576 217.589 309.576C218.869 309.576 219.882 309.955 220.629 310.712C221.386 311.469 221.765 312.595 221.765 314.088V316.712C221.765 318.216 221.386 319.347 220.629 320.104C219.882 320.851 218.869 321.224 217.589 321.224ZM217.589 320.056C218.549 320.056 219.269 319.768 219.749 319.192C220.229 318.616 220.469 317.811 220.469 316.776V314.008C220.469 312.973 220.223 312.173 219.733 311.608C219.242 311.032 218.527 310.744 217.589 310.744C216.65 310.744 215.935 311.032 215.445 311.608C214.965 312.184 214.725 312.984 214.725 314.008V316.776C214.725 317.821 214.965 318.632 215.445 319.208C215.925 319.773 216.639 320.056 217.589 320.056Z" fill="black"/>
<path opacity="0.4" d="M306.307 321V310.664H306.067L303.891 314.648H302.483L305.155 309.8H307.603V321H306.307ZM313.859 321.224C312.995 321.224 312.243 321.096 311.603 320.84C310.973 320.573 310.483 320.205 310.131 319.736C309.789 319.256 309.619 318.696 309.619 318.056V317.88C309.619 317.325 309.736 316.867 309.971 316.504C310.205 316.141 310.488 315.864 310.819 315.672C311.16 315.469 311.475 315.341 311.763 315.288V315.08C311.475 314.995 311.176 314.856 310.867 314.664C310.568 314.472 310.317 314.211 310.115 313.88C309.923 313.549 309.827 313.144 309.827 312.664V312.488C309.827 311.88 309.997 311.363 310.339 310.936C310.691 310.499 311.171 310.163 311.779 309.928C312.387 309.693 313.08 309.576 313.859 309.576C314.648 309.576 315.341 309.693 315.939 309.928C316.547 310.163 317.021 310.499 317.363 310.936C317.715 311.363 317.891 311.88 317.891 312.488V312.664C317.891 313.144 317.795 313.549 317.603 313.88C317.411 314.211 317.165 314.472 316.867 314.664C316.568 314.856 316.269 314.995 315.971 315.08V315.288C316.269 315.341 316.584 315.469 316.915 315.672C317.245 315.864 317.523 316.141 317.747 316.504C317.981 316.867 318.099 317.325 318.099 317.88V318.056C318.099 318.696 317.928 319.256 317.587 319.736C317.245 320.205 316.755 320.573 316.115 320.84C315.485 321.096 314.733 321.224 313.859 321.224ZM313.859 320.056C314.765 320.056 315.48 319.88 316.003 319.528C316.536 319.176 316.803 318.664 316.803 317.992V317.864C316.803 317.192 316.541 316.68 316.019 316.328C315.496 315.976 314.776 315.8 313.859 315.8C312.952 315.8 312.237 315.976 311.715 316.328C311.192 316.68 310.931 317.192 310.931 317.864V317.992C310.931 318.664 311.192 319.176 311.715 319.528C312.248 319.88 312.963 320.056 313.859 320.056ZM313.859 314.632C314.712 314.632 315.379 314.472 315.859 314.152C316.349 313.821 316.595 313.357 316.595 312.76V312.632C316.595 312.024 316.349 311.56 315.859 311.24C315.368 310.909 314.701 310.744 313.859 310.744C313.016 310.744 312.349 310.909 311.859 311.24C311.368 311.56 311.123 312.024 311.123 312.632V312.76C311.123 313.357 311.368 313.821 311.859 314.152C312.349 314.472 313.016 314.632 313.859 314.632ZM320.868 321.224C320.558 321.224 320.297 321.123 320.084 320.92C319.881 320.717 319.78 320.456 319.78 320.136C319.78 319.816 319.881 319.555 320.084 319.352C320.297 319.149 320.558 319.048 320.868 319.048C321.188 319.048 321.449 319.149 321.652 319.352C321.854 319.555 321.956 319.816 321.956 320.136C321.956 320.456 321.854 320.717 321.652 320.92C321.449 321.123 321.188 321.224 320.868 321.224ZM320.868 315.128C320.558 315.128 320.297 315.027 320.084 314.824C319.881 314.621 319.78 314.36 319.78 314.04C319.78 313.72 319.881 313.459 320.084 313.256C320.297 313.053 320.558 312.952 320.868 312.952C321.188 312.952 321.449 313.053 321.652 313.256C321.854 313.459 321.956 313.72 321.956 314.04C321.956 314.36 321.854 314.621 321.652 314.824C321.449 315.027 321.188 315.128 320.868 315.128ZM327.746 321.224C326.957 321.224 326.248 321.075 325.618 320.776C325 320.477 324.509 320.045 324.146 319.48C323.794 318.915 323.618 318.232 323.618 317.432V317.128H324.914V317.416C324.914 318.237 325.176 318.883 325.698 319.352C326.221 319.821 326.904 320.056 327.746 320.056C328.6 320.056 329.261 319.837 329.73 319.4C330.21 318.952 330.45 318.392 330.45 317.72V317.592C330.45 317.101 330.333 316.707 330.098 316.408C329.864 316.099 329.544 315.875 329.138 315.736C328.744 315.587 328.306 315.512 327.826 315.512H326.002V313.896L330.274 311.16V310.968H323.89V309.8H331.65V311.608L327.474 314.296V314.488H328.274C328.904 314.488 329.48 314.605 330.002 314.84C330.536 315.064 330.957 315.405 331.266 315.864C331.586 316.312 331.746 316.877 331.746 317.56V317.736C331.746 318.44 331.581 319.053 331.25 319.576C330.92 320.099 330.456 320.504 329.858 320.792C329.261 321.08 328.557 321.224 327.746 321.224ZM337.675 321.224C336.405 321.224 335.392 320.851 334.635 320.104C333.888 319.347 333.515 318.216 333.515 316.712V314.088C333.515 312.595 333.888 311.469 334.635 310.712C335.392 309.955 336.405 309.576 337.675 309.576C338.955 309.576 339.968 309.955 340.715 310.712C341.472 311.469 341.851 312.595 341.851 314.088V316.712C341.851 318.216 341.472 319.347 340.715 320.104C339.968 320.851 338.955 321.224 337.675 321.224ZM337.675 320.056C338.635 320.056 339.355 319.768 339.835 319.192C340.315 318.616 340.555 317.811 340.555 316.776V314.008C340.555 312.973 340.309 312.173 339.819 311.608C339.328 311.032 338.613 310.744 337.675 310.744C336.736 310.744 336.021 311.032 335.531 311.608C335.051 312.184 334.811 312.984 334.811 314.008V316.776C334.811 317.821 335.051 318.632 335.531 319.208C336.011 319.773 336.725 320.056 337.675 320.056Z" fill="black"/>
<path opacity="0.4" d="M422.926 321V319.832C422.926 319.032 423.065 318.392 423.342 317.912C423.63 317.432 424.025 317.048 424.526 316.76C425.038 316.461 425.646 316.205 426.35 315.992L427.23 315.72C427.71 315.571 428.131 315.389 428.494 315.176C428.857 314.952 429.139 314.675 429.342 314.344C429.545 314.003 429.646 313.587 429.646 313.096V313.032C429.646 312.328 429.401 311.773 428.91 311.368C428.419 310.952 427.79 310.744 427.022 310.744C426.211 310.744 425.55 310.963 425.038 311.4C424.526 311.827 424.27 312.477 424.27 313.352V313.576H422.99V313.368C422.99 312.557 423.166 311.869 423.518 311.304C423.87 310.739 424.35 310.312 424.958 310.024C425.566 309.725 426.254 309.576 427.022 309.576C427.79 309.576 428.467 309.72 429.054 310.008C429.651 310.296 430.115 310.696 430.446 311.208C430.777 311.72 430.942 312.317 430.942 313V313.144C430.942 313.869 430.798 314.472 430.51 314.952C430.222 315.421 429.822 315.805 429.31 316.104C428.809 316.403 428.217 316.659 427.534 316.872L426.67 317.144C426.126 317.315 425.673 317.496 425.31 317.688C424.958 317.869 424.691 318.104 424.51 318.392C424.329 318.68 424.238 319.069 424.238 319.56V319.832H430.846V321H422.926ZM436.839 321.224C435.569 321.224 434.556 320.851 433.799 320.104C433.052 319.347 432.679 318.216 432.679 316.712V314.088C432.679 312.595 433.052 311.469 433.799 310.712C434.556 309.955 435.569 309.576 436.839 309.576C438.119 309.576 439.132 309.955 439.879 310.712C440.636 311.469 441.015 312.595 441.015 314.088V316.712C441.015 318.216 440.636 319.347 439.879 320.104C439.132 320.851 438.119 321.224 436.839 321.224ZM436.839 320.056C437.799 320.056 438.519 319.768 438.999 319.192C439.479 318.616 439.719 317.811 439.719 316.776V314.008C439.719 312.973 439.473 312.173 438.983 311.608C438.492 311.032 437.777 310.744 436.839 310.744C435.9 310.744 435.185 311.032 434.695 311.608C434.215 312.184 433.975 312.984 433.975 314.008V316.776C433.975 317.821 434.215 318.632 434.695 319.208C435.175 319.773 435.889 320.056 436.839 320.056ZM443.985 321.224C443.675 321.224 443.414 321.123 443.201 320.92C442.998 320.717 442.897 320.456 442.897 320.136C442.897 319.816 442.998 319.555 443.201 319.352C443.414 319.149 443.675 319.048 443.985 319.048C444.305 319.048 444.566 319.149 444.769 319.352C444.971 319.555 445.073 319.816 445.073 320.136C445.073 320.456 444.971 320.717 444.769 320.92C444.566 321.123 444.305 321.224 443.985 321.224ZM443.985 315.128C443.675 315.128 443.414 315.027 443.201 314.824C442.998 314.621 442.897 314.36 442.897 314.04C442.897 313.72 442.998 313.459 443.201 313.256C443.414 313.053 443.675 312.952 443.985 312.952C444.305 312.952 444.566 313.053 444.769 313.256C444.971 313.459 445.073 313.72 445.073 314.04C445.073 314.36 444.971 314.621 444.769 314.824C444.566 315.027 444.305 315.128 443.985 315.128ZM450.864 321.224C450.074 321.224 449.365 321.075 448.736 320.776C448.117 320.477 447.626 320.045 447.264 319.48C446.912 318.915 446.736 318.232 446.736 317.432V317.128H448.032V317.416C448.032 318.237 448.293 318.883 448.816 319.352C449.338 319.821 450.021 320.056 450.864 320.056C451.717 320.056 452.378 319.837 452.848 319.4C453.328 318.952 453.568 318.392 453.568 317.72V317.592C453.568 317.101 453.45 316.707 453.216 316.408C452.981 316.099 452.661 315.875 452.256 315.736C451.861 315.587 451.424 315.512 450.944 315.512H449.12V313.896L453.392 311.16V310.968H447.008V309.8H454.768V311.608L450.592 314.296V314.488H451.392C452.021 314.488 452.597 314.605 453.12 314.84C453.653 315.064 454.074 315.405 454.384 315.864C454.704 316.312 454.864 316.877 454.864 317.56V317.736C454.864 318.44 454.698 319.053 454.368 319.576C454.037 320.099 453.573 320.504 452.976 320.792C452.378 321.08 451.674 321.224 450.864 321.224ZM460.792 321.224C459.523 321.224 458.509 320.851 457.752 320.104C457.005 319.347 456.632 318.216 456.632 316.712V314.088C456.632 312.595 457.005 311.469 457.752 310.712C458.509 309.955 459.523 309.576 460.792 309.576C462.072 309.576 463.085 309.955 463.832 310.712C464.589 311.469 464.968 312.595 464.968 314.088V316.712C464.968 318.216 464.589 319.347 463.832 320.104C463.085 320.851 462.072 321.224 460.792 321.224ZM460.792 320.056C461.752 320.056 462.472 319.768 462.952 319.192C463.432 318.616 463.672 317.811 463.672 316.776V314.008C463.672 312.973 463.427 312.173 462.936 311.608C462.445 311.032 461.731 310.744 460.792 310.744C459.853 310.744 459.139 311.032 458.648 311.608C458.168 312.184 457.928 312.984 457.928 314.008V316.776C457.928 317.821 458.168 318.632 458.648 319.208C459.128 319.773 459.843 320.056 460.792 320.056Z" fill="black"/>
<path opacity="0.4" d="M546.231 321V319.832C546.231 319.032 546.369 318.392 546.647 317.912C546.935 317.432 547.329 317.048 547.831 316.76C548.343 316.461 548.951 316.205 549.655 315.992L550.535 315.72C551.015 315.571 551.436 315.389 551.799 315.176C552.161 314.952 552.444 314.675 552.647 314.344C552.849 314.003 552.951 313.587 552.951 313.096V313.032C552.951 312.328 552.705 311.773 552.215 311.368C551.724 310.952 551.095 310.744 550.327 310.744C549.516 310.744 548.855 310.963 548.343 311.4C547.831 311.827 547.575 312.477 547.575 313.352V313.576H546.295V313.368C546.295 312.557 546.471 311.869 546.823 311.304C547.175 310.739 547.655 310.312 548.263 310.024C548.871 309.725 549.559 309.576 550.327 309.576C551.095 309.576 551.772 309.72 552.359 310.008C552.956 310.296 553.42 310.696 553.751 311.208C554.081 311.72 554.247 312.317 554.247 313V313.144C554.247 313.869 554.103 314.472 553.815 314.952C553.527 315.421 553.127 315.805 552.615 316.104C552.113 316.403 551.521 316.659 550.839 316.872L549.975 317.144C549.431 317.315 548.977 317.496 548.615 317.688C548.263 317.869 547.996 318.104 547.815 318.392C547.633 318.68 547.543 319.069 547.543 319.56V319.832H554.151V321H546.231ZM555.871 321V319.832C555.871 319.032 556.01 318.392 556.287 317.912C556.575 317.432 556.97 317.048 557.471 316.76C557.983 316.461 558.591 316.205 559.295 315.992L560.175 315.72C560.655 315.571 561.077 315.389 561.439 315.176C561.802 314.952 562.085 314.675 562.287 314.344C562.49 314.003 562.591 313.587 562.591 313.096V313.032C562.591 312.328 562.346 311.773 561.855 311.368C561.365 310.952 560.735 310.744 559.967 310.744C559.157 310.744 558.495 310.963 557.983 311.4C557.471 311.827 557.215 312.477 557.215 313.352V313.576H555.935V313.368C555.935 312.557 556.111 311.869 556.463 311.304C556.815 310.739 557.295 310.312 557.903 310.024C558.511 309.725 559.199 309.576 559.967 309.576C560.735 309.576 561.413 309.72 561.999 310.008C562.597 310.296 563.061 310.696 563.391 311.208C563.722 311.72 563.887 312.317 563.887 313V313.144C563.887 313.869 563.743 314.472 563.455 314.952C563.167 315.421 562.767 315.805 562.255 316.104C561.754 316.403 561.162 316.659 560.479 316.872L559.615 317.144C559.071 317.315 558.618 317.496 558.255 317.688C557.903 317.869 557.637 318.104 557.455 318.392C557.274 318.68 557.183 319.069 557.183 319.56V319.832H563.791V321H555.871ZM566.68 321.224C566.371 321.224 566.109 321.123 565.896 320.92C565.693 320.717 565.592 320.456 565.592 320.136C565.592 319.816 565.693 319.555 565.896 319.352C566.109 319.149 566.371 319.048 566.68 319.048C567 319.048 567.261 319.149 567.464 319.352C567.667 319.555 567.768 319.816 567.768 320.136C567.768 320.456 567.667 320.717 567.464 320.92C567.261 321.123 567 321.224 566.68 321.224ZM566.68 315.128C566.371 315.128 566.109 315.027 565.896 314.824C565.693 314.621 565.592 314.36 565.592 314.04C565.592 313.72 565.693 313.459 565.896 313.256C566.109 313.053 566.371 312.952 566.68 312.952C567 312.952 567.261 313.053 567.464 313.256C567.667 313.459 567.768 313.72 567.768 314.04C567.768 314.36 567.667 314.621 567.464 314.824C567.261 315.027 567 315.128 566.68 315.128ZM573.559 321.224C572.77 321.224 572.06 321.075 571.431 320.776C570.812 320.477 570.322 320.045 569.959 319.48C569.607 318.915 569.431 318.232 569.431 317.432V317.128H570.727V317.416C570.727 318.237 570.988 318.883 571.511 319.352C572.034 319.821 572.716 320.056 573.559 320.056C574.412 320.056 575.074 319.837 575.543 319.4C576.023 318.952 576.263 318.392 576.263 317.72V317.592C576.263 317.101 576.146 316.707 575.911 316.408C575.676 316.099 575.356 315.875 574.951 315.736C574.556 315.587 574.119 315.512 573.639 315.512H571.815V313.896L576.087 311.16V310.968H569.703V309.8H577.463V311.608L573.287 314.296V314.488H574.087C574.716 314.488 575.292 314.605 575.815 314.84C576.348 315.064 576.77 315.405 577.079 315.864C577.399 316.312 577.559 316.877 577.559 317.56V317.736C577.559 318.44 577.394 319.053 577.063 319.576C576.732 320.099 576.268 320.504 575.671 320.792C575.074 321.08 574.37 321.224 573.559 321.224ZM583.487 321.224C582.218 321.224 581.205 320.851 580.447 320.104C579.701 319.347 579.327 318.216 579.327 316.712V314.088C579.327 312.595 579.701 311.469 580.447 310.712C581.205 309.955 582.218 309.576 583.487 309.576C584.767 309.576 585.781 309.955 586.527 310.712C587.285 311.469 587.663 312.595 587.663 314.088V316.712C587.663 318.216 587.285 319.347 586.527 320.104C585.781 320.851 584.767 321.224 583.487 321.224ZM583.487 320.056C584.447 320.056 585.167 319.768 585.647 319.192C586.127 318.616 586.367 317.811 586.367 316.776V314.008C586.367 312.973 586.122 312.173 585.631 311.608C585.141 311.032 584.426 310.744 583.487 310.744C582.549 310.744 581.834 311.032 581.343 311.608C580.863 312.184 580.623 312.984 580.623 314.008V316.776C580.623 317.821 580.863 318.632 581.343 319.208C581.823 319.773 582.538 320.056 583.487 320.056Z" fill="black"/>
<line opacity="0.2" x1="59" y1="113.5" x2="584" y2="113.5" stroke="#999999"/>
<line opacity="0.2" x1="59" y1="35.5" x2="584" y2="35.5" stroke="#999999"/>
<line opacity="0.2" x1="59" y1="269.5" x2="584" y2="269.5" stroke="#999999"/>
<line opacity="0.2" x1="59" y1="191.5" x2="584" y2="191.5" stroke="#999999"/>
</svg>
