<svg width="589" height="381" viewBox="0 0 589 381" fill="none" xmlns="http://www.w3.org/2000/svg">
<path opacity="0.27" d="M58 58C58 55.7909 59.7899 54 61.9991 54C62.7538 54 63.6723 54 64.9364 54C68.7202 54 69.5606 54 73.761 54C77.9613 54 78.6507 54 82.6775 54C86.7043 54 88.8991 54 93.0648 54C97.2304 54 97.0225 54 101.327 54C103.922 54 105.34 54 107 54C109.209 54 111 55.7909 111 58V320C111 322.209 109.209 324 107 324H62C59.7909 324 58 322.209 58 320V58Z" fill="#8659FF"/>
<path opacity="0.27" d="M126 58C126 55.7909 127.79 54 129.999 54C130.754 54 131.672 54 132.936 54C136.72 54 137.561 54 141.761 54C145.961 54 146.651 54 150.677 54C154.704 54 156.899 54 161.065 54C165.23 54 165.022 54 169.327 54C171.922 54 173.34 54 175 54C177.209 54 179 55.7909 179 58V320C179 322.209 177.209 324 175 324H130C127.791 324 126 322.209 126 320V58Z" fill="#8659FF"/>
<path opacity="0.27" d="M194 216C194 213.791 195.79 212 197.999 212C198.754 212 199.672 212 200.936 212C204.72 212 205.561 212 209.761 212C213.961 212 214.651 212 218.677 212C222.704 212 224.899 212 229.065 212C233.23 212 233.022 212 237.327 212C239.922 212 241.34 212 243 212C245.209 212 247 213.791 247 216V320C247 322.209 245.209 324 243 324H198C195.791 324 194 322.209 194 320V216Z" fill="#8659FF"/>
<path opacity="0.27" d="M262 135C262 132.791 263.79 131 265.999 131C266.754 131 267.672 131 268.936 131C272.72 131 273.561 131 277.761 131C281.961 131 282.651 131 286.677 131C290.704 131 292.899 131 297.065 131C301.23 131 301.022 131 305.327 131C307.922 131 309.34 131 311 131C313.209 131 315 132.791 315 135V320C315 322.209 313.209 324 311 324H266C263.791 324 262 322.209 262 320V135Z" fill="#8659FF"/>
<path opacity="0.27" d="M330 135C330 132.791 331.79 131 333.999 131C334.754 131 335.672 131 336.936 131C340.72 131 341.561 131 345.761 131C349.961 131 350.651 131 354.677 131C358.704 131 360.899 131 365.065 131C369.23 131 369.022 131 373.327 131C375.922 131 377.34 131 379 131C381.209 131 383 132.791 383 135V320C383 322.209 381.209 324 379 324H334C331.791 324 330 322.209 330 320V135Z" fill="#8659FF"/>
<path opacity="0.27" d="M398 58C398 55.7909 399.79 54 401.999 54C402.754 54 403.672 54 404.936 54C408.72 54 409.561 54 413.761 54C417.961 54 418.651 54 422.677 54C426.704 54 428.899 54 433.065 54C437.23 54 437.022 54 441.327 54C443.922 54 445.34 54 447 54C449.209 54 451 55.7909 451 58V320C451 322.209 449.209 324 447 324H402C399.791 324 398 322.209 398 320V58Z" fill="#8659FF"/>
<path opacity="0.27" d="M466 135C466 132.791 467.79 131 469.999 131C470.754 131 471.672 131 472.936 131C476.72 131 477.561 131 481.761 131C485.961 131 486.651 131 490.677 131C494.704 131 496.899 131 501.065 131C505.23 131 505.022 131 509.327 131C511.922 131 513.34 131 515 131C517.209 131 519 132.791 519 135V320C519 322.209 517.209 324 515 324H470C467.791 324 466 322.209 466 320V135Z" fill="#8659FF"/>
<path opacity="0.27" d="M534 216C534 213.791 535.79 212 537.999 212C538.754 212 539.672 212 540.936 212C544.72 212 545.561 212 549.761 212C553.961 212 554.651 212 558.677 212C562.704 212 564.899 212 569.065 212C573.23 212 573.022 212 577.327 212C579.922 212 581.34 212 583 212C585.209 212 587 213.791 587 216V320C587 322.209 585.209 324 583 324H538C535.791 324 534 322.209 534 320V216Z" fill="#8659FF"/>
<path opacity="0.4" d="M4.848 18.224C4.05867 18.224 3.34933 18.0747 2.72 17.776C2.10133 17.4773 1.61067 17.0453 1.248 16.48C0.896 15.9147 0.72 15.232 0.72 14.432V14.128H2.016V14.416C2.016 15.2373 2.27733 15.8827 2.8 16.352C3.32267 16.8213 4.00533 17.056 4.848 17.056C5.70133 17.056 6.36267 16.8373 6.832 16.4C7.312 15.952 7.552 15.392 7.552 14.72V14.592C7.552 14.1013 7.43467 13.7067 7.2 13.408C6.96533 13.0987 6.64533 12.8747 6.24 12.736C5.84533 12.5867 5.408 12.512 4.928 12.512H3.104V10.896L7.376 8.16V7.968H0.992V6.8H8.752V8.608L4.576 11.296V11.488H5.376C6.00533 11.488 6.58133 11.6053 7.104 11.84C7.63733 12.064 8.05867 12.4053 8.368 12.864C8.688 13.312 8.848 13.8773 8.848 14.56V14.736C8.848 15.44 8.68267 16.0533 8.352 16.576C8.02133 17.0987 7.55733 17.504 6.96 17.792C6.36267 18.08 5.65867 18.224 4.848 18.224Z" fill="white"/>
<path opacity="0.4" d="M0.848 96V94.832C0.848 94.032 0.986667 93.392 1.264 92.912C1.552 92.432 1.94667 92.048 2.448 91.76C2.96 91.4613 3.568 91.2053 4.272 90.992L5.152 90.72C5.632 90.5707 6.05333 90.3893 6.416 90.176C6.77867 89.952 7.06133 89.6747 7.264 89.344C7.46667 89.0027 7.568 88.5867 7.568 88.096V88.032C7.568 87.328 7.32267 86.7733 6.832 86.368C6.34133 85.952 5.712 85.744 4.944 85.744C4.13333 85.744 3.472 85.9627 2.96 86.4C2.448 86.8267 2.192 87.4773 2.192 88.352V88.576H0.912V88.368C0.912 87.5573 1.088 86.8693 1.44 86.304C1.792 85.7387 2.272 85.312 2.88 85.024C3.488 84.7253 4.176 84.576 4.944 84.576C5.712 84.576 6.38933 84.72 6.976 85.008C7.57333 85.296 8.03733 85.696 8.368 86.208C8.69867 86.72 8.864 87.3173 8.864 88V88.144C8.864 88.8693 8.72 89.472 8.432 89.952C8.144 90.4213 7.744 90.8053 7.232 91.104C6.73067 91.4027 6.13867 91.6587 5.456 91.872L4.592 92.144C4.048 92.3147 3.59467 92.496 3.232 92.688C2.88 92.8693 2.61333 93.104 2.432 93.392C2.25067 93.68 2.16 94.0693 2.16 94.56V94.832H8.768V96H0.848ZM11.6566 96.224C11.3473 96.224 11.086 96.1227 10.8726 95.92C10.67 95.7173 10.5686 95.456 10.5686 95.136C10.5686 94.816 10.67 94.5547 10.8726 94.352C11.086 94.1493 11.3473 94.048 11.6566 94.048C11.9766 94.048 12.238 94.1493 12.4406 94.352C12.6433 94.5547 12.7446 94.816 12.7446 95.136C12.7446 95.456 12.6433 95.7173 12.4406 95.92C12.238 96.1227 11.9766 96.224 11.6566 96.224ZM14.5355 96V94.832C14.5355 94.032 14.6742 93.392 14.9515 92.912C15.2395 92.432 15.6342 92.048 16.1355 91.76C16.6475 91.4613 17.2555 91.2053 17.9595 90.992L18.8395 90.72C19.3195 90.5707 19.7408 90.3893 20.1035 90.176C20.4662 89.952 20.7488 89.6747 20.9515 89.344C21.1542 89.0027 21.2555 88.5867 21.2555 88.096V88.032C21.2555 87.328 21.0102 86.7733 20.5195 86.368C20.0288 85.952 19.3995 85.744 18.6315 85.744C17.8208 85.744 17.1595 85.9627 16.6475 86.4C16.1355 86.8267 15.8795 87.4773 15.8795 88.352V88.576H14.5995V88.368C14.5995 87.5573 14.7755 86.8693 15.1275 86.304C15.4795 85.7387 15.9595 85.312 16.5675 85.024C17.1755 84.7253 17.8635 84.576 18.6315 84.576C19.3995 84.576 20.0768 84.72 20.6635 85.008C21.2608 85.296 21.7248 85.696 22.0555 86.208C22.3862 86.72 22.5515 87.3173 22.5515 88V88.144C22.5515 88.8693 22.4075 89.472 22.1195 89.952C21.8315 90.4213 21.4315 90.8053 20.9195 91.104C20.4182 91.4027 19.8262 91.6587 19.1435 91.872L18.2795 92.144C17.7355 92.3147 17.2822 92.496 16.9195 92.688C16.5675 92.8693 16.3008 93.104 16.1195 93.392C15.9382 93.68 15.8475 94.0693 15.8475 94.56V94.832H22.4555V96H14.5355ZM28.1601 96.224C27.3388 96.224 26.6295 96.0693 26.0321 95.76C25.4348 95.44 24.9708 95.0027 24.6401 94.448C24.3095 93.8827 24.1441 93.232 24.1441 92.496V92.304H25.4401V92.448C25.4401 93.2907 25.6855 93.936 26.1761 94.384C26.6668 94.832 27.3175 95.056 28.1281 95.056C28.9815 95.056 29.6481 94.816 30.1281 94.336C30.6081 93.856 30.8481 93.2 30.8481 92.368V92.224C30.8481 91.424 30.6135 90.7893 30.1441 90.32C29.6855 89.84 29.0881 89.6 28.3521 89.6C27.9255 89.6 27.5735 89.6693 27.2961 89.808C27.0188 89.936 26.8001 90.1013 26.6401 90.304C26.4801 90.496 26.3468 90.6827 26.2401 90.864H24.4801V84.8H31.8401V85.968H25.7761V89.84H26.0001C26.1175 89.6267 26.2775 89.4187 26.4801 89.216C26.6935 89.0133 26.9761 88.8427 27.3281 88.704C27.6801 88.5653 28.1175 88.496 28.6401 88.496C29.2908 88.496 29.8775 88.6453 30.4001 88.944C30.9335 89.2427 31.3548 89.6693 31.6641 90.224C31.9841 90.7787 32.1441 91.44 32.1441 92.208V92.384C32.1441 93.1413 31.9841 93.808 31.6641 94.384C31.3441 94.96 30.8855 95.4133 30.2881 95.744C29.6908 96.064 28.9815 96.224 28.1601 96.224Z" fill="white"/>
<path opacity="0.4" d="M4.112 174V163.664H3.872L1.696 167.648H0.288L2.96 162.8H5.408V174H4.112ZM8.7035 174.224C8.39417 174.224 8.13283 174.123 7.9195 173.92C7.71683 173.717 7.6155 173.456 7.6155 173.136C7.6155 172.816 7.71683 172.555 7.9195 172.352C8.13283 172.149 8.39417 172.048 8.7035 172.048C9.0235 172.048 9.28483 172.149 9.4875 172.352C9.69017 172.555 9.7915 172.816 9.7915 173.136C9.7915 173.456 9.69017 173.717 9.4875 173.92C9.28483 174.123 9.0235 174.224 8.7035 174.224ZM15.5664 174.224C14.745 174.224 14.0357 174.069 13.4384 173.76C12.841 173.44 12.377 173.003 12.0464 172.448C11.7157 171.883 11.5504 171.232 11.5504 170.496V170.304H12.8464V170.448C12.8464 171.291 13.0917 171.936 13.5824 172.384C14.073 172.832 14.7237 173.056 15.5344 173.056C16.3877 173.056 17.0544 172.816 17.5344 172.336C18.0144 171.856 18.2544 171.2 18.2544 170.368V170.224C18.2544 169.424 18.0197 168.789 17.5504 168.32C17.0917 167.84 16.4944 167.6 15.7584 167.6C15.3317 167.6 14.9797 167.669 14.7024 167.808C14.425 167.936 14.2064 168.101 14.0464 168.304C13.8864 168.496 13.753 168.683 13.6464 168.864H11.8864V162.8H19.2464V163.968H13.1824V167.84H13.4064C13.5237 167.627 13.6837 167.419 13.8864 167.216C14.0997 167.013 14.3824 166.843 14.7344 166.704C15.0864 166.565 15.5237 166.496 16.0464 166.496C16.697 166.496 17.2837 166.645 17.8064 166.944C18.3397 167.243 18.761 167.669 19.0704 168.224C19.3904 168.779 19.5504 169.44 19.5504 170.208V170.384C19.5504 171.141 19.3904 171.808 19.0704 172.384C18.7504 172.96 18.2917 173.413 17.6944 173.744C17.097 174.064 16.3877 174.224 15.5664 174.224Z" fill="white"/>
<path opacity="0.4" d="M5.12 252.224C3.85067 252.224 2.83733 251.851 2.08 251.104C1.33333 250.347 0.96 249.216 0.96 247.712V245.088C0.96 243.595 1.33333 242.469 2.08 241.712C2.83733 240.955 3.85067 240.576 5.12 240.576C6.4 240.576 7.41333 240.955 8.16 241.712C8.91733 242.469 9.296 243.595 9.296 245.088V247.712C9.296 249.216 8.91733 250.347 8.16 251.104C7.41333 251.851 6.4 252.224 5.12 252.224ZM5.12 251.056C6.08 251.056 6.8 250.768 7.28 250.192C7.76 249.616 8 248.811 8 247.776V245.008C8 243.973 7.75467 243.173 7.264 242.608C6.77333 242.032 6.05867 241.744 5.12 241.744C4.18133 241.744 3.46667 242.032 2.976 242.608C2.496 243.184 2.256 243.984 2.256 245.008V247.776C2.256 248.821 2.496 249.632 2.976 250.208C3.456 250.773 4.17067 251.056 5.12 251.056ZM12.016 252.224C11.7067 252.224 11.4453 252.123 11.232 251.92C11.0293 251.717 10.928 251.456 10.928 251.136C10.928 250.816 11.0293 250.555 11.232 250.352C11.4453 250.149 11.7067 250.048 12.016 250.048C12.336 250.048 12.5973 250.149 12.8 250.352C13.0027 250.555 13.104 250.816 13.104 251.136C13.104 251.456 13.0027 251.717 12.8 251.92C12.5973 252.123 12.336 252.224 12.016 252.224ZM15.9164 252V251.6C15.9164 251.227 15.9484 250.912 16.0124 250.656C16.0764 250.4 16.199 250.096 16.3804 249.744L20.6524 242.144V241.968H13.9964V240.8H22.0124V242.336L17.5484 250.336C17.4204 250.56 17.3297 250.763 17.2764 250.944C17.2337 251.125 17.2124 251.355 17.2124 251.632V252H15.9164ZM27.3476 252.224C26.5263 252.224 25.817 252.069 25.2196 251.76C24.6223 251.44 24.1583 251.003 23.8276 250.448C23.497 249.883 23.3316 249.232 23.3316 248.496V248.304H24.6276V248.448C24.6276 249.291 24.873 249.936 25.3636 250.384C25.8543 250.832 26.505 251.056 27.3156 251.056C28.169 251.056 28.8356 250.816 29.3156 250.336C29.7956 249.856 30.0356 249.2 30.0356 248.368V248.224C30.0356 247.424 29.801 246.789 29.3316 246.32C28.873 245.84 28.2756 245.6 27.5396 245.6C27.113 245.6 26.761 245.669 26.4836 245.808C26.2063 245.936 25.9876 246.101 25.8276 246.304C25.6676 246.496 25.5343 246.683 25.4276 246.864H23.6676V240.8H31.0276V241.968H24.9636V245.84H25.1876C25.305 245.627 25.465 245.419 25.6676 245.216C25.881 245.013 26.1636 244.843 26.5156 244.704C26.8676 244.565 27.305 244.496 27.8276 244.496C28.4783 244.496 29.065 244.645 29.5876 244.944C30.121 245.243 30.5423 245.669 30.8516 246.224C31.1716 246.779 31.3316 247.44 31.3316 248.208V248.384C31.3316 249.141 31.1716 249.808 30.8516 250.384C30.5316 250.96 30.073 251.413 29.4756 251.744C28.8783 252.064 28.169 252.224 27.3476 252.224Z" fill="white"/>
<path opacity="0.4" d="M5.12 330.224C3.85067 330.224 2.83733 329.851 2.08 329.104C1.33333 328.347 0.96 327.216 0.96 325.712V323.088C0.96 321.595 1.33333 320.469 2.08 319.712C2.83733 318.955 3.85067 318.576 5.12 318.576C6.4 318.576 7.41333 318.955 8.16 319.712C8.91733 320.469 9.296 321.595 9.296 323.088V325.712C9.296 327.216 8.91733 328.347 8.16 329.104C7.41333 329.851 6.4 330.224 5.12 330.224ZM5.12 329.056C6.08 329.056 6.8 328.768 7.28 328.192C7.76 327.616 8 326.811 8 325.776V323.008C8 321.973 7.75467 321.173 7.264 320.608C6.77333 320.032 6.05867 319.744 5.12 319.744C4.18133 319.744 3.46667 320.032 2.976 320.608C2.496 321.184 2.256 321.984 2.256 323.008V325.776C2.256 326.821 2.496 327.632 2.976 328.208C3.456 328.773 4.17067 329.056 5.12 329.056Z" fill="white"/>
<path opacity="0.4" d="M66.2917 375V364.664H66.0517L63.8757 368.648H62.4677L65.1397 363.8H67.5877V375H66.2917ZM75.2192 375V372.712H69.3792V371.176L74.0832 363.8H76.5152V371.544H78.4352V372.712H76.5152V375H75.2192ZM70.6752 371.544H75.2192V364.584H74.9952L70.6752 371.352V371.544ZM80.8832 375.224C80.5739 375.224 80.3125 375.123 80.0992 374.92C79.8965 374.717 79.7952 374.456 79.7952 374.136C79.7952 373.816 79.8965 373.555 80.0992 373.352C80.3125 373.149 80.5739 373.048 80.8832 373.048C81.2032 373.048 81.4645 373.149 81.6672 373.352C81.8699 373.555 81.9712 373.816 81.9712 374.136C81.9712 374.456 81.8699 374.717 81.6672 374.92C81.4645 375.123 81.2032 375.224 80.8832 375.224ZM80.8832 369.128C80.5739 369.128 80.3125 369.027 80.0992 368.824C79.8965 368.621 79.7952 368.36 79.7952 368.04C79.7952 367.72 79.8965 367.459 80.0992 367.256C80.3125 367.053 80.5739 366.952 80.8832 366.952C81.2032 366.952 81.4645 367.053 81.6672 367.256C81.8699 367.459 81.9712 367.72 81.9712 368.04C81.9712 368.36 81.8699 368.621 81.6672 368.824C81.4645 369.027 81.2032 369.128 80.8832 369.128ZM87.7621 375.224C86.9727 375.224 86.2634 375.075 85.6341 374.776C85.0154 374.477 84.5247 374.045 84.1621 373.48C83.8101 372.915 83.6341 372.232 83.6341 371.432V371.128H84.9301V371.416C84.9301 372.237 85.1914 372.883 85.7141 373.352C86.2367 373.821 86.9194 374.056 87.7621 374.056C88.6154 374.056 89.2767 373.837 89.7461 373.4C90.2261 372.952 90.4661 372.392 90.4661 371.72V371.592C90.4661 371.101 90.3487 370.707 90.1141 370.408C89.8794 370.099 89.5594 369.875 89.1541 369.736C88.7594 369.587 88.3221 369.512 87.8421 369.512H86.0181V367.896L90.2901 365.16V364.968H83.9061V363.8H91.6661V365.608L87.4901 368.296V368.488H88.2901C88.9194 368.488 89.4954 368.605 90.0181 368.84C90.5514 369.064 90.9727 369.405 91.2821 369.864C91.6021 370.312 91.7621 370.877 91.7621 371.56V371.736C91.7621 372.44 91.5967 373.053 91.2661 373.576C90.9354 374.099 90.4714 374.504 89.8741 374.792C89.2767 375.08 88.5727 375.224 87.7621 375.224ZM97.6903 375.224C96.421 375.224 95.4076 374.851 94.6503 374.104C93.9036 373.347 93.5303 372.216 93.5303 370.712V368.088C93.5303 366.595 93.9036 365.469 94.6503 364.712C95.4076 363.955 96.421 363.576 97.6903 363.576C98.9703 363.576 99.9836 363.955 100.73 364.712C101.488 365.469 101.866 366.595 101.866 368.088V370.712C101.866 372.216 101.488 373.347 100.73 374.104C99.9836 374.851 98.9703 375.224 97.6903 375.224ZM97.6903 374.056C98.6503 374.056 99.3703 373.768 99.8503 373.192C100.33 372.616 100.57 371.811 100.57 370.776V368.008C100.57 366.973 100.325 366.173 99.8343 365.608C99.3436 365.032 98.629 364.744 97.6903 364.744C96.7516 364.744 96.037 365.032 95.5463 365.608C95.0663 366.184 94.8263 366.984 94.8263 368.008V370.776C94.8263 371.821 95.0663 372.632 95.5463 373.208C96.0263 373.773 96.741 374.056 97.6903 374.056Z" fill="white"/>
<path opacity="0.4" d="M186.393 375V364.664H186.153L183.977 368.648H182.569L185.241 363.8H187.689V375H186.393ZM193.929 375.224C193.161 375.224 192.473 375.075 191.865 374.776C191.267 374.467 190.793 374.029 190.441 373.464C190.099 372.899 189.929 372.227 189.929 371.448V367.544C189.929 366.701 190.094 365.987 190.425 365.4C190.755 364.813 191.219 364.365 191.817 364.056C192.425 363.736 193.145 363.576 193.977 363.576C194.798 363.576 195.497 363.725 196.073 364.024C196.659 364.312 197.102 364.712 197.401 365.224C197.71 365.725 197.865 366.307 197.865 366.968H196.553C196.553 366.307 196.339 365.773 195.913 365.368C195.486 364.952 194.841 364.744 193.977 364.744C193.102 364.744 192.425 364.984 191.945 365.464C191.465 365.933 191.225 366.584 191.225 367.416V368.968H191.449C191.641 368.648 191.961 368.355 192.409 368.088C192.857 367.811 193.481 367.672 194.281 367.672C194.953 367.672 195.566 367.821 196.121 368.12C196.675 368.419 197.118 368.84 197.449 369.384C197.779 369.928 197.945 370.573 197.945 371.32V371.512C197.945 372.269 197.769 372.925 197.417 373.48C197.075 374.035 196.601 374.467 195.993 374.776C195.385 375.075 194.697 375.224 193.929 375.224ZM193.929 374.056C194.739 374.056 195.395 373.827 195.897 373.368C196.398 372.909 196.649 372.285 196.649 371.496V371.368C196.649 370.835 196.531 370.376 196.297 369.992C196.073 369.608 195.758 369.309 195.353 369.096C194.947 368.872 194.473 368.76 193.929 368.76C193.395 368.76 192.926 368.872 192.521 369.096C192.115 369.309 191.795 369.608 191.561 369.992C191.337 370.376 191.225 370.835 191.225 371.368V371.496C191.225 372.285 191.475 372.909 191.977 373.368C192.478 373.827 193.129 374.056 193.929 374.056ZM200.782 375.224C200.472 375.224 200.211 375.123 199.998 374.92C199.795 374.717 199.694 374.456 199.694 374.136C199.694 373.816 199.795 373.555 199.998 373.352C200.211 373.149 200.472 373.048 200.782 373.048C201.102 373.048 201.363 373.149 201.566 373.352C201.768 373.555 201.87 373.816 201.87 374.136C201.87 374.456 201.768 374.717 201.566 374.92C201.363 375.123 201.102 375.224 200.782 375.224ZM200.782 369.128C200.472 369.128 200.211 369.027 199.998 368.824C199.795 368.621 199.694 368.36 199.694 368.04C199.694 367.72 199.795 367.459 199.998 367.256C200.211 367.053 200.472 366.952 200.782 366.952C201.102 366.952 201.363 367.053 201.566 367.256C201.768 367.459 201.87 367.72 201.87 368.04C201.87 368.36 201.768 368.621 201.566 368.824C201.363 369.027 201.102 369.128 200.782 369.128ZM207.661 375.224C206.871 375.224 206.162 375.075 205.533 374.776C204.914 374.477 204.423 374.045 204.061 373.48C203.709 372.915 203.533 372.232 203.533 371.432V371.128H204.829V371.416C204.829 372.237 205.09 372.883 205.613 373.352C206.135 373.821 206.818 374.056 207.661 374.056C208.514 374.056 209.175 373.837 209.645 373.4C210.125 372.952 210.365 372.392 210.365 371.72V371.592C210.365 371.101 210.247 370.707 210.013 370.408C209.778 370.099 209.458 369.875 209.053 369.736C208.658 369.587 208.221 369.512 207.741 369.512H205.917V367.896L210.189 365.16V364.968H203.805V363.8H211.565V365.608L207.389 368.296V368.488H208.189C208.818 368.488 209.394 368.605 209.917 368.84C210.45 369.064 210.871 369.405 211.181 369.864C211.501 370.312 211.661 370.877 211.661 371.56V371.736C211.661 372.44 211.495 373.053 211.165 373.576C210.834 374.099 210.37 374.504 209.773 374.792C209.175 375.08 208.471 375.224 207.661 375.224ZM217.589 375.224C216.319 375.224 215.306 374.851 214.549 374.104C213.802 373.347 213.429 372.216 213.429 370.712V368.088C213.429 366.595 213.802 365.469 214.549 364.712C215.306 363.955 216.319 363.576 217.589 363.576C218.869 363.576 219.882 363.955 220.629 364.712C221.386 365.469 221.765 366.595 221.765 368.088V370.712C221.765 372.216 221.386 373.347 220.629 374.104C219.882 374.851 218.869 375.224 217.589 375.224ZM217.589 374.056C218.549 374.056 219.269 373.768 219.749 373.192C220.229 372.616 220.469 371.811 220.469 370.776V368.008C220.469 366.973 220.223 366.173 219.733 365.608C219.242 365.032 218.527 364.744 217.589 364.744C216.65 364.744 215.935 365.032 215.445 365.608C214.965 366.184 214.725 366.984 214.725 368.008V370.776C214.725 371.821 214.965 372.632 215.445 373.208C215.925 373.773 216.639 374.056 217.589 374.056Z" fill="white"/>
<path opacity="0.4" d="M306.307 375V364.664H306.067L303.891 368.648H302.483L305.155 363.8H307.603V375H306.307ZM313.859 375.224C312.995 375.224 312.243 375.096 311.603 374.84C310.973 374.573 310.483 374.205 310.131 373.736C309.789 373.256 309.619 372.696 309.619 372.056V371.88C309.619 371.325 309.736 370.867 309.971 370.504C310.205 370.141 310.488 369.864 310.819 369.672C311.16 369.469 311.475 369.341 311.763 369.288V369.08C311.475 368.995 311.176 368.856 310.867 368.664C310.568 368.472 310.317 368.211 310.115 367.88C309.923 367.549 309.827 367.144 309.827 366.664V366.488C309.827 365.88 309.997 365.363 310.339 364.936C310.691 364.499 311.171 364.163 311.779 363.928C312.387 363.693 313.08 363.576 313.859 363.576C314.648 363.576 315.341 363.693 315.939 363.928C316.547 364.163 317.021 364.499 317.363 364.936C317.715 365.363 317.891 365.88 317.891 366.488V366.664C317.891 367.144 317.795 367.549 317.603 367.88C317.411 368.211 317.165 368.472 316.867 368.664C316.568 368.856 316.269 368.995 315.971 369.08V369.288C316.269 369.341 316.584 369.469 316.915 369.672C317.245 369.864 317.523 370.141 317.747 370.504C317.981 370.867 318.099 371.325 318.099 371.88V372.056C318.099 372.696 317.928 373.256 317.587 373.736C317.245 374.205 316.755 374.573 316.115 374.84C315.485 375.096 314.733 375.224 313.859 375.224ZM313.859 374.056C314.765 374.056 315.48 373.88 316.003 373.528C316.536 373.176 316.803 372.664 316.803 371.992V371.864C316.803 371.192 316.541 370.68 316.019 370.328C315.496 369.976 314.776 369.8 313.859 369.8C312.952 369.8 312.237 369.976 311.715 370.328C311.192 370.68 310.931 371.192 310.931 371.864V371.992C310.931 372.664 311.192 373.176 311.715 373.528C312.248 373.88 312.963 374.056 313.859 374.056ZM313.859 368.632C314.712 368.632 315.379 368.472 315.859 368.152C316.349 367.821 316.595 367.357 316.595 366.76V366.632C316.595 366.024 316.349 365.56 315.859 365.24C315.368 364.909 314.701 364.744 313.859 364.744C313.016 364.744 312.349 364.909 311.859 365.24C311.368 365.56 311.123 366.024 311.123 366.632V366.76C311.123 367.357 311.368 367.821 311.859 368.152C312.349 368.472 313.016 368.632 313.859 368.632ZM320.868 375.224C320.558 375.224 320.297 375.123 320.084 374.92C319.881 374.717 319.78 374.456 319.78 374.136C319.78 373.816 319.881 373.555 320.084 373.352C320.297 373.149 320.558 373.048 320.868 373.048C321.188 373.048 321.449 373.149 321.652 373.352C321.854 373.555 321.956 373.816 321.956 374.136C321.956 374.456 321.854 374.717 321.652 374.92C321.449 375.123 321.188 375.224 320.868 375.224ZM320.868 369.128C320.558 369.128 320.297 369.027 320.084 368.824C319.881 368.621 319.78 368.36 319.78 368.04C319.78 367.72 319.881 367.459 320.084 367.256C320.297 367.053 320.558 366.952 320.868 366.952C321.188 366.952 321.449 367.053 321.652 367.256C321.854 367.459 321.956 367.72 321.956 368.04C321.956 368.36 321.854 368.621 321.652 368.824C321.449 369.027 321.188 369.128 320.868 369.128ZM327.746 375.224C326.957 375.224 326.248 375.075 325.618 374.776C325 374.477 324.509 374.045 324.146 373.48C323.794 372.915 323.618 372.232 323.618 371.432V371.128H324.914V371.416C324.914 372.237 325.176 372.883 325.698 373.352C326.221 373.821 326.904 374.056 327.746 374.056C328.6 374.056 329.261 373.837 329.73 373.4C330.21 372.952 330.45 372.392 330.45 371.72V371.592C330.45 371.101 330.333 370.707 330.098 370.408C329.864 370.099 329.544 369.875 329.138 369.736C328.744 369.587 328.306 369.512 327.826 369.512H326.002V367.896L330.274 365.16V364.968H323.89V363.8H331.65V365.608L327.474 368.296V368.488H328.274C328.904 368.488 329.48 368.605 330.002 368.84C330.536 369.064 330.957 369.405 331.266 369.864C331.586 370.312 331.746 370.877 331.746 371.56V371.736C331.746 372.44 331.581 373.053 331.25 373.576C330.92 374.099 330.456 374.504 329.858 374.792C329.261 375.08 328.557 375.224 327.746 375.224ZM337.675 375.224C336.405 375.224 335.392 374.851 334.635 374.104C333.888 373.347 333.515 372.216 333.515 370.712V368.088C333.515 366.595 333.888 365.469 334.635 364.712C335.392 363.955 336.405 363.576 337.675 363.576C338.955 363.576 339.968 363.955 340.715 364.712C341.472 365.469 341.851 366.595 341.851 368.088V370.712C341.851 372.216 341.472 373.347 340.715 374.104C339.968 374.851 338.955 375.224 337.675 375.224ZM337.675 374.056C338.635 374.056 339.355 373.768 339.835 373.192C340.315 372.616 340.555 371.811 340.555 370.776V368.008C340.555 366.973 340.309 366.173 339.819 365.608C339.328 365.032 338.613 364.744 337.675 364.744C336.736 364.744 336.021 365.032 335.531 365.608C335.051 366.184 334.811 366.984 334.811 368.008V370.776C334.811 371.821 335.051 372.632 335.531 373.208C336.011 373.773 336.725 374.056 337.675 374.056Z" fill="white"/>
<path opacity="0.4" d="M422.926 375V373.832C422.926 373.032 423.065 372.392 423.342 371.912C423.63 371.432 424.025 371.048 424.526 370.76C425.038 370.461 425.646 370.205 426.35 369.992L427.23 369.72C427.71 369.571 428.131 369.389 428.494 369.176C428.857 368.952 429.139 368.675 429.342 368.344C429.545 368.003 429.646 367.587 429.646 367.096V367.032C429.646 366.328 429.401 365.773 428.91 365.368C428.419 364.952 427.79 364.744 427.022 364.744C426.211 364.744 425.55 364.963 425.038 365.4C424.526 365.827 424.27 366.477 424.27 367.352V367.576H422.99V367.368C422.99 366.557 423.166 365.869 423.518 365.304C423.87 364.739 424.35 364.312 424.958 364.024C425.566 363.725 426.254 363.576 427.022 363.576C427.79 363.576 428.467 363.72 429.054 364.008C429.651 364.296 430.115 364.696 430.446 365.208C430.777 365.72 430.942 366.317 430.942 367V367.144C430.942 367.869 430.798 368.472 430.51 368.952C430.222 369.421 429.822 369.805 429.31 370.104C428.809 370.403 428.217 370.659 427.534 370.872L426.67 371.144C426.126 371.315 425.673 371.496 425.31 371.688C424.958 371.869 424.691 372.104 424.51 372.392C424.329 372.68 424.238 373.069 424.238 373.56V373.832H430.846V375H422.926ZM436.839 375.224C435.569 375.224 434.556 374.851 433.799 374.104C433.052 373.347 432.679 372.216 432.679 370.712V368.088C432.679 366.595 433.052 365.469 433.799 364.712C434.556 363.955 435.569 363.576 436.839 363.576C438.119 363.576 439.132 363.955 439.879 364.712C440.636 365.469 441.015 366.595 441.015 368.088V370.712C441.015 372.216 440.636 373.347 439.879 374.104C439.132 374.851 438.119 375.224 436.839 375.224ZM436.839 374.056C437.799 374.056 438.519 373.768 438.999 373.192C439.479 372.616 439.719 371.811 439.719 370.776V368.008C439.719 366.973 439.473 366.173 438.983 365.608C438.492 365.032 437.777 364.744 436.839 364.744C435.9 364.744 435.185 365.032 434.695 365.608C434.215 366.184 433.975 366.984 433.975 368.008V370.776C433.975 371.821 434.215 372.632 434.695 373.208C435.175 373.773 435.889 374.056 436.839 374.056ZM443.985 375.224C443.675 375.224 443.414 375.123 443.201 374.92C442.998 374.717 442.897 374.456 442.897 374.136C442.897 373.816 442.998 373.555 443.201 373.352C443.414 373.149 443.675 373.048 443.985 373.048C444.305 373.048 444.566 373.149 444.769 373.352C444.971 373.555 445.073 373.816 445.073 374.136C445.073 374.456 444.971 374.717 444.769 374.92C444.566 375.123 444.305 375.224 443.985 375.224ZM443.985 369.128C443.675 369.128 443.414 369.027 443.201 368.824C442.998 368.621 442.897 368.36 442.897 368.04C442.897 367.72 442.998 367.459 443.201 367.256C443.414 367.053 443.675 366.952 443.985 366.952C444.305 366.952 444.566 367.053 444.769 367.256C444.971 367.459 445.073 367.72 445.073 368.04C445.073 368.36 444.971 368.621 444.769 368.824C444.566 369.027 444.305 369.128 443.985 369.128ZM450.864 375.224C450.074 375.224 449.365 375.075 448.736 374.776C448.117 374.477 447.626 374.045 447.264 373.48C446.912 372.915 446.736 372.232 446.736 371.432V371.128H448.032V371.416C448.032 372.237 448.293 372.883 448.816 373.352C449.338 373.821 450.021 374.056 450.864 374.056C451.717 374.056 452.378 373.837 452.848 373.4C453.328 372.952 453.568 372.392 453.568 371.72V371.592C453.568 371.101 453.45 370.707 453.216 370.408C452.981 370.099 452.661 369.875 452.256 369.736C451.861 369.587 451.424 369.512 450.944 369.512H449.12V367.896L453.392 365.16V364.968H447.008V363.8H454.768V365.608L450.592 368.296V368.488H451.392C452.021 368.488 452.597 368.605 453.12 368.84C453.653 369.064 454.074 369.405 454.384 369.864C454.704 370.312 454.864 370.877 454.864 371.56V371.736C454.864 372.44 454.698 373.053 454.368 373.576C454.037 374.099 453.573 374.504 452.976 374.792C452.378 375.08 451.674 375.224 450.864 375.224ZM460.792 375.224C459.523 375.224 458.509 374.851 457.752 374.104C457.005 373.347 456.632 372.216 456.632 370.712V368.088C456.632 366.595 457.005 365.469 457.752 364.712C458.509 363.955 459.523 363.576 460.792 363.576C462.072 363.576 463.085 363.955 463.832 364.712C464.589 365.469 464.968 366.595 464.968 368.088V370.712C464.968 372.216 464.589 373.347 463.832 374.104C463.085 374.851 462.072 375.224 460.792 375.224ZM460.792 374.056C461.752 374.056 462.472 373.768 462.952 373.192C463.432 372.616 463.672 371.811 463.672 370.776V368.008C463.672 366.973 463.427 366.173 462.936 365.608C462.445 365.032 461.731 364.744 460.792 364.744C459.853 364.744 459.139 365.032 458.648 365.608C458.168 366.184 457.928 366.984 457.928 368.008V370.776C457.928 371.821 458.168 372.632 458.648 373.208C459.128 373.773 459.843 374.056 460.792 374.056Z" fill="white"/>
<path opacity="0.4" d="M546.231 375V373.832C546.231 373.032 546.369 372.392 546.647 371.912C546.935 371.432 547.329 371.048 547.831 370.76C548.343 370.461 548.951 370.205 549.655 369.992L550.535 369.72C551.015 369.571 551.436 369.389 551.799 369.176C552.161 368.952 552.444 368.675 552.647 368.344C552.849 368.003 552.951 367.587 552.951 367.096V367.032C552.951 366.328 552.705 365.773 552.215 365.368C551.724 364.952 551.095 364.744 550.327 364.744C549.516 364.744 548.855 364.963 548.343 365.4C547.831 365.827 547.575 366.477 547.575 367.352V367.576H546.295V367.368C546.295 366.557 546.471 365.869 546.823 365.304C547.175 364.739 547.655 364.312 548.263 364.024C548.871 363.725 549.559 363.576 550.327 363.576C551.095 363.576 551.772 363.72 552.359 364.008C552.956 364.296 553.42 364.696 553.751 365.208C554.081 365.72 554.247 366.317 554.247 367V367.144C554.247 367.869 554.103 368.472 553.815 368.952C553.527 369.421 553.127 369.805 552.615 370.104C552.113 370.403 551.521 370.659 550.839 370.872L549.975 371.144C549.431 371.315 548.977 371.496 548.615 371.688C548.263 371.869 547.996 372.104 547.815 372.392C547.633 372.68 547.543 373.069 547.543 373.56V373.832H554.151V375H546.231ZM555.871 375V373.832C555.871 373.032 556.01 372.392 556.287 371.912C556.575 371.432 556.97 371.048 557.471 370.76C557.983 370.461 558.591 370.205 559.295 369.992L560.175 369.72C560.655 369.571 561.077 369.389 561.439 369.176C561.802 368.952 562.085 368.675 562.287 368.344C562.49 368.003 562.591 367.587 562.591 367.096V367.032C562.591 366.328 562.346 365.773 561.855 365.368C561.365 364.952 560.735 364.744 559.967 364.744C559.157 364.744 558.495 364.963 557.983 365.4C557.471 365.827 557.215 366.477 557.215 367.352V367.576H555.935V367.368C555.935 366.557 556.111 365.869 556.463 365.304C556.815 364.739 557.295 364.312 557.903 364.024C558.511 363.725 559.199 363.576 559.967 363.576C560.735 363.576 561.413 363.72 561.999 364.008C562.597 364.296 563.061 364.696 563.391 365.208C563.722 365.72 563.887 366.317 563.887 367V367.144C563.887 367.869 563.743 368.472 563.455 368.952C563.167 369.421 562.767 369.805 562.255 370.104C561.754 370.403 561.162 370.659 560.479 370.872L559.615 371.144C559.071 371.315 558.618 371.496 558.255 371.688C557.903 371.869 557.637 372.104 557.455 372.392C557.274 372.68 557.183 373.069 557.183 373.56V373.832H563.791V375H555.871ZM566.68 375.224C566.371 375.224 566.109 375.123 565.896 374.92C565.693 374.717 565.592 374.456 565.592 374.136C565.592 373.816 565.693 373.555 565.896 373.352C566.109 373.149 566.371 373.048 566.68 373.048C567 373.048 567.261 373.149 567.464 373.352C567.667 373.555 567.768 373.816 567.768 374.136C567.768 374.456 567.667 374.717 567.464 374.92C567.261 375.123 567 375.224 566.68 375.224ZM566.68 369.128C566.371 369.128 566.109 369.027 565.896 368.824C565.693 368.621 565.592 368.36 565.592 368.04C565.592 367.72 565.693 367.459 565.896 367.256C566.109 367.053 566.371 366.952 566.68 366.952C567 366.952 567.261 367.053 567.464 367.256C567.667 367.459 567.768 367.72 567.768 368.04C567.768 368.36 567.667 368.621 567.464 368.824C567.261 369.027 567 369.128 566.68 369.128ZM573.559 375.224C572.77 375.224 572.06 375.075 571.431 374.776C570.812 374.477 570.322 374.045 569.959 373.48C569.607 372.915 569.431 372.232 569.431 371.432V371.128H570.727V371.416C570.727 372.237 570.988 372.883 571.511 373.352C572.034 373.821 572.716 374.056 573.559 374.056C574.412 374.056 575.074 373.837 575.543 373.4C576.023 372.952 576.263 372.392 576.263 371.72V371.592C576.263 371.101 576.146 370.707 575.911 370.408C575.676 370.099 575.356 369.875 574.951 369.736C574.556 369.587 574.119 369.512 573.639 369.512H571.815V367.896L576.087 365.16V364.968H569.703V363.8H577.463V365.608L573.287 368.296V368.488H574.087C574.716 368.488 575.292 368.605 575.815 368.84C576.348 369.064 576.77 369.405 577.079 369.864C577.399 370.312 577.559 370.877 577.559 371.56V371.736C577.559 372.44 577.394 373.053 577.063 373.576C576.732 374.099 576.268 374.504 575.671 374.792C575.074 375.08 574.37 375.224 573.559 375.224ZM583.487 375.224C582.218 375.224 581.205 374.851 580.447 374.104C579.701 373.347 579.327 372.216 579.327 370.712V368.088C579.327 366.595 579.701 365.469 580.447 364.712C581.205 363.955 582.218 363.576 583.487 363.576C584.767 363.576 585.781 363.955 586.527 364.712C587.285 365.469 587.663 366.595 587.663 368.088V370.712C587.663 372.216 587.285 373.347 586.527 374.104C585.781 374.851 584.767 375.224 583.487 375.224ZM583.487 374.056C584.447 374.056 585.167 373.768 585.647 373.192C586.127 372.616 586.367 371.811 586.367 370.776V368.008C586.367 366.973 586.122 366.173 585.631 365.608C585.141 365.032 584.426 364.744 583.487 364.744C582.549 364.744 581.834 365.032 581.343 365.608C580.863 366.184 580.623 366.984 580.623 368.008V370.776C580.623 371.821 580.863 372.632 581.343 373.208C581.823 373.773 582.538 374.056 583.487 374.056Z" fill="white"/>
<line opacity="0.05" x1="59" y1="11.5" x2="584" y2="11.5" stroke="white"/>
<line opacity="0.05" x1="59" y1="167.5" x2="584" y2="167.5" stroke="white"/>
<line opacity="0.05" x1="59" y1="89.5" x2="584" y2="89.5" stroke="white"/>
<line opacity="0.05" x1="59" y1="323.5" x2="584" y2="323.5" stroke="white"/>
<line opacity="0.05" x1="59" y1="245.5" x2="584" y2="245.5" stroke="white"/>
</svg>
