<svg width="587" height="381" viewBox="0 0 587 381" fill="none" xmlns="http://www.w3.org/2000/svg">
<path opacity="0.27" d="M58 145C58 142.791 59.7899 141 61.9991 141C62.7538 141 63.6723 141 64.9364 141C68.7202 141 69.5606 141 73.761 141C77.9613 141 78.6507 141 82.6775 141C86.7043 141 88.8991 141 93.0648 141C97.2304 141 97.0225 141 101.327 141C103.922 141 105.34 141 107 141C109.209 141 111 142.791 111 145V320C111 322.209 109.209 324 107 324H62C59.7909 324 58 322.209 58 320V145Z" fill="#8659FF"/>
<path opacity="0.27" d="M126 58C126 55.7909 127.79 54 129.999 54C130.754 54 131.672 54 132.936 54C136.72 54 137.561 54 141.761 54C145.961 54 146.651 54 150.677 54C154.704 54 156.899 54 161.065 54C165.23 54 165.022 54 169.327 54C171.922 54 173.34 54 175 54C177.209 54 179 55.7909 179 58V320C179 322.209 177.209 324 175 324H130C127.791 324 126 322.209 126 320V58Z" fill="#8659FF"/>
<path opacity="0.27" d="M194 58C194 55.7909 195.79 54 197.999 54C198.754 54 199.672 54 200.936 54C204.72 54 205.561 54 209.761 54C213.961 54 214.651 54 218.677 54C222.704 54 224.899 54 229.065 54C233.23 54 233.022 54 237.327 54C239.922 54 241.34 54 243 54C245.209 54 247 55.7909 247 58V320C247 322.209 245.209 324 243 324H198C195.791 324 194 322.209 194 320V58Z" fill="#8659FF"/>
<path opacity="0.27" d="M262 123C262 120.791 263.79 119 265.999 119C266.754 119 267.672 119 268.936 119C272.72 119 273.561 119 277.761 119C281.961 119 282.651 119 286.677 119C290.704 119 292.899 119 297.065 119C301.23 119 301.022 119 305.327 119C307.922 119 309.34 119 311 119C313.209 119 315 120.791 315 123V320C315 322.209 313.209 324 311 324H266C263.791 324 262 322.209 262 320V123Z" fill="#8659FF"/>
<path opacity="0.27" d="M330 100C330 97.7909 331.79 96 333.999 96C334.754 96 335.672 96 336.936 96C340.72 96 341.561 96 345.761 96C349.961 96 350.651 96 354.677 96C358.704 96 360.899 96 365.065 96C369.23 96 369.022 96 373.327 96C375.922 96 377.34 96 379 96C381.209 96 383 97.7909 383 100V320C383 322.209 381.209 324 379 324H334C331.791 324 330 322.209 330 320V100Z" fill="#8659FF"/>
<path opacity="0.27" d="M398 58C398 55.7909 399.79 54 401.999 54C402.754 54 403.672 54 404.936 54C408.72 54 409.561 54 413.761 54C417.961 54 418.651 54 422.677 54C426.704 54 428.899 54 433.065 54C437.23 54 437.022 54 441.327 54C443.922 54 445.34 54 447 54C449.209 54 451 55.7909 451 58V320C451 322.209 449.209 324 447 324H402C399.791 324 398 322.209 398 320V58Z" fill="#8659FF"/>
<path opacity="0.27" d="M466 106C466 103.791 467.79 102 469.999 102C470.754 102 471.672 102 472.936 102C476.72 102 477.561 102 481.761 102C485.961 102 486.651 102 490.677 102C494.704 102 496.899 102 501.065 102C505.23 102 505.022 102 509.327 102C511.922 102 513.34 102 515 102C517.209 102 519 103.791 519 106V320C519 322.209 517.209 324 515 324H470C467.791 324 466 322.209 466 320V106Z" fill="#8659FF"/>
<path opacity="0.27" d="M534 201C534 198.791 535.79 197 537.999 197C538.754 197 539.672 197 540.936 197C544.72 197 545.561 197 549.761 197C553.961 197 554.651 197 558.677 197C562.704 197 564.899 197 569.065 197C573.23 197 573.022 197 577.327 197C579.922 197 581.34 197 583 197C585.209 197 587 198.791 587 201V320C587 322.209 585.209 324 583 324H538C535.791 324 534 322.209 534 320V201Z" fill="#8659FF"/>
<path opacity="0.4" d="M4.96 18.224C4.192 18.224 3.504 18.0747 2.896 17.776C2.29867 17.4667 1.824 17.0293 1.472 16.464C1.13067 15.8987 0.96 15.2267 0.96 14.448V10.544C0.96 9.70133 1.12533 8.98667 1.456 8.4C1.78667 7.81333 2.25067 7.36533 2.848 7.056C3.456 6.736 4.176 6.576 5.008 6.576C5.82933 6.576 6.528 6.72533 7.104 7.024C7.69067 7.312 8.13333 7.712 8.432 8.224C8.74133 8.72533 8.896 9.30667 8.896 9.968H7.584C7.584 9.30667 7.37067 8.77333 6.944 8.368C6.51733 7.952 5.872 7.744 5.008 7.744C4.13333 7.744 3.456 7.984 2.976 8.464C2.496 8.93333 2.256 9.584 2.256 10.416V11.968H2.48C2.672 11.648 2.992 11.3547 3.44 11.088C3.888 10.8107 4.512 10.672 5.312 10.672C5.984 10.672 6.59733 10.8213 7.152 11.12C7.70667 11.4187 8.14933 11.84 8.48 12.384C8.81067 12.928 8.976 13.5733 8.976 14.32V14.512C8.976 15.2693 8.8 15.9253 8.448 16.48C8.10667 17.0347 7.632 17.4667 7.024 17.776C6.416 18.0747 5.728 18.224 4.96 18.224ZM4.96 17.056C5.77067 17.056 6.42667 16.8267 6.928 16.368C7.42933 15.9093 7.68 15.2853 7.68 14.496V14.368C7.68 13.8347 7.56267 13.376 7.328 12.992C7.104 12.608 6.78933 12.3093 6.384 12.096C5.97867 11.872 5.504 11.76 4.96 11.76C4.42667 11.76 3.95733 11.872 3.552 12.096C3.14667 12.3093 2.82667 12.608 2.592 12.992C2.368 13.376 2.256 13.8347 2.256 14.368V14.496C2.256 15.2853 2.50667 15.9093 3.008 16.368C3.50933 16.8267 4.16 17.056 4.96 17.056ZM14.9169 18.224C13.6475 18.224 12.6342 17.8507 11.8769 17.104C11.1302 16.3467 10.7569 15.216 10.7569 13.712V11.088C10.7569 9.59467 11.1302 8.46933 11.8769 7.712C12.6342 6.95467 13.6475 6.576 14.9169 6.576C16.1969 6.576 17.2102 6.95467 17.9569 7.712C18.7142 8.46933 19.0929 9.59467 19.0929 11.088V13.712C19.0929 15.216 18.7142 16.3467 17.9569 17.104C17.2102 17.8507 16.1969 18.224 14.9169 18.224ZM14.9169 17.056C15.8769 17.056 16.5969 16.768 17.0769 16.192C17.5569 15.616 17.7969 14.8107 17.7969 13.776V11.008C17.7969 9.97333 17.5515 9.17333 17.0609 8.608C16.5702 8.032 15.8555 7.744 14.9169 7.744C13.9782 7.744 13.2635 8.032 12.7729 8.608C12.2929 9.184 12.0529 9.984 12.0529 11.008V13.776C12.0529 14.8213 12.2929 15.632 12.7729 16.208C13.2529 16.7733 13.9675 17.056 14.9169 17.056Z" fill="white"/>
<path opacity="0.4" d="M6.352 96V93.712H0.512V92.176L5.216 84.8H7.648V92.544H9.568V93.712H7.648V96H6.352ZM1.808 92.544H6.352V85.584H6.128L1.808 92.352V92.544ZM14.832 96.224C14.0107 96.224 13.3013 96.0693 12.704 95.76C12.1067 95.44 11.6427 95.0027 11.312 94.448C10.9813 93.8827 10.816 93.232 10.816 92.496V92.304H12.112V92.448C12.112 93.2907 12.3573 93.936 12.848 94.384C13.3387 94.832 13.9893 95.056 14.8 95.056C15.6533 95.056 16.32 94.816 16.8 94.336C17.28 93.856 17.52 93.2 17.52 92.368V92.224C17.52 91.424 17.2853 90.7893 16.816 90.32C16.3573 89.84 15.76 89.6 15.024 89.6C14.5973 89.6 14.2453 89.6693 13.968 89.808C13.6907 89.936 13.472 90.1013 13.312 90.304C13.152 90.496 13.0187 90.6827 12.912 90.864H11.152V84.8H18.512V85.968H12.448V89.84H12.672C12.7893 89.6267 12.9493 89.4187 13.152 89.216C13.3653 89.0133 13.648 88.8427 14 88.704C14.352 88.5653 14.7893 88.496 15.312 88.496C15.9627 88.496 16.5493 88.6453 17.072 88.944C17.6053 89.2427 18.0267 89.6693 18.336 90.224C18.656 90.7787 18.816 91.44 18.816 92.208V92.384C18.816 93.1413 18.656 93.808 18.336 94.384C18.016 94.96 17.5573 95.4133 16.96 95.744C16.3627 96.064 15.6533 96.224 14.832 96.224Z" fill="white"/>
<path opacity="0.4" d="M4.848 174.224C4.05867 174.224 3.34933 174.075 2.72 173.776C2.10133 173.477 1.61067 173.045 1.248 172.48C0.896 171.915 0.72 171.232 0.72 170.432V170.128H2.016V170.416C2.016 171.237 2.27733 171.883 2.8 172.352C3.32267 172.821 4.00533 173.056 4.848 173.056C5.70133 173.056 6.36267 172.837 6.832 172.4C7.312 171.952 7.552 171.392 7.552 170.72V170.592C7.552 170.101 7.43467 169.707 7.2 169.408C6.96533 169.099 6.64533 168.875 6.24 168.736C5.84533 168.587 5.408 168.512 4.928 168.512H3.104V166.896L7.376 164.16V163.968H0.992V162.8H8.752V164.608L4.576 167.296V167.488H5.376C6.00533 167.488 6.58133 167.605 7.104 167.84C7.63733 168.064 8.05867 168.405 8.368 168.864C8.688 169.312 8.848 169.877 8.848 170.56V170.736C8.848 171.44 8.68267 172.053 8.352 172.576C8.02133 173.099 7.55733 173.504 6.96 173.792C6.36267 174.08 5.65867 174.224 4.848 174.224ZM14.7763 174.224C13.5069 174.224 12.4936 173.851 11.7363 173.104C10.9896 172.347 10.6163 171.216 10.6163 169.712V167.088C10.6163 165.595 10.9896 164.469 11.7363 163.712C12.4936 162.955 13.5069 162.576 14.7763 162.576C16.0563 162.576 17.0696 162.955 17.8163 163.712C18.5736 164.469 18.9523 165.595 18.9523 167.088V169.712C18.9523 171.216 18.5736 172.347 17.8163 173.104C17.0696 173.851 16.0563 174.224 14.7763 174.224ZM14.7763 173.056C15.7363 173.056 16.4563 172.768 16.9363 172.192C17.4163 171.616 17.6562 170.811 17.6562 169.776V167.008C17.6562 165.973 17.4109 165.173 16.9203 164.608C16.4296 164.032 15.7149 163.744 14.7763 163.744C13.8376 163.744 13.1229 164.032 12.6323 164.608C12.1523 165.184 11.9123 165.984 11.9123 167.008V169.776C11.9123 170.821 12.1523 171.632 12.6323 172.208C13.1123 172.773 13.8269 173.056 14.7763 173.056Z" fill="white"/>
<path opacity="0.4" d="M4.112 252V241.664H3.872L1.696 245.648H0.288L2.96 240.8H5.408V252H4.112ZM11.5195 252.224C10.6982 252.224 9.98883 252.069 9.3915 251.76C8.79417 251.44 8.33017 251.003 7.9995 250.448C7.66883 249.883 7.5035 249.232 7.5035 248.496V248.304H8.7995V248.448C8.7995 249.291 9.04483 249.936 9.5355 250.384C10.0262 250.832 10.6768 251.056 11.4875 251.056C12.3408 251.056 13.0075 250.816 13.4875 250.336C13.9675 249.856 14.2075 249.2 14.2075 248.368V248.224C14.2075 247.424 13.9728 246.789 13.5035 246.32C13.0448 245.84 12.4475 245.6 11.7115 245.6C11.2848 245.6 10.9328 245.669 10.6555 245.808C10.3782 245.936 10.1595 246.101 9.9995 246.304C9.8395 246.496 9.70617 246.683 9.5995 246.864H7.8395V240.8H15.1995V241.968H9.1355V245.84H9.3595C9.47683 245.627 9.63683 245.419 9.8395 245.216C10.0528 245.013 10.3355 244.843 10.6875 244.704C11.0395 244.565 11.4768 244.496 11.9995 244.496C12.6502 244.496 13.2368 244.645 13.7595 244.944C14.2928 245.243 14.7142 245.669 15.0235 246.224C15.3435 246.779 15.5035 247.44 15.5035 248.208V248.384C15.5035 249.141 15.3435 249.808 15.0235 250.384C14.7035 250.96 14.2448 251.413 13.6475 251.744C13.0502 252.064 12.3408 252.224 11.5195 252.224Z" fill="white"/>
<path opacity="0.4" d="M5.12 330.224C3.85067 330.224 2.83733 329.851 2.08 329.104C1.33333 328.347 0.96 327.216 0.96 325.712V323.088C0.96 321.595 1.33333 320.469 2.08 319.712C2.83733 318.955 3.85067 318.576 5.12 318.576C6.4 318.576 7.41333 318.955 8.16 319.712C8.91733 320.469 9.296 321.595 9.296 323.088V325.712C9.296 327.216 8.91733 328.347 8.16 329.104C7.41333 329.851 6.4 330.224 5.12 330.224ZM5.12 329.056C6.08 329.056 6.8 328.768 7.28 328.192C7.76 327.616 8 326.811 8 325.776V323.008C8 321.973 7.75467 321.173 7.264 320.608C6.77333 320.032 6.05867 319.744 5.12 319.744C4.18133 319.744 3.46667 320.032 2.976 320.608C2.496 321.184 2.256 321.984 2.256 323.008V325.776C2.256 326.821 2.496 327.632 2.976 328.208C3.456 328.773 4.17067 329.056 5.12 329.056Z" fill="white"/>
<path opacity="0.4" d="M61.4638 375.224C60.1944 375.224 59.1811 374.851 58.4238 374.104C57.6771 373.347 57.3038 372.216 57.3038 370.712V368.088C57.3038 366.595 57.6771 365.469 58.4238 364.712C59.1811 363.955 60.1944 363.576 61.4638 363.576C62.7438 363.576 63.7571 363.955 64.5038 364.712C65.2611 365.469 65.6398 366.595 65.6398 368.088V370.712C65.6398 372.216 65.2611 373.347 64.5038 374.104C63.7571 374.851 62.7438 375.224 61.4638 375.224ZM61.4638 374.056C62.4238 374.056 63.1438 373.768 63.6238 373.192C64.1038 372.616 64.3438 371.811 64.3438 370.776V368.008C64.3438 366.973 64.0984 366.173 63.6078 365.608C63.1171 365.032 62.4024 364.744 61.4638 364.744C60.5251 364.744 59.8104 365.032 59.3198 365.608C58.8398 366.184 58.5998 366.984 58.5998 368.008V370.776C58.5998 371.821 58.8398 372.632 59.3198 373.208C59.7998 373.773 60.5144 374.056 61.4638 374.056ZM67.4418 375V373.832C67.4418 373.032 67.5804 372.392 67.8578 371.912C68.1458 371.432 68.5404 371.048 69.0418 370.76C69.5538 370.461 70.1618 370.205 70.8658 369.992L71.7458 369.72C72.2258 369.571 72.6471 369.389 73.0098 369.176C73.3724 368.952 73.6551 368.675 73.8578 368.344C74.0604 368.003 74.1618 367.587 74.1618 367.096V367.032C74.1618 366.328 73.9164 365.773 73.4258 365.368C72.9351 364.952 72.3058 364.744 71.5378 364.744C70.7271 364.744 70.0658 364.963 69.5538 365.4C69.0418 365.827 68.7858 366.477 68.7858 367.352V367.576H67.5058V367.368C67.5058 366.557 67.6818 365.869 68.0338 365.304C68.3858 364.739 68.8658 364.312 69.4738 364.024C70.0818 363.725 70.7698 363.576 71.5378 363.576C72.3058 363.576 72.9831 363.72 73.5698 364.008C74.1671 364.296 74.6311 364.696 74.9618 365.208C75.2924 365.72 75.4578 366.317 75.4578 367V367.144C75.4578 367.869 75.3138 368.472 75.0258 368.952C74.7378 369.421 74.3378 369.805 73.8258 370.104C73.3244 370.403 72.7324 370.659 72.0498 370.872L71.1858 371.144C70.6418 371.315 70.1884 371.496 69.8258 371.688C69.4738 371.869 69.2071 372.104 69.0258 372.392C68.8444 372.68 68.7538 373.069 68.7538 373.56V373.832H75.3618V375H67.4418ZM81.6238 375V363.8H88.3918V365.016H82.9678V368.776H87.9598V369.992H82.9678V375H81.6238ZM93.8026 375.224C93.0133 375.224 92.32 375.059 91.7226 374.728C91.1253 374.387 90.6613 373.912 90.3306 373.304C90 372.696 89.8346 371.992 89.8346 371.192V371C89.8346 370.189 90 369.48 90.3306 368.872C90.6613 368.264 91.12 367.795 91.7066 367.464C92.2933 367.123 92.9653 366.952 93.7226 366.952C94.4586 366.952 95.1093 367.112 95.6746 367.432C96.24 367.741 96.6826 368.189 97.0026 368.776C97.3226 369.363 97.4826 370.051 97.4826 370.84V371.416H91.0986C91.1306 372.259 91.4026 372.92 91.9146 373.4C92.4266 373.869 93.0666 374.104 93.8346 374.104C94.5066 374.104 95.024 373.949 95.3866 373.64C95.7493 373.331 96.0266 372.963 96.2186 372.536L97.3066 373.064C97.1466 373.395 96.9226 373.725 96.6346 374.056C96.3573 374.387 95.9893 374.664 95.5306 374.888C95.0826 375.112 94.5066 375.224 93.8026 375.224ZM91.1146 370.376H96.2026C96.16 369.651 95.9093 369.085 95.4506 368.68C95.0026 368.275 94.4266 368.072 93.7226 368.072C93.008 368.072 92.4213 368.275 91.9626 368.68C91.504 369.085 91.2213 369.651 91.1146 370.376ZM104.023 375.224C103.213 375.224 102.578 375.069 102.119 374.76C101.671 374.451 101.346 374.099 101.143 373.704H100.919V375H99.6874V363.8H100.951V368.408H101.175C101.303 368.163 101.485 367.933 101.719 367.72C101.954 367.496 102.258 367.315 102.631 367.176C103.015 367.027 103.479 366.952 104.023 366.952C104.706 366.952 105.325 367.117 105.879 367.448C106.445 367.768 106.893 368.232 107.223 368.84C107.554 369.437 107.719 370.152 107.719 370.984V371.192C107.719 372.024 107.549 372.744 107.207 373.352C106.877 373.96 106.429 374.424 105.863 374.744C105.309 375.064 104.695 375.224 104.023 375.224ZM103.687 374.104C104.498 374.104 105.154 373.848 105.655 373.336C106.167 372.813 106.423 372.088 106.423 371.16V371.016C106.423 370.088 106.167 369.368 105.655 368.856C105.154 368.333 104.498 368.072 103.687 368.072C102.887 368.072 102.226 368.333 101.703 368.856C101.191 369.368 100.935 370.088 100.935 371.016V371.16C100.935 372.088 101.191 372.813 101.703 373.336C102.226 373.848 102.887 374.104 103.687 374.104Z" fill="white"/>
<path opacity="0.4" d="M220.284 375.224C219.015 375.224 218.001 374.851 217.244 374.104C216.497 373.347 216.124 372.216 216.124 370.712V368.088C216.124 366.595 216.497 365.469 217.244 364.712C218.001 363.955 219.015 363.576 220.284 363.576C221.564 363.576 222.577 363.955 223.324 364.712C224.081 365.469 224.46 366.595 224.46 368.088V370.712C224.46 372.216 224.081 373.347 223.324 374.104C222.577 374.851 221.564 375.224 220.284 375.224ZM220.284 374.056C221.244 374.056 221.964 373.768 222.444 373.192C222.924 372.616 223.164 371.811 223.164 370.776V368.008C223.164 366.973 222.919 366.173 222.428 365.608C221.937 365.032 221.223 364.744 220.284 364.744C219.345 364.744 218.631 365.032 218.14 365.608C217.66 366.184 217.42 366.984 217.42 368.008V370.776C217.42 371.821 217.66 372.632 218.14 373.208C218.62 373.773 219.335 374.056 220.284 374.056ZM231.766 375V372.712H225.926V371.176L230.63 363.8H233.062V371.544H234.982V372.712H233.062V375H231.766ZM227.222 371.544H231.766V364.584H231.542L227.222 371.352V371.544ZM240.803 375V363.8H247.571V365.016H242.147V368.776H247.139V369.992H242.147V375H240.803ZM252.982 375.224C252.193 375.224 251.5 375.059 250.902 374.728C250.305 374.387 249.841 373.912 249.51 373.304C249.18 372.696 249.014 371.992 249.014 371.192V371C249.014 370.189 249.18 369.48 249.51 368.872C249.841 368.264 250.3 367.795 250.886 367.464C251.473 367.123 252.145 366.952 252.902 366.952C253.638 366.952 254.289 367.112 254.854 367.432C255.42 367.741 255.862 368.189 256.182 368.776C256.502 369.363 256.662 370.051 256.662 370.84V371.416H250.278C250.31 372.259 250.582 372.92 251.094 373.4C251.606 373.869 252.246 374.104 253.014 374.104C253.686 374.104 254.204 373.949 254.566 373.64C254.929 373.331 255.206 372.963 255.398 372.536L256.486 373.064C256.326 373.395 256.102 373.725 255.814 374.056C255.537 374.387 255.169 374.664 254.71 374.888C254.262 375.112 253.686 375.224 252.982 375.224ZM250.294 370.376H255.382C255.34 369.651 255.089 369.085 254.63 368.68C254.182 368.275 253.606 368.072 252.902 368.072C252.188 368.072 251.601 368.275 251.142 368.68C250.684 369.085 250.401 369.651 250.294 370.376ZM263.203 375.224C262.392 375.224 261.758 375.069 261.299 374.76C260.851 374.451 260.526 374.099 260.323 373.704H260.099V375H258.867V363.8H260.131V368.408H260.355C260.483 368.163 260.664 367.933 260.899 367.72C261.134 367.496 261.438 367.315 261.811 367.176C262.195 367.027 262.659 366.952 263.203 366.952C263.886 366.952 264.504 367.117 265.059 367.448C265.624 367.768 266.072 368.232 266.403 368.84C266.734 369.437 266.899 370.152 266.899 370.984V371.192C266.899 372.024 266.728 372.744 266.387 373.352C266.056 373.96 265.608 374.424 265.043 374.744C264.488 375.064 263.875 375.224 263.203 375.224ZM262.867 374.104C263.678 374.104 264.334 373.848 264.835 373.336C265.347 372.813 265.603 372.088 265.603 371.16V371.016C265.603 370.088 265.347 369.368 264.835 368.856C264.334 368.333 263.678 368.072 262.867 368.072C262.067 368.072 261.406 368.333 260.883 368.856C260.371 369.368 260.115 370.088 260.115 371.016V371.16C260.115 372.088 260.371 372.813 260.883 373.336C261.406 373.848 262.067 374.104 262.867 374.104Z" fill="white"/>
<path opacity="0.4" d="M379.386 375.224C378.116 375.224 377.103 374.851 376.346 374.104C375.599 373.347 375.226 372.216 375.226 370.712V368.088C375.226 366.595 375.599 365.469 376.346 364.712C377.103 363.955 378.116 363.576 379.386 363.576C380.666 363.576 381.679 363.955 382.426 364.712C383.183 365.469 383.562 366.595 383.562 368.088V370.712C383.562 372.216 383.183 373.347 382.426 374.104C381.679 374.851 380.666 375.224 379.386 375.224ZM379.386 374.056C380.346 374.056 381.066 373.768 381.546 373.192C382.026 372.616 382.266 371.811 382.266 370.776V368.008C382.266 366.973 382.02 366.173 381.53 365.608C381.039 365.032 380.324 364.744 379.386 364.744C378.447 364.744 377.732 365.032 377.242 365.608C376.762 366.184 376.522 366.984 376.522 368.008V370.776C376.522 371.821 376.762 372.632 377.242 373.208C377.722 373.773 378.436 374.056 379.386 374.056ZM389.476 375.224C388.708 375.224 388.02 375.075 387.412 374.776C386.814 374.467 386.34 374.029 385.988 373.464C385.646 372.899 385.476 372.227 385.476 371.448V367.544C385.476 366.701 385.641 365.987 385.972 365.4C386.302 364.813 386.766 364.365 387.364 364.056C387.972 363.736 388.692 363.576 389.524 363.576C390.345 363.576 391.044 363.725 391.62 364.024C392.206 364.312 392.649 364.712 392.948 365.224C393.257 365.725 393.412 366.307 393.412 366.968H392.1C392.1 366.307 391.886 365.773 391.46 365.368C391.033 364.952 390.388 364.744 389.524 364.744C388.649 364.744 387.972 364.984 387.492 365.464C387.012 365.933 386.772 366.584 386.772 367.416V368.968H386.996C387.188 368.648 387.508 368.355 387.956 368.088C388.404 367.811 389.028 367.672 389.828 367.672C390.5 367.672 391.113 367.821 391.668 368.12C392.222 368.419 392.665 368.84 392.996 369.384C393.326 369.928 393.492 370.573 393.492 371.32V371.512C393.492 372.269 393.316 372.925 392.964 373.48C392.622 374.035 392.148 374.467 391.54 374.776C390.932 375.075 390.244 375.224 389.476 375.224ZM389.476 374.056C390.286 374.056 390.942 373.827 391.444 373.368C391.945 372.909 392.196 372.285 392.196 371.496V371.368C392.196 370.835 392.078 370.376 391.844 369.992C391.62 369.608 391.305 369.309 390.9 369.096C390.494 368.872 390.02 368.76 389.476 368.76C388.942 368.76 388.473 368.872 388.068 369.096C387.662 369.309 387.342 369.608 387.108 369.992C386.884 370.376 386.772 370.835 386.772 371.368V371.496C386.772 372.285 387.022 372.909 387.524 373.368C388.025 373.827 388.676 374.056 389.476 374.056ZM399.702 375V363.8H406.47V365.016H401.046V368.776H406.038V369.992H401.046V375H399.702ZM411.881 375.224C411.091 375.224 410.398 375.059 409.801 374.728C409.203 374.387 408.739 373.912 408.409 373.304C408.078 372.696 407.913 371.992 407.913 371.192V371C407.913 370.189 408.078 369.48 408.409 368.872C408.739 368.264 409.198 367.795 409.785 367.464C410.371 367.123 411.043 366.952 411.801 366.952C412.537 366.952 413.187 367.112 413.753 367.432C414.318 367.741 414.761 368.189 415.081 368.776C415.401 369.363 415.561 370.051 415.561 370.84V371.416H409.177C409.209 372.259 409.481 372.92 409.993 373.4C410.505 373.869 411.145 374.104 411.913 374.104C412.585 374.104 413.102 373.949 413.465 373.64C413.827 373.331 414.105 372.963 414.297 372.536L415.385 373.064C415.225 373.395 415.001 373.725 414.713 374.056C414.435 374.387 414.067 374.664 413.609 374.888C413.161 375.112 412.585 375.224 411.881 375.224ZM409.193 370.376H414.281C414.238 369.651 413.987 369.085 413.529 368.68C413.081 368.275 412.505 368.072 411.801 368.072C411.086 368.072 410.499 368.275 410.041 368.68C409.582 369.085 409.299 369.651 409.193 370.376ZM422.102 375.224C421.291 375.224 420.656 375.069 420.198 374.76C419.75 374.451 419.424 374.099 419.222 373.704H418.998V375H417.766V363.8H419.03V368.408H419.254C419.382 368.163 419.563 367.933 419.798 367.72C420.032 367.496 420.336 367.315 420.71 367.176C421.094 367.027 421.558 366.952 422.102 366.952C422.784 366.952 423.403 367.117 423.958 367.448C424.523 367.768 424.971 368.232 425.302 368.84C425.632 369.437 425.798 370.152 425.798 370.984V371.192C425.798 372.024 425.627 372.744 425.286 373.352C424.955 373.96 424.507 374.424 423.942 374.744C423.387 375.064 422.774 375.224 422.102 375.224ZM421.766 374.104C422.576 374.104 423.232 373.848 423.734 373.336C424.246 372.813 424.502 372.088 424.502 371.16V371.016C424.502 370.088 424.246 369.368 423.734 368.856C423.232 368.333 422.576 368.072 421.766 368.072C420.966 368.072 420.304 368.333 419.782 368.856C419.27 369.368 419.014 370.088 419.014 371.016V371.16C419.014 372.088 419.27 372.813 419.782 373.336C420.304 373.848 420.966 374.104 421.766 374.104Z" fill="white"/>
<path opacity="0.4" d="M538.3 375.224C537.03 375.224 536.017 374.851 535.26 374.104C534.513 373.347 534.14 372.216 534.14 370.712V368.088C534.14 366.595 534.513 365.469 535.26 364.712C536.017 363.955 537.03 363.576 538.3 363.576C539.58 363.576 540.593 363.955 541.34 364.712C542.097 365.469 542.476 366.595 542.476 368.088V370.712C542.476 372.216 542.097 373.347 541.34 374.104C540.593 374.851 539.58 375.224 538.3 375.224ZM538.3 374.056C539.26 374.056 539.98 373.768 540.46 373.192C540.94 372.616 541.18 371.811 541.18 370.776V368.008C541.18 366.973 540.934 366.173 540.444 365.608C539.953 365.032 539.238 364.744 538.3 364.744C537.361 364.744 536.646 365.032 536.156 365.608C535.676 366.184 535.436 366.984 535.436 368.008V370.776C535.436 371.821 535.676 372.632 536.156 373.208C536.636 373.773 537.35 374.056 538.3 374.056ZM548.406 375.224C547.542 375.224 546.79 375.096 546.15 374.84C545.52 374.573 545.03 374.205 544.678 373.736C544.336 373.256 544.166 372.696 544.166 372.056V371.88C544.166 371.325 544.283 370.867 544.518 370.504C544.752 370.141 545.035 369.864 545.366 369.672C545.707 369.469 546.022 369.341 546.31 369.288V369.08C546.022 368.995 545.723 368.856 545.414 368.664C545.115 368.472 544.864 368.211 544.662 367.88C544.47 367.549 544.374 367.144 544.374 366.664V366.488C544.374 365.88 544.544 365.363 544.886 364.936C545.238 364.499 545.718 364.163 546.326 363.928C546.934 363.693 547.627 363.576 548.406 363.576C549.195 363.576 549.888 363.693 550.486 363.928C551.094 364.163 551.568 364.499 551.91 364.936C552.262 365.363 552.438 365.88 552.438 366.488V366.664C552.438 367.144 552.342 367.549 552.15 367.88C551.958 368.211 551.712 368.472 551.414 368.664C551.115 368.856 550.816 368.995 550.518 369.08V369.288C550.816 369.341 551.131 369.469 551.462 369.672C551.792 369.864 552.07 370.141 552.294 370.504C552.528 370.867 552.646 371.325 552.646 371.88V372.056C552.646 372.696 552.475 373.256 552.134 373.736C551.792 374.205 551.302 374.573 550.662 374.84C550.032 375.096 549.28 375.224 548.406 375.224ZM548.406 374.056C549.312 374.056 550.027 373.88 550.55 373.528C551.083 373.176 551.35 372.664 551.35 371.992V371.864C551.35 371.192 551.088 370.68 550.566 370.328C550.043 369.976 549.323 369.8 548.406 369.8C547.499 369.8 546.784 369.976 546.262 370.328C545.739 370.68 545.478 371.192 545.478 371.864V371.992C545.478 372.664 545.739 373.176 546.262 373.528C546.795 373.88 547.51 374.056 548.406 374.056ZM548.406 368.632C549.259 368.632 549.926 368.472 550.406 368.152C550.896 367.821 551.142 367.357 551.142 366.76V366.632C551.142 366.024 550.896 365.56 550.406 365.24C549.915 364.909 549.248 364.744 548.406 364.744C547.563 364.744 546.896 364.909 546.406 365.24C545.915 365.56 545.67 366.024 545.67 366.632V366.76C545.67 367.357 545.915 367.821 546.406 368.152C546.896 368.472 547.563 368.632 548.406 368.632ZM558.788 375V363.8H565.556V365.016H560.132V368.776H565.124V369.992H560.132V375H558.788ZM570.967 375.224C570.177 375.224 569.484 375.059 568.887 374.728C568.289 374.387 567.825 373.912 567.495 373.304C567.164 372.696 566.999 371.992 566.999 371.192V371C566.999 370.189 567.164 369.48 567.495 368.872C567.825 368.264 568.284 367.795 568.871 367.464C569.457 367.123 570.129 366.952 570.887 366.952C571.623 366.952 572.273 367.112 572.839 367.432C573.404 367.741 573.847 368.189 574.167 368.776C574.487 369.363 574.647 370.051 574.647 370.84V371.416H568.263C568.295 372.259 568.567 372.92 569.079 373.4C569.591 373.869 570.231 374.104 570.999 374.104C571.671 374.104 572.188 373.949 572.551 373.64C572.913 373.331 573.191 372.963 573.383 372.536L574.471 373.064C574.311 373.395 574.087 373.725 573.799 374.056C573.521 374.387 573.153 374.664 572.695 374.888C572.247 375.112 571.671 375.224 570.967 375.224ZM568.279 370.376H573.367C573.324 369.651 573.073 369.085 572.615 368.68C572.167 368.275 571.591 368.072 570.887 368.072C570.172 368.072 569.585 368.275 569.127 368.68C568.668 369.085 568.385 369.651 568.279 370.376ZM581.187 375.224C580.377 375.224 579.742 375.069 579.283 374.76C578.835 374.451 578.51 374.099 578.307 373.704H578.083V375H576.851V363.8H578.115V368.408H578.339C578.467 368.163 578.649 367.933 578.883 367.72C579.118 367.496 579.422 367.315 579.795 367.176C580.179 367.027 580.643 366.952 581.187 366.952C581.87 366.952 582.489 367.117 583.043 367.448C583.609 367.768 584.057 368.232 584.387 368.84C584.718 369.437 584.883 370.152 584.883 370.984V371.192C584.883 372.024 584.713 372.744 584.371 373.352C584.041 373.96 583.593 374.424 583.027 374.744C582.473 375.064 581.859 375.224 581.187 375.224ZM580.851 374.104C581.662 374.104 582.318 373.848 582.819 373.336C583.331 372.813 583.587 372.088 583.587 371.16V371.016C583.587 370.088 583.331 369.368 582.819 368.856C582.318 368.333 581.662 368.072 580.851 368.072C580.051 368.072 579.39 368.333 578.867 368.856C578.355 369.368 578.099 370.088 578.099 371.016V371.16C578.099 372.088 578.355 372.813 578.867 373.336C579.39 373.848 580.051 374.104 580.851 374.104Z" fill="white"/>
<line opacity="0.05" x1="59" y1="11.5" x2="584" y2="11.5" stroke="white"/>
<line opacity="0.05" x1="59" y1="167.5" x2="584" y2="167.5" stroke="white"/>
<line opacity="0.05" x1="59" y1="89.5" x2="584" y2="89.5" stroke="white"/>
<line opacity="0.05" x1="59" y1="323.5" x2="584" y2="323.5" stroke="white"/>
<line opacity="0.05" x1="59" y1="245.5" x2="584" y2="245.5" stroke="white"/>
</svg>
