<svg width="21" height="18" viewBox="0 0 21 18" fill="none" xmlns="http://www.w3.org/2000/svg">
<path d="M16.8065 14.1234C17.0014 13.9225 17.1887 13.7215 17.3836 13.5205C17.6608 13.2343 17.9231 12.9359 18.2079 12.6557C18.635 12.2294 19.3619 12.1624 19.8865 12.4974C20.4036 12.8262 20.501 13.4231 20.0888 13.8616C18.9048 15.1039 17.7208 16.3463 16.5293 17.5826C15.9897 18.1429 15.0979 18.1368 14.5659 17.5704C13.3819 16.2976 12.2053 15.0187 11.0363 13.7458C10.6166 13.2952 10.7215 12.6923 11.2461 12.3634C11.7782 12.0345 12.4976 12.1198 12.9397 12.5705C13.1795 12.8141 13.4043 13.0698 13.6292 13.3134C13.854 13.5571 14.0788 13.7946 14.3636 14.0321C14.3636 13.9468 14.3636 13.8676 14.3636 13.7824C14.3636 9.7264 14.3636 5.67041 14.3636 1.60834C14.3636 1.29165 14.4235 0.99933 14.7158 0.773998C15.083 0.493854 15.5101 0.402502 15.9822 0.554754C16.4468 0.700916 16.7091 0.987148 16.7466 1.40127C16.7541 1.49871 16.7541 1.59615 16.7541 1.69969C16.7541 5.74958 16.7541 9.79948 16.7541 13.8494C16.7541 13.9346 16.7541 14.026 16.7541 14.1112C16.7691 14.1112 16.7841 14.1173 16.8065 14.1234Z" fill="white"/>
<path d="M3.52661 4.34881C3.06199 4.83602 2.61236 5.32322 2.14025 5.80434C1.7131 6.24282 1.00118 6.30982 0.46912 5.98704C-0.070436 5.65818 -0.160362 5.06135 0.281774 4.59242C1.07612 3.75199 1.87047 2.92374 2.67231 2.0894C3.047 1.69963 3.4142 1.30987 3.78889 0.920105C4.35093 0.341549 5.2427 0.335459 5.78975 0.926195C6.95878 2.18684 8.12033 3.45357 9.28937 4.72031C9.60411 5.06135 9.67155 5.43284 9.42426 5.81043C9.19195 6.16365 8.80976 6.33418 8.31517 6.322C7.918 6.30982 7.61075 6.15147 7.37095 5.8896C6.97377 5.45721 6.5766 5.02481 6.17943 4.59242C6.13446 4.5437 6.07451 4.49497 5.97709 4.39753C5.97709 4.5437 5.97709 4.62896 5.97709 4.72031C5.97709 8.78847 5.97709 12.8505 5.97709 16.9187C5.97709 17.4912 5.63238 17.8688 5.02537 17.9784C4.35093 18.1002 3.6615 17.6922 3.60155 17.1319C3.59405 17.0283 3.59405 16.9187 3.59405 16.8152C3.59405 12.747 3.59405 8.68494 3.59405 4.61678C3.59405 4.53761 3.59405 4.45234 3.59405 4.37317C3.57157 4.36099 3.54909 4.3549 3.52661 4.34881Z" fill="white"/>
</svg>
