<svg width="51" height="51" viewBox="0 0 51 51" fill="none" xmlns="http://www.w3.org/2000/svg">
<path d="M37.0896 18.2721C36.7184 18.4396 36.3368 18.581 35.947 18.6958C36.4086 18.1645 36.7605 17.5393 36.9753 16.8551C37.0235 16.7018 36.9736 16.5339 36.8497 16.4336C36.726 16.3332 36.5542 16.3212 36.418 16.4034C35.59 16.9032 34.6967 17.2624 33.76 17.4725C32.8164 16.5341 31.5349 16 30.2101 16C27.4136 16 25.1384 18.3157 25.1384 21.162C25.1384 21.3862 25.1524 21.6091 25.1799 21.8289C21.7097 21.5188 18.4836 19.7827 16.2682 17.0167C16.1892 16.9181 16.0676 16.865 15.9431 16.8751C15.8184 16.8851 15.7065 16.9566 15.6435 17.0665C15.1942 17.8513 14.9567 18.7488 14.9567 19.662C14.9567 20.9059 15.393 22.086 16.1637 23.0081C15.9293 22.9255 15.7019 22.8223 15.4849 22.6996C15.3684 22.6336 15.2261 22.6346 15.1104 22.7022C14.9945 22.7698 14.9219 22.894 14.9189 23.0299C14.9183 23.0527 14.9183 23.0756 14.9183 23.0988C14.9183 24.9554 15.9001 26.627 17.401 27.538C17.2721 27.5249 17.1432 27.5059 17.0152 27.481C16.8832 27.4553 16.7474 27.5024 16.6584 27.6049C16.5693 27.7073 16.5398 27.85 16.5808 27.9803C17.1364 29.7458 18.5668 31.0444 20.296 31.4403C18.8618 32.3546 17.2217 32.8335 15.5 32.8335C15.1407 32.8335 14.7794 32.812 14.4258 32.7694C14.2501 32.7482 14.0822 32.8537 14.0223 33.0238C13.9625 33.1939 14.0259 33.3835 14.1754 33.481C16.3872 34.9245 18.9447 35.6875 21.5713 35.6875C26.7348 35.6875 29.9649 33.2092 31.7653 31.1301C34.0105 28.5376 35.2981 25.1062 35.2981 21.7158C35.2981 21.5741 35.296 21.4311 35.2917 21.2885C36.1775 20.6092 36.9401 19.7872 37.5607 18.8423C37.655 18.6988 37.6448 18.5091 37.5355 18.377C37.4265 18.2448 37.2447 18.2021 37.0896 18.2721Z" fill="black"/>
</svg>
