<svg width="24" height="24" viewBox="0 0 24 24" fill="none" xmlns="http://www.w3.org/2000/svg">
<circle cx="12" cy="12" r="11.5" stroke="#999999"/>
<path d="M10.792 15.008V14.032C10.792 13.5413 10.8827 13.1573 11.064 12.88C11.2453 12.592 11.5653 12.3467 12.024 12.144L12.472 11.952C13.0267 11.7173 13.4587 11.44 13.768 11.12C14.0773 10.7893 14.232 10.3307 14.232 9.744C14.232 9.30667 14.12 8.93867 13.896 8.64C13.672 8.34133 13.368 8.112 12.984 7.952C12.6 7.792 12.168 7.712 11.688 7.712C11.208 7.712 10.76 7.79733 10.344 7.968C9.93867 8.128 9.608 8.37867 9.352 8.72C9.10667 9.05067 8.984 9.472 8.984 9.984V10.544H7.688V9.984C7.688 9.248 7.85867 8.62933 8.2 8.128C8.552 7.616 9.02667 7.232 9.624 6.976C10.232 6.70933 10.92 6.576 11.688 6.576C12.4453 6.576 13.112 6.71467 13.688 6.992C14.2747 7.25867 14.728 7.632 15.048 8.112C15.3787 8.58133 15.544 9.12533 15.544 9.744C15.544 10.352 15.4267 10.8587 15.192 11.264C14.968 11.6587 14.6747 11.9893 14.312 12.256C13.9493 12.512 13.5493 12.736 13.112 12.928L12.68 13.12C12.4773 13.2053 12.3333 13.3173 12.248 13.456C12.1627 13.5947 12.12 13.792 12.12 14.048V15.008H10.792ZM11.48 18.224C11.16 18.224 10.8987 18.1227 10.696 17.92C10.4933 17.7173 10.392 17.456 10.392 17.136C10.392 16.816 10.4933 16.5547 10.696 16.352C10.8987 16.1493 11.16 16.048 11.48 16.048C11.7893 16.048 12.0453 16.1493 12.248 16.352C12.4613 16.5547 12.568 16.816 12.568 17.136C12.568 17.456 12.4613 17.7173 12.248 17.92C12.0453 18.1227 11.7893 18.224 11.48 18.224Z" fill="#999999"/>
</svg>
